<svg xmlns="http://www.w3.org/2000/svg" xmlns:xlink="http://www.w3.org/1999/xlink" width="400" height="297" viewBox="0 0 400 297">
  <defs>
    <clipPath id="clip-path">
      <rect id="Rectángulo_414857" data-name="Rectángulo 414857" width="400" height="297" transform="translate(1020 793)" fill="#fff" stroke="#707070" stroke-width="1"/>
    </clipPath>
  </defs>
  <g id="Enmascarar_grupo_1098796" data-name="Enmascarar grupo 1098796" transform="translate(-1020 -793)" clip-path="url(#clip-path)">
    <g id="Grupo_1179826" data-name="Grupo 1179826" transform="translate(1020 778.781)">
      <g id="BACKGROUND" transform="translate(23.924 22.439)">
        <path id="Trazado_1032727" data-name="Trazado 1032727" d="M389.616,274.779c0,75.633-133.929,81.747-201.417,81.747S66,295.212,66,219.579,147.747,103.7,216.01,88.531C316.931,66.1,389.616,199.145,389.616,274.779Z" transform="translate(-66 -86.018)" fill="#8ccff4" opacity="0.29"/>
      </g>
      <g id="OBJECTS" transform="translate(0 14.226)">
        <g id="Grupo_1179825" data-name="Grupo 1179825" transform="translate(0)">
          <path id="Trazado_1032728" data-name="Trazado 1032728" d="M348,152.185V139.027a1.072,1.072,0,0,1,1.072-1.072h10.666a1.068,1.068,0,0,0,1.02-.765,34.487,34.487,0,0,1,3.36-7.6,1.068,1.068,0,0,0-.155-1.307l-7.7-7.7a1.073,1.073,0,0,1,0-1.517l9.3-9.3a1.073,1.073,0,0,1,1.517,0l7.669,7.67a1.069,1.069,0,0,0,1.311.153,34.428,34.428,0,0,1,7.626-3.409,1.069,1.069,0,0,0,.762-1.019V102.572a1.072,1.072,0,0,1,1.072-1.072h13.158a1.072,1.072,0,0,1,1.072,1.072v9.681a1.07,1.07,0,0,0,.874,1.047,34.394,34.394,0,0,1,8.869,3.042,1.067,1.067,0,0,0,1.241-.192l6.384-6.384a1.073,1.073,0,0,1,1.517,0l9.3,9.3a1.073,1.073,0,0,1,0,1.517l-5.506,5.506a1.071,1.071,0,0,0-.112,1.375,34.52,34.52,0,0,1,4.727,9.722,1.067,1.067,0,0,0,1.02.765h7.065a1.072,1.072,0,0,1,1.072,1.072v13.158a1.072,1.072,0,0,1-1.072,1.072h-6.216a1.071,1.071,0,0,0-1.047.87,34.435,34.435,0,0,1-4.265,11,1.069,1.069,0,0,0,.153,1.312l4.181,4.181a1.073,1.073,0,0,1,0,1.517l-9.3,9.3a1.073,1.073,0,0,1-1.517,0l-4.208-4.209a1.069,1.069,0,0,0-1.309-.155,34.424,34.424,0,0,1-10.978,4.2,1.071,1.071,0,0,0-.874,1.048v6.305a1.072,1.072,0,0,1-1.072,1.072H385.527a1.072,1.072,0,0,1-1.072-1.072v-7.212a1.068,1.068,0,0,0-.763-1.019,34.515,34.515,0,0,1-9.612-4.693,1.07,1.07,0,0,0-1.375.112l-5.619,5.619a1.073,1.073,0,0,1-1.517,0l-9.3-9.3a1.073,1.073,0,0,1,0-1.517l6.5-6.5a1.068,1.068,0,0,0,.192-1.241,34.42,34.42,0,0,1-3.02-8.76,1.07,1.07,0,0,0-1.047-.87h-9.817A1.072,1.072,0,0,1,348,152.185Zm45.907,12.437a17.327,17.327,0,1,0-17.328-17.327A17.327,17.327,0,0,0,393.907,164.622Z" transform="translate(-348 -80.5)" fill="#8ccff4"/>
          <g id="Grupo_1179824" data-name="Grupo 1179824" transform="translate(0 28.945)">
            <g id="Grupo_1179816" data-name="Grupo 1179816">
              <path id="Trazado_1032729" data-name="Trazado 1032729" d="M292.377,246.713c24.094,37.288-29.679,67.126-62,67.126s-58.529-35.99-58.529-80.386,6.768-88.068,49.384-81.666C266.232,158.547,261.649,199.159,292.377,246.713Z" transform="translate(-31.886 -134.473)" fill="#a03c64"/>
              <g id="Grupo_1179787" data-name="Grupo 1179787" transform="translate(223.373)">
                <g id="Grupo_1179784" data-name="Grupo 1179784" transform="translate(0)">
                  <g id="Grupo_1179782" data-name="Grupo 1179782" transform="translate(17.315)">
                    <path id="Trazado_1032730" data-name="Trazado 1032730" d="M189.446,186.665c-4.312,25.551-29.322,40.171-58.8,40.171s-53.38-21.006-53.38-46.918S101.162,133,130.643,133,194.831,154.757,189.446,186.665Z" transform="translate(-77.264 -133)" fill="#131e56"/>
                    <path id="Trazado_1032731" data-name="Trazado 1032731" d="M190.677,183.619c0,17.3-16.409,33.388-36.484,33.388s-36.349-14.024-36.349-31.324,16.544-32.758,36.619-32.758S190.677,166.319,190.677,183.619Z" transform="translate(-115.225 -134.616)" fill="#8ccff4"/>
                    <path id="Trazado_1032732" data-name="Trazado 1032732" d="M142.276,252.185l.428.231a28.834,28.834,0,0,0,27.76-.231h0l-2.763-32.6H145.593Z" transform="translate(-117.463 -140.023)" fill="#a64d49"/>
                    <path id="Trazado_1032733" data-name="Trazado 1032733" d="M143.727,238.949a18.858,18.858,0,0,0,25.279.675l-1.343-21.756H145.288Z" transform="translate(-117.338 -139.884)" fill="#913a3a"/>
                    <g id="Grupo_1179781" data-name="Grupo 1179781" transform="translate(0.932 27.61)">
                      <g id="Grupo_1179774" data-name="Grupo 1179774" transform="translate(0 31.665)">
                        <ellipse id="Elipse_13071" data-name="Elipse 13071" cx="8.567" cy="7.853" rx="8.567" ry="7.853" fill="#a64d49"/>
                        <path id="Trazado_1032734" data-name="Trazado 1032734" d="M185.751,197.507a9.015,9.015,0,0,0-5.455,1.8,9.257,9.257,0,0,1,2.6-.37c4.731,0,8.567,3.516,8.567,7.853a7.6,7.6,0,0,1-3.111,6.055,7.961,7.961,0,0,0,5.966-7.483C194.318,201.023,190.483,197.507,185.751,197.507Z" transform="translate(-177.185 -197.507)" fill="#913a3a"/>
                        <path id="Trazado_1032735" data-name="Trazado 1032735" d="M189.1,204.757s2.38-.476,4.759,3.807" transform="translate(-184.816 -198.094)" fill="none" stroke="#1c1e33" stroke-linecap="round" stroke-miterlimit="10" stroke-width="0.518"/>
                        <path id="Trazado_1032736" data-name="Trazado 1032736" d="M190.752,207.492a2.067,2.067,0,0,1,3-1.013" transform="translate(-186.23 -198.212)" fill="none" stroke="#1c1e33" stroke-linecap="round" stroke-miterlimit="10" stroke-width="0.518"/>
                      </g>
                      <g id="Grupo_1179775" data-name="Grupo 1179775" transform="translate(61.645 31.665)">
                        <ellipse id="Elipse_13072" data-name="Elipse 13072" cx="8.567" cy="7.853" rx="8.567" ry="7.853" transform="translate(0)" fill="#a64d49"/>
                        <path id="Trazado_1032737" data-name="Trazado 1032737" d="M125.161,197.507a9.015,9.015,0,0,1,5.455,1.8,9.257,9.257,0,0,0-2.6-.37c-4.731,0-8.567,3.516-8.567,7.853a7.6,7.6,0,0,0,3.111,6.055,7.961,7.961,0,0,1-5.966-7.483C116.594,201.023,120.43,197.507,125.161,197.507Z" transform="translate(-116.594 -197.507)" fill="#913a3a"/>
                        <path id="Trazado_1032738" data-name="Trazado 1032738" d="M122.63,204.757s-2.38-.476-4.759,3.807" transform="translate(-109.78 -198.094)" fill="none" stroke="#1c1e33" stroke-linecap="round" stroke-miterlimit="10" stroke-width="0.518"/>
                        <path id="Trazado_1032739" data-name="Trazado 1032739" d="M121.132,207.492a2.066,2.066,0,0,0-3-1.013" transform="translate(-108.52 -198.212)" fill="none" stroke="#1c1e33" stroke-linecap="round" stroke-miterlimit="10" stroke-width="0.518"/>
                      </g>
                      <g id="Grupo_1179780" data-name="Grupo 1179780" transform="translate(4.963)">
                        <path id="Trazado_1032740" data-name="Trazado 1032740" d="M123.737,196.484c0,21.519,15.708,35.648,24.1,35.648,9.374,0,40.045-14.129,40.045-35.648s-14.359-33.437-32.071-33.437S123.737,174.965,123.737,196.484Z" transform="translate(-123.737 -163.047)" fill="#a64d49"/>
                        <g id="Grupo_1179776" data-name="Grupo 1179776" transform="translate(1.046 25.922)">
                          <path id="Trazado_1032741" data-name="Trazado 1032741" d="M178.925,199.127c0,3.815,2.722.893,6.079.893s6.079,2.922,6.079-.893-2.722-6.909-6.079-6.909S178.925,195.312,178.925,199.127Z" transform="translate(-178.7 -191.335)" fill="#913a3a" opacity="0.49"/>
                          <path id="Trazado_1032742" data-name="Trazado 1032742" d="M179.745,196.23a6.854,6.854,0,0,1,1.534-2.823,6.476,6.476,0,0,1,2.782-1.8,8.919,8.919,0,0,1,3.324-.32c.546.059,1.085.159,1.629.253l1.57.435a1.077,1.077,0,1,1-.575,2.077,1,1,0,0,1-.128-.044l-.095-.04-1.311-.556c-.445-.134-.894-.283-1.347-.4a7.4,7.4,0,0,0-2.728-.1,5.31,5.31,0,0,0-2.454,1.173,6.139,6.139,0,0,0-1.669,2.3l-.012.028a.276.276,0,0,1-.52-.179Z" transform="translate(-179.735 -191.257)" fill="#172168"/>
                        </g>
                        <g id="Grupo_1179777" data-name="Grupo 1179777" transform="translate(33.327 25.92)">
                          <path id="Trazado_1032743" data-name="Trazado 1032743" d="M156.2,199.127c0,3.815-2.722.893-6.079.893s-6.079,2.922-6.079-.893,2.722-6.909,6.079-6.909S156.2,195.312,156.2,199.127Z" transform="translate(-144.039 -191.333)" fill="#913a3a" opacity="0.49"/>
                          <path id="Trazado_1032744" data-name="Trazado 1032744" d="M154.89,196.38a6.138,6.138,0,0,0-1.669-2.3,5.314,5.314,0,0,0-2.454-1.173,10.76,10.76,0,0,0-3.271.318c-.453.112-.359.046-.8.18l-1.311.556-.089.038a1.077,1.077,0,0,1-.841-1.984c.042-.017.09-.034.133-.047l1.57-.435c.544-.094,1.082-.194,1.629-.253a8.921,8.921,0,0,1,3.324.32,6.475,6.475,0,0,1,2.782,1.8,6.848,6.848,0,0,1,1.534,2.823.275.275,0,0,1-.52.178Z" transform="translate(-143.047 -191.255)" fill="#172168"/>
                        </g>
                        <path id="Trazado_1032745" data-name="Trazado 1032745" d="M151.045,209.891c.846,2.933-1.2,6.1-4.575,7.072s-6.792-.616-7.639-3.549,1.968-3.444,5.342-4.417S150.2,206.958,151.045,209.891Z" transform="translate(-100.825 -166.692)" fill="#cc5858"/>
                        <g id="Grupo_1179779" data-name="Grupo 1179779" transform="translate(20.227 34.881)">
                          <g id="Grupo_1179778" data-name="Grupo 1179778" transform="translate(0 3.958)">
                            <ellipse id="Elipse_13073" data-name="Elipse 13073" cx="2.763" cy="1.507" rx="2.763" ry="1.507" transform="translate(0.112)" fill="#913a3a"/>
                            <path id="Trazado_1032746" data-name="Trazado 1032746" d="M165.513,206.825s2.763-3.316,5.527,0" transform="translate(-165.513 -205.318)" fill="none" stroke="#1c1e33" stroke-linecap="round" stroke-miterlimit="10" stroke-width="0.601"/>
                          </g>
                          <path id="Trazado_1032747" data-name="Trazado 1032747" d="M167.2,201.5a1.531,1.531,0,0,1,2.211,0" transform="translate(-165.426 -201.007)" fill="none" stroke="#913a3a" stroke-linecap="round" stroke-miterlimit="10" stroke-width="0.301"/>
                        </g>
                        <path id="Trazado_1032748" data-name="Trazado 1032748" d="M185.917,215.843a5.739,5.739,0,0,0,6.12-3.812c.846-2.933-1.968-3.444-5.342-4.417-1.206-.348-2.319-.7-3.292-.889A41.713,41.713,0,0,0,185.917,215.843Z" transform="translate(-182.873 -166.59)" fill="#cc5858"/>
                      </g>
                    </g>
                    <path id="Trazado_1032749" data-name="Trazado 1032749" d="M171.965,156.375s2.838-11.542-13.056-14C158.911,142.374,150.4,150.51,171.965,156.375Z" transform="translate(-132.923 -133.76)" fill="#8ccff4"/>
                    <path id="Trazado_1032750" data-name="Trazado 1032750" d="M142.066,156.375s-2.838-11.542,13.056-14C155.121,142.374,163.635,150.51,142.066,156.375Z" transform="translate(-103.404 -133.76)" fill="#8ccff4"/>
                  </g>
                  <path id="Trazado_1032751" data-name="Trazado 1032751" d="M208.3,285.423c-3.076-6.447-39.559-22.56-41.725-23.511a1.879,1.879,0,0,0-.1-.347l-2.869-12.08c-12.986,9.211-28.841,0-28.841,0L132.5,261.414s-36,22.693-39.174,29.336,23.889,71.97,23.889,71.97h71.261S211.471,292.067,208.3,285.423Z" transform="translate(-93.064 -142.448)" fill="#fff"/>
                  <path id="Trazado_1032752" data-name="Trazado 1032752" d="M172.712,372.716c16.948,20.03,26.578,47.378,26.578,47.378H86.044c1.926-20.03,15.408-47.378,15.408-47.378Z" transform="translate(-77.303 -152.444)" fill="#1c1e33"/>
                  <line id="Línea_755" data-name="Línea 755" y2="29.275" transform="translate(56.245 238.773)" fill="none" stroke="#fff" stroke-linecap="round" stroke-miterlimit="10" stroke-width="0.528"/>
                  <line id="Línea_756" data-name="Línea 756" x1="16.563" y1="8.859" transform="translate(48.153 233.766)" fill="none" stroke="#fff" stroke-linecap="round" stroke-miterlimit="10" stroke-width="0.528"/>
                  <g id="Grupo_1179783" data-name="Grupo 1179783" transform="translate(41.338 73.639)">
                    <path id="Trazado_1032753" data-name="Trazado 1032753" d="M173.05,213.139a7.563,7.563,0,0,1-4.33,1.872,4.583,4.583,0,0,1-2.228-.524,9.086,9.086,0,0,1-1.048-.6c-.334-.237-.651-.505-1.011-.743a10.791,10.791,0,0,0,.762,1.031,5.933,5.933,0,0,0,1,.842,4.3,4.3,0,0,0,2.543.773,4.816,4.816,0,0,0,2.524-.808A5.643,5.643,0,0,0,173.05,213.139Z" transform="translate(-164.434 -213.139)" fill="#1c1e33"/>
                  </g>
                </g>
                <g id="Grupo_1179785" data-name="Grupo 1179785" transform="translate(92.086 141.021)">
                  <path id="Trazado_1032754" data-name="Trazado 1032754" d="M79.512,286.469s34.2,37.848,34.2,44.687-42.863,51.3-42.863,51.3L58.537,366.724l27.815-34.2-19.608-21.2Z" transform="translate(-58.536 -286.469)" fill="#fff"/>
                  <line id="Línea_757" data-name="Línea 757" x2="13.68" y2="17.555" transform="translate(0 80.256)" fill="none" stroke="#fff" stroke-linecap="round" stroke-miterlimit="10" stroke-width="0.528"/>
                </g>
                <g id="Grupo_1179786" data-name="Grupo 1179786" transform="translate(25.317 61.971)">
                  <path id="Trazado_1032755" data-name="Trazado 1032755" d="M155.029,201.877s-4.308-3.231-8.616,0" transform="translate(-113.833 -200.441)" fill="none" stroke="#1c1e33" stroke-linecap="round" stroke-miterlimit="10" stroke-width="0.842"/>
                  <path id="Trazado_1032756" data-name="Trazado 1032756" d="M190.485,201.877s-4.308-3.231-8.616,0" transform="translate(-181.869 -200.441)" fill="none" stroke="#1c1e33" stroke-linecap="round" stroke-miterlimit="10" stroke-width="0.842"/>
                </g>
              </g>
              <g id="Grupo_1179801" data-name="Grupo 1179801" transform="translate(131.891 25.124)">
                <path id="Trazado_1032757" data-name="Trazado 1032757" d="M284.8,282.745s-7.18,95.3,3.947,120.15l21.142-11.5,5.564-53.411Z" transform="translate(-282.517 -170.27)" fill="#1c1e33"/>
                <g id="Grupo_1179799" data-name="Grupo 1179799" transform="translate(1.937)">
                  <g id="Grupo_1179798" data-name="Grupo 1179798">
                    <g id="Grupo_1179788" data-name="Grupo 1179788" transform="translate(9.306 191.597)">
                      <path id="Trazado_1032758" data-name="Trazado 1032758" d="M306.12,386.237" transform="translate(-306.12 -370.261)" fill="none" stroke="#fff" stroke-linecap="round" stroke-miterlimit="10" stroke-width="0.549"/>
                      <path id="Trazado_1032759" data-name="Trazado 1032759" d="M287.882,368.851" transform="translate(-271.123 -368.851)" fill="none" stroke="#fff" stroke-linecap="round" stroke-miterlimit="10" stroke-width="0.549"/>
                    </g>
                    <path id="Trazado_1032760" data-name="Trazado 1032760" d="M305.9,280.662c-3.2-6.707-41.155-23.469-43.408-24.46-.048-.229-35.453-.518-35.453-.518s-30.922,17.953-34.221,24.865,18.321,80.529,18.321,80.529h74.135S309.195,287.574,305.9,280.662Z" transform="translate(-192.471 -168.075)" fill="#1c1e33"/>
                    <path id="Trazado_1032761" data-name="Trazado 1032761" d="M275.331,370.382c17.632,20.838,27.65,49.29,27.65,49.29H185.167c2-20.838,16.029-49.29,16.029-49.29Z" transform="translate(-182.533 -177.379)" fill="#0071bc"/>
                    <g id="Grupo_1179789" data-name="Grupo 1179789" transform="translate(43.636 206.236)">
                      <line id="Línea_758" data-name="Línea 758" y2="30.456" transform="translate(8.419 5.209)" fill="none" stroke="#fff" stroke-linecap="round" stroke-miterlimit="10" stroke-width="0.549"/>
                      <line id="Línea_759" data-name="Línea 759" x1="17.231" y1="9.216" fill="none" stroke="#fff" stroke-linecap="round" stroke-miterlimit="10" stroke-width="0.549"/>
                    </g>
                    <path id="Trazado_1032762" data-name="Trazado 1032762" d="M243.434,253.075l.445.24a30,30,0,0,0,28.879-.24h0l-2.875-33.914h-23Z" transform="translate(-205.85 -165.113)" fill="#f7ab9a"/>
                    <path id="Trazado_1032763" data-name="Trazado 1032763" d="M244.942,237.655a19.618,19.618,0,0,0,26.3.7l-1.4-22.633H246.566Z" transform="translate(-205.718 -164.834)" fill="#db9589"/>
                    <g id="Grupo_1179796" data-name="Grupo 1179796" transform="translate(17.902)">
                      <g id="Grupo_1179790" data-name="Grupo 1179790" transform="translate(58.969 32.941)">
                        <ellipse id="Elipse_13074" data-name="Elipse 13074" cx="8.912" cy="8.17" rx="8.912" ry="8.17" transform="translate(0)" fill="#f7ab9a"/>
                        <path id="Trazado_1032764" data-name="Trazado 1032764" d="M225.627,196.191a9.378,9.378,0,0,1,5.676,1.871,9.648,9.648,0,0,0-2.705-.386c-4.922,0-8.912,3.657-8.912,8.17a7.909,7.909,0,0,0,3.236,6.3,8.282,8.282,0,0,1-6.207-7.784C216.715,199.849,220.7,196.191,225.627,196.191Z" transform="translate(-216.715 -196.191)" fill="#b56565"/>
                        <path id="Trazado_1032765" data-name="Trazado 1032765" d="M222.994,203.734s-2.475-.5-4.951,3.961" transform="translate(-209.626 -196.801)" fill="none" stroke="#1c1e33" stroke-linecap="round" stroke-miterlimit="10" stroke-width="0.539"/>
                        <path id="Trazado_1032766" data-name="Trazado 1032766" d="M221.435,206.58a2.15,2.15,0,0,0-3.123-1.054" transform="translate(-208.315 -196.924)" fill="none" stroke="#1c1e33" stroke-linecap="round" stroke-miterlimit="10" stroke-width="0.539"/>
                      </g>
                      <g id="Grupo_1179795" data-name="Grupo 1179795" transform="translate(0)">
                        <path id="Trazado_1032767" data-name="Trazado 1032767" d="M224.145,195.128c0,22.388,17.712,34.136,26.426,34.589,11.68.606,40.3-12.2,40.3-34.589s-14.938-34.786-33.365-34.786S224.145,172.741,224.145,195.128Z" transform="translate(-224.145 -160.342)" fill="#f7ab9a"/>
                        <g id="Grupo_1179791" data-name="Grupo 1179791" transform="translate(1.089 26.968)">
                          <path id="Trazado_1032768" data-name="Trazado 1032768" d="M281.56,197.878c0,3.97,2.832.93,6.325.93s6.325,3.04,6.325-.93-2.832-7.188-6.325-7.188S281.56,193.908,281.56,197.878Z" transform="translate(-281.327 -189.771)" fill="#db9589"/>
                          <path id="Trazado_1032769" data-name="Trazado 1032769" d="M282.414,194.863a7.14,7.14,0,0,1,1.6-2.937,6.725,6.725,0,0,1,2.894-1.874,9.289,9.289,0,0,1,3.458-.333c.568.062,1.129.165,1.694.263l1.634.452a1.121,1.121,0,1,1-.6,2.16,1.02,1.02,0,0,1-.132-.046l-.1-.042-1.365-.579c-.462-.14-.93-.294-1.4-.411a7.741,7.741,0,0,0-2.838-.107,5.539,5.539,0,0,0-2.554,1.22,6.38,6.38,0,0,0-1.736,2.388l-.012.029a.287.287,0,0,1-.541-.185Z" transform="translate(-282.403 -189.69)" fill="#a03c64"/>
                        </g>
                        <g id="Grupo_1179792" data-name="Grupo 1179792" transform="translate(34.672 26.968)">
                          <path id="Trazado_1032770" data-name="Trazado 1032770" d="M257.915,197.878c0,3.97-2.832.93-6.325.93s-6.325,3.04-6.325-.93,2.832-7.188,6.325-7.188S257.915,193.908,257.915,197.878Z" transform="translate(-245.266 -189.771)" fill="#db9589"/>
                          <path id="Trazado_1032771" data-name="Trazado 1032771" d="M256.556,195.02a6.39,6.39,0,0,0-1.736-2.388,5.536,5.536,0,0,0-2.553-1.22,11.223,11.223,0,0,0-3.4.331c-.471.117-.374.048-.836.187l-1.365.579-.093.04a1.121,1.121,0,0,1-.875-2.064,1.306,1.306,0,0,1,.139-.049l1.634-.452c.566-.1,1.127-.2,1.694-.263a9.282,9.282,0,0,1,3.457.333,6.739,6.739,0,0,1,2.894,1.874,7.124,7.124,0,0,1,1.6,2.937.287.287,0,0,1-.541.186Z" transform="translate(-244.237 -189.69)" fill="#a03c64"/>
                        </g>
                        <path id="Trazado_1032772" data-name="Trazado 1032772" d="M252.555,209.075c.88,3.051-1.251,6.345-4.76,7.358s-7.067-.64-7.947-3.692,2.048-3.583,5.557-4.6S251.675,206.025,252.555,209.075Z" transform="translate(-200.309 -164.134)" fill="#e07ea6"/>
                        <g id="Grupo_1179794" data-name="Grupo 1179794" transform="translate(21.043 36.287)">
                          <g id="Grupo_1179793" data-name="Grupo 1179793" transform="translate(0 4.119)">
                            <path id="Trazado_1032773" data-name="Trazado 1032773" d="M267.48,205.883c0,.867,1.287,1.569,2.875,1.569s2.875-.7,2.875-1.569-1.287-1.568-2.875-1.568S267.48,205.016,267.48,205.883Z" transform="translate(-267.363 -204.315)" fill="#db9589"/>
                            <path id="Trazado_1032774" data-name="Trazado 1032774" d="M267.607,205.886s2.875-3.45,5.75,0" transform="translate(-267.607 -204.318)" fill="none" stroke="#1c1e33" stroke-linecap="round" stroke-miterlimit="10" stroke-width="0.626"/>
                          </g>
                          <path id="Trazado_1032775" data-name="Trazado 1032775" d="M269.357,200.344a1.592,1.592,0,0,1,2.3,0" transform="translate(-267.515 -199.833)" fill="none" stroke="#b56565" stroke-linecap="round" stroke-miterlimit="10" stroke-width="0.313"/>
                        </g>
                        <path id="Trazado_1032776" data-name="Trazado 1032776" d="M288.983,214.095a5.969,5.969,0,0,0,6.366-3.965c.88-3.052-2.047-3.583-5.557-4.6-1.255-.362-2.413-.733-3.425-.925A43.32,43.32,0,0,0,288.983,214.095Z" transform="translate(-285.954 -163.933)" fill="#e07ea6"/>
                      </g>
                    </g>
                    <path id="Trazado_1032777" data-name="Trazado 1032777" d="M263.414,213.716c0,1.472,2.432,4.08,5.432,4.08s5.432-2.608,5.432-4.08-2.432-1.025-5.432-1.025S263.414,212.244,263.414,213.716Z" transform="translate(-225.731 -164.583)" fill="#1c1e33"/>
                    <path id="Trazado_1032778" data-name="Trazado 1032778" d="M270.94,216.639c0-.5-.8-.906-1.789-.906s-1.789.405-1.789.906.8.906,1.789.906S270.94,217.14,270.94,216.639Z" transform="translate(-226.02 -164.835)" fill="#ef5b5b"/>
                    <path id="Trazado_1032779" data-name="Trazado 1032779" d="M257.231,201.026s-3.792-3.792-9.86,0" transform="translate(-193.941 -163.505)" fill="none" stroke="#1c1e33" stroke-linecap="round" stroke-miterlimit="10" stroke-width="0.876"/>
                    <path id="Trazado_1032780" data-name="Trazado 1032780" d="M293.053,201.026s-3.792-3.792-9.86,0" transform="translate(-262.679 -163.505)" fill="none" stroke="#1c1e33" stroke-linecap="round" stroke-miterlimit="10" stroke-width="0.876"/>
                    <g id="Grupo_1179797" data-name="Grupo 1179797" transform="translate(90.508 194.622)">
                      <line id="Línea_760" data-name="Línea 760" x2="14.232" y2="18.264" transform="translate(0)" fill="none" stroke="#fff" stroke-linecap="round" stroke-miterlimit="10" stroke-width="0.549"/>
                    </g>
                  </g>
                </g>
                <g id="Grupo_1179800" data-name="Grupo 1179800" transform="translate(91.958 110.396)">
                  <path id="Trazado_1032781" data-name="Trazado 1032781" d="M177.633,280.483s35.579,39.374,35.579,46.49-44.593,53.369-44.593,53.369l-12.808-16.366L184.749,328.4l-20.4-22.059Z" transform="translate(-155.81 -280.483)" fill="#1c1e33"/>
                  <line id="Línea_761" data-name="Línea 761" x2="14.232" y2="18.265" transform="translate(0 83.493)" fill="none" stroke="#fff" stroke-linecap="round" stroke-miterlimit="10" stroke-width="0.549"/>
                </g>
              </g>
              <g id="Grupo_1179815" data-name="Grupo 1179815" transform="translate(0 16.66)">
                <g id="Grupo_1179814" data-name="Grupo 1179814" transform="translate(0)">
                  <g id="Grupo_1179802" data-name="Grupo 1179802" transform="translate(0 114.991)">
                    <path id="Trazado_1032782" data-name="Trazado 1032782" d="M453.655,287.059c-2.917-8.593-9.79-14.291-16.628-8.324-11.912,10.394-35.265,40.723-35.894,44.954-1.045,7.039,44.257,58.545,44.257,58.545l9.758-26.136L431.8,326.826l25.159-30.032Z" transform="translate(-401.115 -276.272)" fill="#d33777"/>
                    <path id="Trazado_1032783" data-name="Trazado 1032783" d="M416.465,386.237" transform="translate(-374.726 -285.191)" fill="none" stroke="#fff" stroke-linecap="round" stroke-miterlimit="10" stroke-width="0.549"/>
                    <path id="Trazado_1032784" data-name="Trazado 1032784" d="M398.227,368.851" transform="translate(-339.729 -283.781)" fill="none" stroke="#fff" stroke-linecap="round" stroke-miterlimit="10" stroke-width="0.549"/>
                  </g>
                  <path id="Trazado_1032785" data-name="Trazado 1032785" d="M400.462,196.24s6.977,34.433-2.275,42.624-48.074,14.481-73.416,0c-10.618-6.067-3.792-49.9-3.792-49.9Z" transform="translate(-271.521 -154.199)" fill="#1c1e33"/>
                  <path id="Trazado_1032786" data-name="Trazado 1032786" d="M416.241,280.662c-3.2-6.707-41.155-23.469-43.408-24.46-.048-.229-35.453-.518-35.453-.518s-30.922,17.953-34.221,24.865,18.321,80.529,18.321,80.529h74.135S419.54,287.574,416.241,280.662Z" transform="translate(-270.383 -159.611)" fill="#e23979"/>
                  <path id="Trazado_1032787" data-name="Trazado 1032787" d="M385.676,370.382c17.633,20.838,27.65,49.29,27.65,49.29H295.512c2-20.838,16.029-49.29,16.029-49.29Z" transform="translate(-260.445 -168.915)" fill="#1c1e33"/>
                  <g id="Grupo_1179803" data-name="Grupo 1179803" transform="translate(76.069 214.7)">
                    <line id="Línea_762" data-name="Línea 762" y2="30.456" transform="translate(8.419 5.209)" fill="none" stroke="#fff" stroke-linecap="round" stroke-miterlimit="10" stroke-width="0.549"/>
                    <line id="Línea_763" data-name="Línea 763" x1="17.231" y1="9.216" fill="none" stroke="#fff" stroke-linecap="round" stroke-miterlimit="10" stroke-width="0.549"/>
                  </g>
                  <path id="Trazado_1032788" data-name="Trazado 1032788" d="M353.779,253.075l.445.24a30,30,0,0,0,28.879-.24h0l-2.875-33.914h-23Z" transform="translate(-283.762 -156.649)" fill="#d1918e"/>
                  <path id="Trazado_1032789" data-name="Trazado 1032789" d="M355.287,237.655a19.618,19.618,0,0,0,26.3.7l-1.4-22.633H356.912Z" transform="translate(-283.63 -156.37)" fill="#b56565" opacity="0.49"/>
                  <g id="Grupo_1179811" data-name="Grupo 1179811" transform="translate(45.173 8.464)">
                    <g id="Grupo_1179804" data-name="Grupo 1179804" transform="translate(0 32.941)">
                      <ellipse id="Elipse_13075" data-name="Elipse 13075" cx="8.912" cy="8.17" rx="8.912" ry="8.17" transform="translate(0)" fill="#d1918e"/>
                      <path id="Trazado_1032790" data-name="Trazado 1032790" d="M399.006,196.191a9.378,9.378,0,0,0-5.676,1.871,9.647,9.647,0,0,1,2.705-.386c4.922,0,8.912,3.657,8.912,8.17a7.909,7.909,0,0,1-3.236,6.3,8.282,8.282,0,0,0,6.207-7.784C407.918,199.849,403.927,196.191,399.006,196.191Z" transform="translate(-390.094 -196.191)" fill="#b56565"/>
                      <path id="Trazado_1032791" data-name="Trazado 1032791" d="M402.491,203.734s2.475-.5,4.951,3.961" transform="translate(-398.035 -196.801)" fill="none" stroke="#1c1e33" stroke-linecap="round" stroke-miterlimit="10" stroke-width="0.539"/>
                      <path id="Trazado_1032792" data-name="Trazado 1032792" d="M404.21,206.58a2.15,2.15,0,0,1,3.123-1.054" transform="translate(-399.506 -196.924)" fill="none" stroke="#1c1e33" stroke-linecap="round" stroke-miterlimit="10" stroke-width="0.539"/>
                    </g>
                    <g id="Grupo_1179805" data-name="Grupo 1179805" transform="translate(64.131 32.941)">
                      <ellipse id="Elipse_13076" data-name="Elipse 13076" cx="8.912" cy="8.17" rx="8.912" ry="8.17" transform="translate(0)" fill="#d1918e"/>
                      <path id="Trazado_1032793" data-name="Trazado 1032793" d="M335.972,196.191a9.378,9.378,0,0,1,5.676,1.871,9.647,9.647,0,0,0-2.705-.386c-4.922,0-8.912,3.657-8.912,8.17a7.907,7.907,0,0,0,3.237,6.3,8.283,8.283,0,0,1-6.208-7.784C327.06,199.849,331.05,196.191,335.972,196.191Z" transform="translate(-327.06 -196.191)" fill="#b56565"/>
                      <path id="Trazado_1032794" data-name="Trazado 1032794" d="M333.338,203.734s-2.475-.5-4.951,3.961" transform="translate(-319.969 -196.801)" fill="none" stroke="#1c1e33" stroke-linecap="round" stroke-miterlimit="10" stroke-width="0.539"/>
                      <path id="Trazado_1032795" data-name="Trazado 1032795" d="M331.78,206.58a2.15,2.15,0,0,0-3.123-1.054" transform="translate(-318.66 -196.924)" fill="none" stroke="#1c1e33" stroke-linecap="round" stroke-miterlimit="10" stroke-width="0.539"/>
                    </g>
                    <g id="Grupo_1179810" data-name="Grupo 1179810" transform="translate(5.162)">
                      <path id="Trazado_1032796" data-name="Trazado 1032796" d="M334.49,195.128c0,22.388,17.712,34.136,26.426,34.589,11.68.606,40.3-12.2,40.3-34.589s-14.938-34.786-33.365-34.786S334.49,172.741,334.49,195.128Z" transform="translate(-334.49 -160.342)" fill="#d1918e"/>
                      <g id="Grupo_1179806" data-name="Grupo 1179806" transform="translate(1.089 26.968)">
                        <path id="Trazado_1032797" data-name="Trazado 1032797" d="M391.905,197.878c0,3.97,2.832.93,6.325.93s6.325,3.04,6.325-.93-2.832-7.188-6.325-7.188S391.905,193.908,391.905,197.878Z" transform="translate(-391.672 -189.771)" fill="#b56565" opacity="0.49"/>
                        <path id="Trazado_1032798" data-name="Trazado 1032798" d="M392.759,194.863a7.14,7.14,0,0,1,1.6-2.937,6.731,6.731,0,0,1,2.894-1.874,9.289,9.289,0,0,1,3.458-.333c.568.062,1.129.165,1.694.263l1.634.452a1.121,1.121,0,1,1-.6,2.16,1.084,1.084,0,0,1-.133-.046l-.1-.042-1.365-.579c-.462-.14-.93-.294-1.4-.411a7.741,7.741,0,0,0-2.838-.107,5.534,5.534,0,0,0-2.554,1.22,6.38,6.38,0,0,0-1.736,2.388l-.012.029a.286.286,0,0,1-.54-.185Z" transform="translate(-392.748 -189.69)" fill="#1c1e33"/>
                      </g>
                      <g id="Grupo_1179807" data-name="Grupo 1179807" transform="translate(34.672 26.968)">
                        <path id="Trazado_1032799" data-name="Trazado 1032799" d="M368.26,197.878c0,3.97-2.832.93-6.325.93s-6.325,3.04-6.325-.93,2.832-7.188,6.325-7.188S368.26,193.908,368.26,197.878Z" transform="translate(-355.611 -189.771)" fill="#b56565" opacity="0.49"/>
                        <path id="Trazado_1032800" data-name="Trazado 1032800" d="M366.9,195.02a6.389,6.389,0,0,0-1.736-2.388,5.534,5.534,0,0,0-2.554-1.22,11.214,11.214,0,0,0-3.4.331c-.471.117-.374.048-.836.187l-1.365.579-.093.04a1.121,1.121,0,0,1-.875-2.064,1.235,1.235,0,0,1,.139-.049l1.634-.452c.565-.1,1.127-.2,1.694-.263a9.289,9.289,0,0,1,3.458.333,6.739,6.739,0,0,1,2.894,1.874,7.124,7.124,0,0,1,1.6,2.937.287.287,0,0,1-.541.186Z" transform="translate(-354.581 -189.69)" fill="#1c1e33"/>
                      </g>
                      <path id="Trazado_1032801" data-name="Trazado 1032801" d="M362.9,209.075c.88,3.051-1.251,6.345-4.76,7.358s-7.067-.64-7.947-3.692,2.047-3.583,5.557-4.6S362.02,206.025,362.9,209.075Z" transform="translate(-310.654 -164.134)" fill="#cc7e7e"/>
                      <g id="Grupo_1179809" data-name="Grupo 1179809" transform="translate(21.043 36.287)">
                        <g id="Grupo_1179808" data-name="Grupo 1179808" transform="translate(0 4.119)">
                          <path id="Trazado_1032802" data-name="Trazado 1032802" d="M377.825,205.883c0,.867,1.287,1.569,2.875,1.569s2.875-.7,2.875-1.569-1.287-1.568-2.875-1.568S377.825,205.016,377.825,205.883Z" transform="translate(-377.708 -204.315)" fill="#b56565"/>
                          <path id="Trazado_1032803" data-name="Trazado 1032803" d="M377.953,205.886s2.875-3.45,5.75,0" transform="translate(-377.953 -204.318)" fill="none" stroke="#1c1e33" stroke-linecap="round" stroke-miterlimit="10" stroke-width="0.626"/>
                        </g>
                        <path id="Trazado_1032804" data-name="Trazado 1032804" d="M379.7,200.344a1.592,1.592,0,0,1,2.3,0" transform="translate(-377.86 -199.833)" fill="none" stroke="#b56565" stroke-linecap="round" stroke-miterlimit="10" stroke-width="0.313"/>
                      </g>
                      <path id="Trazado_1032805" data-name="Trazado 1032805" d="M398.519,215.763a5.969,5.969,0,0,0,6.366-3.965c.88-3.052-2.048-3.583-5.557-4.6-1.255-.362-2.413-.733-3.425-.925A43.336,43.336,0,0,0,398.519,215.763Z" transform="translate(-394.746 -164.068)" fill="#cc7e7e"/>
                    </g>
                  </g>
                  <g id="Grupo_1179812" data-name="Grupo 1179812" transform="translate(42.388 39.601)">
                    <path id="Trazado_1032806" data-name="Trazado 1032806" d="M387.485,202.578c0,5.344,5.816,13.705,12.99,13.705s12.99-8.361,12.99-13.705-5.816-8.351-12.99-8.351S387.485,197.234,387.485,202.578Z" transform="translate(-387.485 -194.227)" fill="none" stroke="#0071bc" stroke-linecap="round" stroke-miterlimit="10" stroke-width="0.876"/>
                    <path id="Trazado_1032807" data-name="Trazado 1032807" d="M348.1,202.578c0,5.344,5.816,13.705,12.99,13.705s12.99-8.361,12.99-13.705-5.817-8.351-12.99-8.351S348.1,197.234,348.1,202.578Z" transform="translate(-311.915 -194.227)" fill="none" stroke="#0071bc" stroke-linecap="round" stroke-miterlimit="10" stroke-width="0.876"/>
                    <path id="Trazado_1032808" data-name="Trazado 1032808" d="M376.521,201.844h1.458s3.049-4.375,7.158,0H386.6" transform="translate(-350.54 -194.687)" fill="none" stroke="#0071bc" stroke-linecap="round" stroke-miterlimit="10" stroke-width="0.876"/>
                    <line id="Línea_764" data-name="Línea 764" x2="16.527" transform="translate(59.095 2.518)" fill="none" stroke="#0071bc" stroke-linecap="round" stroke-miterlimit="10" stroke-width="0.549"/>
                  </g>
                  <path id="Trazado_1032809" data-name="Trazado 1032809" d="M374.658,214.405c0,1.248,2.063,3.461,4.606,3.461s4.607-2.212,4.607-3.461-2.063-.869-4.607-.869S374.658,213.157,374.658,214.405Z" transform="translate(-303.717 -156.188)" fill="#fff"/>
                  <path id="Trazado_1032810" data-name="Trazado 1032810" d="M321.526,185.892c16.988,2.882,32.157-11.528,32.157-11.528s14.41,20.629,26.7,19.719,20.629-.91,20.629-.91,2.882-43.23-42.775-42.017C322.3,152.111,321.526,185.892,321.526,185.892Z" transform="translate(-272.067 -151.131)" fill="#1c1e33"/>
                  <path id="Trazado_1032811" data-name="Trazado 1032811" d="M371.774,195.839s-18.657,6.067-27.759-22.9v-.152S352.206,191.44,371.774,195.839Z" transform="translate(-263.461 -152.887)" fill="#1c1e33" opacity="0.66"/>
                  <path id="Trazado_1032812" data-name="Trazado 1032812" d="M367.576,201.026s-3.792-3.792-9.86,0" transform="translate(-271.853 -155.041)" fill="none" stroke="#1c1e33" stroke-linecap="round" stroke-miterlimit="10" stroke-width="0.876"/>
                  <path id="Trazado_1032813" data-name="Trazado 1032813" d="M403.4,201.026s-3.792-3.792-9.86,0" transform="translate(-340.591 -155.041)" fill="none" stroke="#1c1e33" stroke-linecap="round" stroke-miterlimit="10" stroke-width="0.876"/>
                  <g id="Grupo_1179813" data-name="Grupo 1179813" transform="translate(122.941 119.593)">
                    <path id="Trazado_1032814" data-name="Trazado 1032814" d="M287.448,281.28s35.579,39.374,35.579,46.49-44.593,53.369-44.593,53.369l-12.808-16.366,28.938-35.579-20.4-22.059Z" transform="translate(-265.625 -281.28)" fill="#e23979"/>
                    <line id="Línea_765" data-name="Línea 765" x2="14.232" y2="18.264" transform="translate(0 83.493)" fill="none" stroke="#fff" stroke-linecap="round" stroke-miterlimit="10" stroke-width="0.549"/>
                  </g>
                </g>
                <path id="Trazado_1032815" data-name="Trazado 1032815" d="M391.93,259.679s.148-5.625-3.553-7.994-10.067-4.145-10.067-4.145-8.587,9.031-6.958,12.139,9.179,3.553,12.287,3.405,5.034-3.257,5.034-3.257Z" transform="translate(-308.549 -158.951)" fill="#dfe2f7"/>
                <path id="Trazado_1032816" data-name="Trazado 1032816" d="M346.818,259.84s-.148-5.625,3.553-7.994,10.067-4.145,10.067-4.145,8.587,9.031,6.958,12.139-9.179,3.553-12.287,3.405-5.034-3.257-5.034-3.257Z" transform="translate(-261.865 -158.964)" fill="#dfe2f7"/>
              </g>
              <path id="Trazado_1032817" data-name="Trazado 1032817" d="M340.753,214.5a3.6,3.6,0,1,1-3.6-3.6A3.6,3.6,0,0,1,340.753,214.5Z" transform="translate(-222.826 -139.319)" fill="#fff"/>
              <path id="Trazado_1032818" data-name="Trazado 1032818" d="M291.44,181.51s-31.374,8.206-40.222-4.988c0,0-14.963,10.136-26.708,6.114,0,0,7.24-28.316,30.57-27.191S290.154,174.431,291.44,181.51Z" transform="translate(-73.316 -134.818)" fill="#a03c64"/>
              <path id="Trazado_1032819" data-name="Trazado 1032819" d="M290.206,181.043S282,156.265,251.109,159c-25.421,2.252-26.547,23.168-26.547,23.168s-2.9-33.3,32.018-32.5S290.206,181.043,290.206,181.043Z" transform="translate(-72.081 -134.351)" fill="#1c1e33"/>
              <path id="Trazado_1032820" data-name="Trazado 1032820" d="M210.759,197.694c4.415,2.546,10.4,3.314,12.807,7.806,1.058,1.972,1.169,4.307,1.924,6.413s2.63,4.175,4.844,3.852a4.422,4.422,0,0,0,2.657-1.664c2.533-3.055,2.085-7.668.421-11.272s-4.339-6.652-6.14-10.189a47.486,47.486,0,0,0-2.557-5.024,6.844,6.844,0,0,0-4.449-3.195c-1.231-.179-2.511.13-3.718-.175a10.286,10.286,0,0,1-2.7-1.416c-3.47-2.108-11.256-4.107-11.028,2A16.252,16.252,0,0,0,210.759,197.694Z" transform="translate(3.277 -136.873)" fill="#a03c64"/>
            </g>
            <g id="Grupo_1179820" data-name="Grupo 1179820" transform="translate(294.748 190.042)">
              <g id="Grupo_1179817" data-name="Grupo 1179817" transform="translate(33.206)">
                <path id="Trazado_1032821" data-name="Trazado 1032821" d="M88.157,405.522s-19.3-51.015-2.864-65.705C85.293,339.817,122.813,354.079,88.157,405.522Z" transform="translate(-78.662 -339.817)" fill="#91dbc0"/>
                <path id="Trazado_1032822" data-name="Trazado 1032822" d="M93.174,418.353s9.29-8.1,4.193-63.634" transform="translate(-88.042 -341.026)" fill="none" stroke="#1c1e33" stroke-linecap="round" stroke-miterlimit="10" stroke-width="1.045"/>
              </g>
              <g id="Grupo_1179818" data-name="Grupo 1179818" transform="translate(41.852 46.135)">
                <path id="Trazado_1032823" data-name="Trazado 1032823" d="M26.58,413.832s43.65,10.152,53.38-9.63C79.96,404.2,66.811,366.62,26.58,413.832Z" transform="translate(-16.56 -390.024)" fill="#55cea6"/>
                <path id="Trazado_1032824" data-name="Trazado 1032824" d="M38.864,422.36s27.222-25.27,52.113-15.109" transform="translate(-38.864 -391.226)" fill="none" stroke="#1c1e33" stroke-linecap="round" stroke-miterlimit="10" stroke-width="1.045"/>
              </g>
              <g id="Grupo_1179819" data-name="Grupo 1179819" transform="translate(0 18.29)">
                <path id="Trazado_1032825" data-name="Trazado 1032825" d="M137.638,406.857s-37.619-24.356-30.143-45.094C107.494,361.763,143.666,345.124,137.638,406.857Z" transform="translate(-106.511 -359.722)" fill="#55cea6"/>
                <path id="Trazado_1032826" data-name="Trazado 1032826" d="M130.733,420.166s-.723-37.137-25.321-47.988" transform="translate(-97.919 -360.732)" fill="none" stroke="#1c1e33" stroke-linecap="round" stroke-miterlimit="10" stroke-width="1.045"/>
              </g>
            </g>
            <rect id="Rectángulo_414854" data-name="Rectángulo 414854" width="46.863" height="69.836" transform="translate(84.435 197.561)" fill="#8ccff4"/>
            <rect id="Rectángulo_414855" data-name="Rectángulo 414855" width="46.863" height="39.512" transform="translate(141.406 227.884)" fill="#a03c64"/>
            <rect id="Rectángulo_414856" data-name="Rectángulo 414856" width="46.863" height="98.321" transform="translate(31.14 169.076)" fill="#e5c04c"/>
            <line id="Línea_766" data-name="Línea 766" x1="15.621" transform="translate(22.87 179.183)" fill="none" stroke="#000" stroke-miterlimit="10" stroke-width="2"/>
            <line id="Línea_767" data-name="Línea 767" x1="15.621" transform="translate(22.87 194.804)" fill="none" stroke="#000" stroke-miterlimit="10" stroke-width="2"/>
            <line id="Línea_768" data-name="Línea 768" x1="15.621" transform="translate(22.87 210.425)" fill="none" stroke="#000" stroke-miterlimit="10" stroke-width="2"/>
            <line id="Línea_769" data-name="Línea 769" x1="15.621" transform="translate(22.87 226.047)" fill="none" stroke="#000" stroke-miterlimit="10" stroke-width="2"/>
            <line id="Línea_770" data-name="Línea 770" x1="15.621" transform="translate(22.87 241.668)" fill="none" stroke="#000" stroke-miterlimit="10" stroke-width="2"/>
            <g id="Grupo_1179821" data-name="Grupo 1179821" transform="translate(37.572 124.05)">
              <path id="Trazado_1032827" data-name="Trazado 1032827" d="M392,268" transform="translate(-365.352 -268)" fill="none" stroke="#000" stroke-miterlimit="10" stroke-width="2"/>
              <ellipse id="Elipse_13077" data-name="Elipse 13077" cx="16.081" cy="16.081" rx="16.081" ry="16.081" transform="translate(0 7.351)" fill="#fff"/>
              <ellipse id="Elipse_13078" data-name="Elipse 13078" cx="11.027" cy="11.027" rx="11.027" ry="11.027" transform="translate(4.594 12.864)" fill="#ffdeeb"/>
              <text id="_" data-name="$" transform="translate(12.231 27.369)" fill="#e23979" font-size="13" font-family="Helvetica"><tspan x="0" y="0">$</tspan></text>
            </g>
            <g id="Grupo_1179822" data-name="Grupo 1179822" transform="translate(91.786 154.373)">
              <path id="Trazado_1032828" data-name="Trazado 1032828" d="M333,301" transform="translate(-306.352 -301)" fill="none" stroke="#000" stroke-miterlimit="10" stroke-width="2"/>
              <ellipse id="Elipse_13079" data-name="Elipse 13079" cx="16.081" cy="16.081" rx="16.081" ry="16.081" transform="translate(0 7.351)" fill="#fff"/>
              <ellipse id="Elipse_13080" data-name="Elipse 13080" cx="11.027" cy="11.027" rx="11.027" ry="11.027" transform="translate(4.594 12.864)" fill="#ffdeeb"/>
              <text id="_2" data-name="$" transform="translate(12.231 27.369)" fill="#e23979" font-size="13" font-family="Helvetica"><tspan x="0" y="0">$</tspan></text>
            </g>
            <g id="Grupo_1179823" data-name="Grupo 1179823" transform="translate(149.676 185.615)">
              <path id="Trazado_1032829" data-name="Trazado 1032829" d="M270,335" transform="translate(-243.352 -335)" fill="none" stroke="#000" stroke-miterlimit="10" stroke-width="2"/>
              <ellipse id="Elipse_13081" data-name="Elipse 13081" cx="16.081" cy="16.081" rx="16.081" ry="16.081" transform="translate(0 7.351)" fill="#fff"/>
              <ellipse id="Elipse_13082" data-name="Elipse 13082" cx="11.027" cy="11.027" rx="11.027" ry="11.027" transform="translate(4.594 12.864)" fill="#ffdeeb"/>
              <text id="_3" data-name="$" transform="translate(12.231 27.369)" fill="#e23979" font-size="13" font-family="Helvetica"><tspan x="0" y="0">$</tspan></text>
            </g>
            <line id="Línea_771" data-name="Línea 771" x1="334.556" transform="translate(21.081 267.466)" fill="none" stroke="#000" stroke-miterlimit="10" stroke-width="2"/>
          </g>
          <path id="Trazado_1032830" data-name="Trazado 1032830" d="M71,286.907l64.327-2.507-15.934,12.293c.511.339,1.014.684,1.529,1.02,2.593,1.7,5.238,3.341,7.906,4.945,5.339,3.213,10.8,6.225,16.362,8.99a167.733,167.733,0,0,0,16.982,7.4,108.254,108.254,0,0,0,17.5,4.938,55.263,55.263,0,0,0,17.448.587l2.082-.413c.346-.074.708-.121,1.045-.217l1.006-.3c.677-.212,1.343-.375,2.046-.625l2.142-.83a60.219,60.219,0,0,0,8.192-4.014c5.161-3.111,9.773-7.224,12.566-12.605a24.975,24.975,0,0,0,2.733-13.419,21.379,21.379,0,0,0-.833-4.653l.763-.341a27.211,27.211,0,0,1,1.111,19.962,33.08,33.08,0,0,1-4.838,9.317,46.616,46.616,0,0,1-7.184,7.653,68.167,68.167,0,0,1-8.448,6.068l-2.226,1.322c-.769.431-1.631.827-2.451,1.24l-1.251.611c-.419.2-.851.338-1.278.509l-2.584.978a67.036,67.036,0,0,1-21.258,2.925,123.148,123.148,0,0,1-20.742-2.236,185.968,185.968,0,0,1-19.936-4.966q-9.788-2.976-19.269-6.728c-3.165-1.245-6.311-2.539-9.441-3.909q-2.347-1.027-4.695-2.106l-.685-.322L99.4,336.194Z" transform="translate(127.836 -116.335)" fill="#e5c04c"/>
        </g>
      </g>
    </g>
  </g>
</svg>
