<svg xmlns="http://www.w3.org/2000/svg" xmlns:xlink="http://www.w3.org/1999/xlink" width="295" height="251" viewBox="0 0 295 251">
  <defs>
    <clipPath id="clip-path">
      <rect id="Rectángulo_414858" data-name="Rectángulo 414858" width="295" height="152" rx="10" transform="translate(173 360)" fill="#7b776f"/>
    </clipPath>
    <clipPath id="clip-path-2">
      <rect id="Rectángulo_415001" data-name="Rectángulo 415001" width="265" height="251" transform="translate(224.133 299.016)" fill="#fff" stroke="#707070" stroke-width="1" opacity="0.6"/>
    </clipPath>
  </defs>
  <g id="Grupo_1180600" data-name="Grupo 1180600" transform="translate(-180 -261)">
    <g id="Enmascarar_grupo_1098807" data-name="Enmascarar grupo 1098807" transform="translate(7)" clip-path="url(#clip-path)">
      <g id="Grupo_1179827" data-name="Grupo 1179827" transform="translate(173 345)">
        <rect id="Rectángulo_414858-2" data-name="Rectángulo 414858" width="295" height="152" rx="10" transform="translate(0 15)" fill="#7b776f"/>
        <g id="Elipse_13083" data-name="Elipse 13083" transform="translate(240 108)" fill="none" stroke="#e2dacc" stroke-width="10" opacity="0.78">
          <ellipse cx="44.5" cy="41" rx="44.5" ry="41" stroke="none"/>
          <ellipse cx="44.5" cy="41" rx="39.5" ry="36" fill="none"/>
        </g>
        <g id="Elipse_13084" data-name="Elipse 13084" transform="translate(12 24)" fill="none" stroke="#e2dacc" stroke-width="8" opacity="0.78">
          <ellipse cx="28" cy="25.5" rx="28" ry="25.5" stroke="none"/>
          <ellipse cx="28" cy="25.5" rx="24" ry="21.5" fill="none"/>
        </g>
        <g id="Elipse_13085" data-name="Elipse 13085" transform="translate(240)" fill="none" stroke="#e2dacc" stroke-width="8" opacity="0.78">
          <ellipse cx="22" cy="20.5" rx="22" ry="20.5" stroke="none"/>
          <ellipse cx="22" cy="20.5" rx="18" ry="16.5" fill="none"/>
        </g>
        <g id="Elipse_13086" data-name="Elipse 13086" transform="translate(27 121)" fill="none" stroke="#e2dacc" stroke-width="8" opacity="0.78">
          <ellipse cx="15" cy="14" rx="15" ry="14" stroke="none"/>
          <ellipse cx="15" cy="14" rx="11" ry="10" fill="none"/>
        </g>
      </g>
    </g>
    <g id="Enmascarar_grupo_1098808" data-name="Enmascarar grupo 1098808" transform="translate(-19.133 -38.016)" clip-path="url(#clip-path-2)">
      <g id="_16167171_60c822ba22ab9023d35eb6d4" data-name="16167171_60c822ba22ab9023d35eb6d4" transform="translate(228.355 303.182)">
        <path id="Trazado_1039719" data-name="Trazado 1039719" d="M919.074,202.493l.043.051c.089-.067.183-.125.277-.183C919.288,202.406,919.181,202.449,919.074,202.493Z" transform="translate(-820.188 -182.253)" fill="none"/>
        <path id="Trazado_1039720" data-name="Trazado 1039720" d="M1300.136,942.925q4.428-.4,8.856-.8a4.988,4.988,0,0,1,.542-1.1,28.7,28.7,0,0,1,6.3-7.134,18.728,18.728,0,0,1-2.493.848q-3.727,1.008-7.482,1.907c-1.328.317-6.286.633-7.048,1.713s.26,3.145.4,4.545A.846.846,0,0,1,1300.136,942.925Z" transform="translate(-1119.129 -758.561)" fill="none"/>
        <path id="Trazado_1039721" data-name="Trazado 1039721" d="M593.6,1346.316a138.487,138.487,0,0,0,29.5-12.681.849.849,0,0,1,.856,1.465,140.212,140.212,0,0,1-30.375,12.991q-.085,9.309.274,18.618a86.752,86.752,0,0,0,16.582-12.545c.785-.759,1.986.439,1.2,1.2a88.5,88.5,0,0,1-20.132,14.6c-.965.51-1.822-.955-.857-1.465.522-.276,1.034-.568,1.549-.854,0-.016-.01-.027-.011-.044q-.39-9.5-.3-19.015-4.64,1.3-9.366,2.282.239,7.207.733,14.4c0,.026-.009.043-.009.068,1.908.937,3.843,1.817,5.769,2.677,1,.444.132,1.906-.857,1.465-6.939-3.1-14.035-6.4-19.263-12.094-.738-.8.459-2.006,1.2-1.2a40.511,40.511,0,0,0,11.415,8.283q-.449-6.63-.674-13.269c-1.437.28-2.877.545-4.323.779-1.07.173-1.526-1.462-.451-1.636,1.582-.256,3.156-.548,4.726-.858q-.388-13.065.09-26.135c-23.581-1.305-39.734-6.784-45.745-9.153l-9.742,141.714s23.818,9.221,53.788,4.023l10.17-90.307,9.978,89.4s35.217,9.876,53.98-3.119L643.929,1315.7a198.787,198.787,0,0,1-49.345,7.895Q593.766,1334.941,593.6,1346.316Zm-26.365-6.414-14.7-5.764c-1.007-.395-.566-2.035.451-1.636l14.7,5.764C568.695,1338.661,568.254,1340.3,567.237,1339.9Zm18.587,33.2a7.86,7.86,0,0,0-3.055,2.229c-.813.959-1.477,2.048-2.76,2.421a.849.849,0,0,1-.451-1.636l.185-.061c.021-.012.075-.039.09-.047l.168-.1.1-.078a4.95,4.95,0,0,0,.549-.553c.378-.442.708-.922,1.1-1.353a9.256,9.256,0,0,1,3.215-2.286.871.871,0,0,1,1.16.3A.854.854,0,0,1,585.824,1373.1Zm13.436,6a.867.867,0,0,1-1.2,0q-3.334-3.04-6.883-5.829a.853.853,0,0,1,0-1.2.875.875,0,0,1,1.2,0q3.547,2.788,6.883,5.829A.857.857,0,0,1,599.26,1379.107Z" transform="translate(-510.033 -1058.179)" fill="#87a1c5"/>
        <path id="Trazado_1039722" data-name="Trazado 1039722" d="M793.812,1383.451q4.755-1,9.425-2.334.144-11.609.991-23.194c-.58.006-1.159.016-1.742.016-2.958,0-5.811-.076-8.577-.2Q793.441,1370.586,793.812,1383.451Z" transform="translate(-721.375 -1092.48)" fill="#87a1c5"/>
        <path id="Trazado_1039723" data-name="Trazado 1039723" d="M832.951,1515.141c-.516.286-1.028.578-1.549.854-.965.51-.109,1.975.857,1.465a88.5,88.5,0,0,0,20.132-14.6c.787-.761-.414-1.959-1.2-1.2a86.773,86.773,0,0,1-16.583,12.545c.011.3.016.6.029.894C834.681,1516.174,833.044,1516.179,832.951,1515.141Z" transform="translate(-750.785 -1205.674)" fill="#48527b"/>
        <path id="Trazado_1039724" data-name="Trazado 1039724" d="M742.23,1520.2c-.019-.267-.031-.535-.049-.8a40.51,40.51,0,0,1-11.414-8.283c-.74-.806-1.937.4-1.2,1.2,5.227,5.689,12.323,9,19.263,12.094.989.441,1.853-1.02.857-1.465-1.925-.859-3.861-1.74-5.769-2.676C743.912,1521.281,742.3,1521.256,742.23,1520.2Z" transform="translate(-670.709 -1213.104)" fill="#48527b"/>
        <path id="Trazado_1039725" data-name="Trazado 1039725" d="M787.372,1500.636c.018.267.031.535.049.8.074,1.058,1.682,1.083,1.688.068,0-.025.011-.042.009-.068q-.5-7.2-.733-14.4c-.561.116-1.124.223-1.687.333Q786.924,1494.005,787.372,1500.636Z" transform="translate(-715.9 -1194.343)" fill="#48527b"/>
        <path id="Trazado_1039726" data-name="Trazado 1039726" d="M785.826,1383.481c.563-.111,1.126-.219,1.687-.338q-.37-12.855.1-25.715c-.567-.026-1.135-.051-1.693-.082Q785.438,1370.41,785.826,1383.481Z" transform="translate(-715.076 -1092.172)" fill="#48527b"/>
        <path id="Trazado_1039727" data-name="Trazado 1039727" d="M839.047,1493.453c0,.016.009.027.011.043.093,1.038,1.73,1.033,1.686-.043-.012-.3-.017-.6-.029-.894q-.36-9.306-.274-18.618c-.566.167-1.13.337-1.7.5Q838.668,1483.944,839.047,1493.453Z" transform="translate(-756.892 -1184.028)" fill="#48527b"/>
        <path id="Trazado_1039728" data-name="Trazado 1039728" d="M840.547,1381.2q.155-11.372.983-22.722-.847.019-1.7.028-.835,11.581-.991,23.194C839.41,1381.54,839.979,1381.372,840.547,1381.2Z" transform="translate(-756.978 -1093.065)" fill="#48527b"/>
        <path id="Trazado_1039729" data-name="Trazado 1039729" d="M666.392,1406l-14.7-5.764c-1.017-.4-1.458,1.241-.451,1.636l14.7,5.764C666.957,1408.034,667.4,1406.393,666.392,1406Z" transform="translate(-608.737 -1125.912)" fill="#48527b"/>
        <path id="Trazado_1039730" data-name="Trazado 1039730" d="M835.743,1586.1a.876.876,0,0,0-1.2,0,.854.854,0,0,0,0,1.2q3.547,2.788,6.883,5.829a.867.867,0,0,0,1.2,0,.857.857,0,0,0,0-1.2Q839.292,1588.887,835.743,1586.1Z" transform="translate(-753.399 -1272.197)" fill="#48527b"/>
        <path id="Trazado_1039731" data-name="Trazado 1039731" d="M783.8,1584.548a9.262,9.262,0,0,0-3.214,2.286c-.39.43-.72.911-1.1,1.352a4.89,4.89,0,0,1-.55.553l-.1.078-.169.1-.09.047-.185.061a.848.848,0,1,0,.451,1.636c1.283-.373,1.947-1.462,2.76-2.421a7.86,7.86,0,0,1,3.055-2.229.854.854,0,0,0,.3-1.161A.873.873,0,0,0,783.8,1584.548Z" transform="translate(-708.862 -1271.09)" fill="#48527b"/>
        <path id="Trazado_1039732" data-name="Trazado 1039732" d="M768.33,1420.883c-.561.118-1.124.227-1.687.338-1.57.31-3.145.6-4.726.858-1.075.174-.619,1.809.451,1.636,1.446-.234,2.886-.5,4.323-.779.563-.109,1.126-.216,1.687-.333q4.723-.98,9.366-2.282c.568-.16,1.132-.33,1.7-.5a140.226,140.226,0,0,0,30.375-12.991.849.849,0,0,0-.856-1.465,138.486,138.486,0,0,1-29.5,12.681q-.852.255-1.707.5Q773.087,1419.875,768.33,1420.883Z" transform="translate(-695.893 -1129.911)" fill="#48527b"/>
        <path id="Trazado_1039733" data-name="Trazado 1039733" d="M1158.516,1005.484c-.785-2.532-.923-5.385-1.613-7.977-.721-2.713-1.586-5.386-2.5-8.039-1.738-5.046-4.226-9.783-5.953-14.851a3.714,3.714,0,0,1-.276-1.344,2.207,2.207,0,0,1,.11-.56q-4.426.415-8.856.8a.887.887,0,0,1,.418.9,12.71,12.71,0,0,1-2.506,5.823c-.8,1.055-.614,2.264-.686,3.524a12.086,12.086,0,0,1-.438,2.851,8.077,8.077,0,0,1-2.881,3.774c-1.372,1.193-1.782,2.947-2.936,4.3-1.219,1.428-3.094,1.818-4.82,2.31-2.133.608-4.275,1.2-6.442,1.675a36.769,36.769,0,0,1-13.006.859c-2.286-.32-4.273-.741-6.582-.286a39.917,39.917,0,0,1-5.015.671c.246,7.9.464,15.259.646,21.669,3.8-.438,7.588-.913,11.371-1.449q20.114-2.85,39.911-7.535,7.256-1.718,14.451-3.678c.974-.266,2.063-.445,3.1-.675-.124,0-.245,0-.369,0C1161.51,1008.274,1159.251,1007.852,1158.516,1005.484Z" transform="translate(-958.419 -789.151)" fill="#f39776"/>
        <path id="Trazado_1039734" data-name="Trazado 1039734" d="M1457.293,914.806a6.635,6.635,0,0,1-3.914,3.591,21.791,21.791,0,0,1-11.084,1.317,17.666,17.666,0,0,1,4.242,5.749,10.684,10.684,0,0,1,.551,5.7,12.127,12.127,0,0,1,3.655-2.658c5.778-3.4,12.38-5.032,18.8-6.746a.849.849,0,0,1,.451,1.636c-6.968,1.86-14.292,3.6-20.292,7.791a6.067,6.067,0,0,0-1.028.753,1.8,1.8,0,0,0-.337,1.717,4.475,4.475,0,0,0,1,2.67c1.454,1.323,4.327.216,5.959-.156q6.659-1.517,13.2-3.481a.849.849,0,0,1,.451,1.636q-6.849,2.047-13.828,3.621a12.692,12.692,0,0,1-5.226.432.888.888,0,0,1-.157.293c-1.01,1.226-1.213,3.4.392,4.23,1.409.73,3.351.66,4.892.754a59.5,59.5,0,0,0,11.1-.384c1.082-.138,1.068,1.56,0,1.7a57.24,57.24,0,0,1-14.135.12c-.336-.041-.676-.1-1.012-.169a.775.775,0,0,1-.387.671c-1.278.784-3.634,2.789-2.341,4.436a5.57,5.57,0,0,0,2.406,1.514,11.726,11.726,0,0,0,3.222.754.866.866,0,0,1,.848.848.888.888,0,0,1-.231.567,51.65,51.65,0,0,0,8.489-3.154c1.679-.8,3.459-1.855,4.032-3.625.4-1.239.133-2.643.658-3.835s1.729-1.944,2.273-3.114c.889-1.906-.241-4.157.074-6.236.4-2.626,2.209-4.534,1.866-7.351-.169-1.381-1.711-3.482-1.041-4.75.618-1.168,5.495-2.118,6.77-2.6q3.609-1.373,7.176-2.852c2.4-1,5.134-2.467,5.428-5.049.253-2.222-1.6-4.249-3.723-4.952a14.009,14.009,0,0,0-6.64-.034c-7.114,1.164-14.062,3.461-21.153,4.566a11.511,11.511,0,0,1-2.681.085A3.285,3.285,0,0,1,1457.293,914.806Z" transform="translate(-1232.392 -736.405)" fill="#f39776"/>
        <path id="Trazado_1039735" data-name="Trazado 1039735" d="M1354.278,913.777a28.688,28.688,0,0,0-6.3,7.134,5.008,5.008,0,0,0-.543,1.105,2.209,2.209,0,0,0-.11.56,3.713,3.713,0,0,0,.276,1.344c1.728,5.067,4.216,9.8,5.953,14.851.915,2.654,1.779,5.327,2.5,8.039.689,2.592.828,5.445,1.613,7.977.734,2.369,2.995,2.791,5.131,2.766.124,0,.246,0,.369,0a80.294,80.294,0,0,0,8.415-.232,52.354,52.354,0,0,0,7.166-1.322,13.446,13.446,0,0,1-3.874-.986,6.371,6.371,0,0,1-3.017-2.241c-1.53-2.4.689-4.995,2.675-6.352a3.568,3.568,0,0,1-1.71-1.719,4.9,4.9,0,0,1,.742-4.972,3.975,3.975,0,0,1-1.311-1.931,9.265,9.265,0,0,1-.515-2.416c-.047.142-.087.286-.138.426a15.7,15.7,0,0,1-10.815,9.81.849.849,0,0,1-.451-1.636,13.953,13.953,0,0,0,9.63-8.625,9.925,9.925,0,0,0-.031-7.7,20.8,20.8,0,0,0-4.79-5.79.757.757,0,0,1-.056-1.079.856.856,0,0,1,1.054-.957,21.189,21.189,0,0,0,10.3-.438,7.341,7.341,0,0,0,4-2.3c.721-.989.88-2.246-.3-2.919a.833.833,0,0,1,.027-1.447,32.576,32.576,0,0,1-6.465-1.92c-3.007-1.13-6.865-3.2-10.069-2.16a28.747,28.747,0,0,0-5.717,2.58c-.273.161-.536.337-.8.506A6.859,6.859,0,0,1,1354.278,913.777Z" transform="translate(-1157.571 -738.454)" fill="#f39776"/>
        <path id="Trazado_1039736" data-name="Trazado 1039736" d="M1446.068,929.888c1.175.673,1.016,1.93.3,2.919a7.342,7.342,0,0,1-4,2.3,21.185,21.185,0,0,1-10.295.438.856.856,0,0,0-1.054.957.829.829,0,0,1,1.255-.12q.566.537,1.129,1.092a21.789,21.789,0,0,0,11.083-1.317,6.633,6.633,0,0,0,3.914-3.591,3.282,3.282,0,0,0-1.265-4c-.07-.046-.132-.1-.206-.142a.764.764,0,0,0-.829.018A.833.833,0,0,0,1446.068,929.888Z" transform="translate(-1223.495 -754.169)" fill="#d46566"/>
        <path id="Trazado_1039737" data-name="Trazado 1039737" d="M1418.27,978.119c.02-.03.047-.057.068-.086a10.687,10.687,0,0,0-.551-5.7,17.666,17.666,0,0,0-4.242-5.749q-.562-.553-1.128-1.091a.83.83,0,0,0-1.256.12.757.757,0,0,0,.056,1.079,20.812,20.812,0,0,1,4.79,5.79,9.928,9.928,0,0,1,.031,7.7,13.952,13.952,0,0,1-9.63,8.625.849.849,0,0,0,.451,1.636,15.7,15.7,0,0,0,10.815-9.81c.051-.14.091-.284.138-.426A3.362,3.362,0,0,1,1418.27,978.119Z" transform="translate(-1203.642 -783.28)" fill="#d46566"/>
        <path id="Trazado_1039738" data-name="Trazado 1039738" d="M1465.705,997.624a12.687,12.687,0,0,0,5.225-.432q6.976-1.566,13.828-3.621a.849.849,0,0,0-.451-1.636q-6.543,1.956-13.2,3.48c-1.631.371-4.5,1.479-5.959.156a4.476,4.476,0,0,1-1-2.67,1.8,1.8,0,0,1,.337-1.717,6.073,6.073,0,0,1,1.028-.753c6-4.195,13.324-5.931,20.292-7.791a.849.849,0,0,0-.45-1.636c-6.419,1.713-13.021,3.346-18.8,6.746a12.128,12.128,0,0,0-3.655,2.658c-.021.029-.048.057-.068.086a3.375,3.375,0,0,0-.459,2.089,9.3,9.3,0,0,0,.514,2.416,3.974,3.974,0,0,0,1.311,1.931c.053-.07.1-.145.156-.213C1464.965,995.971,1465.966,996.837,1465.705,997.624Z" transform="translate(-1248.199 -795.658)" fill="#d46566"/>
        <path id="Trazado_1039739" data-name="Trazado 1039739" d="M1469.411,1061.573c.336.07.675.128,1.011.169a57.244,57.244,0,0,0,14.135-.12c1.068-.136,1.082-1.834,0-1.7a59.485,59.485,0,0,1-11.1.384c-1.542-.094-3.483-.024-4.892-.754-1.6-.831-1.4-3-.392-4.23a.891.891,0,0,0,.157-.294c.263-.789-.74-1.655-1.357-.906-.056.068-.1.142-.156.213a4.9,4.9,0,0,0-.741,4.972,3.569,3.569,0,0,0,1.709,1.719c.129-.088.258-.172.384-.249A.829.829,0,0,1,1469.411,1061.573Z" transform="translate(-1250.822 -853.063)" fill="#d46566"/>
        <path id="Trazado_1039740" data-name="Trazado 1039740" d="M1468.267,1094.234a11.73,11.73,0,0,1-3.222-.754,5.564,5.564,0,0,1-2.406-1.514c-1.293-1.648,1.063-3.653,2.341-4.437a.774.774,0,0,0,.387-.671.83.83,0,0,0-1.243-.794q-.189.117-.384.249c-1.986,1.357-4.205,3.953-2.676,6.352a6.372,6.372,0,0,0,3.017,2.241,13.452,13.452,0,0,0,3.874.986c.1.011.207.029.312.038a.746.746,0,0,0,.617-.281.889.889,0,0,0,.231-.567A.865.865,0,0,0,1468.267,1094.234Z" transform="translate(-1246.778 -878.349)" fill="#d46566"/>
        <path id="Trazado_1039741" data-name="Trazado 1039741" d="M1059.337,583.057c1.6,1.919,3.251,34.915,4.567,69.9l.151,0a56.666,56.666,0,0,1,5.455-7.338,18.334,18.334,0,0,1,2.839-2.725,8.432,8.432,0,0,1,2.185-1.184c5.046-1.781,9.827,1.329,14.686,3.867q-.156-3.047-.312-6.094c-.832-16.263-1.2-34.469-13.787-46.479a63.919,63.919,0,0,0-16.522-10.87c-.1-.048-.662-.322-1.267-.631A8.828,8.828,0,0,1,1059.337,583.057Z" transform="translate(-929.11 -480.953)" fill="#87a1c5"/>
        <path id="Trazado_1039742" data-name="Trazado 1039742" d="M1049.418,576.862l-.011.022.027.014C1049.42,576.883,1049.414,576.87,1049.418,576.862Z" transform="translate(-922.867 -477.292)" fill="#87a1c5"/>
        <path id="Trazado_1039743" data-name="Trazado 1039743" d="M621.132,573.737c2.541,2.984,5.045,6,7.57,9a99.8,99.8,0,0,1,7.669,9.918,50.628,50.628,0,0,1,4.834,9.063q22.218,1.4,44.461,2.35,8.9.378,17.811.684c.126,0,.253.006.38.009-1.316-34.988-2.969-67.985-4.567-69.9a8.785,8.785,0,0,0-2-1.548q-.734-.455-1.655-.95l-.027-.014c-8-4.292-25.548-10.557-29.582-11.977l.389,1.953s2.753,16.2-17.114,15.886c-21.972-.351-18.943-16.4-18.943-16.4l.237-1.478c-3.893,1.369-22.5,8-30.275,12.332l20.822,41.069Zm7.613-46.651a16.11,16.11,0,0,0,6.11,9.308c3.546,2.589,8.219,3.477,12.516,3.8a24.781,24.781,0,0,0,13.29-2.337,11.7,11.7,0,0,0,4.832-4.04,15.82,15.82,0,0,0,1.866-5.956,1.707,1.707,0,0,1,2.087-1.185,1.755,1.755,0,0,1,1.185,2.087c-.662,4.417-2.391,8.174-6.144,10.755-7.113,4.892-16.431,4.912-24.513,2.856a19.634,19.634,0,0,1-14.5-14.384C624.971,525.861,628.243,524.961,628.745,527.086Z" transform="translate(-569.065 -432.751)" fill="#dff1f7"/>
        <path id="Trazado_1039744" data-name="Trazado 1039744" d="M671.481,1010.2a.745.745,0,0,1-.8-.706c-3.135.394-6.272.767-9.414,1.094q-20.206,2.1-40.549,2.35-10.228.123-20.454-.225c-1.587-.055-4.528.305-6.5-.186a5.285,5.285,0,0,1-1.891-.025,12.426,12.426,0,0,1-4.478-2.189q-.914-.62-1.817-1.256a129.352,129.352,0,0,1-24.394-22.385c-.27-.321-.555-.652-.846-.988-.882,35.438-1.371,68.6-1.371,68.6s.9.427,2.616,1.1c6.01,2.37,22.164,7.848,45.745,9.153.558.031,1.126.056,1.693.082,2.766.127,5.619.2,8.577.2.583,0,1.162-.009,1.742-.016s1.134-.015,1.7-.028a198.776,198.776,0,0,0,49.345-7.895c2.262-.669,3.513-1.1,3.513-1.1s-.238-9.593-.648-23.988c-.183-6.41-.4-13.773-.646-21.669C672.23,1010.163,671.859,1010.19,671.481,1010.2Z" transform="translate(-536.49 -799.372)" fill="#dff1f7"/>
        <path id="Trazado_1039745" data-name="Trazado 1039745" d="M733.189,562.971c8.083,2.056,17.4,2.036,24.513-2.856,3.753-2.581,5.482-6.339,6.144-10.755a1.755,1.755,0,0,0-1.185-2.087,1.707,1.707,0,0,0-2.087,1.185,15.824,15.824,0,0,1-1.866,5.956,11.7,11.7,0,0,1-4.832,4.04,24.776,24.776,0,0,1-13.29,2.337c-4.3-.32-8.971-1.208-12.516-3.8a16.11,16.11,0,0,1-6.11-9.308c-.5-2.124-3.774-1.225-3.272.9A19.635,19.635,0,0,0,733.189,562.971Z" transform="translate(-662.28 -453.35)" fill="#87a1c5"/>
        <path id="Trazado_1039746" data-name="Trazado 1039746" d="M757.342,430.016l-.035.217a1.955,1.955,0,0,1,.112-.161Z" transform="translate(-692.745 -361.604)" fill="#f39776"/>
        <path id="Trazado_1039747" data-name="Trazado 1039747" d="M891.506,429.989l-.055-.274c-.042.035-.081.074-.123.108A1.808,1.808,0,0,1,891.506,429.989Z" transform="translate(-798.33 -361.367)" fill="#f39776"/>
        <path id="Trazado_1039748" data-name="Trazado 1039748" d="M760.3,472.915c19.867.317,17.113-15.886,17.113-15.886l-.389-1.953-3.392-17.041a1.652,1.652,0,0,1-.655.727,26.074,26.074,0,0,1-27.838-.305,1.64,1.64,0,0,1-.728-1.007L741.6,455.034l-.237,1.478S738.329,472.563,760.3,472.915Zm9.344-17.727a.867.867,0,0,1,.507.389.85.85,0,0,1,.085.654,6.248,6.248,0,0,0-.417,1.522l-.011.1a.957.957,0,0,1-.248.6.849.849,0,0,1-1.448-.6,6.979,6.979,0,0,1,.489-2.075.852.852,0,0,1,.218-.374l.172-.133A.859.859,0,0,1,769.646,455.188ZM749.8,452.3a102.606,102.606,0,0,0,3.28,10.652c.379,1.028-1.262,1.467-1.636.451a102.572,102.572,0,0,1-3.281-10.653A.849.849,0,0,1,749.8,452.3Z" transform="translate(-680.069 -367.46)" fill="#f39776"/>
        <path id="Trazado_1039749" data-name="Trazado 1039749" d="M718.8,250.811a22.681,22.681,0,0,0,24.412.306,1.494,1.494,0,0,1,1.8.084c.042-.034.081-.073.123-.108a27.864,27.864,0,0,0,8.147-11.9c-2.174-2.794-1-9.626,1-12.333a77.009,77.009,0,0,1-4.67-14.882,14.765,14.765,0,0,1-.549-5.543,5.345,5.345,0,0,1,1.88-3.4l-.043-.051a84.5,84.5,0,0,1-38.066,6.49c-.74-.046-1.429-.074-2.083-.11a51.239,51.239,0,0,1-3.859,16.167,3.091,3.091,0,0,1-.579.993,5,5,0,0,1-.706.609c1.785,2.712,2.8,8.665,1.124,11.592a29,29,0,0,0,6.02,9.168,27.028,27.028,0,0,0,3.861,3.264l.078.055A1.485,1.485,0,0,1,718.8,250.811Zm31.852-22.674a1.71,1.71,0,0,1-2.087,1.185,9.832,9.832,0,0,0-4.509-.425l-.15.023a1.928,1.928,0,0,1-1.307-.171,1.716,1.716,0,0,1-.779-1.014,1.733,1.733,0,0,1,.171-1.307,1.7,1.7,0,0,1,1.014-.78,14.908,14.908,0,0,1,1.557-.182,1.984,1.984,0,0,1-.326-.132,1.9,1.9,0,0,1-.748-.769,3.4,3.4,0,0,1-.271-1.616q0-1.089,0-2.178a1.763,1.763,0,0,1,.5-1.2,1.324,1.324,0,0,1,.142-.12,2.257,2.257,0,0,1,.186-.238,2.307,2.307,0,0,1,2.163-.619,2.354,2.354,0,0,1,1.435,1.1,3.46,3.46,0,0,1,.4,1.509c.029.351.019.707.025,1.059s.027.717.014,1.073a2.036,2.036,0,0,1-1.358,2.177,12.524,12.524,0,0,1,2.747.542A1.736,1.736,0,0,1,750.651,228.137ZM738.47,210.073a14.124,14.124,0,0,1,6.193,1.015c1.883.757,4.271,1.833,5.241,3.736a1.737,1.737,0,0,1-.609,2.321,1.708,1.708,0,0,1-2.321-.608c-.032-.062-.243-.352-.224-.355-.1-.1-.2-.2-.3-.291-.035-.018-.308-.231-.349-.259-.187-.125-.378-.243-.57-.359q-.521-.312-1.065-.584c-.207-.1-.417-.2-.628-.3l-.074-.032c-.108-.043-.215-.085-.324-.126a13.715,13.715,0,0,0-2.5-.684l-.241-.038-.162-.018c-.229-.017-.458-.04-.687-.05a12.163,12.163,0,0,0-1.38.022,1.7,1.7,0,0,1,0-3.393Zm-10.793,19.533c.633-1.4,1.282-2.789,1.923-4.183a.855.855,0,0,1,1.16-.3.873.873,0,0,1,.3,1.16l-1.594,3.467c-.392.852-1.15,2.127-.792,3.064a.815.815,0,0,0,.49.431,2.033,2.033,0,0,0,.966.1,6.3,6.3,0,0,0,2.561-1.3.857.857,0,0,1,1.161.3.872.872,0,0,1-.3,1.16,6.866,6.866,0,0,1-3.513,1.54,2.976,2.976,0,0,1-2.764-1.261C726.5,232.459,727.1,230.874,727.677,229.606Zm-7.255,8.185c-3.228-1.326-2.519-3.934-2.519-3.934l7.735,2.329A3.95,3.95,0,0,1,720.422,237.792Zm-1.508-12.2a1.956,1.956,0,0,1-.972-.253,1.909,1.909,0,0,1-.748-.769,3.412,3.412,0,0,1-.271-1.616q0-1.088,0-2.178a1.761,1.761,0,0,1,.5-1.2,1.3,1.3,0,0,1,.142-.12,2.121,2.121,0,0,1,2.348-.857,2.354,2.354,0,0,1,1.436,1.1,3.458,3.458,0,0,1,.4,1.509c.03.351.019.707.025,1.059s.028.717.015,1.073a2.407,2.407,0,0,1-1.09,2.063,2.052,2.052,0,0,1-1.145.3,1.866,1.866,0,0,1-.6-.109Zm-7.941-10.763c.969-1.9,3.357-2.978,5.241-3.736a14.123,14.123,0,0,1,6.192-1.015,1.737,1.737,0,0,1,1.7,1.7,1.705,1.705,0,0,1-1.7,1.7,12.151,12.151,0,0,0-1.379-.022c-.23.01-.458.033-.688.05l-.162.018-.24.038a13.722,13.722,0,0,0-2.5.684c-.108.041-.216.083-.323.126q.207-.091-.074.032c-.211.1-.421.193-.628.3q-.543.271-1.065.584c-.192.115-.383.234-.57.359-.041.027-.315.241-.349.259-.1.093-.205.189-.3.291.018,0-.193.292-.224.355a1.7,1.7,0,0,1-2.93-1.712Zm5.287,14.1a4.944,4.944,0,0,0-3.317.193c-.088.041-.177.079-.264.124a1.736,1.736,0,0,1-2.321-.609,1.709,1.709,0,0,1,.609-2.321,8.424,8.424,0,0,1,6.195-.659,1.7,1.7,0,0,1-.9,3.272Z" transform="translate(-652.014 -182.744)" fill="#f39776"/>
        <path id="Trazado_1039750" data-name="Trazado 1039750" d="M685.057,233.4a5.548,5.548,0,0,1,.387.529,4.974,4.974,0,0,0,.706-.609,3.087,3.087,0,0,0,.579-.993,51.238,51.238,0,0,0,3.859-16.167c-2.75-.151-4.858-.44-7.316-2.786a20.118,20.118,0,0,1-1.623-1.763,5.223,5.223,0,0,0-.307.855,34.814,34.814,0,0,0-.99,14.368,22.6,22.6,0,0,0,1.2,4.77A5.551,5.551,0,0,1,685.057,233.4Z" transform="translate(-631.852 -189.542)" fill="#452137"/>
        <path id="Trazado_1039751" data-name="Trazado 1039751" d="M681.7,134.212c.654.036,1.343.064,2.083.11a84.639,84.639,0,0,0,25.447-2.3,85.288,85.288,0,0,0,12.62-4.191l.32-.132c-.094.058-.188.116-.277.183a5.345,5.345,0,0,0-1.88,3.4,14.761,14.761,0,0,0,.549,5.543,77.009,77.009,0,0,0,4.67,14.882c.066-.089.132-.179.2-.259a5.581,5.581,0,0,1,4.055-1.835l.009-.013a16.782,16.782,0,0,0,1.755-4.967q.86-3.594,1.719-7.187c.6-2.518,1.207-5.163.639-7.7s-2.738-4.859-5.1-4.47c.921-6.354-3.1-12.75-8.424-15.549s-11.61-2.555-17.319-.975c-11.715,3.241-22.013,11.726-34.033,13.2-.1.012,1.88,4.588,2.126,5.007a20.814,20.814,0,0,0,1.9,2.7,20.141,20.141,0,0,0,1.623,1.763C676.841,133.772,678.949,134.061,681.7,134.212Zm37.839-14.945a.866.866,0,0,1,1.2,0,20.834,20.834,0,0,1,2.743,3.124,16.771,16.771,0,0,1,1.644,2.749,11.431,11.431,0,0,0-.459-4.792.849.849,0,0,1,1.636-.451,12.887,12.887,0,0,1,.519,5.22.9.9,0,0,1,.287.274.841.841,0,0,1-.022.869,8.161,8.161,0,0,1,3.079,3.631.869.869,0,0,1-.3,1.16.853.853,0,0,1-1.16-.3,14.184,14.184,0,0,0-.694-1.255c-.06-.1-.123-.191-.187-.285l-.118-.167-.056-.078-.06-.074-.109-.13-.223-.246a6.438,6.438,0,0,0-.481-.444h0l-.127-.09-.262-.168q-.146-.087-.3-.162l-.117-.055a.135.135,0,0,1-.02-.006,3.666,3.666,0,0,0-.626-.171c-.029-.005-.048-.026-.074-.035l-1.523.809a.867.867,0,0,1-1.16-.3.854.854,0,0,1,.3-1.16l.889-.473a14.108,14.108,0,0,0-1.74-3.005,18.625,18.625,0,0,0-2.477-2.78A.858.858,0,0,1,719.537,119.268Zm-45.6,9.911a.858.858,0,0,1,1.2,0c.157.161.32.317.49.464l.23.192.006,0,.121.089a7.676,7.676,0,0,0,1.056.639c.1.051.2.1.305.145l0,0,.139.056q.3.116.6.207.288.086.581.148c.109.023.22.044.331.063l.148.023h0a.873.873,0,0,1,.848.848.85.85,0,0,1-.848.848,8.649,8.649,0,0,1-5.211-2.529A.865.865,0,0,1,673.935,129.179Z" transform="translate(-622.963 -107.592)" fill="#452137"/>
        <path id="Trazado_1039752" data-name="Trazado 1039752" d="M698.423,211.3a.873.873,0,0,0-.848-.848h0l-.148-.023c-.111-.019-.221-.04-.331-.063-.2-.042-.389-.091-.581-.148s-.4-.129-.6-.207l-.139-.056,0,0c-.1-.047-.2-.094-.3-.145a7.691,7.691,0,0,1-1.057-.639l-.121-.089-.006,0-.23-.192c-.17-.147-.333-.3-.489-.464a.848.848,0,0,0-1.2,1.2,8.651,8.651,0,0,0,5.211,2.529A.85.85,0,0,0,698.423,211.3Z" transform="translate(-641.392 -186.835)" fill="#643041"/>
        <path id="Trazado_1039753" data-name="Trazado 1039753" d="M941.241,191.073a4.48,4.48,0,0,1,.534.259.84.84,0,0,0,.022-.869.9.9,0,0,0-.287-.274c-.011.1-.009.206-.023.308A1.061,1.061,0,0,1,941.241,191.073Z" transform="translate(-837.652 -172.663)" fill="#643041"/>
        <path id="Trazado_1039754" data-name="Trazado 1039754" d="M924.316,196.388a.868.868,0,0,1-1.017-.594c-.03-.087-.073-.17-.106-.256l-.89.473a.855.855,0,0,0-.3,1.16.867.867,0,0,0,1.16.3l1.523-.809A.694.694,0,0,1,924.316,196.388Z" transform="translate(-822.401 -176.878)" fill="#643041"/>
        <path id="Trazado_1039755" data-name="Trazado 1039755" d="M909.751,165.7a14.1,14.1,0,0,1,1.74,3.005c.034.086.077.169.107.256a.868.868,0,0,0,1.017.594.957.957,0,0,1-.153-.731.748.748,0,0,1,.492-.532.629.629,0,0,1-.115-.414c.013-.1.012-.189.023-.285a16.765,16.765,0,0,0-1.644-2.749,20.836,20.836,0,0,0-2.742-3.124.866.866,0,0,0-1.2,0,.858.858,0,0,0,0,1.2A18.63,18.63,0,0,1,909.751,165.7Z" transform="translate(-810.699 -150.049)" fill="#643041"/>
        <path id="Trazado_1039756" data-name="Trazado 1039756" d="M933.782,194.028a.886.886,0,0,1-.733-.434.747.747,0,0,0-.492.532.959.959,0,0,0,.153.731.692.692,0,0,0,.366.279c.027.009.046.029.074.035a3.646,3.646,0,0,1,.626.171.149.149,0,0,0,.02.006l.117.055q.153.075.3.162l.262.168.127.09h0a6.416,6.416,0,0,1,.481.444l.223.246.109.13.06.074.056.078.118.167c.064.094.127.189.187.285a14.1,14.1,0,0,1,.694,1.255.853.853,0,0,0,1.16.3.869.869,0,0,0,.3-1.16,8.161,8.161,0,0,0-3.079-3.631,4.432,4.432,0,0,0-.534-.259A.826.826,0,0,1,933.782,194.028Z" transform="translate(-830.796 -175.346)" fill="#643041"/>
        <path id="Trazado_1039757" data-name="Trazado 1039757" d="M932.768,169.2a.886.886,0,0,0,.733.434.825.825,0,0,0,.6-.272,1.06,1.06,0,0,0,.246-.576c.013-.1.012-.206.023-.308a12.882,12.882,0,0,0-.519-5.22.848.848,0,0,0-1.636.451,11.428,11.428,0,0,1,.458,4.792c-.01.1-.01.189-.023.285A.632.632,0,0,0,932.768,169.2Z" transform="translate(-830.515 -150.949)" fill="#643041"/>
        <path id="Trazado_1039758" data-name="Trazado 1039758" d="M809.132,316.822a6.87,6.87,0,0,0,3.513-1.54.872.872,0,0,0,.3-1.16.856.856,0,0,0-1.161-.3,6.3,6.3,0,0,1-2.561,1.3,2.035,2.035,0,0,1-.966-.1.815.815,0,0,1-.491-.431c-.358-.937.4-2.212.792-3.064l1.594-3.467a.873.873,0,0,0-.3-1.16.855.855,0,0,0-1.16.3c-.641,1.394-1.29,2.785-1.923,4.182-.574,1.267-1.176,2.853-.4,4.175A2.976,2.976,0,0,0,809.132,316.822Z" transform="translate(-731.106 -264.524)" fill="#d46566"/>
        <path id="Trazado_1039759" data-name="Trazado 1039759" d="M765.836,352.42a3.949,3.949,0,0,0,5.216-1.6l-7.735-2.329S762.608,351.094,765.836,352.42Z" transform="translate(-697.428 -297.373)" fill="#fff8dc"/>
        <path id="Trazado_1039760" data-name="Trazado 1039760" d="M854.188,239.665a12.169,12.169,0,0,1,1.38-.022c.23.01.458.033.687.05l.162.018.241.038a13.7,13.7,0,0,1,2.5.684c.108.041.216.083.324.126q-.207-.091.074.032c.211.1.421.193.628.3q.544.272,1.065.584c.192.115.383.234.57.359.041.027.315.241.349.259.1.093.205.19.3.291-.018,0,.193.292.225.355a1.708,1.708,0,0,0,2.321.608,1.736,1.736,0,0,0,.609-2.321c-.97-1.9-3.357-2.979-5.241-3.736a14.124,14.124,0,0,0-6.193-1.015,1.7,1.7,0,0,0,0,3.393Z" transform="translate(-767.732 -208.944)" fill="#452137"/>
        <path id="Trazado_1039761" data-name="Trazado 1039761" d="M730.734,243.348a1.72,1.72,0,0,0,2.321-.608c.032-.062.243-.353.224-.355.1-.1.2-.2.3-.291.034-.018.308-.232.35-.259.187-.125.378-.243.57-.359q.521-.312,1.065-.584c.207-.1.417-.2.628-.3q.281-.123.074-.032c.107-.044.215-.085.323-.126a13.714,13.714,0,0,1,2.5-.684l.24-.038.162-.018c.23-.017.457-.04.687-.05a12.155,12.155,0,0,1,1.379.022,1.7,1.7,0,0,0,1.7-1.7,1.737,1.737,0,0,0-1.7-1.7,14.124,14.124,0,0,0-6.192,1.015c-1.883.758-4.271,1.833-5.241,3.736A1.728,1.728,0,0,0,730.734,243.348Z" transform="translate(-671.167 -208.947)" fill="#452137"/>
        <path id="Trazado_1039762" data-name="Trazado 1039762" d="M762.7,283.107a2.407,2.407,0,0,0,1.09-2.063c.013-.356-.009-.716-.015-1.073s0-.708-.025-1.059a3.458,3.458,0,0,0-.4-1.509,2.353,2.353,0,0,0-1.436-1.1,2.307,2.307,0,0,0-2.163.619,2.28,2.28,0,0,0-.185.238,1.282,1.282,0,0,0-.142.12,1.76,1.76,0,0,0-.5,1.2q0,1.088,0,2.178a3.409,3.409,0,0,0,.272,1.616,1.908,1.908,0,0,0,.748.769,1.956,1.956,0,0,0,.972.253l.039,0a1.868,1.868,0,0,0,.6.109A2.052,2.052,0,0,0,762.7,283.107Zm-2.858-5.774a.849.849,0,0,1,0,1.7A.849.849,0,0,1,759.84,277.332Z" transform="translate(-694.017 -240.457)" fill="#452137"/>
        <path id="Trazado_1039763" data-name="Trazado 1039763" d="M760.208,283.08a.849.849,0,0,0,0-1.7A.849.849,0,0,0,760.208,283.08Z" transform="translate(-694.385 -244.509)" fill="#fff8dc"/>
        <path id="Trazado_1039764" data-name="Trazado 1039764" d="M886.343,283.22a2.035,2.035,0,0,0,1.358-2.177c.013-.356-.009-.716-.014-1.073s0-.708-.025-1.059a3.454,3.454,0,0,0-.4-1.509,2.353,2.353,0,0,0-1.435-1.1,2.307,2.307,0,0,0-2.163.619,2.259,2.259,0,0,0-.186.238,1.291,1.291,0,0,0-.142.12,1.762,1.762,0,0,0-.5,1.2q0,1.089,0,2.178a3.405,3.405,0,0,0,.271,1.616,1.9,1.9,0,0,0,.748.769,1.967,1.967,0,0,0,.326.132A13.679,13.679,0,0,1,886.343,283.22Zm-2.59-5.888a.849.849,0,0,1,0,1.7A.849.849,0,0,1,883.753,277.332Z" transform="translate(-791.638 -240.457)" fill="#452137"/>
        <path id="Trazado_1039765" data-name="Trazado 1039765" d="M884.124,283.08a.849.849,0,0,0,0-1.7A.849.849,0,0,0,884.124,283.08Z" transform="translate(-792.008 -244.509)" fill="#fff8dc"/>
        <path id="Trazado_1039766" data-name="Trazado 1039766" d="M735.135,310.718a1.729,1.729,0,0,0-1.185-2.087,8.424,8.424,0,0,0-6.195.659,1.709,1.709,0,0,0-.609,2.321,1.736,1.736,0,0,0,2.321.609c.086-.045.176-.083.264-.124a6.872,6.872,0,0,1,1.29-.35,4.889,4.889,0,0,1,2.027.157A1.715,1.715,0,0,0,735.135,310.718Z" transform="translate(-668.802 -265.727)" fill="#d46566"/>
        <path id="Trazado_1039767" data-name="Trazado 1039767" d="M880.947,308.886a13.709,13.709,0,0,0-2.159-.042,14.988,14.988,0,0,0-1.557.182,1.7,1.7,0,0,0-1.013.78,1.734,1.734,0,0,0-.171,1.307,1.716,1.716,0,0,0,.779,1.014,1.928,1.928,0,0,0,1.307.171l.15-.023a9.833,9.833,0,0,1,4.509.425,1.71,1.71,0,0,0,2.087-1.185,1.735,1.735,0,0,0-1.185-2.087A12.526,12.526,0,0,0,880.947,308.886Z" transform="translate(-786.242 -266.122)" fill="#d46566"/>
        <path id="Trazado_1039768" data-name="Trazado 1039768" d="M943.959,353.019l0-.032C943.951,352.889,943.95,352.967,943.959,353.019Z" transform="translate(-839.788 -300.882)" fill="#f39776"/>
        <path id="Trazado_1039769" data-name="Trazado 1039769" d="M942.793,357.51c-.009.006,0,.006-.012.011l0,.005Z" transform="translate(-838.863 -304.482)" fill="#f39776"/>
        <path id="Trazado_1039770" data-name="Trazado 1039770" d="M942.753,357.586l-.007.007s0,0,.005,0Z" transform="translate(-838.837 -304.542)" fill="#f39776"/>
        <path id="Trazado_1039771" data-name="Trazado 1039771" d="M927.167,307.489c-.068.08-.134.17-.2.259-2,2.708-3.173,9.54-1,12.333.9,1.152,2.359,1.618,4.568.822a7.459,7.459,0,0,0,3.926-3.806c1.4-2.8,2.108-8.081-.512-10.495a3.873,3.873,0,0,0-2.728-.949A5.58,5.58,0,0,0,927.167,307.489Zm6.422,1.584a.849.849,0,0,1-.451,1.636l-.232-.062c-.013,0-.124-.018-.143-.023a3.185,3.185,0,0,0-.343-.013l-.239.014-.012,0a3.946,3.946,0,0,0-.431.1l-.191.063-.133.056c-.109.052-.218.107-.323.168l-.205.129-.109.075-.1.084-.149.133a4.986,4.986,0,0,0-.553.6l-.075.1-.113.166c-.082.124-.159.25-.232.378-.135.233-.254.474-.367.718a.324.324,0,0,1-.019.036v0a2.894,2.894,0,0,1,1.358,1.956,2.994,2.994,0,0,1-1.31,2.988.848.848,0,1,1-.856-1.465l.032-.021.074-.066.146-.156c-.047.062-.067.044.01-.012l.069-.107.1-.2.04-.128.033-.133.007-.041c0-.023,0-.047.005-.058l0-.136,0-.1-.056-.23c-.006-.02-.033-.083-.035-.093h0l-.134-.23-.062-.087.02.035c.037.046.057.1,0,0l-.006-.008-.186-.185c-.116-.059-.058-.051,0,0l0,0,.023.012-.088-.061-.223-.127-.1-.035a.864.864,0,0,1-.593-1.029,3.493,3.493,0,0,1,.543-1.69,6.959,6.959,0,0,1,1.3-1.75A4.508,4.508,0,0,1,933.589,309.073Z" transform="translate(-824.7 -263.629)" fill="#f39776"/>
        <path id="Trazado_1039772" data-name="Trazado 1039772" d="M941.564,349.406l0,0C941.506,349.355,941.448,349.347,941.564,349.406Z" transform="translate(-837.853 -298.065)" fill="#d46566"/>
        <path id="Trazado_1039773" data-name="Trazado 1039773" d="M942.6,357.562c-.077.057-.057.074-.01.012l.007-.007Z" transform="translate(-838.683 -304.523)" fill="#d46566"/>
        <path id="Trazado_1039774" data-name="Trazado 1039774" d="M942.719,350.471c.057.1.037.046,0,0Z" transform="translate(-838.816 -298.937)" fill="#d46566"/>
        <path id="Trazado_1039775" data-name="Trazado 1039775" d="M938.8,342.483a.86.86,0,0,1-.31,1.145.872.872,0,0,1-1.161-.3,1.174,1.174,0,0,1-.237-.672.864.864,0,0,0,.593,1.029l.1.035.223.127.088.061-.023-.012.186.185.006.008c-.007-.012-.01-.017-.02-.035l.062.087.134.23h0c0,.01.029.073.035.093l.056.23,0,.1,0,.136c0,.011,0,.034-.005.057l-.007.041-.033.133-.04.128-.1.2-.069.107c.007-.005,0-.005.012-.011l-.015.016,0,0s0,0,0,0l-.146.156-.074.066-.032.021a.848.848,0,1,0,.856,1.465,3,3,0,0,0,1.31-2.988,2.9,2.9,0,0,0-1.358-1.956.236.236,0,0,1-.007.032Zm-.265,2.172,0,.032C938.529,344.635,938.529,344.557,938.535,344.655Z" transform="translate(-834.366 -292.55)" fill="#d46566"/>
        <path id="Trazado_1039776" data-name="Trazado 1039776" d="M937.7,324.152a3.5,3.5,0,0,0-.543,1.69,1.175,1.175,0,0,0,.238.672.872.872,0,0,0,1.161.3.86.86,0,0,0,.31-1.145l.023-.086a.217.217,0,0,0,.007-.032v0a.305.305,0,0,0,.019-.036c.113-.244.233-.485.367-.718.074-.128.151-.254.232-.378l.113-.167.075-.1a5,5,0,0,1,.553-.6l.149-.133.1-.084.109-.075.205-.129c.1-.062.213-.116.323-.168l.133-.056.191-.063a3.954,3.954,0,0,1,.431-.1l.012,0,.239-.014a3.193,3.193,0,0,1,.343.013c.019,0,.13.02.143.023l.232.062a.848.848,0,0,0,.451-1.636A4.51,4.51,0,0,0,939,322.4,6.979,6.979,0,0,0,937.7,324.152Z" transform="translate(-834.436 -275.739)" fill="#d46566"/>
        <path id="Trazado_1039777" data-name="Trazado 1039777" d="M701.309,351.047l.035-.018C701.324,351.036,701.308,351.042,701.309,351.047Z" transform="translate(-648.629 -299.376)" fill="#f39776"/>
        <path id="Trazado_1039778" data-name="Trazado 1039778" d="M672.425,308.023a5.471,5.471,0,0,0-.387-.529,5.548,5.548,0,0,0-3.5-1.8,4.042,4.042,0,0,0-3.281.909c-2.621,2.414-1.916,7.694-.512,10.495a7.459,7.459,0,0,0,3.926,3.806c2.489.9,4.03.19,4.88-1.294C675.227,316.688,674.21,310.735,672.425,308.023Zm-.915,11.357a.868.868,0,0,1-1.161-.3,4.467,4.467,0,0,1-.991-3.346,2.9,2.9,0,0,1,.733-1.433,2.2,2.2,0,0,1,.637-.472l-.05-.122-.034-.08-.079-.182c-.1-.236-.215-.469-.336-.7a6.594,6.594,0,0,0-.419-.687l-.057-.08-.091-.111c-.082-.1-.168-.19-.259-.279l-.13-.121c-.012-.01-.081-.064-.1-.079-.081-.058-.163-.115-.248-.166-.1-.062-.211-.111-.316-.166.165.086-.029-.01-.061-.022l-.134-.044-.2-.053-.071-.015-.116-.013-.172,0-.172.008h-.015a.138.138,0,0,1-.031.011l-.134.034c-.026.008-.242.087-.06.01a.876.876,0,0,1-1.16-.3.85.85,0,0,1,.3-1.16,3.3,3.3,0,0,1,2.111-.192,4.2,4.2,0,0,1,1.752.935,8.5,8.5,0,0,1,2.029,3.4.666.666,0,0,1-.055.571.921.921,0,0,1,.045.191.871.871,0,0,1-.848.848c.239-.031.057,0-.046.023l-.034.021-.1.056-.021.014-.05.045-.1.1-.024.029-.035.051-.06.1-.058.112-.071.228-.023.108c0,.091-.009.18,0,.272l.005.081c.005.031.017.115.018.118a3.33,3.33,0,0,0,.19.615l0,0,.081.162q.075.146.16.286c.112.188.235.368.363.545A.859.859,0,0,1,671.511,319.38Z" transform="translate(-618.833 -263.633)" fill="#f39776"/>
        <path id="Trazado_1039779" data-name="Trazado 1039779" d="M693.064,347.99c-.056-.094-.109-.189-.16-.286l-.081-.162,0,0a3.3,3.3,0,0,1-.19-.615s-.012-.087-.018-.118-.005-.081-.005-.081c0-.092,0-.181,0-.272l.023-.108.071-.228.058-.112.06-.1.035-.051.024-.029.1-.1.05-.044.021-.014.1-.056.034-.021c.1-.028.284-.055.046-.024a.871.871,0,0,0,.848-.848.919.919,0,0,0-.045-.191.982.982,0,0,1-.537.473.87.87,0,0,1-1.044-.592l-.111-.272a2.194,2.194,0,0,0-.637.472,2.9,2.9,0,0,0-.733,1.433,4.468,4.468,0,0,0,.991,3.346.868.868,0,0,0,1.161.3.858.858,0,0,0,.3-1.16C693.3,348.358,693.177,348.177,693.064,347.99Zm.1-2.388-.035.018C693.125,345.614,693.141,345.608,693.16,345.6Z" transform="translate(-640.446 -293.949)" fill="#d46566"/>
        <path id="Trazado_1039780" data-name="Trazado 1039780" d="M681.822,327.9a.981.981,0,0,0,.537-.473.665.665,0,0,0,.055-.571,8.494,8.494,0,0,0-2.029-3.4,4.2,4.2,0,0,0-1.752-.935,3.3,3.3,0,0,0-2.112.192.85.85,0,0,0-.3,1.16.876.876,0,0,0,1.16.3c-.182.077.033,0,.059-.01l.134-.033a.14.14,0,0,0,.031-.011h.015l.172-.008.172,0c.016,0,.085.01.116.013l.071.015.2.053.134.044c.032.011.226.108.061.022.105.055.213.1.316.166.086.051.167.108.249.166.018.015.088.069.1.079l.13.12c.091.089.177.182.259.279l.091.111.057.08a6.635,6.635,0,0,1,.419.687c.121.228.232.461.336.7l.079.182.033.08.05.122.111.272A.871.871,0,0,0,681.822,327.9Z" transform="translate(-628.772 -276.843)" fill="#d46566"/>
        <path id="Trazado_1039781" data-name="Trazado 1039781" d="M756.832,430.279a26.075,26.075,0,0,0,27.838.305,1.653,1.653,0,0,0,.655-.727,1.884,1.884,0,0,0-.566-2.119,1.494,1.494,0,0,0-1.8-.084,22.682,22.682,0,0,1-24.412-.306,1.485,1.485,0,0,0-2.111.4,1.934,1.934,0,0,0-.112.161,1.852,1.852,0,0,0-.218,1.36A1.641,1.641,0,0,0,756.832,430.279Z" transform="translate(-691.76 -359.283)" fill="#452137"/>
        <path id="Trazado_1039782" data-name="Trazado 1039782" d="M777.117,516.311c.374,1.016,2.015.576,1.636-.451a102.549,102.549,0,0,1-3.281-10.653.849.849,0,0,0-1.636.451A102.521,102.521,0,0,0,777.117,516.311Z" transform="translate(-705.744 -420.365)" fill="#d46566"/>
        <path id="Trazado_1039783" data-name="Trazado 1039783" d="M868.85,521.028l-.172.133a.851.851,0,0,0-.218.374,6.968,6.968,0,0,0-.489,2.075.852.852,0,0,0,.249.6.847.847,0,0,0,1.2,0,.955.955,0,0,0,.248-.6l.011-.1a6.251,6.251,0,0,1,.417-1.522.849.849,0,0,0-.085-.654.85.85,0,0,0-1.161-.3Z" transform="translate(-779.927 -433.216)" fill="#d46566"/>
        <path id="Trazado_1039784" data-name="Trazado 1039784" d="M560.992,840.753q.9.636,1.817,1.256a12.43,12.43,0,0,0,4.478,2.189,5.279,5.279,0,0,0,1.891.025,2.825,2.825,0,0,1-1.669-.951c-2.793-3.876,2.3-15.281,3.457-19.15,2.391-8.018,5.362-15.976,10.136-22.908a2.957,2.957,0,0,1,.973-1.008,1.722,1.722,0,0,1,.431-.152l.04-.06a.864.864,0,0,1,1.161-.3.837.837,0,0,1,.3.338l.035,0a50.624,50.624,0,0,0-4.834-9.063,99.738,99.738,0,0,0-7.669-9.918c-2.524-3-5.029-6.014-7.57-9-2.155,3.7-5.715,6.962-8.63,10.068-3.39,3.613-6.913,7.1-10.453,10.566-2.839,2.78-5.93,5.34-8.927,7.944-2.519,2.188-5.2,5.141-8.2,6.726,2.178,3.55,5.425,7.057,7.994,10.025.291.336.576.667.846.988A129.34,129.34,0,0,0,560.992,840.753Z" transform="translate(-511.901 -631.065)" fill="#f39776"/>
        <path id="Trazado_1039785" data-name="Trazado 1039785" d="M468.586,653.75c.1-.05.2-.114.3-.167,3-1.584,5.682-4.538,8.2-6.726,3-2.6,6.089-5.164,8.927-7.944,3.54-3.466,7.063-6.952,10.453-10.566,2.914-3.107,6.475-6.373,8.63-10.068l.006-.01L484.281,577.2l-.17-.336a20.563,20.563,0,0,1-2.938,1.617,63.942,63.942,0,0,0-16.522,10.87,36.082,36.082,0,0,0-10.85,19.777,46.964,46.964,0,0,0,3.042,26.753C457.5,637.479,466.939,654.561,468.586,653.75Z" transform="translate(-453.029 -477.293)" fill="#87a1c5"/>
        <path id="Trazado_1039786" data-name="Trazado 1039786" d="M728.546,904.725l-5.4,8.03a.865.865,0,0,1-1.161.3.856.856,0,0,1-.3-1.16l5.356-7.97a1.721,1.721,0,0,0-.431.152,2.956,2.956,0,0,0-.973,1.008c-4.774,6.932-7.746,14.89-10.136,22.908-1.154,3.869-6.249,15.275-3.457,19.15a2.824,2.824,0,0,0,1.669.951c1.971.491,4.912.131,6.5.186q10.224.349,20.454.226,20.314-.245,40.548-2.35c3.142-.327,6.28-.7,9.414-1.095a.84.84,0,0,1,.8-.991,39.109,39.109,0,0,0,4.97-.615,3.6,3.6,0,0,1-2.317-2.811c0-7.984-1.885-15.807-3.564-23.564-.794-3.668-1.816-5.665.148-8.988.229-.387.476-.763.714-1.144l-.151,0c-.126,0-.253,0-.38-.009q-8.908-.3-17.811-.684-22.242-.946-44.461-2.35l-.035,0A.8.8,0,0,1,728.546,904.725Z" transform="translate(-656.435 -734.941)" fill="#f39776"/>
        <path id="Trazado_1039787" data-name="Trazado 1039787" d="M760.408,911.38a.865.865,0,0,0,1.161-.3l5.4-8.03a.8.8,0,0,0,0-.822.834.834,0,0,0-.3-.338.864.864,0,0,0-1.161.3l-.04.06-5.356,7.97A.856.856,0,0,0,760.408,911.38Z" transform="translate(-694.855 -733.261)" fill="#d46566"/>
        <path id="Trazado_1039788" data-name="Trazado 1039788" d="M1092.634,863.318a8.426,8.426,0,0,0-2.185,1.184,18.344,18.344,0,0,0-2.839,2.725,56.718,56.718,0,0,0-5.455,7.338c-.238.381-.486.757-.714,1.144-1.964,3.323-.942,5.32-.148,8.988,1.679,7.757,3.564,15.58,3.564,23.564a3.6,3.6,0,0,0,2.317,2.811c.823-.135,1.649-.266,2.486-.36,2.59-.291,5.165.637,7.747.764,5.454.268,10.816-1.1,16.021-2.572a16.615,16.615,0,0,0,3.5-1.136,5.79,5.79,0,0,0,2.106-2.681,8.5,8.5,0,0,1,1.736-2.364,8.649,8.649,0,0,0,2.322-2.435,8.9,8.9,0,0,0,.671-3.538,9.059,9.059,0,0,1,.278-2.991c.42-1.045,1.345-1.868,1.866-2.879a11.294,11.294,0,0,0,1.089-3.51.685.685,0,0,1,.288-.48c-.135-1.4-1.168-3.452-.4-4.545s5.721-1.4,7.048-1.713q3.755-.9,7.482-1.907a18.715,18.715,0,0,0,2.493-.849,6.842,6.842,0,0,0,2.839-2.045,3.92,3.92,0,0,0,.7-1.417c.536-2.171-1.042-4.42-3.057-5.389a14,14,0,0,0-6.579-.885c-7.2.241-14.39,1.627-21.564,1.813a10.655,10.655,0,0,1-1.493-.069.868.868,0,0,1-.625,1.424,18.23,18.23,0,0,0-3.234.523c-.915.185-1.824.308-2.748.436-2.458.339-4.9.8-7.364,1.1a.853.853,0,0,1-.849-.848.793.793,0,0,1,.432-.7,10.6,10.6,0,0,1-2.267-2.293.848.848,0,0,1,.958-1.246.918.918,0,0,1,.507.39l.092.125.019.025.037.047.065.08c.108.133.221.263.337.389a9.458,9.458,0,0,0,.717.7c.124.109.253.214.382.318l.088.066.188.134a9.575,9.575,0,0,0,.876.541.744.744,0,0,1,.3.318c1.779-.267,3.551-.58,5.334-.821.277-.038.556-.075.834-.107l.232-.025.177-.028c.51-.092,1.017-.2,1.526-.3a27.08,27.08,0,0,1,2.684-.472,25.713,25.713,0,0,1-6.137-2.473C1102.46,864.648,1097.68,861.537,1092.634,863.318Z" transform="translate(-947.212 -702.554)" fill="#f39776"/>
        <path id="Trazado_1039789" data-name="Trazado 1039789" d="M1182.152,895.746l-.177.028-.231.025c-.279.033-.557.07-.834.108-1.783.241-3.555.555-5.334.821a.905.905,0,0,1,.007.842.862.862,0,0,1-1.161.3,9.79,9.79,0,0,1-1.142-.743.793.793,0,0,0-.432.7.853.853,0,0,0,.848.848c2.464-.3,4.906-.761,7.364-1.1.924-.128,1.833-.251,2.748-.436a18.231,18.231,0,0,1,3.234-.523.868.868,0,0,0,.625-1.424.759.759,0,0,0-.625-.272c-.226,0-.453.025-.679.047a27.07,27.07,0,0,0-2.685.472C1183.169,895.549,1182.662,895.654,1182.152,895.746Z" transform="translate(-1020.116 -727.871)" fill="#d46566"/>
        <path id="Trazado_1039790" data-name="Trazado 1039790" d="M1168.3,892.506a.9.9,0,0,0-.007-.842.747.747,0,0,0-.3-.318,9.462,9.462,0,0,1-.875-.541l-.189-.134-.088-.066c-.129-.1-.258-.209-.382-.318a9.462,9.462,0,0,1-.717-.7q-.174-.19-.337-.389l-.064-.08-.038-.047-.019-.025-.092-.125a.918.918,0,0,0-.507-.39.848.848,0,0,0-.958,1.246,10.608,10.608,0,0,0,2.267,2.293,9.823,9.823,0,0,0,1.142.743A.862.862,0,0,0,1168.3,892.506Z" transform="translate(-1012.835 -722.806)" fill="#d46566"/>
        <path id="Trazado_1039791" data-name="Trazado 1039791" d="M1086.245,1000.691a.839.839,0,0,0-.8.991.746.746,0,0,0,.8.706c.375-.013.748-.039,1.121-.065a39.972,39.972,0,0,0,5.015-.671c2.308-.455,4.3-.033,6.582.286a36.767,36.767,0,0,0,13.006-.859c2.167-.479,4.308-1.066,6.442-1.675,1.725-.491,3.6-.882,4.82-2.31,1.155-1.352,1.564-3.105,2.937-4.3a8.082,8.082,0,0,0,2.881-3.774,12.053,12.053,0,0,0,.438-2.851c.072-1.259-.11-2.469.686-3.523a12.711,12.711,0,0,0,2.506-5.823.886.886,0,0,0-.418-.9.848.848,0,0,0-.929-.028.684.684,0,0,0-.288.48,11.3,11.3,0,0,1-1.089,3.51c-.522,1.011-1.446,1.834-1.866,2.88a9.075,9.075,0,0,0-.278,2.991,8.911,8.911,0,0,1-.671,3.538,8.648,8.648,0,0,1-2.322,2.436,8.5,8.5,0,0,0-1.736,2.364,5.79,5.79,0,0,1-2.106,2.681,16.583,16.583,0,0,1-3.5,1.136c-5.2,1.473-10.566,2.84-16.021,2.572-2.583-.127-5.157-1.055-7.747-.764-.837.094-1.663.225-2.486.36A39.154,39.154,0,0,1,1086.245,1000.691Z" transform="translate(-951.253 -791.558)" fill="#d46566"/>
      </g>
    </g>
  </g>
</svg>
