<svg xmlns="http://www.w3.org/2000/svg" xmlns:xlink="http://www.w3.org/1999/xlink" width="93.934" height="93.934" viewBox="0 0 93.934 93.934">
  <defs>
    <filter id="Trazado_982547" x="0" y="0" width="93.934" height="93.934" filterUnits="userSpaceOnUse">
      <feOffset dy="3" input="SourceAlpha"/>
      <feGaussianBlur stdDeviation="3" result="blur"/>
      <feFlood flood-opacity="0.161"/>
      <feComposite operator="in" in2="blur"/>
      <feComposite in="SourceGraphic"/>
    </filter>
  </defs>
  <g id="Grupo_1180682" data-name="Grupo 1180682" transform="translate(-186 -2654)">
    <g id="Grupo_1179660" data-name="Grupo 1179660" transform="translate(-3 47)">
      <g id="Grupo_1173782" data-name="Grupo 1173782" transform="translate(-0.033 621)">
        <g id="Grupo_1167337" data-name="Grupo 1167337" transform="translate(198.033 1992)">
          <g id="Grupo_1166720" data-name="Grupo 1166720">
            <g id="Grupo_1164305" data-name="Grupo 1164305">
              <g id="Grupo_1163948" data-name="Grupo 1163948">
                <g id="Grupo_1158168" data-name="Grupo 1158168">
                  <g id="Grupo_1152576" data-name="Grupo 1152576">
                    <g id="Grupo_1148633" data-name="Grupo 1148633">
                      <g id="Grupo_1148525" data-name="Grupo 1148525">
                        <g transform="matrix(1, 0, 0, 1, -9, -6)" filter="url(#Trazado_982547)">
                          <g id="Trazado_982547-2" data-name="Trazado 982547" transform="translate(9 6)" fill="#e9f9fd">
                            <path d="M 37.966796875 74.43359375 C 33.04315185546875 74.43359375 28.26757431030273 73.46962738037109 23.77274131774902 71.56847381591797 C 19.43047523498535 69.73184967041016 15.53040790557861 67.10224914550781 12.18087482452393 63.75271987915039 C 8.831341743469238 60.4031867980957 6.201741218566895 56.50312042236328 4.365118980407715 52.16086196899414 C 2.463963508605957 47.66601943969727 1.499996900558472 42.89044189453125 1.499996900558472 37.966796875 C 1.499996900558472 33.04315185546875 2.463963508605957 28.26757431030273 4.365118980407715 23.77274131774902 C 6.201741218566895 19.43047523498535 8.831341743469238 15.53040790557861 12.18087482452393 12.18087482452393 C 15.53040790557861 8.831341743469238 19.43047523498535 6.201741218566895 23.77274131774902 4.365118980407715 C 28.26757431030273 2.463963508605957 33.04315185546875 1.499996900558472 37.966796875 1.499996900558472 C 42.89044189453125 1.499996900558472 47.66601943969727 2.463963508605957 52.16086196899414 4.365118980407715 C 56.50312042236328 6.201741218566895 60.4031867980957 8.831341743469238 63.75271987915039 12.18087482452393 C 67.10224914550781 15.53040790557861 69.73184967041016 19.43047523498535 71.56847381591797 23.77274131774902 C 73.46962738037109 28.26757431030273 74.43359375 33.04315185546875 74.43359375 37.966796875 C 74.43359375 42.89044189453125 73.46962738037109 47.66601943969727 71.56847381591797 52.16086196899414 C 69.73184967041016 56.50313186645508 67.10224914550781 60.4031867980957 63.75271987915039 63.75271987915039 C 60.4031867980957 67.10224914550781 56.50313186645508 69.73184967041016 52.16086196899414 71.56847381591797 C 47.66601943969727 73.46962738037109 42.89044189453125 74.43359375 37.966796875 74.43359375 Z" stroke="none"/>
                            <path d="M 37.966796875 3 C 33.2449836730957 3 28.66600799560547 3.924095153808594 24.35705947875977 5.746635437011719 C 20.19359588623047 7.507637023925781 16.45379638671875 10.02928161621094 13.24153518676758 13.24153518676758 C 10.02927398681641 16.45379638671875 7.507621765136719 20.19359588623047 5.746635437011719 24.35705947875977 C 3.924095153808594 28.66600799560547 3 33.2449836730957 3 37.966796875 C 3 42.6886100769043 3.924095153808594 47.26758575439453 5.746635437011719 51.57653427124023 C 7.507621765136719 55.73999786376953 10.02927398681641 59.47979736328125 13.24153518676758 62.69205856323242 C 16.45379638671875 65.90431976318359 20.19359588623047 68.42597198486328 24.35705947875977 70.18695831298828 C 28.66600799560547 72.00949859619141 33.2449836730957 72.93359375 37.966796875 72.93359375 C 42.6886100769043 72.93359375 47.26758575439453 72.00949859619141 51.57653427124023 70.18695831298828 C 55.73999786376953 68.42597198486328 59.47979736328125 65.90431976318359 62.69205856323242 62.69205856323242 C 65.90431976318359 59.47979736328125 68.42597198486328 55.73999786376953 70.18695831298828 51.57653427124023 C 72.00949859619141 47.26758575439453 72.93359375 42.6886100769043 72.93359375 37.966796875 C 72.93359375 33.2449836730957 72.00949859619141 28.66600799560547 70.18695831298828 24.35705947875977 C 68.42597198486328 20.19359588623047 65.90431976318359 16.45379638671875 62.69205856323242 13.24153518676758 C 59.47979736328125 10.02928161621094 55.73999786376953 7.507637023925781 51.57653427124023 5.746635437011719 C 47.26758575439453 3.924095153808594 42.6886100769043 3 37.966796875 3 M 37.966796875 0 C 58.93528366088867 0 75.93359375 16.99832153320312 75.93359375 37.966796875 C 75.93359375 58.93528366088867 58.93528366088867 75.93359375 37.966796875 75.93359375 C 16.99831008911133 75.93359375 0 58.93528366088867 0 37.966796875 C 0 16.99832153320312 16.99831008911133 0 37.966796875 0 Z" stroke="none" fill="#1d7083"/>
                          </g>
                        </g>
                      </g>
                    </g>
                  </g>
                </g>
              </g>
            </g>
          </g>
        </g>
      </g>
    </g>
    <g id="bombilla" transform="translate(209 2674)">
      <path id="Trazado_1040034" data-name="Trazado 1040034" d="M230.7,459.347l-2.882-1.441-2.882,1.441a2.882,2.882,0,0,0,5.763,0Z" transform="translate(-204.07 -415.424)" fill="#8795de"/>
      <path id="Trazado_1040035" data-name="Trazado 1040035" d="M224.938,459.347a2.869,2.869,0,0,0,.358,1.392h5.048a2.869,2.869,0,0,0,.358-1.392l-2.882-1.441Z" transform="translate(-204.07 -415.424)" fill="#6c7fd8"/>
      <path id="Trazado_1040036" data-name="Trazado 1040036" d="M216.66,402.985H210.8a1.392,1.392,0,0,1-1.392-1.392v-4.372l4.323-1.441,4.323,1.441v4.372A1.392,1.392,0,0,1,216.66,402.985Z" transform="translate(-189.979 -359.063)" fill="#c8effe"/>
      <path id="Trazado_1040037" data-name="Trazado 1040037" d="M216.2,404.646v3.135a1.392,1.392,0,0,1-1.392,1.392h-5.4v.464a1.392,1.392,0,0,0,1.392,1.392h5.862a1.392,1.392,0,0,0,1.392-1.392v-4.372Z" transform="translate(-189.979 -367.106)" fill="#99e6fc"/>
      <path id="Trazado_1040038" data-name="Trazado 1040038" d="M110.531,24.07A16.57,16.57,0,1,0,84.895,37.942a5.606,5.606,0,0,1,2.379,3.325l.573,2.291a1.855,1.855,0,0,0,1.8,1.405h8.63a1.856,1.856,0,0,0,1.8-1.405l.573-2.291a5.526,5.526,0,0,1,2.337-3.3A16.556,16.556,0,0,0,110.531,24.07Z" transform="translate(-70.211 -6.804)" fill="#ffe177"/>
      <path id="Trazado_1040039" data-name="Trazado 1040039" d="M205.023,48.835a16.573,16.573,0,0,1-3.711,24.5,5.526,5.526,0,0,0-2.337,3.3l-.573,2.291a1.855,1.855,0,0,1-1.8,1.405h-8.478l.182.728a1.855,1.855,0,0,0,1.8,1.405h8.63a1.856,1.856,0,0,0,1.8-1.405l.573-2.291a5.526,5.526,0,0,1,2.337-3.3,16.573,16.573,0,0,0,1.577-26.635Z" transform="translate(-170.671 -44.304)" fill="#ffd15b"/>
      <path id="Trazado_1040040" data-name="Trazado 1040040" d="M87.156,0a17.3,17.3,0,0,0-8.777,2.381.7.7,0,0,0,.706,1.2,15.882,15.882,0,0,1,16.715,27,6.2,6.2,0,0,0-2.632,3.711L92.6,36.585a1.158,1.158,0,0,1-1.125.878h-.737V28.257a.233.233,0,0,1,.186-.227l2.831-.566a1.628,1.628,0,0,0,1.305-1.592V23.12a.7.7,0,1,0-1.392,0v2.752a.233.233,0,0,1-.186.227l-2.831.566a1.628,1.628,0,0,0-1.305,1.592v9.206h-1.49V18.557l5.535-1.107a.232.232,0,0,1,.277.227v2.2a.7.7,0,0,0,1.392,0v-2.2a1.624,1.624,0,0,0-1.942-1.592l-5.958,1.192L81.2,16.085a1.624,1.624,0,0,0-1.942,1.592v8.194a1.628,1.628,0,0,0,1.305,1.592l2.831.566a.233.233,0,0,1,.186.227v9.206h-.737a1.158,1.158,0,0,1-1.125-.878l-.573-2.291a6.287,6.287,0,0,0-2.673-3.738A15.9,15.9,0,0,1,76.508,5.472a.7.7,0,1,0-.932-1.033A17.288,17.288,0,0,0,77.708,31.72a4.9,4.9,0,0,1,2.085,2.911l.573,2.291a2.547,2.547,0,0,0,1.771,1.834v1.588h-.745a.7.7,0,0,0,0,1.392h.745v.794a2.091,2.091,0,0,0,1.493,2,3.578,3.578,0,0,0,7.051,0,2.091,2.091,0,0,0,1.493-2v-.794h.745a.7.7,0,0,0,0-1.392h-.745V38.756a2.548,2.548,0,0,0,1.771-1.834l.573-2.291a4.813,4.813,0,0,1,2.041-2.882A17.267,17.267,0,0,0,87.156,0ZM83.664,26.665,80.833,26.1a.233.233,0,0,1-.186-.227V17.677a.232.232,0,0,1,.277-.227l5.535,1.107V37.463h-1.49V28.257A1.628,1.628,0,0,0,83.664,26.665Zm3.491,19.444a2.19,2.19,0,0,1-2.072-1.49h4.145a2.19,2.19,0,0,1-2.072,1.49Zm1.475-4.372h2.151v.794a.7.7,0,0,1-.7.7H84.224a.7.7,0,0,1-.7-.7v-.794h1.855a.7.7,0,0,0,0-1.392H83.529v-1.49h7.254v1.49H88.631a.7.7,0,0,0,0,1.392Z" transform="translate(-63.405)"/>
      <path id="Trazado_1040041" data-name="Trazado 1040041" d="M202.465,209.5l1.441.288a.7.7,0,1,0,.273-1.365l-1.441-.288a.7.7,0,0,0-.273,1.365Z" transform="translate(-183.174 -188.81)"/>
      <path id="Trazado_1040042" data-name="Trazado 1040042" d="M204.178,245.7l-1.441-.288a.7.7,0,1,0-.273,1.365l1.441.288a.7.7,0,1,0,.273-1.365Z" transform="translate(-183.174 -222.628)"/>
      <path id="Trazado_1040043" data-name="Trazado 1040043" d="M282.38,208.677a.7.7,0,0,0-.819-.546l-1.441.288a.7.7,0,1,0,.273,1.365l1.441-.288A.7.7,0,0,0,282.38,208.677Z" transform="translate(-253.625 -188.81)"/>
      <path id="Trazado_1040044" data-name="Trazado 1040044" d="M281.561,245.406l-1.441.288a.7.7,0,1,0,.273,1.365l1.441-.288a.7.7,0,1,0-.273-1.365Z" transform="translate(-253.625 -222.627)"/>
      <path id="Trazado_1040045" data-name="Trazado 1040045" d="M469.516,178.609h-2.882a.7.7,0,0,0,0,1.392h2.882a.7.7,0,0,0,0-1.392Z" transform="translate(-422.711 -162.039)"/>
      <path id="Trazado_1040046" data-name="Trazado 1040046" d="M451.1,80.488a.692.692,0,0,0,.347-.093l2.5-1.441a.7.7,0,1,0-.7-1.205l-2.5,1.441a.7.7,0,0,0,.349,1.3Z" transform="translate(-408.619 -70.451)"/>
      <path id="Trazado_1040047" data-name="Trazado 1040047" d="M453.945,265.564l-2.5-1.441a.7.7,0,1,0-.7,1.205l2.5,1.441a.7.7,0,1,0,.7-1.205Z" transform="translate(-408.62 -239.535)"/>
      <path id="Trazado_1040048" data-name="Trazado 1040048" d="M4.273,179.3a.7.7,0,0,0-.7-.7H.7A.7.7,0,0,0,.7,180H3.578A.7.7,0,0,0,4.273,179.3Z" transform="translate(0 -162.039)"/>
      <path id="Trazado_1040049" data-name="Trazado 1040049" d="M23.231,79.189l-2.5-1.441a.7.7,0,0,0-.7,1.205l2.5,1.441a.7.7,0,0,0,.7-1.205Z" transform="translate(-17.864 -70.45)"/>
      <path id="Trazado_1040050" data-name="Trazado 1040050" d="M22.536,264.123l-2.5,1.441a.7.7,0,1,0,.7,1.205l2.5-1.441a.7.7,0,1,0-.7-1.205Z" transform="translate(-17.865 -239.535)"/>
    </g>
  </g>
</svg>
