<svg xmlns="http://www.w3.org/2000/svg" xmlns:xlink="http://www.w3.org/1999/xlink" width="93.934" height="93.934" viewBox="0 0 93.934 93.934">
  <defs>
    <filter id="Trazado_982547" x="0" y="0" width="93.934" height="93.934" filterUnits="userSpaceOnUse">
      <feOffset dy="3" input="SourceAlpha"/>
      <feGaussianBlur stdDeviation="3" result="blur"/>
      <feFlood flood-opacity="0.161"/>
      <feComposite operator="in" in2="blur"/>
      <feComposite in="SourceGraphic"/>
    </filter>
  </defs>
  <g id="Grupo_1180693" data-name="Grupo 1180693" transform="translate(-1032 -2654)">
    <g id="Grupo_1179675" data-name="Grupo 1179675" transform="translate(3 58)">
      <g id="Grupo_1173795" data-name="Grupo 1173795" transform="translate(839.967 610)">
        <g id="Grupo_1167337" data-name="Grupo 1167337" transform="translate(198.033 1992)">
          <g id="Grupo_1166720" data-name="Grupo 1166720">
            <g id="Grupo_1164305" data-name="Grupo 1164305">
              <g id="Grupo_1163948" data-name="Grupo 1163948">
                <g id="Grupo_1158168" data-name="Grupo 1158168">
                  <g id="Grupo_1152576" data-name="Grupo 1152576">
                    <g id="Grupo_1148633" data-name="Grupo 1148633">
                      <g id="Grupo_1148525" data-name="Grupo 1148525">
                        <g transform="matrix(1, 0, 0, 1, -9, -6)" filter="url(#Trazado_982547)">
                          <g id="Trazado_982547-2" data-name="Trazado 982547" transform="translate(9 6)" fill="#e9f9fd">
                            <path d="M 37.966796875 74.43359375 C 33.04315185546875 74.43359375 28.26757431030273 73.46962738037109 23.77274131774902 71.56847381591797 C 19.43047523498535 69.73184967041016 15.53040790557861 67.10224914550781 12.18087482452393 63.75271987915039 C 8.831341743469238 60.4031867980957 6.201741218566895 56.50312042236328 4.365118980407715 52.16086196899414 C 2.463963508605957 47.66601943969727 1.499996900558472 42.89044189453125 1.499996900558472 37.966796875 C 1.499996900558472 33.04315185546875 2.463963508605957 28.26757431030273 4.365118980407715 23.77274131774902 C 6.201741218566895 19.43047523498535 8.831341743469238 15.53040790557861 12.18087482452393 12.18087482452393 C 15.53040790557861 8.831341743469238 19.43047523498535 6.201741218566895 23.77274131774902 4.365118980407715 C 28.26757431030273 2.463963508605957 33.04315185546875 1.499996900558472 37.966796875 1.499996900558472 C 42.89044189453125 1.499996900558472 47.66601943969727 2.463963508605957 52.16086196899414 4.365118980407715 C 56.50312042236328 6.201741218566895 60.4031867980957 8.831341743469238 63.75271987915039 12.18087482452393 C 67.10224914550781 15.53040790557861 69.73184967041016 19.43047523498535 71.56847381591797 23.77274131774902 C 73.46962738037109 28.26757431030273 74.43359375 33.04315185546875 74.43359375 37.966796875 C 74.43359375 42.89044189453125 73.46962738037109 47.66601943969727 71.56847381591797 52.16086196899414 C 69.73184967041016 56.50313186645508 67.10224914550781 60.4031867980957 63.75271987915039 63.75271987915039 C 60.4031867980957 67.10224914550781 56.50313186645508 69.73184967041016 52.16086196899414 71.56847381591797 C 47.66601943969727 73.46962738037109 42.89044189453125 74.43359375 37.966796875 74.43359375 Z" stroke="none"/>
                            <path d="M 37.966796875 3 C 33.2449836730957 3 28.66600799560547 3.924095153808594 24.35705947875977 5.746635437011719 C 20.19359588623047 7.507637023925781 16.45379638671875 10.02928161621094 13.24153518676758 13.24153518676758 C 10.02927398681641 16.45379638671875 7.507621765136719 20.19359588623047 5.746635437011719 24.35705947875977 C 3.924095153808594 28.66600799560547 3 33.2449836730957 3 37.966796875 C 3 42.6886100769043 3.924095153808594 47.26758575439453 5.746635437011719 51.57653427124023 C 7.507621765136719 55.73999786376953 10.02927398681641 59.47979736328125 13.24153518676758 62.69205856323242 C 16.45379638671875 65.90431976318359 20.19359588623047 68.42597198486328 24.35705947875977 70.18695831298828 C 28.66600799560547 72.00949859619141 33.2449836730957 72.93359375 37.966796875 72.93359375 C 42.6886100769043 72.93359375 47.26758575439453 72.00949859619141 51.57653427124023 70.18695831298828 C 55.73999786376953 68.42597198486328 59.47979736328125 65.90431976318359 62.69205856323242 62.69205856323242 C 65.90431976318359 59.47979736328125 68.42597198486328 55.73999786376953 70.18695831298828 51.57653427124023 C 72.00949859619141 47.26758575439453 72.93359375 42.6886100769043 72.93359375 37.966796875 C 72.93359375 33.2449836730957 72.00949859619141 28.66600799560547 70.18695831298828 24.35705947875977 C 68.42597198486328 20.19359588623047 65.90431976318359 16.45379638671875 62.69205856323242 13.24153518676758 C 59.47979736328125 10.02928161621094 55.73999786376953 7.507637023925781 51.57653427124023 5.746635437011719 C 47.26758575439453 3.924095153808594 42.6886100769043 3 37.966796875 3 M 37.966796875 0 C 58.93528366088867 0 75.93359375 16.99832153320312 75.93359375 37.966796875 C 75.93359375 58.93528366088867 58.93528366088867 75.93359375 37.966796875 75.93359375 C 16.99831008911133 75.93359375 0 58.93528366088867 0 37.966796875 C 0 16.99832153320312 16.99831008911133 0 37.966796875 0 Z" stroke="none" fill="#1d7083"/>
                          </g>
                        </g>
                      </g>
                    </g>
                  </g>
                </g>
              </g>
            </g>
          </g>
        </g>
      </g>
    </g>
    <g id="toma-de-decisiones" transform="translate(1033.785 2673)">
      <g id="Grupo_1180691" data-name="Grupo 1180691" transform="translate(22.96 3.621)">
        <path id="Trazado_1040071" data-name="Trazado 1040071" d="M116.428,377.473l-3.994,1.56a5.285,5.285,0,0,0-3.086,4.787v5.155a1.128,1.128,0,0,0,1.128,1.128h2.886l.742-1.147,3.48-9.238Z" transform="translate(-101.43 -343.564)" fill="#1ca8ff"/>
        <path id="Trazado_1040072" data-name="Trazado 1040072" d="M178.536,379.032l-4-1.55-1.782.488-4.18,2.992h-3.319l-3.919-3.144-1.791-.345a7.5,7.5,0,0,0-2.32,4.908v6.579l.746,1.142h6.83l1.27-1.147h2.063l1.157,1.147h6.831l.746-.8.746.8h2.886a1.128,1.128,0,0,0,1.128-1.128v-5.155A5.285,5.285,0,0,0,178.536,379.032Z" transform="translate(-144.543 -343.563)" fill="#00c2fb"/>
        <path id="Trazado_1040073" data-name="Trazado 1040073" d="M222.857,330.537l-.323-.125a.571.571,0,0,1-.365-.531l0-1.876-.909-1.092h-4.489L215.855,328v1.881a.525.525,0,0,1-.243.462l-.461.18-.22,1.089,2.707,2.577h2.73l2.62-2.315Z" transform="translate(-196.515 -298.031)" fill="#ffb1a0"/>
        <path id="Trazado_1040074" data-name="Trazado 1040074" d="M234.781,396.246l-.669-.129h-2.506l-.7.085-.6.808.171.625.937,2.283.771.467h1.507l.617-.467.937-2.283v-.81Z" transform="translate(-210.361 -360.355)" fill="#ff72c7"/>
        <path id="Trazado_1040075" data-name="Trazado 1040075" d="M180.558,364.6l3.664,3.755a.744.744,0,0,0,1.056.009l1.12-1.109a1.432,1.432,0,0,0-.035-2.069l-2.168-2.007Z" transform="translate(-165.56 -330.695)" fill="#62ddfc"/>
        <path id="Trazado_1040076" data-name="Trazado 1040076" d="M269.965,368.527a.744.744,0,0,0,1.056-.009l3.655-3.745-3.648-1.413-2.149,1.989a1.432,1.432,0,0,0-.035,2.069Z" transform="translate(-244.686 -330.855)" fill="#62ddfc"/>
        <path id="Trazado_1040077" data-name="Trazado 1040077" d="M233.42,441.314h4.489l-.8-6.975h-2.894Z" transform="translate(-213.166 -394.776)" fill="#ff4fb9"/>
        <path id="Trazado_1040078" data-name="Trazado 1040078" d="M167.636,243.611a2.075,2.075,0,0,0,.89,3.95h1.118l1.015-.908v-3.041Z" transform="translate(-152.854 -223.011)" fill="#ffb1a0"/>
        <path id="Trazado_1040079" data-name="Trazado 1040079" d="M306.489,241.883H304.1v3.432l.927.69h1.118a2.075,2.075,0,0,0,.345-4.122Z" transform="translate(-276.819 -221.455)" fill="#ffcebe"/>
        <path id="Trazado_1040080" data-name="Trazado 1040080" d="M207.274,218.355l-1.382-1.4h-4.936l-2.383,3.277v4.036a5.75,5.75,0,0,0,8.863,4.711l.821-2.359Z" transform="translate(-181.783 -199.003)" fill="#ffcebe"/>
        <path id="Trazado_1040081" data-name="Trazado 1040081" d="M257.363,216.952h-3.42l-2.015,2.771v4.036a5.591,5.591,0,0,0,3.558,5.218,5.626,5.626,0,0,0,2.555-4.711v-4.081Z" transform="translate(-229.834 -199.003)" fill="#ffdecf"/>
        <g id="Grupo_1180689" data-name="Grupo 1180689" transform="translate(14.413 11.216)">
          <path id="Trazado_1040082" data-name="Trazado 1040082" d="M181.645,159.245h-5.3a1.674,1.674,0,0,1-1.673-1.674V153.21a3.975,3.975,0,0,1,3.975-3.975h5.3l1.459,1.259-1.925,6.688Z" transform="translate(-174.667 -149.235)" fill="#544e55"/>
        </g>
        <path id="Trazado_1040083" data-name="Trazado 1040083" d="M236.147,151.837a1.05,1.05,0,0,1-1.135-.826c-.174-.891-.616-1.776-2.34-1.776H232a3.975,3.975,0,0,0-3.975,3.975v4.362a1.674,1.674,0,0,0,1.673,1.674h1.484a3.973,3.973,0,0,0,3.506-2.1.106.106,0,0,1,.2.051,2.058,2.058,0,0,0,2.052,2.052,1.079,1.079,0,0,0,1.076-1.076v-4.552A1.783,1.783,0,0,0,236.147,151.837Z" transform="translate(-208.305 -138.019)" fill="#665e68"/>
        <path id="Trazado_1040084" data-name="Trazado 1040084" d="M38.91,60.986a.654.654,0,0,0-.654.654V63a1.43,1.43,0,0,1-2.235,1.181L30.33,60.3a1.43,1.43,0,0,1,0-2.363l3.244-2.211h1.8L38.5,58.509Z" transform="translate(-29.705 -53.808)" fill="#fbc700"/>
        <path id="Trazado_1040085" data-name="Trazado 1040085" d="M347.494,65.111l-4.339,2.957a1.43,1.43,0,0,1-2.235-1.181V65.529a.654.654,0,0,0-.654-.654H335.8a.988.988,0,0,1-.988-.988V62.129a.988.988,0,0,1,.988-.988h4.47a.654.654,0,0,0,.654-.654l.81-.442,4.938,2.353Z" transform="translate(-304.473 -57.696)" fill="#fbc700"/>
        <g id="Grupo_1180690" data-name="Grupo 1180690" transform="translate(3.868)">
          <path id="Trazado_1040086" data-name="Trazado 1040086" d="M78.416,39.867h-4.47a.654.654,0,0,1-.654-.654V37.854a1.43,1.43,0,0,0-2.235-1.181l-2.448,1.669c.223,1.592,1.186,5.259,5.337,5.259h4.47a.988.988,0,0,0,.988-.988V40.855A.988.988,0,0,0,78.416,39.867Z" transform="translate(-68.609 -36.422)" fill="#ffe02f"/>
          <path id="Trazado_1040087" data-name="Trazado 1040087" d="M402.862,43.837l1.353-.922a1.43,1.43,0,0,0,0-2.363l-5.691-3.879a1.43,1.43,0,0,0-2.235,1.181v1.358A7.522,7.522,0,0,0,402.862,43.837Z" transform="translate(-363.709 -36.422)" fill="#ffe02f"/>
        </g>
      </g>
      <g id="Grupo_1180692" data-name="Grupo 1180692" transform="translate(22.215)">
        <path id="Trazado_1040088" data-name="Trazado 1040088" d="M23.164,36.772l5.691,3.879a2.177,2.177,0,0,0,3.4-1.8V37.587h4.379a1.736,1.736,0,0,0,1.734-1.734V34.1a1.736,1.736,0,0,0-1.734-1.734H32.256V31.1a2.176,2.176,0,0,0-3.4-1.8l-5.691,3.879A2.176,2.176,0,0,0,23.164,36.772ZM24,34.41,29.7,30.531a.684.684,0,0,1,1.069.565v1.358a1.4,1.4,0,0,0,1.4,1.4h4.47a.243.243,0,0,1,.243.243v1.757a.243.243,0,0,1-.243.243h-4.47a1.4,1.4,0,0,0-1.4,1.4v1.358a.683.683,0,0,1-1.069.565L24,35.54A.683.683,0,0,1,24,34.41Z" transform="translate(-22.215 -26.042)"/>
        <path id="Trazado_1040089" data-name="Trazado 1040089" d="M218.438,7.5A3.787,3.787,0,1,0,213.9,3.787a.746.746,0,1,0,1.491,0,2.3,2.3,0,1,1,2.3,2.3.746.746,0,0,0-.746.746v2.06a.746.746,0,1,0,1.491,0Z" transform="translate(-194.846)"/>
        <path id="Trazado_1040090" data-name="Trazado 1040090" d="M245.243,106.79a.747.747,0,1,0,.746.749v-.006a.743.743,0,0,0-.746-.743Z" transform="translate(-222.397 -96.173)"/>
        <path id="Trazado_1040091" data-name="Trazado 1040091" d="M341.674,35.541l-1.153.786a.746.746,0,1,0,.84,1.232l1.153-.786a2.176,2.176,0,0,0,0-3.595L336.823,29.3a2.176,2.176,0,0,0-3.4,1.8v1.267h-4.379A1.736,1.736,0,0,0,327.31,34.1v1.757a1.736,1.736,0,0,0,1.734,1.734h4.379v1.267a2.177,2.177,0,0,0,3.4,1.8l1.663-1.134a.746.746,0,1,0-.84-1.232l-1.663,1.134a.683.683,0,0,1-1.069-.565V37.5a1.4,1.4,0,0,0-1.4-1.4h-4.47a.243.243,0,0,1-.243-.243V34.1a.243.243,0,0,1,.243-.243h4.47a1.4,1.4,0,0,0,1.4-1.4V31.1a.683.683,0,0,1,1.069-.565l5.691,3.879A.683.683,0,0,1,341.674,35.541Z" transform="translate(-296.976 -26.043)"/>
        <path id="Trazado_1040092" data-name="Trazado 1040092" d="M131.754,172.961a.746.746,0,0,0,.746-.746v-.693a6,6,0,0,0-3.548-5.477l-.015-.006-7.862-3.045v-1.366a6.367,6.367,0,0,0,2.554-5.067H124a2.821,2.821,0,0,0,1.128-5.407v-4.289a2.527,2.527,0,0,0-2.668-2.524h0a.31.31,0,0,1-.346-.226,2.771,2.771,0,0,0-3.071-2.379h-5.981a4.726,4.726,0,0,0-4.72,4.72v4.362a2.406,2.406,0,0,0,.139.808,2.819,2.819,0,0,0,1.866,4.934h.373a6.44,6.44,0,0,0,2.55,5.06v1.348l-7.861,3.07-.013.005a6,6,0,0,0-3.548,5.477v5.155a1.875,1.875,0,0,0,1.873,1.873h26.906a1.876,1.876,0,0,0,1.873-1.873v-.981a.746.746,0,0,0-1.491,0v.981a.382.382,0,0,1-.382.382H127.74v-6.23a.746.746,0,1,0-1.491,0v6.23h-6.165l-.7-6.124.48-1.169a1.485,1.485,0,0,0,1.681-.316l3.311-3.393,3.536,1.37a4.544,4.544,0,0,1,2.618,4.095v.693a.746.746,0,0,0,.746.746Zm-7.066-20.36A1.33,1.33,0,0,1,124,155.07h-.372v-1.86A1.841,1.841,0,0,0,124.688,152.6Zm-13.97,2.469h-.372a1.328,1.328,0,0,1-.953-2.255,2.436,2.436,0,0,0,1.325.423Zm.042-3.323a.93.93,0,0,1-.928-.928v-4.362a3.233,3.233,0,0,1,3.229-3.229h5.981c1.275,0,1.482.531,1.608,1.173a1.8,1.8,0,0,0,1.924,1.426,1.038,1.038,0,0,1,1.063,1.037v4.552c0,.69-1.637.264-1.637-.977a.851.851,0,0,0-.645-.827h0a.853.853,0,0,0-.956.424,3.226,3.226,0,0,1-2.849,1.709h-6.788Zm1.449,4.782v-3.29h5.339a4.714,4.714,0,0,0,3.342-1.387,2.815,2.815,0,0,0,1.242,1.127l0,0v3.548a4.964,4.964,0,0,1-9.927,0Zm7.607,7.337-1.456,1.348a2.157,2.157,0,0,0-.632,1.069h-1.112a2.156,2.156,0,0,0-.632-1.069l-1.458-1.35a1.28,1.28,0,0,0,.233-.752v-.662a6.925,6.925,0,0,0,2.495.452,6.437,6.437,0,0,0,2.328-.441v.657a1.314,1.314,0,0,0,.234.749Zm-5.554,13.192H108.1v-6.23a.746.746,0,1,0-1.491,0v6.23H103.72a.383.383,0,0,1-.382-.382v-5.155a4.544,4.544,0,0,1,2.619-4.1l3.527-1.377,3.319,3.4a1.486,1.486,0,0,0,1.681.316l.48,1.169Zm.725-9.758c-.611.6-1.062,1.053-1.118,1.109l-2.878-2.949,2.154-.841,1.825,1.69A.686.686,0,0,1,114.988,167.3Zm.776,9.758.627-5.484h1.563l.627,5.484Zm2.356-6.975h-1.894l-.557-1.358.369-.365a2.275,2.275,0,0,0,.422-.586h1.427a2.291,2.291,0,0,0,.422.586l.369.365Zm2.359-1.674h0l-1.12-1.109a.687.687,0,0,1,.016-.992l1.807-1.673,2.161.837Z" transform="translate(-93.93 -127.645)"/>
      </g>
    </g>
  </g>
</svg>
