<svg xmlns="http://www.w3.org/2000/svg" xmlns:xlink="http://www.w3.org/1999/xlink" width="295" height="192" viewBox="0 0 295 192">
  <defs>
    <clipPath id="clip-path">
      <rect id="Rectángulo_414858" data-name="Rectángulo 414858" width="295" height="152" rx="10" transform="translate(1125.461 330)" fill="#273603"/>
    </clipPath>
    <clipPath id="clip-path-2">
      <rect id="Rectángulo_414859" data-name="Rectángulo 414859" width="214" height="192" transform="translate(1160.461 269)" fill="#fff" stroke="#707070" stroke-width="1" opacity="0.56"/>
    </clipPath>
  </defs>
  <g id="Grupo_1179828" data-name="Grupo 1179828" transform="translate(-1125.461 -290)">
    <g id="Enmascarar_grupo_1098798" data-name="Enmascarar grupo 1098798" clip-path="url(#clip-path)">
      <g id="Grupo_1179827" data-name="Grupo 1179827">
        <rect id="Rectángulo_414858-2" data-name="Rectángulo 414858" width="295" height="152" rx="10" transform="translate(1125.461 330)" fill="#86b60c"/>
        <g id="Elipse_13083" data-name="Elipse 13083" transform="translate(1091.461 423)" fill="none" stroke="#e6f0cd" stroke-width="10" opacity="0.78">
          <ellipse cx="44.5" cy="41" rx="44.5" ry="41" stroke="none"/>
          <ellipse cx="44.5" cy="41" rx="39.5" ry="36" fill="none"/>
        </g>
        <g id="Elipse_13084" data-name="Elipse 13084" transform="translate(1328.461 355)" fill="none" stroke="#e6f0cd" stroke-width="8" opacity="0.78">
          <ellipse cx="28" cy="25.5" rx="28" ry="25.5" stroke="none"/>
          <ellipse cx="28" cy="25.5" rx="24" ry="21.5" fill="none"/>
        </g>
        <g id="Elipse_13085" data-name="Elipse 13085" transform="translate(1136.461 315)" fill="none" stroke="#e6f0cd" stroke-width="8" opacity="0.78">
          <ellipse cx="22" cy="20.5" rx="22" ry="20.5" stroke="none"/>
          <ellipse cx="22" cy="20.5" rx="18" ry="16.5" fill="none"/>
        </g>
        <g id="Elipse_13086" data-name="Elipse 13086" transform="translate(1363.461 436)" fill="none" stroke="#e6f0cd" stroke-width="8" opacity="0.78">
          <ellipse cx="15" cy="14" rx="15" ry="14" stroke="none"/>
          <ellipse cx="15" cy="14" rx="11" ry="10" fill="none"/>
        </g>
      </g>
    </g>
    <g id="Enmascarar_grupo_1098797" data-name="Enmascarar grupo 1098797" transform="translate(0 21)" clip-path="url(#clip-path-2)">
      <g id="_16308819_60c822c622ab9023d35eb71c" data-name="16308819_60c822c622ab9023d35eb71c" transform="translate(708.952 110.819)">
        <path id="Trazado_1032831" data-name="Trazado 1032831" d="M625.471,800.079c-5.709,4.451-8.886,11.674-9.3,18.9a30.125,30.125,0,0,0,1.2,10.515c.109.354.537,1.707,1.08,3.35a.607.607,0,0,1,.18.079,24.8,24.8,0,0,0,4.97-1.358l.561-.2c-.307-.768-.578-1.515-.811-2.23A38.969,38.969,0,0,1,625.471,800.079Z" transform="translate(-127.395 -536.322)" fill="none"/>
        <path id="Trazado_1032832" data-name="Trazado 1032832" d="M1056.023,381.726a22.111,22.111,0,0,1-.961,8.3,20.6,20.6,0,0,1-1.549,3.614,1.247,1.247,0,0,1,.7,1.64l1.834,2.376a53.559,53.559,0,0,0,2.985-16.06A2.467,2.467,0,0,1,1056.023,381.726Z" transform="translate(-494.612 -184.983)" fill="#dd5313"/>
        <path id="Trazado_1032833" data-name="Trazado 1032833" d="M536.7,296.679c.051-.032.1-.069.15-.1a.608.608,0,0,1,.453-.057c-.543-1.643-.971-3-1.08-3.35a30.128,30.128,0,0,1-1.2-10.515c.411-7.227,3.589-14.45,9.3-18.9a38.969,38.969,0,0,0-2.118,29.059c.233.715.5,1.462.811,2.23,3.721-1.316,6.539-2.292,10.029.411q.521.4,1,.847a33.443,33.443,0,0,1,5.823,8.018,32.922,32.922,0,0,1,1.665,3.8L585.14,310.8a.723.723,0,0,1,.1-.163c-1.033-1.459-2.018-2.953-2.916-4.5-.242-.417-.551-.892-.87-1.392a3.749,3.749,0,0,1-2.922-.677,5.987,5.987,0,0,1-1.245-2.036l-2.4-5.451c-5-11.36-10.983-23.886-6.524-36.374a48.731,48.731,0,0,1,7.531-13.059,15.659,15.659,0,0,0,1.447-2.107l.138.1c.49-1.46,2.195-3.478,4.221-5.494,4.345-4.941,10.742-8.532,14-10.161l-2.972-9.864a1.393,1.393,0,0,1-.687-1.122c-5.816.993-11.508-1.379-15.931-5.495-.216,1.091-1.052,1.91-2.83,2.124a5.686,5.686,0,0,1-3.977-1.248,9.727,9.727,0,0,1-3.18-4.383,18.512,18.512,0,0,0,1.416,8.28,8.347,8.347,0,0,1-5.068-2.219c.5,1.534,1.069,3.046,1.716,4.526.331.756-.784,1.413-1.117.653a53.388,53.388,0,0,1-2.4-6.673,20.489,20.489,0,0,1-3.636-3.958c-2.934-4.382-2.872-9.7-2.843-14.738a23.963,23.963,0,0,1,5.018-14.176c7.652-10.054,20.365-12.935,32.433-12.837,2.931.024,2.394,1.722,2.053,4.045a25.9,25.9,0,0,1-.642,3.033c.36.138.716.286,1.066.453.331-1.471,2.195-3.014,3.188-3.712a2.037,2.037,0,0,1,1.482-.492,2.158,2.158,0,0,1,1.1.762,26.538,26.538,0,0,1,5.593,9.446,17.239,17.239,0,0,1,.812,3.652,3.084,3.084,0,0,1,2.547-.5,3.546,3.546,0,0,1,.957.443c0-.02-.006-.04-.01-.06-.419-2.13-.436-4.372-.971-6.438a9.97,9.97,0,0,0-9.186-7.421,1.479,1.479,0,0,1-.871-.169,1.54,1.54,0,0,1-.448-1.038,8.831,8.831,0,0,0-4.638-5.8,26.154,26.154,0,0,0-7.285-2.322c-7.619-1.628-14.987-1.426-21.994,2.247a35.8,35.8,0,0,0-14.827,14.859c-4.226,7.972-5.308,16.89-4.7,25.783.365,5.3,1.933,10.424,2.23,15.729.276,4.935-.219,7.827-2.982,12.154-4.027,6.306-8.812,12.091-13.138,18.2s-8.237,12.642-10.221,19.856-1.888,15.225,1.535,21.879c.121.236.257.464.388.7,3.994.991,7.945,2.213,11.969,2.929A8.8,8.8,0,0,0,536.7,296.679Zm26.236-35.954c1.888-13.96,12.113-25.714,12.028-40.059a.647.647,0,0,1,1.293,0,37.293,37.293,0,0,1-1.83,11.27c-3.974,12.792-13.762,25.918-9.469,39.9.245.8-1,1.137-1.247.343A26.674,26.674,0,0,1,562.936,260.725Zm-5.357-8.748a46.7,46.7,0,0,0-8.325,38.348c.186.811-1.061,1.155-1.247.344a46.926,46.926,0,0,1-1.176-9.127,47.948,47.948,0,0,1,9.632-30.218C556.96,250.67,558.083,251.315,557.578,251.977Zm-8.171-60.544a29.815,29.815,0,0,1,3.45-12.4,39.279,39.279,0,0,1,9.229-10.667c.631-.536,1.55.375.914.914-4.093,3.475-7.872,7.5-10.051,12.472-3.569,8.146-2.33,17.371-1.278,25.911,1.063,8.627,2.227,17.689-.968,26.024-.3.77-1.545.434-1.247-.344a36.68,36.68,0,0,0,1.977-14.96C551.013,209.389,548.772,200.466,549.408,191.433Zm-4.854,70.575a91.609,91.609,0,0,0,12.528-31.548c.159-.817,1.4-.469,1.247.344a92.609,92.609,0,0,1-12.658,31.857C545.225,263.363,544.107,262.713,544.554,262.008Zm-19.541,25.821c.333.755-.782,1.413-1.117.653-2.471-5.607-.6-11.952,1.439-17.394a61.932,61.932,0,0,1,8.807-15.9c.5-.653,1.622-.008,1.117.653a60.969,60.969,0,0,0-8.429,14.943C524.815,275.974,522.624,282.409,525.013,287.829Z" transform="translate(-46.244)" fill="#dd5313"/>
        <path id="Trazado_1032834" data-name="Trazado 1032834" d="M814.068,413.25a4.122,4.122,0,0,1,3.812-.882c-.416-.873-.845-1.756-1.337-2.642q-.3-.548-.6-1.1a16.591,16.591,0,0,0-1.235,2.59A19.884,19.884,0,0,0,814.068,413.25Z" transform="translate(-293.583 -207.668)" fill="#dd5313"/>
        <path id="Trazado_1032835" data-name="Trazado 1032835" d="M766.979,1106.759q.033-7.048.066-14.1a30.29,30.29,0,0,1-9.579-3.643c-2.628-1.568-5.651-2.354-8.254-3.974a13.3,13.3,0,0,1-1.3-.915,19.808,19.808,0,0,1-3.306-3.562c-.305-.169-.614-.33-.916-.5a.592.592,0,0,1-.242-.8l-23.607-2.675a9.711,9.711,0,0,1,.544,1.837c.108,1-1.182-.678-1.516.272a30.005,30.005,0,0,1-2.488,5.342,28.79,28.79,0,0,0-2.761,7.4c-.568,1.964-.72,4.136-1.36,6.052-.6,1.793-2.328,2.077-3.956,2.022l-.281-.007c.789.192,1.615.347,2.353.565q5.45,1.613,10.952,3.041,14.988,3.892,30.292,6.4,7.106,1.164,14.26,2.013a29.807,29.807,0,0,1,1.214-4.413A.586.586,0,0,1,766.979,1106.759Z" transform="translate(-204.554 -768.47)" fill="#f39776"/>
        <path id="Trazado_1032836" data-name="Trazado 1032836" d="M491.4,1014.439a8.941,8.941,0,0,0,2.574-.556,4.123,4.123,0,0,0,1.774-1.091c1-1.221-.756-2.789-1.707-3.4a.6.6,0,0,1-.289-.525c-.288.054-.58.094-.867.121a44.77,44.77,0,0,1-10.842-.356c-.822-.123-.471-1.369.343-1.247a44.441,44.441,0,0,0,8.415.446,9.587,9.587,0,0,0,3.61-.481c1.238-.593,1.14-2.264.391-3.214a.678.678,0,0,1-.1-.189c-1.663.373-3.788-.4-5.252-.777q-4.649-1.191-9.217-2.67c-.79-.255-.45-1.5.344-1.247q4.954,1.6,10.005,2.87c1.235.309,3.408,1.2,4.542.23a3.341,3.341,0,0,0,.815-2.015,1.379,1.379,0,0,0-.215-1.317,5.418,5.418,0,0,0-.865-.664c-4.489-3.247-9.995-4.682-15.238-6.2a.647.647,0,0,1,.344-1.247c2.672.775,5.354,1.526,7.964,2.5a33.3,33.3,0,0,1,6.942,3.394,7.36,7.36,0,0,1,2.07,1.683,8.184,8.184,0,0,1,.568-4.5,13.633,13.633,0,0,1,3.268-4.173,16.732,16.732,0,0,1-8.482-1.208,4.968,4.968,0,0,1-2.9-2.864,2.49,2.49,0,0,1,1.058-2.944,8.765,8.765,0,0,1-2.039-.11c-4.023-.716-7.975-1.938-11.969-2.929-1.352-.336-2.71-.645-4.077-.9a10.673,10.673,0,0,0-5.06-.084,3.87,3.87,0,0,0-2.919,3.713c.182,1.973,2.24,3.14,4.053,3.937q2.694,1.186,5.422,2.291c.964.391,4.665,1.2,5.116,2.1.49.978-.72,2.553-.871,3.6-.308,2.141,1.041,3.625,1.3,5.633.206,1.589-.692,3.287-.047,4.753.4.9,1.3,1.5,1.681,2.411s.153,1.982.438,2.933c.408,1.358,1.747,2.191,3.013,2.829a39.373,39.373,0,0,0,6.42,2.544.637.637,0,0,1,.477-1.069Z" transform="translate(0 -686.108)" fill="#f39776"/>
        <path id="Trazado_1032837" data-name="Trazado 1032837" d="M644.743,1022.232c.64-1.917.792-4.089,1.36-6.052a28.794,28.794,0,0,1,2.761-7.4,30.01,30.01,0,0,0,2.488-5.342c.333-.949,1.623.729,1.516-.271a9.719,9.719,0,0,0-.544-1.837,32.9,32.9,0,0,0-1.664-3.8,33.435,33.435,0,0,0-5.823-8.018q-.482-.443-1-.847c-3.49-2.7-6.308-1.727-10.029-.411l-.561.2a24.8,24.8,0,0,1-4.97,1.358.624.624,0,0,1,.02,1.095c-.884.48-.833,1.388-.327,2.16a5.342,5.342,0,0,0,2.941,1.853,16.155,16.155,0,0,0,7.936.543.655.655,0,0,1,.8.743.562.562,0,0,1-.052.812,15.981,15.981,0,0,0-3.748,4.331,7.506,7.506,0,0,0-.188,5.778,10.624,10.624,0,0,0,7.214,6.825.647.647,0,0,1-.344,1.247,11.963,11.963,0,0,1-8.118-7.729c-.024-.072-.041-.145-.063-.217a5.8,5.8,0,0,1-.843,2.608,2.786,2.786,0,0,1-.615.662,3.715,3.715,0,0,1,.44,3.839,2.749,2.749,0,0,1-1.306,1.217c1.488,1.068,3.156,3.091,1.934,4.888a4.892,4.892,0,0,1-2.294,1.64,10,10,0,0,1-3,.7,39.948,39.948,0,0,0,5.435,1.124,61.214,61.214,0,0,0,6.409.315c.094,0,.187,0,.281.007C642.415,1024.308,644.145,1024.024,644.743,1022.232Z" transform="translate(-137.036 -693.206)" fill="#f39776"/>
        <path id="Trazado_1032838" data-name="Trazado 1032838" d="M620.826,1004.257c-.054.029-.1.067-.151.1a2.49,2.49,0,0,0-1.058,2.943,4.968,4.968,0,0,0,2.9,2.864,16.733,16.733,0,0,0,8.482,1.208c.287-.271.577-.538.866-.8a.648.648,0,0,1,.967.1.655.655,0,0,0-.8-.743,16.154,16.154,0,0,1-7.936-.543,5.344,5.344,0,0,1-2.942-1.853c-.506-.772-.557-1.68.327-2.16a.624.624,0,0,0-.02-1.095.618.618,0,0,0-.633-.022Z" transform="translate(-130.22 -707.677)" fill="#d46566"/>
        <path id="Trazado_1032839" data-name="Trazado 1032839" d="M671.566,1043.1c-.289.263-.578.53-.866.8a13.631,13.631,0,0,0-3.268,4.173,8.184,8.184,0,0,0-.568,4.505,2.031,2.031,0,0,1,.332.774,3.574,3.574,0,0,1,.039.9c.022.072.039.146.063.217a11.964,11.964,0,0,0,8.118,7.729.647.647,0,0,0,.344-1.247,10.623,10.623,0,0,1-7.214-6.825,7.506,7.506,0,0,1,.188-5.778,15.982,15.982,0,0,1,3.748-4.331.562.562,0,0,0,.052-.812A.646.646,0,0,0,671.566,1043.1Z" transform="translate(-169.92 -740.206)" fill="#d46566"/>
        <path id="Trazado_1032840" data-name="Trazado 1032840" d="M574.652,1064.089a2.029,2.029,0,0,0-.332-.774,7.364,7.364,0,0,0-2.07-1.684,33.312,33.312,0,0,0-6.942-3.394c-2.61-.97-5.292-1.72-7.964-2.5a.647.647,0,0,0-.344,1.247c5.243,1.522,10.749,2.956,15.238,6.2a5.4,5.4,0,0,1,.865.664,1.379,1.379,0,0,1,.215,1.317,3.342,3.342,0,0,1-.815,2.015c-1.133.973-3.306.079-4.541-.23q-5.05-1.265-10.005-2.87c-.794-.256-1.134.992-.344,1.247q4.567,1.473,9.217,2.67c1.465.375,3.59,1.15,5.252.776-.236-.618.544-1.318,1.01-.726.051.064.093.134.14.2a2.782,2.782,0,0,0,.615-.662,5.8,5.8,0,0,0,.843-2.608A3.569,3.569,0,0,0,574.652,1064.089Z" transform="translate(-77.376 -750.942)" fill="#d46566"/>
        <path id="Trazado_1032841" data-name="Trazado 1032841" d="M584.672,1132.19a.672.672,0,0,0,.1.188c.749.951.848,2.621-.391,3.214a9.581,9.581,0,0,1-3.61.481,44.44,44.44,0,0,1-8.415-.446c-.814-.122-1.165,1.125-.344,1.247a44.771,44.771,0,0,0,10.842.356c.287-.027.578-.067.867-.121a.622.622,0,0,1,.941-.592c.1.063.2.131.3.2a2.748,2.748,0,0,0,1.306-1.217,3.715,3.715,0,0,0-.44-3.839c-.047-.067-.09-.137-.14-.2C585.216,1130.873,584.437,1131.573,584.672,1132.19Z" transform="translate(-89.967 -814.352)" fill="#d46566"/>
        <path id="Trazado_1032842" data-name="Trazado 1032842" d="M634.917,1168.678c1.222-1.8-.446-3.82-1.934-4.887-.1-.072-.2-.14-.3-.2a.622.622,0,0,0-.941.592.6.6,0,0,0,.289.525c.951.612,2.705,2.18,1.707,3.4a4.123,4.123,0,0,1-1.774,1.091,8.93,8.93,0,0,1-2.574.556.637.637,0,0,0-.477,1.069.586.586,0,0,0,.477.224c.077-.005.152-.017.229-.023a10,10,0,0,0,3-.7A4.9,4.9,0,0,0,634.917,1168.678Z" transform="translate(-137.993 -841.421)" fill="#d46566"/>
        <path id="Trazado_1032843" data-name="Trazado 1032843" d="M933.44,1041.772c0-.029,0-.058,0-.087h0a96.411,96.411,0,0,0-.372-10.112c-.547-1.073-9.221-.578-15.5-4.27a42.506,42.506,0,0,1-5,2.505,25.354,25.354,0,0,1-6.7,2.022c.319.5.628.975.87,1.392.9,1.547,1.883,3.041,2.916,4.5a.6.6,0,0,1,.79-.153,59.79,59.79,0,0,0,17.241,6.635c.815.176.468,1.422-.344,1.247a60.937,60.937,0,0,1-16.634-6.261,19.819,19.819,0,0,0,3.306,3.562,13.364,13.364,0,0,0,1.3.915c2.6,1.619,5.626,2.406,8.254,3.973a30.285,30.285,0,0,0,9.579,3.643q.021-4.508.042-9.016A.585.585,0,0,1,933.44,1041.772Z" transform="translate(-370.655 -727.09)" fill="#f39776"/>
        <path id="Trazado_1032844" data-name="Trazado 1032844" d="M946.267,1098.707c.811.176,1.158-1.071.344-1.247a59.8,59.8,0,0,1-17.241-6.635.6.6,0,0,0-.79.153.739.739,0,0,0-.1.163.592.592,0,0,0,.242.8c.3.174.611.336.916.5A60.872,60.872,0,0,0,946.267,1098.707Z" transform="translate(-389.579 -780.346)" fill="#d46566"/>
        <path id="Trazado_1032845" data-name="Trazado 1032845" d="M1656.91,958.042c0,.044,0,.087,0,.131C1656.912,958.13,1656.91,958.086,1656.91,958.042Z" transform="translate(-1001.202 -668.941)" fill="#f39776"/>
        <path id="Trazado_1032846" data-name="Trazado 1032846" d="M1451.45,711.3c1.073,2.274,2.1,4.55,3.078,6.813,3.4-1.462,7.431-1.455,11.083-1.4,3.674.057,7.868-2.22,11.507-1.085a3.977,3.977,0,0,1,2.576,2.429c-3.155-11.372-18.187-33.927-22.129-40.069-.33-.514-.672-1.067-1.025-1.64-1.782,8.748-4.87,17.41-10.011,24.649Q1448.967,706.043,1451.45,711.3Z" transform="translate(-824.574 -432.443)" fill="#f39776"/>
        <path id="Trazado_1032847" data-name="Trazado 1032847" d="M1521.548,921.947a3.977,3.977,0,0,0-2.576-2.429c-3.639-1.135-7.833,1.143-11.507,1.085-3.652-.057-7.683-.064-11.083,1.4,1.389,3.2,2.686,6.366,3.889,9.448.338-.143.675-.287,1.016-.424q1.566-.631,3.165-1.175a62.716,62.716,0,0,1,6.621-1.849c.812-.181,1.156,1.067.344,1.247a62.636,62.636,0,0,0-7.094,2.012q-1.712.6-3.387,1.3c-.065.027-.132.059-.2.089q.527,1.367,1.031,2.71a58.406,58.406,0,0,1-5.122,3.7,58.344,58.344,0,0,0,5.123-3.7c4.827,12.89,7.9,23.714,9.056,28.015a10.419,10.419,0,0,1,.739,1.217,125.948,125.948,0,0,0-9.581-28.757c-.355-.749.76-1.4,1.117-.653a127.321,127.321,0,0,1,9.77,29.335.683.683,0,0,1-.982.729c.355.787.692,1.613,1.015,2.466A136.109,136.109,0,0,0,1522,928.578c.074-.931.15-1.973.142-3.014,0-.044,0-.087,0-.131A9.691,9.691,0,0,0,1521.548,921.947Z" transform="translate(-866.429 -636.332)" fill="#f39776"/>
        <path id="Trazado_1032848" data-name="Trazado 1032848" d="M1521.29,978.516q1.673-.7,3.387-1.3a62.569,62.569,0,0,1,7.094-2.012c.812-.18.468-1.427-.344-1.247a62.675,62.675,0,0,0-6.622,1.849q-1.6.544-3.165,1.175c-.34.137-.677.281-1.016.424.156.4.313.8.466,1.2C1521.157,978.575,1521.224,978.543,1521.29,978.516Z" transform="translate(-886.782 -682.29)" fill="#d46566"/>
        <path id="Trazado_1032849" data-name="Trazado 1032849" d="M1293.922,568.524c5.141-7.239,8.229-15.9,10.011-24.649.149-.733.292-1.467.424-2.2-1.493-2.558-3.045-5.082-4.762-7.5-4.364-6.134-9.954-11.533-17.306-13.777a48.729,48.729,0,0,0-14.974-1.746,15.625,15.625,0,0,1-2.555-.1c0,.016,0,.033,0,.049a8.274,8.274,0,0,1,2.51.415C1269.21,519.865,1280.885,541.544,1293.922,568.524Zm.287-.854a.586.586,0,0,1-.78-.43,46.378,46.378,0,0,0-3.571-7.982c-1.328-2.586-2.692-5.176-4.241-7.638-.445-.707.675-1.355,1.117-.653,1.586,2.521,2.98,5.175,4.336,7.824l.051.1a116.494,116.494,0,0,0-5.865-14.938c-.356-.748.76-1.4,1.117-.653a118.557,118.557,0,0,1,8.3,23.6A.6.6,0,0,1,1294.209,567.669Z" transform="translate(-671.967 -299.968)" fill="#fff8dc"/>
        <path id="Trazado_1032850" data-name="Trazado 1032850" d="M1073.972,1307.86a57.053,57.053,0,0,1-5.424-2.04,126.573,126.573,0,0,1-12.059-5.878,43.068,43.068,0,0,1-9.074-6.083c-.6-.577.314-1.49.915-.915a30.557,30.557,0,0,0,5.174,3.76c2.31,1.426,4.694,2.731,7.108,3.97,3.128,1.6,6.336,3.187,9.632,4.494-.544-.394-1.091-.787-1.632-1.185a8.9,8.9,0,0,1-3.311-4.435,142.986,142.986,0,0,1-6.051-22.8q-.533-2.862-.954-5.742c-.061-.422-.194-.959-.275-1.5-12.938-1.3-21.378-4.416-23.936-5.465,0,.031,0,.063,0,.095a.651.651,0,0,1-1.176.357,29.815,29.815,0,0,0-1.214,4.413c-4.919,23.3-7.061,101.545-7.061,101.545,14.3,9.905,47.638,2.773,47.638,2.773l2.379-64.921a.577.577,0,0,1-.173-.085C1074.31,1308.1,1074.14,1307.981,1073.972,1307.86Z" transform="translate(-470.367 -925.852)" fill="#1d7083"/>
        <path id="Trazado_1032851" data-name="Trazado 1032851" d="M1245.553,1319.437a86.835,86.835,0,0,0,3.1,9.67c.771,1.872,2.256,2.862,3.84,4.007l3.206,2.318a234.788,234.788,0,0,1-4.716-36.083c-3.464-.019-6.714-.182-9.733-.449.015.065.028.125.034.173A154.406,154.406,0,0,0,1245.553,1319.437Z" transform="translate(-652.225 -955.112)" fill="#1d7083"/>
        <path id="Trazado_1032852" data-name="Trazado 1032852" d="M1355.12,1196c-.018-.09-.04-.178-.058-.268a10.509,10.509,0,0,0-.74-1.217c.346,1.285.523,1.994.523,1.994s-17.465,14.959-44.874,15.2a232.679,232.679,0,0,0,4.758,36.166c3-1.327,6.031-2.566,8.912-4.141a42.619,42.619,0,0,0,10.536-8.069c.574-.6,1.487.311.914.915a43.622,43.622,0,0,1-10.544,8.132c-3.034,1.68-6.24,2.979-9.4,4.385a.658.658,0,0,1-.156.035.69.69,0,0,1-.742.811l.816,65.706a110.346,110.346,0,0,0,42.356-1.178s11.614-82.226-1.018-115.615c-.323-.853-.659-1.679-1.014-2.466A.536.536,0,0,1,1355.12,1196Z" transform="translate(-709.926 -867.474)" fill="#1d7083"/>
        <path id="Trazado_1032853" data-name="Trazado 1032853" d="M1243.833,1298.683a234.813,234.813,0,0,0,4.716,36.083l-3.205-2.318c-1.584-1.144-3.068-2.135-3.84-4.007a86.829,86.829,0,0,1-3.1-9.67,154.476,154.476,0,0,1-4.274-20.365c-.007-.048-.02-.108-.034-.173-.46-.041-.917-.082-1.366-.127.08.539.213,1.075.274,1.5q.419,2.88.954,5.742a142.959,142.959,0,0,0,6.051,22.8,8.9,8.9,0,0,0,3.311,4.435c.541.4,1.087.791,1.632,1.186,1.366.542,2.745,1.041,4.142,1.467a.661.661,0,0,1,.223.12.511.511,0,0,1,.325-.4l.238-.1a232.648,232.648,0,0,1-4.758-36.166c-.219,0-.433.011-.654.011S1244.047,1298.684,1243.833,1298.683Z" transform="translate(-645.081 -954.446)" fill="#808027"/>
        <path id="Trazado_1032854" data-name="Trazado 1032854" d="M1333.6,1533.971a.671.671,0,0,1-.606-.181.6.6,0,0,1-.781.558l-.071-.023.507.365a.564.564,0,0,0,.173.085l.036.008A.688.688,0,0,0,1333.6,1533.971Z" transform="translate(-728.541 -1152.318)" fill="#808027"/>
        <path id="Trazado_1032855" data-name="Trazado 1032855" d="M1192.79,1457.016a.655.655,0,0,0-.222-.12c-1.4-.427-2.776-.926-4.142-1.468-3.3-1.307-6.5-2.889-9.632-4.494-2.414-1.239-4.8-2.544-7.108-3.97a30.538,30.538,0,0,1-5.174-3.76c-.6-.576-1.517.337-.915.914a43.046,43.046,0,0,0,9.074,6.083,126.513,126.513,0,0,0,12.059,5.878,57.232,57.232,0,0,0,5.424,2.04l.071.023a.6.6,0,0,0,.781-.558A.673.673,0,0,1,1192.79,1457.016Z" transform="translate(-588.549 -1076.111)" fill="#808027"/>
        <path id="Trazado_1032856" data-name="Trazado 1032856" d="M1336.09,1462.664a.679.679,0,0,0,.215.568.671.671,0,0,0,.606.181.654.654,0,0,0,.156-.035c3.164-1.406,6.369-2.7,9.4-4.385a43.613,43.613,0,0,0,10.544-8.132c.573-.6-.34-1.52-.914-.914a42.616,42.616,0,0,1-10.536,8.069c-2.881,1.575-5.914,2.815-8.912,4.141l-.238.1A.511.511,0,0,0,1336.09,1462.664Z" transform="translate(-731.849 -1081.76)" fill="#808027"/>
        <path id="Trazado_1032857" data-name="Trazado 1032857" d="M835.871,741.069a42.49,42.49,0,0,0,5-2.505c-.081-.048-.16-.1-.241-.15-5.57-1.463-7.654-7.664-9.116-12.89-3.8-3.134-5.785-7.775-7.641-12.209-.322-.768.93-1.1,1.247-.344,1.492,3.564,3.092,7.243,5.72,10.106a144.584,144.584,0,0,1-4.226-21.536.523.523,0,0,1,.1-.393c-1.348-9.268-1.772-16.7-1.616-17.366.021-.093.065-.2.1-.294l-.138-.1a15.64,15.64,0,0,1-1.447,2.107,48.733,48.733,0,0,0-7.531,13.059c-4.459,12.488,1.522,25.014,6.524,36.374l2.4,5.451a5.985,5.985,0,0,0,1.246,2.036,3.749,3.749,0,0,0,2.922.677A25.4,25.4,0,0,0,835.871,741.069Z" transform="translate(-293.961 -438.351)" fill="#fff8dc"/>
        <path id="Trazado_1032858" data-name="Trazado 1032858" d="M914.986,555.023c-8.855,5.386-19.981,3.415-26.061-5.1a26.819,26.819,0,0,1-4.159-9.818c-.036-.17-.078-.336-.119-.5-2.026,2.017-3.731,4.034-4.221,5.494-.033.1-.077.2-.1.294-.156.67.269,8.1,1.616,17.366a.7.7,0,0,1,1.192.393A142.275,142.275,0,0,0,887.08,583.5a57.732,57.732,0,0,0,3.115,9.554c1.3,2.769,3.429,5.262,6.557,5.877.817.161.469,1.407-.344,1.247-.192-.038-.365-.1-.549-.148.081.049.159.1.241.15,6.276,3.692,14.95,3.2,15.5,4.27a96.457,96.457,0,0,1,.372,10.112h0l.135.013a.712.712,0,0,1,.631.059c21.909,2.1,47.758.262,66.668-11.944a58.415,58.415,0,0,0,5.122-3.7q-.5-1.34-1.031-2.71c-.153-.4-.31-.8-.466-1.2-1.2-3.082-2.5-6.248-3.889-9.448-.982-2.263-2.005-4.539-3.078-6.813q-2.477-5.247-4.921-10.3c-13.037-26.979-24.712-48.659-26.653-49.5a8.264,8.264,0,0,0-2.51-.415,83.284,83.284,0,0,0-9.936.332,58.769,58.769,0,0,1-5.578,21.339C923.818,546.169,920.664,551.57,914.986,555.023Z" transform="translate(-349.187 -299.967)" fill="#fff8dc"/>
        <path id="Trazado_1032859" data-name="Trazado 1032859" d="M894.128,814.887a15.847,15.847,0,0,0,1.617,1.557c.644.528-.276,1.438-.914.914l-.027-.025c1.462,5.226,3.546,11.427,9.116,12.89.184.048.358.111.549.148.813.16,1.161-1.086.344-1.247-3.129-.616-5.252-3.109-6.557-5.877a57.726,57.726,0,0,1-3.115-9.554,142.273,142.273,0,0,1-3.944-20.343.7.7,0,0,0-1.192-.393.524.524,0,0,0-.1.393A144.614,144.614,0,0,0,894.128,814.887Z" transform="translate(-357.247 -530.161)" fill="#d1b2a5"/>
        <path id="Trazado_1032860" data-name="Trazado 1032860" d="M881.151,877.218a15.854,15.854,0,0,1-1.617-1.557c-2.627-2.863-4.228-6.542-5.72-10.106-.317-.756-1.568-.424-1.247.344,1.857,4.434,3.839,9.075,7.642,12.208l.027.025C880.875,878.656,881.8,877.746,881.151,877.218Z" transform="translate(-342.654 -590.934)" fill="#d1b2a5"/>
        <path id="Trazado_1032861" data-name="Trazado 1032861" d="M1443.46,821.984a.586.586,0,0,0,.78.43A.619.619,0,0,1,1443.46,821.984Z" transform="translate(-821.997 -554.712)" fill="#d1b2a5"/>
        <path id="Trazado_1032862" data-name="Trazado 1032862" d="M1393.275,671.023c-.357-.751-1.472-.1-1.117.653a116.519,116.519,0,0,1,5.865,14.938,46.693,46.693,0,0,1,3.555,8.006A118.689,118.689,0,0,0,1393.275,671.023Z" transform="translate(-778.868 -427.693)" fill="#d1b2a5"/>
        <path id="Trazado_1032863" data-name="Trazado 1032863" d="M1399.736,726.9l-.051-.1c-1.356-2.649-2.75-5.3-4.336-7.824-.442-.7-1.561-.054-1.117.653,1.548,2.462,2.912,5.052,4.24,7.638a46.382,46.382,0,0,1,3.571,7.982.619.619,0,0,0,.78.43.6.6,0,0,0,.467-.773A46.68,46.68,0,0,0,1399.736,726.9Z" transform="translate(-780.582 -467.974)" fill="#d1b2a5"/>
        <path id="Trazado_1032864" data-name="Trazado 1032864" d="M932.615,555.05c-13.421,7.018-11.1-23.235-11.1-23.235l-.111-.369c-3.256,1.629-9.654,5.22-14,10.161.041.16.083.326.119.5a26.816,26.816,0,0,0,4.159,9.818c6.08,8.515,17.206,10.486,26.061,5.1,5.678-3.454,8.832-8.855,11.48-14.745a58.767,58.767,0,0,0,5.578-21.339c-6.487.51-13.374,1.372-15.312,1.622l.711.922S947.459,547.288,932.615,555.05Z" transform="translate(-371.944 -301.964)" fill="#f39776"/>
        <path id="Trazado_1032865" data-name="Trazado 1032865" d="M1077.854,1116.954l-.135-.013h0c0,.029,0,.058,0,.087A.664.664,0,0,1,1077.854,1116.954Z" transform="translate(-514.935 -802.347)" fill="#f39776"/>
        <path id="Trazado_1032866" data-name="Trazado 1032866" d="M1082.49,1035.542a.573.573,0,0,1,.277.512q-.053,11.509-.107,23.017c2.557,1.05,11,4.164,23.935,5.466.449.045.906.087,1.366.127,3.019.267,6.269.431,9.733.449.214,0,.424.006.64.006s.434-.009.653-.011c27.409-.237,44.874-15.2,44.874-15.2s-.177-.709-.523-1.994c-1.158-4.3-4.229-15.125-9.056-28.016a58.362,58.362,0,0,1-5.123,3.7C1130.248,1035.8,1104.4,1037.645,1082.49,1035.542Zm36.267,21.841c-.185.812-1.432.466-1.247-.344a2.662,2.662,0,0,0-.18-1.39c-.148-.465-.316-.925-.5-1.375a16.888,16.888,0,0,0-1.35-2.55,5.266,5.266,0,0,0-.694-.983c0,.16-.008.336.007.453a6.771,6.771,0,0,0,.929,2.633.647.647,0,0,1-1.117.653,8.077,8.077,0,0,1-1.143-3.717c-.036-.682.232-1.453,1.029-1.5a1.831,1.831,0,0,1,1.464.873,16.712,16.712,0,0,1,1.94,3.366C1118.406,1054.685,1119.055,1056.074,1118.757,1057.382Z" transform="translate(-518.94 -720.876)" fill="#f39776"/>
        <path id="Trazado_1032867" data-name="Trazado 1032867" d="M1076.878,1117.344a.572.572,0,0,0-.276-.512.712.712,0,0,0-.631-.059.648.648,0,0,0-.134.075.583.583,0,0,0-.252.5q-.021,4.508-.042,9.016-.033,7.048-.066,14.1a.592.592,0,0,0,.117.357.651.651,0,0,0,1.176-.357c0-.031,0-.063,0-.095Q1076.826,1128.852,1076.878,1117.344Z" transform="translate(-513.053 -802.166)" fill="#d46566"/>
        <path id="Trazado_1032868" data-name="Trazado 1032868" d="M1278,1203.8a1.833,1.833,0,0,0-1.464-.873c-.8.042-1.065.813-1.029,1.5a8.077,8.077,0,0,0,1.143,3.717.647.647,0,0,0,1.117-.653,6.773,6.773,0,0,1-.929-2.633c-.014-.116,0-.292-.007-.452a5.219,5.219,0,0,1,.694.983,16.921,16.921,0,0,1,1.35,2.55c.189.449.357.909.5,1.375a2.662,2.662,0,0,1,.18,1.39c-.185.81,1.062,1.156,1.247.344.3-1.309-.351-2.7-.865-3.876A16.731,16.731,0,0,0,1278,1203.8Z" transform="translate(-680.983 -874.538)" fill="#d46566"/>
        <path id="Trazado_1032869" data-name="Trazado 1032869" d="M989.173,467.049a19.892,19.892,0,0,1-12.132,9.254,1.214,1.214,0,0,1-.912-.1l2.972,9.864.111.369s-2.319,30.253,11.1,23.235c14.844-7.761,7.585-31.57,7.585-31.57l-.711-.922-6.108-7.916-1.834-2.376A1.124,1.124,0,0,1,989.173,467.049Z" transform="translate(-429.644 -256.586)" fill="#f39776"/>
        <path id="Trazado_1032870" data-name="Trazado 1032870" d="M850.1,291.331a17.269,17.269,0,0,0,10.586-8.065,1.2,1.2,0,0,1,1.6-.5,20.606,20.606,0,0,0,1.549-3.614,22.112,22.112,0,0,0,.961-8.3c-2.145-1.418-3.49-5.822-3.2-8.28a3.806,3.806,0,0,1-.69-.172,2.355,2.355,0,0,1-.734-.478,39.049,39.049,0,0,1-8.755-10.7,1.686,1.686,0,0,1-.145-1.228c-.35-.167-.706-.316-1.066-.453a26.688,26.688,0,0,1-1.243,3.581c-.341.791-.734,1.559-1.15,2.315.36-.067.723-.125,1.091-.163a11.786,11.786,0,0,1,2.268-.011,4.9,4.9,0,0,1,2.5.732,1.33,1.33,0,0,1,.464,1.769,1.3,1.3,0,0,1-1.769.464,1.538,1.538,0,0,0-.8-.328c-.05-.012-.073-.019-.086-.023s-.043,0-.108-.008c-.183-.019-.365-.035-.548-.047a13.631,13.631,0,0,0-1.926.037q-.24.03-.066,0c-.091.013-.181.027-.272.042q-.2.034-.4.076-.47.1-.928.239a6.67,6.67,0,0,0-1.686.757c-.035.021-.072.033-.108.05-.249.318-.491.643-.754.949a25.442,25.442,0,0,1-4.151,3.87,43.579,43.579,0,0,1-5.144,3.172c-4.089,2.226-7.439,4.3-9.643,8.045q.3.555.6,1.1c.491.887.921,1.769,1.337,2.642a3.5,3.5,0,0,1,.444.137c2.3.98,5.669,5.431,5.128,8.165,4.423,4.115,10.115,6.487,15.931,5.495A1.169,1.169,0,0,1,850.1,291.331ZM836.211,276.88c-.232.071-.458.156-.684.245a8.915,8.915,0,0,0-1.707.994,9.089,9.089,0,0,0-.688.607A1.293,1.293,0,0,1,831.3,276.9a10.054,10.054,0,0,1,1.7-1.34c-.018,0-.034.006-.053.006a1.774,1.774,0,0,1-.854-.233,1.937,1.937,0,0,1-.624-.619,3.92,3.92,0,0,1-.275-.532l-.292-.607c-.129-.267-.258-.533-.36-.811a1.529,1.529,0,0,1-.069-.245,2.215,2.215,0,0,1-.059-.546,1.868,1.868,0,0,1,.523-1.242,1.715,1.715,0,0,1,1.183-.483,1.776,1.776,0,0,1,.829.2c.012,0,.026,0,.037.006a1.311,1.311,0,0,1,.773.594l.713,1.426a3.1,3.1,0,0,1,.437,1.224,1.471,1.471,0,0,1-.4,1.065,10.232,10.232,0,0,1,1.006-.372,1.294,1.294,0,1,1,.687,2.494Zm9.006-.121a5.332,5.332,0,0,1-3.023.7,2.2,2.2,0,0,1-1.862-1.426,3.521,3.521,0,0,1,.859-2.875c.669-.956,1.348-1.9,2.022-2.856a.661.661,0,0,1,.885-.232.652.652,0,0,1,.232.884l-1.681,2.374a4.287,4.287,0,0,0-1.1,2.111.534.534,0,0,0,.235.516,1.5,1.5,0,0,0,.677.246,4.25,4.25,0,0,0,2.1-.555.661.661,0,0,1,.885.232A.652.652,0,0,1,845.217,276.758Zm7.949-11.2a6.406,6.406,0,0,1,4.411-1.72,1.293,1.293,0,0,1,0,2.587,3.772,3.772,0,0,0-2.384.794c-.066.056-.134.109-.2.168a1.321,1.321,0,0,1-1.829,0A1.3,1.3,0,0,1,853.167,265.563Zm-4.317-3.838a1.712,1.712,0,0,1,1.183-.483,1.774,1.774,0,0,1,.828.2c.012,0,.026,0,.039.006a1.311,1.311,0,0,1,.773.594l.714,1.426a3.1,3.1,0,0,1,.436,1.224,1.473,1.473,0,0,1-.416,1.089,1.4,1.4,0,0,1-.413.289.841.841,0,0,1-.061.061,1.725,1.725,0,0,1-.481.3,1.423,1.423,0,0,1-.59.127,1.777,1.777,0,0,1-.854-.233,1.937,1.937,0,0,1-.624-.619,3.9,3.9,0,0,1-.274-.532l-.292-.607c-.129-.266-.258-.533-.36-.811a1.519,1.519,0,0,1-.069-.245,2.2,2.2,0,0,1-.059-.546A1.865,1.865,0,0,1,848.849,261.725Zm6.018,9.044s2.32,2.586-.622,5.972a5.077,5.077,0,0,1-6.917,1.168Z" transform="translate(-303.385 -74.109)" fill="#f39776"/>
        <path id="Trazado_1032871" data-name="Trazado 1032871" d="M984.708,231.489a39.051,39.051,0,0,0,8.755,10.7,2.351,2.351,0,0,0,.734.478,3.808,3.808,0,0,0,.69.172,4.135,4.135,0,0,1,.083-.493,4.239,4.239,0,0,1,1.768-2.43,17.238,17.238,0,0,0-.812-3.652,26.533,26.533,0,0,0-5.593-9.446,2.158,2.158,0,0,0-1.1-.762,2.036,2.036,0,0,0-1.482.492c-.993.7-2.856,2.241-3.188,3.712A1.687,1.687,0,0,0,984.708,231.489Zm1.267-1.887c.075-.05.149-.1.221-.152l.1-.073-.015.011c.126-.1.249-.208.367-.321s.231-.229.339-.35l.159-.185.061-.076,0,0v0a7.065,7.065,0,0,0,.505-.8q.056-.109.108-.219l.05-.111,0,0,.087-.227c.027-.076.053-.154.077-.231a.66.66,0,0,1,.8-.452.653.653,0,0,1,.452.8,6.594,6.594,0,0,1-2.656,3.518.647.647,0,0,1-.653-1.117Z" transform="translate(-436.68 -54.378)" fill="#dd5313"/>
        <path id="Trazado_1032872" data-name="Trazado 1032872" d="M992.615,232.549a6.594,6.594,0,0,0,2.657-3.518.653.653,0,0,0-.452-.8.661.661,0,0,0-.8.452c-.024.077-.05.155-.077.231l-.087.227,0,0-.05.111q-.052.11-.108.219a7.089,7.089,0,0,1-.505.8v0l0,0-.061.076-.159.185c-.108.121-.221.238-.339.35s-.241.218-.368.321l.015-.011-.1.073c-.072.052-.146.1-.221.152a.647.647,0,0,0,.652,1.117Z" transform="translate(-442.666 -56.208)" fill="#ca2e17"/>
        <path id="Trazado_1032873" data-name="Trazado 1032873" d="M920.483,382.6a4.249,4.249,0,0,1-2.1.555,1.494,1.494,0,0,1-.677-.246.534.534,0,0,1-.235-.516,4.287,4.287,0,0,1,1.1-2.111l1.681-2.374a.652.652,0,0,0-.232-.884.66.66,0,0,0-.885.232c-.674.952-1.353,1.9-2.022,2.856a3.521,3.521,0,0,0-.859,2.875,2.2,2.2,0,0,0,1.862,1.426,5.332,5.332,0,0,0,3.023-.7.652.652,0,0,0,.232-.885A.662.662,0,0,0,920.483,382.6Z" transform="translate(-379.304 -181.07)" fill="#d46566"/>
        <path id="Trazado_1032874" data-name="Trazado 1032874" d="M967.2,387.838c2.942-3.387.622-5.972.622-5.972l-7.539,7.14A5.077,5.077,0,0,0,967.2,387.838Z" transform="translate(-416.341 -185.206)" fill="#fff8dc"/>
        <path id="Trazado_1032875" data-name="Trazado 1032875" d="M948.593,288.664a6.673,6.673,0,0,1,1.686-.757q.458-.142.928-.239c.135-.028.269-.053.4-.076.091-.015.181-.029.272-.042-.116.017-.094.016.066,0a13.676,13.676,0,0,1,1.925-.037c.183.011.365.028.548.047.065.007.095.008.108.008s.036.011.086.023a1.538,1.538,0,0,1,.8.328,1.3,1.3,0,0,0,1.769-.464,1.329,1.329,0,0,0-.464-1.769,4.9,4.9,0,0,0-2.5-.732,11.8,11.8,0,0,0-2.268.011c-.368.038-.731.1-1.091.163a26.809,26.809,0,0,1-2.373,3.591A1.162,1.162,0,0,0,948.593,288.664Z" transform="translate(-406.435 -103.797)" fill="#ca2e17"/>
        <path id="Trazado_1032876" data-name="Trazado 1032876" d="M966.619,325c.1.278.231.545.36.811l.292.607a3.91,3.91,0,0,0,.274.532,1.938,1.938,0,0,0,.624.619,1.78,1.78,0,0,0,.854.233,1.426,1.426,0,0,0,.59-.127,1.723,1.723,0,0,0,.481-.3.8.8,0,0,0,.062-.061,1.4,1.4,0,0,0,.413-.289,1.471,1.471,0,0,0,.416-1.089,3.1,3.1,0,0,0-.436-1.224l-.714-1.426a1.311,1.311,0,0,0-.773-.594c-.012,0-.026,0-.039-.006a1.774,1.774,0,0,0-.828-.2,1.713,1.713,0,0,0-1.183.483,1.866,1.866,0,0,0-.523,1.242,2.208,2.208,0,0,0,.059.546A1.542,1.542,0,0,0,966.619,325Zm2.526-.891a.647.647,0,0,1,0-1.293A.647.647,0,0,1,969.145,324.111Z" transform="translate(-421.55 -135.354)" fill="#007d71"/>
        <path id="Trazado_1032877" data-name="Trazado 1032877" d="M979.778,325.844a.647.647,0,0,0,0-1.293A.647.647,0,0,0,979.778,325.844Z" transform="translate(-432.183 -137.086)" fill="#fff8dc"/>
        <path id="Trazado_1032878" data-name="Trazado 1032878" d="M859.377,382.039a3.094,3.094,0,0,0-.437-1.224l-.713-1.426a1.312,1.312,0,0,0-.773-.594c-.012,0-.025,0-.037-.006a1.773,1.773,0,0,0-.829-.2,1.716,1.716,0,0,0-1.183.483,1.868,1.868,0,0,0-.523,1.242,2.226,2.226,0,0,0,.059.546,1.571,1.571,0,0,0,.069.245c.1.278.231.544.36.811l.292.607a3.919,3.919,0,0,0,.275.532,1.939,1.939,0,0,0,.624.619,1.776,1.776,0,0,0,.854.233c.018,0,.035-.005.053-.006a10.213,10.213,0,0,1,1.512-.8A1.472,1.472,0,0,0,859.377,382.039Zm-1.84-1.824a.647.647,0,0,1,0-1.293A.647.647,0,0,1,857.537,380.214Z" transform="translate(-327.848 -182.455)" fill="#007d71"/>
        <path id="Trazado_1032879" data-name="Trazado 1032879" d="M868.171,381.948a.647.647,0,0,0,0-1.293A.647.647,0,0,0,868.171,381.948Z" transform="translate(-338.482 -184.189)" fill="#fff8dc"/>
        <path id="Trazado_1032880" data-name="Trazado 1032880" d="M994.713,342.239a1.321,1.321,0,0,0,1.829,0c.064-.059.131-.112.2-.168a5.21,5.21,0,0,1,.865-.5,5.271,5.271,0,0,1,.94-.257,5.177,5.177,0,0,1,.58-.033,1.293,1.293,0,0,0,0-2.587,6.406,6.406,0,0,0-4.411,1.72A1.3,1.3,0,0,0,994.713,342.239Z" transform="translate(-444.932 -148.957)" fill="#d46566"/>
        <path id="Trazado_1032881" data-name="Trazado 1032881" d="M862.671,404.137a10.638,10.638,0,0,0-2.518,1.17,10.047,10.047,0,0,0-1.7,1.341,1.293,1.293,0,0,0,1.829,1.829,9.088,9.088,0,0,1,.688-.607,8.911,8.911,0,0,1,1.707-.994c.225-.088.452-.174.684-.245a1.293,1.293,0,0,0-.687-2.494Z" transform="translate(-330.532 -203.861)" fill="#d46566"/>
        <path id="Trazado_1032882" data-name="Trazado 1032882" d="M815.166,431.372a3.5,3.5,0,0,0-.444-.137,4.122,4.122,0,0,0-3.811.882,20.007,20.007,0,0,0-.6,3.913,9.727,9.727,0,0,0,3.18,4.383,5.686,5.686,0,0,0,3.977,1.248c1.777-.214,2.614-1.033,2.83-2.124C820.835,436.8,817.47,432.351,815.166,431.372ZM818,439.305a.644.644,0,0,1-.457.189,2.39,2.39,0,0,1-1.24-.511,2.182,2.182,0,0,1-.465-2.87l-.2-.167a5.7,5.7,0,0,0-.492-.33,3.506,3.506,0,0,0-1.079-.448,2.082,2.082,0,0,0-1.844.417.647.647,0,1,1-.914-.914,3.418,3.418,0,0,1,3.254-.711,5.189,5.189,0,0,1,1.6.778,4.1,4.1,0,0,1,.678.549,1.384,1.384,0,0,1,.245.383l.01.006a.653.653,0,0,1,0,.915l-.084.085L817,436.7l-.026.036-.052.085-.047.088h0l-.055.182-.016.079-.005.183,0,.074.048.183c0,.005,0,.009.006.014.047.076.021.049,0,0l-.015-.024.034.07.106.172.053.059.129.12.073.048.155.081.1.032c.052.014.266.047.057.021a.756.756,0,0,1,.457.189.648.648,0,0,1,0,.915Z" transform="translate(-290.426 -226.535)" fill="#f39776"/>
        <path id="Trazado_1032883" data-name="Trazado 1032883" d="M851.109,471.794c.021.049.047.076,0,0Z" transform="translate(-324.682 -260.706)" fill="#d46566"/>
        <path id="Trazado_1032884" data-name="Trazado 1032884" d="M844.707,462.154c.209.026-.005-.006-.057-.021l-.1-.032-.155-.081-.073-.048-.129-.12-.053-.059-.106-.172-.034-.07.015.024c0-.005,0-.009-.006-.014l-.048-.183,0-.074.005-.183.016-.079.056-.182h0l.047-.088.052-.085.026-.036.019-.022.083-.085a.652.652,0,0,0,0-.914l-.01-.006a1.227,1.227,0,0,1,.085.71.652.652,0,0,1-.8.452.666.666,0,0,1-.451-.8c-.028.172.04.2-.08.082l-.006-.005a2.182,2.182,0,0,0,.465,2.87,2.389,2.389,0,0,0,1.24.511.645.645,0,0,0,.457-.189.647.647,0,0,0,0-.914A.76.76,0,0,0,844.707,462.154Z" transform="translate(-317.587 -250.488)" fill="#d46566"/>
        <path id="Trazado_1032885" data-name="Trazado 1032885" d="M820.205,450.319a.666.666,0,0,0,.452.8.651.651,0,0,0,.8-.451,1.23,1.23,0,0,0-.085-.71,1.378,1.378,0,0,0-.245-.383,4.075,4.075,0,0,0-.678-.549,5.185,5.185,0,0,0-1.6-.778,3.417,3.417,0,0,0-3.254.711.647.647,0,1,0,.914.914,2.082,2.082,0,0,1,1.844-.417,3.509,3.509,0,0,1,1.079.448,5.676,5.676,0,0,1,.492.33l.2.167.006.005C820.246,450.514,820.177,450.491,820.205,450.319Z" transform="translate(-294.705 -240.817)" fill="#d46566"/>
        <path id="Trazado_1032886" data-name="Trazado 1032886" d="M1071.28,360.848l.006.005h0a.238.238,0,0,0,.025.016Z" transform="translate(-509.529 -167.56)" fill="#f39776"/>
        <path id="Trazado_1032887" data-name="Trazado 1032887" d="M1071.117,360.717l.013.009C1071.091,360.694,1071.1,360.7,1071.117,360.717Z" transform="translate(-509.379 -167.438)" fill="#f39776"/>
        <path id="Trazado_1032888" data-name="Trazado 1032888" d="M1073.2,363.4l0,.006v0s0,0,0,0Z" transform="translate(-511.141 -169.7)" fill="#f39776"/>
        <path id="Trazado_1032889" data-name="Trazado 1032889" d="M1050.843,309.44a3.87,3.87,0,0,0-1.851,2.923c-.287,2.458,1.058,6.862,3.2,8.28a2.467,2.467,0,0,0,3.011-.125,5.261,5.261,0,0,0,.756-.665,5.686,5.686,0,0,0,1.37-3.936c0-2.076-1.008-5.245-2.985-6.528a3.548,3.548,0,0,0-.957-.443A3.084,3.084,0,0,0,1050.843,309.44Zm3.239,2.576a.659.659,0,0,1-.647.646h-.032l-.138.031-.109.035-.023.006s0,0-.007.006l-.2.115-.033.018-.089.076-.187.189-.044.049-.055.078c-.05.074-.1.151-.139.23l-.053.106-.022.048-.035.1-.043.142c-.03.107-.054.215-.074.324l-.015.083-.015.147c-.01.111-.015.222-.018.333-.008.316.01.631.032.947a2.224,2.224,0,0,1,1.679.97,3.54,3.54,0,0,1,.35,2.616.646.646,0,0,1-1.181.154.7.7,0,0,1-.065-.5l.021-.136s0-.01,0-.013q.013-.116.02-.232a3.636,3.636,0,0,0,0-.509l-.005-.056-.011-.067a2.367,2.367,0,0,0-.06-.243l-.036-.1a.081.081,0,0,1-.026-.05l-.078-.144c-.009-.014-.048-.064-.052-.071l-.148-.147-.021-.015-.05-.034-.149-.081h0l-.09-.027-.072-.017h-.11l-.041.007-.108.034a.655.655,0,0,1-.8-.452c0-.015,0-.028,0-.043a.755.755,0,0,1-.23-.481,6.008,6.008,0,0,1,.341-3.132,2.712,2.712,0,0,1,2.225-1.582A.654.654,0,0,1,1054.082,312.015Z" transform="translate(-490.784 -123.899)" fill="#f39776"/>
        <path id="Trazado_1032890" data-name="Trazado 1032890" d="M1073.06,363.128l.022.041C1073.066,363.127,1073.06,363.12,1073.06,363.128Z" transform="translate(-511.023 -169.472)" fill="#f39776"/>
        <path id="Trazado_1032891" data-name="Trazado 1032891" d="M1071.21,360.8l-.013-.009.021.015h0Z" transform="translate(-509.459 -167.512)" fill="#d46566"/>
        <path id="Trazado_1032892" data-name="Trazado 1032892" d="M1073.084,363.184l-.022-.041a.081.081,0,0,0,.026.05v0S1073.084,363.187,1073.084,363.184Z" transform="translate(-511.025 -169.487)" fill="#d46566"/>
        <path id="Trazado_1032893" data-name="Trazado 1032893" d="M1062.751,352.732a.557.557,0,0,1-.416-.165c0,.014,0,.028,0,.043a.655.655,0,0,0,.8.452l.109-.034.041-.007h.11l.072.017.089.027h0l.149.082.05.034c-.02-.017-.025-.023.013.009l.032.022-.025-.016.148.147c0,.007.043.057.052.071l.078.144c0-.008.006,0,.022.041l.007.013,0,0,.036.1a2.33,2.33,0,0,1,.06.243l.012.067.005.056a3.673,3.673,0,0,1,0,.509q-.007.116-.02.232s0,.009,0,.013l-.021.136a.7.7,0,0,0,.065.5.647.647,0,0,0,1.182-.154,3.54,3.54,0,0,0-.351-2.616,2.224,2.224,0,0,0-1.679-.971c.008.119.016.239.025.358A.654.654,0,0,1,1062.751,352.732Z" transform="translate(-502.019 -159.903)" fill="#d46566"/>
        <path id="Trazado_1032894" data-name="Trazado 1032894" d="M1060.961,326.154a6.007,6.007,0,0,0-.341,3.132.757.757,0,0,0,.23.481.558.558,0,0,0,.417.165.654.654,0,0,0,.646-.646c-.01-.119-.017-.238-.025-.358-.023-.315-.041-.631-.033-.947,0-.111.008-.222.018-.333l.015-.147.015-.083c.02-.109.044-.217.074-.324l.043-.141.035-.1.022-.048.054-.106a2.679,2.679,0,0,1,.138-.23l.055-.078.044-.049.186-.189.089-.076.033-.018.2-.115c.007,0,.005,0,.007-.006l.023-.006.109-.035.138-.031h.032a.647.647,0,1,0,0-1.293A2.711,2.711,0,0,0,1060.961,326.154Z" transform="translate(-500.533 -137.103)" fill="#d46566"/>
        <path id="Trazado_1032895" data-name="Trazado 1032895" d="M973.43,467.052a19.893,19.893,0,0,0,12.132-9.254,1.381,1.381,0,0,0,.073-.161,1.246,1.246,0,0,0-.7-1.64,1.2,1.2,0,0,0-1.6.5,17.27,17.27,0,0,1-10.586,8.065,1.169,1.169,0,0,0-.912,1.274,1.392,1.392,0,0,0,.687,1.122A1.216,1.216,0,0,0,973.43,467.052Z" transform="translate(-426.032 -247.336)" fill="#1a1d35"/>
        <path id="Trazado_1032896" data-name="Trazado 1032896" d="M1540.838,1047.116a.683.683,0,0,0,.982-.73,127.3,127.3,0,0,0-9.77-29.334c-.356-.752-1.471-.1-1.116.653a125.956,125.956,0,0,1,9.581,28.757c.018.09.04.179.059.268A.54.54,0,0,0,1540.838,1047.116Z" transform="translate(-895.378 -718.205)" fill="#d46566"/>
        <path id="Trazado_1032897" data-name="Trazado 1032897" d="M749.1,240.6a16.584,16.584,0,0,1,1.235-2.59c2.2-3.747,5.555-5.819,9.643-8.045a43.622,43.622,0,0,0,5.145-3.172,25.439,25.439,0,0,0,4.151-3.87c.263-.307.505-.631.754-.949a26.8,26.8,0,0,0,2.373-3.591c.416-.755.809-1.524,1.15-2.315a26.7,26.7,0,0,0,1.243-3.581,25.907,25.907,0,0,0,.642-3.033c.34-2.324.877-4.021-2.053-4.045-12.068-.1-24.781,2.783-32.433,12.837a23.965,23.965,0,0,0-5.018,14.176c-.029,5.035-.091,10.355,2.843,14.737a20.489,20.489,0,0,0,3.636,3.958c-.331-1.153-.636-2.313-.884-3.49a53.107,53.107,0,0,1-.534-18.846c.871-5.762,2.477-12.446,6.749-16.687a.647.647,0,0,1,.914.914,20.319,20.319,0,0,0-4.684,8.6,51.229,51.229,0,0,0,.235,31.005,8.346,8.346,0,0,0,5.068,2.219,18.512,18.512,0,0,1-1.416-8.28A20.282,20.282,0,0,1,749.1,240.6Z" transform="translate(-227.977 -37.056)" fill="#dd5313"/>
        <path id="Trazado_1032898" data-name="Trazado 1032898" d="M705.566,269.6c-.3.778.951,1.114,1.247.344,3.2-8.334,2.031-17.4.968-26.024-1.052-8.541-2.291-17.765,1.278-25.911,2.18-4.975,5.959-9,10.051-12.472.635-.54-.283-1.45-.914-.915a39.279,39.279,0,0,0-9.23,10.667,29.819,29.819,0,0,0-3.45,12.4c-.635,9.034,1.606,17.956,2.026,26.947A36.683,36.683,0,0,1,705.566,269.6Z" transform="translate(-202.354 -36.263)" fill="#ef7a1a"/>
        <path id="Trazado_1032899" data-name="Trazado 1032899" d="M676.426,622.3a92.6,92.6,0,0,0,12.658-31.857c.158-.813-1.088-1.161-1.247-.344a91.616,91.616,0,0,1-12.528,31.548C674.863,622.353,675.982,623,676.426,622.3Z" transform="translate(-177 -359.64)" fill="#ef7a1a"/>
        <path id="Trazado_1032900" data-name="Trazado 1032900" d="M699.567,721.157a47.948,47.948,0,0,0-9.632,30.218,46.939,46.939,0,0,0,1.176,9.127c.186.81,1.433.468,1.247-.344a46.7,46.7,0,0,1,8.325-38.348C701.188,721.147,700.065,720.5,699.567,721.157Z" transform="translate(-189.349 -469.832)" fill="#ef7a1a"/>
        <path id="Trazado_1032901" data-name="Trazado 1032901" d="M552.292,745.881c.505-.661-.617-1.306-1.117-.653a61.933,61.933,0,0,0-8.807,15.9c-2.037,5.443-3.91,11.787-1.44,17.394.335.76,1.45.1,1.117-.653-2.388-5.42-.2-11.855,1.817-17.048A60.978,60.978,0,0,1,552.292,745.881Z" transform="translate(-63.277 -490.043)" fill="#ef7a1a"/>
        <path id="Trazado_1032902" data-name="Trazado 1032902" d="M790.956,579.4c-4.293-13.984,5.495-27.11,9.469-39.9a37.3,37.3,0,0,0,1.83-11.27.647.647,0,0,0-1.293,0c.085,14.345-10.14,26.1-12.028,40.059a26.679,26.679,0,0,0,.775,11.456C789.952,580.534,791.2,580.2,790.956,579.4Z" transform="translate(-272.242 -307.56)" fill="#ef7a1a"/>
        <path id="Trazado_1032903" data-name="Trazado 1032903" d="M767.365,255.615a20.317,20.317,0,0,1,4.684-8.6.647.647,0,0,0-.914-.914c-4.272,4.24-5.879,10.925-6.749,16.687a53.109,53.109,0,0,0,.534,18.846c.248,1.176.553,2.337.884,3.49a53.4,53.4,0,0,0,2.4,6.673c.333.761,1.447.1,1.117-.653-.648-1.48-1.216-2.992-1.716-4.526A51.23,51.23,0,0,1,767.365,255.615Z" transform="translate(-251.37 -71.065)" fill="#ef7a1a"/>
      </g>
    </g>
  </g>
</svg>
