<svg xmlns="http://www.w3.org/2000/svg" xmlns:xlink="http://www.w3.org/1999/xlink" width="190" height="166" viewBox="0 0 190 166">
  <defs>
    <clipPath id="clip-path">
      <rect id="Rectángulo_414906" data-name="Rectángulo 414906" width="190" height="166" transform="translate(793.978 3813.467)" fill="#fff" stroke="#707070" stroke-width="1" opacity="0.63"/>
    </clipPath>
  </defs>
  <g id="Enmascarar_grupo_1098800" data-name="Enmascarar grupo 1098800" transform="translate(-793.978 -3813.467)" clip-path="url(#clip-path)">
    <g id="Grupo_1179933" data-name="Grupo 1179933" transform="translate(818.223 3815.539)">
      <path id="Trazado_1033521" data-name="Trazado 1033521" d="M483.46,1401.379a31.018,31.018,0,0,1,1.912,2.5c9.26,13.46,13.122,38.829,23.15,45.225,10.688,6.818,24.141-.921,26.72-15.664l-14.374-13.529s-4.692,10.638-7.74,6.158c-2.445-3.593-15.848-22.309-21.008-29.507l-2.027-2.826Z" transform="translate(-465.389 -1310.335)" fill="#ffaf82"/>
      <path id="Trazado_1033522" data-name="Trazado 1033522" d="M619.244,1362.744s-1.751,3.225,5.8,7.187,7.832,4.791,11.886,6.265a31.028,31.028,0,0,1,1.912,2.5l6.749-7.317-2.027-2.826a14.892,14.892,0,0,0-2.3-6.642c-2.119-3.225-2.672-5.528-4.33-5.068s.553,5.344,0,5.8-15.2-7.3-17.138-3.329C619.8,1359.324,618.138,1360.349,619.244,1362.744Z" transform="translate(-618.864 -1285.152)" fill="#ffaf82"/>
      <path id="Trazado_1033523" data-name="Trazado 1033523" d="M444.293,1406.324s8.12,12.462,19.89,18.758a31.21,31.21,0,0,0,7.164,2.814v0c.2-.4,11.629-23.234,5.951-63.135l-3.359.756-2.488.56s-10.942,3.209-13.89,13.345S444.293,1406.324,444.293,1406.324Z" transform="translate(-396.553 -1290.583)" fill="#39ad98"/>
      <path id="Trazado_1033524" data-name="Trazado 1033524" d="M669.066,1369.267a.576.576,0,0,0,.24-1.1c-5.4-2.473-13.8-5.17-13.885-5.2a.576.576,0,1,0-.351,1.1c.083.027,8.415,2.7,13.757,5.147A.565.565,0,0,0,669.066,1369.267Z" transform="translate(-654.313 -1289.347)" fill="#fe976a"/>
      <path id="Trazado_1033525" data-name="Trazado 1033525" d="M292.406,1418.161a92.985,92.985,0,0,1-.234,9.464h56.934v-69.918l-2.2-.522-.361-.084-1.854-.437-.737-.173-7.44-1.758-4.73-1.117-1.724-.407-6.312-1.493-5.229-1.236-5.647,1.275-5.448,1.225-2.518.568-4.734,1.067-1.816.411-3.367.756-2.48.561s2.7,7.448,0,19.887c-1.313,6.07-2.219,10.035-2.507,14.2-.311,4.377.058,8.98,1.332,16.478a80.321,80.321,0,0,1,1.071,11.249Z" transform="translate(-217.612 -1280.85)" fill="#39ad98"/>
      <path id="Trazado_1033526" data-name="Trazado 1033526" d="M290.94,1482.075h56.934a.576.576,0,1,0,0-1.151H291.559c.205-2.961.269-5.952.191-8.9a80.9,80.9,0,0,0-1.079-11.333c-1.262-7.423-1.633-12-1.325-16.341a89.941,89.941,0,0,1,2.228-12.89l.268-1.233a.576.576,0,0,0-1.126-.244l-.267,1.233a90.666,90.666,0,0,0-2.251,13.054c-.315,4.434.061,9.093,1.339,16.614a79.749,79.749,0,0,1,1.063,11.167,92.247,92.247,0,0,1-.233,9.408.577.577,0,0,0,.574.62Z" transform="translate(-216.38 -1334.724)" fill="#6a2810"/>
      <path id="Trazado_1033527" data-name="Trazado 1033527" d="M391.616,1367.145c2.945,1.324,7.97-.814,7.509-4.868,0,0-2.066-5.647-5.091-7.8l-5.448,1.225C386.794,1358.894,387.239,1365.18,391.616,1367.145Z" transform="translate(-298.774 -1283.578)" fill="#fff"/>
      <path id="Trazado_1033528" data-name="Trazado 1033528" d="M355.189,1366.611c4.081-1.831,4.745-7.421,3.363-10.753l-6.312-1.493c-2.737,2.38-4.561,7.379-4.561,7.379C347.219,1365.8,352.244,1367.929,355.189,1366.611Z" transform="translate(-246.104 -1283.499)" fill="#fff"/>
      <path id="Trazado_1033529" data-name="Trazado 1033529" d="M234.069,1536.136l3.244,9.571s1.094.119,2.991.319c10.746,1.113,47.29,4.7,57.157,2.814,5.44-1.036,7.521-4.3,8.1-8.573.656-4.849-.61-10.995-1.1-16.673,0,0-21.192-.553-21.825,5.16a3.711,3.711,0,0,1-2.062,2.6c-5.7,3.459-21.9,4.158-32.686,3.855a86.631,86.631,0,0,0-10.577.177C234.33,1535.678,234.069,1536.136,234.069,1536.136Z" transform="translate(-156.477 -1398.826)" fill="#ffaf82"/>
      <path id="Trazado_1033530" data-name="Trazado 1033530" d="M435.041,1587.183c2.073,1.52,3.455.415,3.455.415,3.041,1.106,3.075-1.106,3.075-1.106,3.075.829,3.282-1.8,3.282-1.8,2.073-.138,1.659-2.764-1.781-6.081a10,10,0,0,1-2.991-7.647s1.094.119,2.991.318l-2.991-10.646c-2.983.3-3.244.756-3.244.756a10.733,10.733,0,0,0-6.772,9.571C429.651,1578.384,432.968,1585.661,435.041,1587.183Z" transform="translate(-359.245 -1424.084)" fill="#ffaf82"/>
      <path id="Trazado_1033531" data-name="Trazado 1033531" d="M439.533,1619.256a.576.576,0,0,0,.258-1.091c-.048-.024-3.511-1.823-6.534-7.362a.576.576,0,0,0-1.011.552c3.218,5.9,6.877,7.764,7.031,7.841A.568.568,0,0,0,439.533,1619.256Z" transform="translate(-353.925 -1458.068)" fill="#fe976a"/>
      <path id="Trazado_1033532" data-name="Trazado 1033532" d="M448.772,1621.053a.576.576,0,0,0,.346-1.036,16.054,16.054,0,0,1-5.492-9.042.576.576,0,0,0-1.133.209,16.932,16.932,0,0,0,5.934,9.755A.582.582,0,0,0,448.772,1621.053Z" transform="translate(-366.446 -1458.068)" fill="#fe976a"/>
      <path id="Trazado_1033533" data-name="Trazado 1033533" d="M457.419,1623.685a.576.576,0,0,0,.354-1.03c-.047-.037-3.183-2.589-4.492-9.443a.576.576,0,1,0-1.131.216c1.4,7.34,4.774,10.025,4.916,10.136A.587.587,0,0,0,457.419,1623.685Z" transform="translate(-378.169 -1459.596)" fill="#fe976a"/>
      <path id="Trazado_1033534" data-name="Trazado 1033534" d="M234.07,1531.352c7.7,5.1,19.58,7.866,24.989,8.918.656-4.849-.61-11-1.1-16.673,0,0-21.192-.553-21.825,5.16A3.707,3.707,0,0,1,234.07,1531.352Z" transform="translate(-109.97 -1398.828)" fill="#fe976a"/>
      <path id="Trazado_1033535" data-name="Trazado 1033535" d="M264.671,1203.858c9.145,4.849,19.184,1.14,26.847.9a14.893,14.893,0,0,1,4.787.5,63.671,63.671,0,0,0,17.261,2.242c6.665-.042,13.356-1.229,17.43-4.611,8.154-6.772,3.179-11.471-1.935-17.967s-7.74-16.309-6.911-26.947-9.26-15.76-16.17-10.369l-24.739-4.008s-7.463,17.552-9.674,28.613S253.461,1197.916,264.671,1203.858Z" transform="translate(-194.526 -1139.855)" fill="#823315"/>
      <path id="Trazado_1033536" data-name="Trazado 1033536" d="M329.006,1289.532a14.9,14.9,0,0,1,4.787.5,63.681,63.681,0,0,0,17.261,2.242c-5.594-10.132-8-24.29-8-24.29s-11.057,5.582-12.853,8.158C328.814,1278.122,329.071,1284.281,329.006,1289.532Z" transform="translate(-232.014 -1224.627)" fill="#632411"/>
      <path id="Trazado_1033537" data-name="Trazado 1033537" d="M359.409,1290.53v23.651s1.07,6.568,8.48,6.062a8.87,8.87,0,0,0,8.42-7.241v-22.472h-16.9Z" transform="translate(-266.951 -1239.994)" fill="#ffaf82"/>
      <path id="Trazado_1033538" data-name="Trazado 1033538" d="M359.409,1290.53v21.942c10.125-.428,14.441-8.8,16.9-16.714v-5.228h-16.9Z" transform="translate(-266.951 -1239.994)" fill="#fe976a"/>
      <path id="Trazado_1033539" data-name="Trazado 1033539" d="M359.935,1208.37c16.984,0,25.089-10.2,26.11-24.279a54.42,54.42,0,0,0-1.647-16.77c-5.39-21.975-36.073-9.951-36.073-9.951a47.761,47.761,0,0,0-4.665,12.773C339.91,1186.724,342.052,1208.37,359.935,1208.37Z" transform="translate(-271.29 -1147.003)" fill="#ffaf82"/>
      <path id="Trazado_1033540" data-name="Trazado 1033540" d="M398.18,1291.166c3.482,0,5.856-3.313,5.887-3.357a.576.576,0,0,0-.942-.662h0c-.135.191-3.345,4.643-7.59,2.06a.576.576,0,1,0-.6.983A6.148,6.148,0,0,0,398.18,1291.166Z" transform="translate(-306.04 -1237.521)" fill="#6a2810"/>
      <path id="Trazado_1033541" data-name="Trazado 1033541" d="M380.918,1256.591a3.634,3.634,0,0,0,1.678-.426,2.708,2.708,0,0,0,1.566-2.334,3.067,3.067,0,0,0-1.317-2.634,1.648,1.648,0,0,0-1.688-.1.576.576,0,0,0,.542,1.017.484.484,0,0,1,.533.063,1.919,1.919,0,0,1,.778,1.612,1.561,1.561,0,0,1-.945,1.359,2.177,2.177,0,0,1-2.7-.373,3.3,3.3,0,0,1-.4-3.913,3.037,3.037,0,0,1,2.936-1.782,2.839,2.839,0,0,1,2.473,1.881.576.576,0,1,0,1.087-.381,3.991,3.991,0,0,0-3.473-2.648,4.19,4.19,0,0,0-4.039,2.392,4.449,4.449,0,0,0,.6,5.264A3.3,3.3,0,0,0,380.918,1256.591Z" transform="translate(-281.86 -1210.949)" fill="#fe976a"/>
      <path id="Trazado_1033542" data-name="Trazado 1033542" d="M458.409,1245.361a3.632,3.632,0,0,0,1.678-.426,2.708,2.708,0,0,0,1.566-2.335,3.067,3.067,0,0,0-1.316-2.634,1.65,1.65,0,0,0-1.688-.1.576.576,0,0,0,.542,1.017.485.485,0,0,1,.533.062,1.919,1.919,0,0,1,.778,1.612,1.562,1.562,0,0,1-.945,1.36,2.181,2.181,0,0,1-2.7-.373,3.305,3.305,0,0,1-.4-3.914,3.027,3.027,0,0,1,2.936-1.782,2.838,2.838,0,0,1,2.473,1.881.576.576,0,1,0,1.087-.381,3.99,3.99,0,0,0-3.473-2.648,4.19,4.19,0,0,0-4.039,2.391,4.449,4.449,0,0,0,.6,5.264A3.307,3.307,0,0,0,458.409,1245.361Z" transform="translate(-384.029 -1203.296)" fill="#fe976a"/>
      <path id="Trazado_1033543" data-name="Trazado 1033543" d="M439.139,1243.531a.576.576,0,0,0,.327-1.051l-4.551-3.133,4.7-6.8a.576.576,0,0,0-.948-.655l-5.026,7.279a.576.576,0,0,0,.148.8l5.026,3.46A.561.561,0,0,0,439.139,1243.531Z" transform="translate(-353.965 -1199.857)" fill="#6a2810"/>
      <path id="Trazado_1033544" data-name="Trazado 1033544" d="M390.127,1224.588c0,1.549.623,2.42,1.391,2.42s1.391-.872,1.391-2.42-.623-2.379-1.391-2.379S390.127,1223.041,390.127,1224.588Z" transform="translate(-293.334 -1193.43)" fill="#6a2810"/>
      <path id="Trazado_1033545" data-name="Trazado 1033545" d="M342.1,1170.139a3.689,3.689,0,0,0,.549.43c10.842,6.922,30.529,3.3,30.529,3.3-.376-12.991,6.742-12.4,5.763-7.855-.956,4.442-1.232,20.8,5.544,18.071a54.416,54.416,0,0,0-1.647-16.769c-5.39-21.975-36.073-9.951-36.073-9.951A47.761,47.761,0,0,0,342.1,1170.139Z" transform="translate(-269.732 -1146.999)" fill="#fe976a"/>
      <path id="Trazado_1033546" data-name="Trazado 1033546" d="M336.654,1154.257c-4.91-3.137-3-18.811,12.637-21.851s26.279,7.187,26.279,7.187,10.633,24.3,3.382,27.973-6.987-13.321-6.008-17.863-6.137-5.136-5.764,7.856C367.181,1157.559,347.494,1161.183,336.654,1154.257Z" transform="translate(-264.117 -1131.841)" fill="#823315"/>
      <path id="Trazado_1033547" data-name="Trazado 1033547" d="M214.963,1425.676a40.592,40.592,0,0,0,8.938,1.969c15.276,1.539,23.864-7.313,23.864-7.313s-8.292-35.566-12.347-42.2-14.078-7.793-14.078-7.793l-1.854-.437c-.43,7.026-1.144,21.33-.468,29.054C219.939,1409.46,214.963,1425.676,214.963,1425.676Z" transform="translate(-92.406 -1294.089)" fill="#39ad98"/>
      <path id="Trazado_1033548" data-name="Trazado 1033548" d="M303.64,1487.2a.576.576,0,0,0,.55-.407c.2-.666,5-16.444,4.077-26.939a.576.576,0,1,0-1.147.1c.9,10.273-3.982,26.34-4.031,26.5a.576.576,0,0,0,.382.72A.631.631,0,0,0,303.64,1487.2Z" transform="translate(-181.083 -1355.037)" fill="#6a2810"/>
      <path id="Trazado_1033549" data-name="Trazado 1033549" d="M449.205,1217.058c0,1.549.623,2.42,1.391,2.42s1.391-.872,1.391-2.42-.623-2.379-1.391-2.379S449.205,1215.511,449.205,1217.058Z" transform="translate(-371.226 -1188.298)" fill="#6a2810"/>
      <path id="Trazado_1033550" data-name="Trazado 1033550" d="M309.918,1254.308c2.373,7.324,15.384,5.189,16.169-3.034.762-7.977-8.318-11.381-14.282-6.132S309.918,1254.308,309.918,1254.308Z" transform="translate(-200.581 -1207.344)" fill="#ffaf82"/>
      <path id="Trazado_1033551" data-name="Trazado 1033551" d="M328.064,1261.918a.576.576,0,0,0,.463-.917c-.023-.032-2.348-3.249-1.094-5.658a.576.576,0,1,0-1.022-.532c-1.586,3.048,1.075,6.718,1.189,6.873A.58.58,0,0,0,328.064,1261.918Z" transform="translate(-208.613 -1215.439)" fill="#fe976a"/>
      <path id="Trazado_1033552" data-name="Trazado 1033552" d="M333.786,1265.813a7.806,7.806,0,0,0,2.481-.359.576.576,0,0,0-.372-1.09,10.282,10.282,0,0,1-4.79-.014.576.576,0,0,0-.279,1.118A13.565,13.565,0,0,0,333.786,1265.813Z" transform="translate(-218.057 -1222.14)" fill="#fe976a"/>
    </g>
  </g>
</svg>
