<svg xmlns="http://www.w3.org/2000/svg" xmlns:xlink="http://www.w3.org/1999/xlink" width="295" height="282" viewBox="0 0 295 282">
  <defs>
    <clipPath id="clip-path">
      <rect id="Rectángulo_414918" data-name="Rectángulo 414918" width="295" height="282" transform="translate(180.461 4685)" fill="#fff" stroke="#707070" stroke-width="1" opacity="0.78"/>
    </clipPath>
  </defs>
  <g id="Enmascarar_grupo_1098801" data-name="Enmascarar grupo 1098801" transform="translate(-180.461 -4685)" clip-path="url(#clip-path)">
    <g id="Grupo_1180274" data-name="Grupo 1180274">
      <path id="Trazado_1034072" data-name="Trazado 1034072" d="M494.289,656.564c-4.436,16.089-16.735,32.526-29.615,43.168H238.751a81.231,81.231,0,0,1-15.977-10.2c-8.269-6.724-16.017-15.8-19.51-28.016-5.138-17.969.024-38.393,7.343-54.9a157.91,157.91,0,0,1,27.694-42.96c7.8-8.47,16.492-15.662,26.049-19.576,7.95-3.256,16.308-4.177,24.6-4.685a264.456,264.456,0,0,1,91.6,10.629c7.084,2.1,14.181,4.516,21.43,4.808,9.128.367,18.158-2.642,27.286-2.987,18.656-.707,37.376,10.4,49.694,29.474C490.019,598.436,500.624,633.585,494.289,656.564Z" transform="translate(-21.192 4267.041)" fill="#ffe1b9"/>
      <g id="Grupo_1180273" data-name="Grupo 1180273" transform="translate(238.748 4689.044)">
        <g id="Grupo_1180270" data-name="Grupo 1180270" transform="translate(0 0)">
          <path id="Trazado_1033906" data-name="Trazado 1033906" d="M1636.931,2025.926s-10.788,35.261-21.329,72.435H1549.54c10.663-43.226,21.533-85.831,21.533-85.831Z" transform="translate(-1545.563 -1691.543)" fill="#43312f"/>
          <path id="Trazado_1033907" data-name="Trazado 1033907" d="M2177.86,808.585s43.106,21.162,44.1,23.178-11.357,11.713-11.357,11.713-11.257-2.809-11.826-3.163-15.333-14.035-15.333-14.035Z" transform="translate(-2063.091 -699.891)" fill="#db6445"/>
          <path id="Trazado_1033908" data-name="Trazado 1033908" d="M1830.226,197.6s8.23-1.987,16.555,8.976,8.976,29.693,8.807,41.389,11.4,11.237,10.78,20.8-1.859,11.133-1.859,11.133.342-6.492-2.9-9.479c0,0,2.247,6.342,2.157,10.291l-3.536,3.755-12.694.7-1.244-4.063-.11,4.478-5.423,1.006-.316-1.506-6.083.358-26.537,2.157c-.951.343-1.58.574-2.531.917.01.254.02.509.031.763l-3.181.231a2.43,2.43,0,0,1-.955-.057c-.539-.182-.876-.707-1.333-1.045-1.168-.862-2.832-.355-4.092.367-.337.193-.7.46-.723.848-.014.3.187.568.192.864.011.633-.779.915-1.4,1.015l-7.925,1.264a1.955,1.955,0,0,1-.77.02,1.472,1.472,0,0,1-.959-1.262c-.089-.553-.005-1.121-.059-1.678-.17-1.758-1.646-3.1-3.164-4-1.588-.946-3.326-1.618-4.926-2.544a8.754,8.754,0,0,1-3.836-3.871,9.839,9.839,0,0,1-.583-4.176,11.864,11.864,0,0,1,.506-3.482c.964-2.856,3.666-4.99,4.157-7.964.488-2.953-1.336-5.731-2.14-8.615-1.1-3.933-.273-8.114.554-12.112.994-4.805,2.217-8.283,2.706-13.166.374-3.732,5.553-16.858,8.094-19.515a87.525,87.525,0,0,1,9.981-9.4,43.984,43.984,0,0,1,20.9-8.583c2.986-.386,6.146-.436,8.867.853C1828,194.568,1829.685,194.583,1830.226,197.6Z" transform="translate(-1728.461 -192.164)" fill="#834830"/>
          <path id="Trazado_1033909" data-name="Trazado 1033909" d="M2020.755,2097.4c.055-40.185.005-78.514.005-78.514l-2.51-7.627h62.138l.65,5.953s.469,54.236.547,80.188Z" transform="translate(-1931.625 -1690.497)" fill="#43312f"/>
          <path id="Trazado_1033910" data-name="Trazado 1033910" d="M1901.014,1423.416q-.1,11.2-.206,22.41a2.416,2.416,0,0,0,.278,1.411,2.285,2.285,0,0,0,1.33.757,41.146,41.146,0,0,0,7.8,1.152c10.523.87,21.366,1.707,31.425-1.5a3.984,3.984,0,0,0,2.436-1.568,4.156,4.156,0,0,0,.33-2.126l-.442-20.6a.927.927,0,0,0-.178-.643.939.939,0,0,0-.878-.108,119.432,119.432,0,0,1-39.442,1.755Z" transform="translate(-1834.891 -1205.586)" fill="#f5b39a"/>
          <path id="Trazado_1033911" data-name="Trazado 1033911" d="M1921.068,1554.47l.705,19.622c.058,1.607.115,3.217.037,4.823a1.79,1.79,0,0,1-.357,1.181,1.844,1.844,0,0,1-1.076.425c-11.638,1.893-23.394,3.792-35.16,3.033-3.708-.239-7.392-.74-11.073-1.242a6.288,6.288,0,0,1-2.76-.824,6.006,6.006,0,0,1-2-3.638c-1.241-4.8-5.635-22.308,2.687-22.94,4.707-.357,10.109,1.492,14.863,1.858a119.5,119.5,0,0,0,16.04.156A117.957,117.957,0,0,0,1921.068,1554.47Z" transform="translate(-1807.135 -1314.253)" fill="#43312f"/>
          <path id="Trazado_1033912" data-name="Trazado 1033912" d="M1882.207,959.251a5.364,5.364,0,0,0,2.8-.647,5.005,5.005,0,0,0,1.549-2.1,57.356,57.356,0,0,0,4.482-15.973c1.61-10.244,2.02-20.632,2.855-30.969,1.3-16.068,3.5-32.992-3.1-47.7a10.62,10.62,0,0,0-3.518-4.772,11.189,11.189,0,0,0-5.571-1.378c-10.472-.581-21.063,1.077-31.421-.576-4.45-.71-8.789-2.023-13.247-2.68a11.371,11.371,0,0,0-5.939.316c-2.193.894-3.716,2.907-4.918,4.948a57.787,57.787,0,0,0-5.6,14.443,152.222,152.222,0,0,0-.953,75.092c.757,3.119,1.653,6.3,3.6,8.853,4.44,5.823-3.567,2.448,2.808,2.335,8.511-.151,33.751,1.658,42.26,1.359Q1875.249,959.561,1882.207,959.251Z" transform="translate(-1764.528 -735.831)" fill="#43312f"/>
          <path id="Trazado_1033913" data-name="Trazado 1033913" d="M1866.361,687.707l5.23,7.76,5,7.423c1.114,1.652,3.521,3.508,2.611,5.717a6.394,6.394,0,0,1-2.761,2.769c-6.114,3.766-13.49,4.8-20.648,5.359-12.885,1.012-25.958.766-38.583-2a56.453,56.453,0,0,1-13.593-4.585,7.871,7.871,0,0,1-3.62-3.022,7.1,7.1,0,0,1-.134-5.191c1.106-3.922,3.363-6.59,6.246-9.266,3.368-3.126,6.175-7.243,9.16-10.744l6.861-8.048c.669-.784,1.63-2.515,2.563-3.006,0,0,6.059-3.19,6.815-10.041a12.89,12.89,0,0,0,.079-1.529,60.925,60.925,0,0,1,.554-9.153,25.5,25.5,0,0,1,.554-2.889s12.137,1.2,14.2,1.6,9.668,2.674,9.668,2.674c-.018.109-.1.674-.189,1.548-.055.485-.109,1.062-.165,1.71-.268,3.214-.463,8.114.357,11.538,1.285,5.359,8.983,13.3,8.983,13.3Z" transform="translate(-1751.399 -567.013)" fill="#f5b39a"/>
          <path id="Trazado_1033914" data-name="Trazado 1033914" d="M2134.3,880.73l7.29,186.835-53.521-6.129s-2.623-56.6,3-99.491,13.382-80.274,11.319-101.428,12.96-5.155,12.96-5.155l21.192,7.987Z" transform="translate(-1988.628 -733.644)" fill="#db6445"/>
          <path id="Trazado_1033915" data-name="Trazado 1033915" d="M2095.214,765.875s9.337,3.894,15.432,11.24a82.42,82.42,0,0,1,10.308,16.985l-10.144,5.9,11.935,6.6s-11.262,58.987-20.188,85.793-14.012,42.6-14.012,42.6,1.635-37.651,6.586-66.565,9.079-74.089,7.35-84.644A44.712,44.712,0,0,0,2095.214,765.875Z" transform="translate(-1989.523 -664.712)" fill="#bf5235"/>
          <path id="Trazado_1033916" data-name="Trazado 1033916" d="M1709.377,792.448l-7.961,39.712-3.683,42.555,2.571,28.4,8.738,11.451s4.5,62.958-1.794,93.589-36.321-27.333-36.321-27.333l-2.085-92.629-4.51-72.171,9.254-7.551Z" transform="translate(-1640.113 -686.599)" fill="#db6445"/>
          <path id="Trazado_1033917" data-name="Trazado 1033917" d="M1809.05,764.578s-7.675,13.365-6.954,36.237,8.937,106.28,4.732,123.444.968,21.84.968,21.84.952-22.925-10.468-57.464-16.03-89.211-16.03-89.211l13.587-5.92-11.838-3.536s11.187-24.953,30.924-30.664A61.082,61.082,0,0,0,1809.05,764.578Z" transform="translate(-1736.455 -659.3)" fill="#bf5235"/>
          <path id="Trazado_1033918" data-name="Trazado 1033918" d="M1752.9,1774.186c0,.356-.048,1.506-3.668,2.571-2.962.875-8.313,1.7-17.977,1.982-45.88,1.358-91.8.155-137.7.233a4.27,4.27,0,0,1-1.21-.162c-2.333-.664-3.186-3.312-4.5-5.836-1.08-2.083-3.273-59.289-1.3-85.47.17-2.254.452-4.724,2.095-6.27a7.741,7.741,0,0,1,3.11-1.6c.079-.025.158-.046.236-.071,3.654-1.091,96.687-.122,138.546-3.032a68.084,68.084,0,0,1,10.248-.209c3.013.242,6.12.958,8.441,2.894a1.622,1.622,0,0,1,.335.721C1751.678,1687.34,1752.826,1746.578,1752.9,1774.186Z" transform="translate(-1575.398 -1414.516)" fill="#cfb2b2"/>
          <path id="Trazado_1033919" data-name="Trazado 1033919" d="M1591.463,1697.6c-2.446,12.994-2.817,26.116-2.37,39.294.649,19.259,3.041,38.64,3.256,57.954-2.333-.664-3.186-3.312-4.5-5.836-1.08-2.083-3.273-59.289-1.3-85.47.171-2.254.452-4.724,2.1-6.27a7.739,7.739,0,0,1,3.11-1.6C1591.7,1696.32,1591.58,1696.971,1591.463,1697.6Z" transform="translate(-1575.397 -1430.558)" fill="#b58f8f"/>
          <path id="Trazado_1033920" data-name="Trazado 1033920" d="M2508.25,1791.645c0,.356-.048,1.505-3.668,2.571q.182-19.342-.282-38.683-.42-17.563-1.362-35.106c-.266-4.924-.294-15.162,1.979-23.033C2507.027,1704.8,2508.175,1764.036,2508.25,1791.645Z" transform="translate(-2330.746 -1431.974)" fill="#b58f8f"/>
          <path id="Trazado_1033921" data-name="Trazado 1033921" d="M2119.915,2071.908c-1.746,2.775-1.916,6.439-4.116,8.871-1.4,1.548-3.455,2.383-4.856,3.931a13.163,13.163,0,0,0-2.4,4.76q-2.686,7.932-4.738,16.06c.684.506,1.593-.205,2.125-.869a63.958,63.958,0,0,0,8.647-14.287,41.319,41.319,0,0,1,.067,10.068,8.78,8.78,0,0,1-1.049,3.677c-1.347,2.166-5.273.04-7.146,1.771,6.364,4.08,13.583,4,19.783,3.466,2.513-.217,5.17-.619,7.09-2.253,1.9-1.616,2.72-4.131,3.416-6.524q2.865-9.875,4.749-20a.509.509,0,0,0-.367-.685l-7.541-3.68c-4.349-2.122-8.852-4.285-13.686-4.51Z" transform="translate(-2002.094 -1740.282)" fill="#f5b39a"/>
          <path id="Trazado_1033922" data-name="Trazado 1033922" d="M1865.473,2060.38c1.669,4.415,3.551,9.109,7.456,11.76,1.083.735,2.288,1.284,3.339,2.065a18.107,18.107,0,0,1,3.8,4.327q5.555,7.923,10.716,16.112a25.607,25.607,0,0,1-14.85-9.452,13.056,13.056,0,0,0,5.233,7.43,28.727,28.727,0,0,0,8.381,3.9c-2.163,3.25-6.632,3.808-10.531,4.028a49.784,49.784,0,0,1-10.048-.128,17.31,17.31,0,0,1-9.114-3.925c-5.929-5.324-5.866-14.8-10.707-21.131a1.531,1.531,0,0,1-.44-.974,1.444,1.444,0,0,1,.371-.743,105.627,105.627,0,0,1,10.014-11.167c1.27-1.228,2.774-2.5,4.538-2.423Z" transform="translate(-1791.979 -1730.692)" fill="#f5b39a"/>
          <path id="Trazado_1033923" data-name="Trazado 1033923" d="M2224.654,890.132c2.311,2.44,16.475,91.524,16.489,109.671.017,22.222-24.159,107.417-24.159,107.417l-37.674-14.167s25.385-80.374,25.731-87.085-3.909-70.794-.306-89.335-12.447-37.579-12.447-37.579S2222.344,887.692,2224.654,890.132Z" transform="translate(-2064.285 -757.934)" fill="#db6445"/>
          <path id="Trazado_1033924" data-name="Trazado 1033924" d="M1590.861,803.925c-5.6,3.4-40.244,11.538-44.522,17.536s-22.264,89-18.947,125.122c3.545,38.6,43.834,103.224,43.834,103.224l31.552-23.518s-34.391-72.345-38.413-84.782-8.664-115.316-8.664-115.316S1596.461,800.521,1590.861,803.925Z" transform="translate(-1526.985 -695.796)" fill="#db6445"/>
          <g id="Grupo_1180171" data-name="Grupo 1180171" transform="translate(17.977 132.891)">
            <g id="Grupo_1180162" data-name="Grupo 1180162" transform="translate(121.478 116.801)">
              <path id="Trazado_1033925" data-name="Trazado 1033925" d="M2334.759,1611.375c0-.44-3.865-.741-8.574-1.34-1.18-.145-2.286-.3-3.277-.48a24.351,24.351,0,0,1-2.591-.616c-1.45-.435-2.314-.877-2.448-.688-.061.085.079.313.418.629a7.182,7.182,0,0,0,1.616,1.08,13.628,13.628,0,0,0,2.69,1,25.97,25.97,0,0,0,3.4.625,37.027,37.027,0,0,0,6.2.285C2333.78,1611.789,2334.759,1611.588,2334.759,1611.375Z" transform="translate(-2317.855 -1608.206)" fill="#3f3130"/>
            </g>
            <g id="Grupo_1180163" data-name="Grupo 1180163" transform="translate(121.491 118.711)">
              <path id="Trazado_1033926" data-name="Trazado 1033926" d="M2330.4,1625.586c.01-.228-.785-.43-2-.792l-.478-.143c-.166-.049-.335-.113-.511-.169-.355-.107-.724-.254-1.114-.394a22.342,22.342,0,0,1-4.759-2.5c-.337-.242-.667-.462-.957-.693-.147-.114-.3-.216-.43-.325l-.388-.312c-.991-.8-1.608-1.339-1.79-1.2-.086.065-.039.285.124.634.041.087.089.183.144.285s.126.206.2.319a7.422,7.422,0,0,0,.542.741l.344.409c.122.141.261.275.4.419a12.79,12.79,0,0,0,.943.868,14.183,14.183,0,0,0,5.175,2.718c.438.114.852.223,1.249.284.2.033.387.071.573.091l.532.051a7.49,7.49,0,0,0,.917.025c.135,0,.26-.006.376-.016s.222-.028.317-.043C2330.19,1625.781,2330.4,1625.694,2330.4,1625.586Z" transform="translate(-2317.928 -1619.037)" fill="#3f3130"/>
            </g>
            <g id="Grupo_1180164" data-name="Grupo 1180164" transform="translate(6.335 113.462)">
              <path id="Trazado_1033927" data-name="Trazado 1033927" d="M1680.426,1589.362c-.177-.418-3.51.7-7.749,1.187-4.235.523-7.738.211-7.812.659-.032.2.821.552,2.27.8l.57.087c.2.028.406.045.621.067.43.047.891.065,1.376.084a22.234,22.234,0,0,0,6.264-.743c.468-.132.912-.257,1.319-.4.2-.072.4-.137.588-.211l.534-.218C1679.758,1590.091,1680.506,1589.553,1680.426,1589.362Z" transform="translate(-1664.864 -1589.271)" fill="#3f3130"/>
            </g>
            <g id="Grupo_1180165" data-name="Grupo 1180165" transform="translate(11.613 116.466)">
              <path id="Trazado_1033928" data-name="Trazado 1033928" d="M1705.364,1606.334c-.177-.14-.728.281-1.583.907l-.335.245c-.115.086-.243.166-.369.254-.249.182-.53.354-.817.544-.586.363-1.24.739-1.95,1.088s-1.414.621-2.063.856c-.327.107-.636.221-.933.3-.148.043-.29.094-.428.132l-.4.111c-1.021.283-1.693.454-1.693.68,0,.108.171.2.489.287.08.021.168.04.266.059s.2.026.317.037a5.757,5.757,0,0,0,.776.028l.452-.017c.157-.009.319-.032.487-.051a10.189,10.189,0,0,0,1.067-.189,11.366,11.366,0,0,0,4.447-2.154,10.185,10.185,0,0,0,.81-.72c.119-.12.238-.232.343-.351l.294-.344a5.785,5.785,0,0,0,.458-.627c.062-.1.12-.185.167-.271s.085-.17.118-.245C1705.418,1606.6,1705.448,1606.4,1705.364,1606.334Z" transform="translate(-1694.793 -1606.307)" fill="#3f3130"/>
            </g>
            <g id="Grupo_1180166" data-name="Grupo 1180166" transform="translate(0 23.891)">
              <path id="Trazado_1033929" data-name="Trazado 1033929" d="M1646.836,1115.683c.195-.05-.135-2.237-1.112-5.672-.5-1.712-1.144-3.741-2-5.942s-1.89-4.587-3.114-7.023-2.515-4.695-3.774-6.693-2.5-3.728-3.569-5.156a24.1,24.1,0,0,0-1.562-1.867,12.172,12.172,0,0,0-1.36-1.259c-.81-.625-1.344-.835-1.4-.751s.34.468.984,1.194c.321.364.7.822,1.108,1.375s.852,1.206,1.329,1.943c.941,1.49,2.078,3.253,3.242,5.267s2.4,4.249,3.608,6.647,2.265,4.723,3.177,6.863,1.661,4.1,2.287,5.748C1645.91,1113.66,1646.616,1115.741,1646.836,1115.683Z" transform="translate(-1628.936 -1081.302)" fill="#3f3130"/>
            </g>
            <g id="Grupo_1180167" data-name="Grupo 1180167" transform="translate(3.791)">
              <path id="Trazado_1033930" data-name="Trazado 1033930" d="M1673.913,1077.926a4.654,4.654,0,0,0-.325-1.341c-.13-.429-.3-.958-.5-1.581-.1-.313-.219-.643-.322-1.006l-.332-1.158a121.59,121.59,0,0,1-3.275-14l-.371-2.3c-.125-.785-.267-1.584-.368-2.407s-.225-1.659-.341-2.513c-.062-.426-.112-.858-.159-1.295l-.148-1.32c-.218-1.773-.366-3.615-.544-5.51q-.105-1.424-.213-2.889c-.079-.975-.129-1.967-.185-2.97-.227-4.012-.364-8.231-.415-12.609q-.012-1.642-.025-3.312t0-3.369c0-2.289-.1-4.609-.286-6.947s-.464-4.639-.8-6.894-.725-4.463-1.141-6.626c-.835-4.325-1.781-8.46-2.712-12.387l-2.679-11.13c-.831-3.491-1.635-6.737-2.41-9.691-1.541-5.91-2.968-10.646-4.041-13.889-.537-1.622-.981-2.872-1.3-3.712a4.63,4.63,0,0,0-.569-1.256,40.152,40.152,0,0,0,1.292,5.142c.892,3.289,2.153,8.053,3.553,13.981.7,2.963,1.444,6.216,2.22,9.714s1.646,7.238,2.539,11.165,1.8,8.052,2.611,12.348q.6,3.221,1.107,6.567c.326,2.227.594,4.495.781,6.795s.289,4.577.29,6.82q.005,1.7.011,3.377t.039,3.326c.072,4.4.24,8.639.508,12.675.066,1.009.127,2.005.217,2.987s.161,1.951.249,2.905c.2,1.907.378,3.759.625,5.542l.171,1.327c.054.439.112.873.182,1.3l.39,2.526c.118.827.278,1.631.42,2.419s.286,1.559.425,2.311a98.386,98.386,0,0,0,3.782,13.988l.4,1.142c.126.357.271.683.392.988.25.61.464,1.124.643,1.537A4.631,4.631,0,0,0,1673.913,1077.926Z" transform="translate(-1650.433 -945.81)" fill="#3f3130"/>
            </g>
            <g id="Grupo_1180168" data-name="Grupo 1180168" transform="translate(119.882 27.654)">
              <path id="Trazado_1033931" data-name="Trazado 1033931" d="M2308.915,1124.92c.438.088,1.8-5.335,4.154-11.764a42.322,42.322,0,0,1,1.85-4.393,21.449,21.449,0,0,1,1.991-3.287c1.3-1.76,2.427-2.6,2.292-2.806-.03-.045-.13-.038-.3.019q-.126.042-.3.121a3.034,3.034,0,0,0-.386.2,10.018,10.018,0,0,0-2.151,1.751,16.49,16.49,0,0,0-2.416,3.323,30.193,30.193,0,0,0-2.047,4.533,56.012,56.012,0,0,0-2.4,8.593C2308.784,1123.458,2308.708,1124.878,2308.915,1124.92Z" transform="translate(-2308.804 -1102.64)" fill="#3f3130"/>
            </g>
            <g id="Grupo_1180169" data-name="Grupo 1180169" transform="translate(57.153 66.028)">
              <path id="Trazado_1033932" data-name="Trazado 1033932" d="M1978.471,1322.029c.04-.225-1.337-.707-3.644-1.123l-.907-.153c-.316-.05-.646-.089-.988-.134-.683-.094-1.417-.156-2.189-.222-1.546-.111-3.252-.161-5.042-.111s-3.49.212-5.026.416c-.767.112-1.5.219-2.172.354-.338.066-.665.124-.978.193l-.9.207c-2.278.555-3.623,1.119-3.57,1.341.119.494,5.721-.595,12.694-.783C1972.725,1321.78,1978.381,1322.529,1978.471,1322.029Z" transform="translate(-1953.058 -1320.266)" fill="#825f5b"/>
            </g>
            <g id="Grupo_1180170" data-name="Grupo 1180170" transform="translate(57.856 73.41)">
              <path id="Trazado_1033933" data-name="Trazado 1033933" d="M1974.262,1362.737c0-.47-3.9-.833-8.7-.444s-8.59,1.362-8.516,1.826,3.932.271,8.655-.1S1974.265,1363.22,1974.262,1362.737Z" transform="translate(-1957.046 -1362.128)" fill="#825f5b"/>
            </g>
          </g>
          <g id="Grupo_1180172" data-name="Grupo 1180172" transform="translate(136.889 141.12)">
            <path id="Trazado_1033934" data-name="Trazado 1033934" d="M2313.352,992.478c-.023-.014-.1.067-.226.239a7.865,7.865,0,0,0-.513.794,26.388,26.388,0,0,0-1.579,3.266,94.687,94.687,0,0,0-3.973,12.688c-.683,2.721-1.368,5.716-2.02,8.951q-.119.608-.24,1.227l-.031.16a1.5,1.5,0,0,0-.025.232l-.022.314q-.021.314-.043.631c-.054.844-.124,1.7-.188,2.575q-.214,2.618-.439,5.384c-.149,1.844-.3,3.737-.423,5.675s-.232,3.921-.286,5.946-.061,4.09.029,6.19c.035,1.05.12,2.109.213,3.174q.09.8.179,1.6.1.788.2,1.581c.28,2.112.523,4.2.769,6.262q.168,1.545.334,3.068c.117,1.015.2,2.023.3,3.022q.073.749.144,1.491t.122,1.479q.119,1.472.234,2.915c.12,1.925.262,3.81.33,5.651q.031.69.063,1.372c.023.454.042.906.051,1.354q.033,1.346.066,2.655c.032.872.016,1.732.022,2.578s.013,1.68,0,2.5c-.062,3.274-.175,6.324-.409,9.1q-.084,1.041-.165,2.031c-.014.165-.024.329-.041.492s-.037.323-.056.484q-.055.48-.109.948c-.147,1.245-.256,2.425-.44,3.516q-.123.821-.236,1.584-.056.382-.11.749c-.035.245-.07.485-.118.717q-.258,1.4-.472,2.551c-.072.383-.129.748-.2,1.086s-.144.653-.209.946c-.127.587-.231,1.086-.31,1.49a3.953,3.953,0,0,0-.164,1.256,3.864,3.864,0,0,0,.468-1.175c.128-.393.28-.881.456-1.459.086-.29.18-.6.28-.935s.176-.7.271-1.077c.184-.764.387-1.613.61-2.542.059-.232.1-.472.15-.717s.094-.495.143-.749l.3-1.587c.227-1.094.375-2.278.563-3.53l.138-.953c.023-.161.047-.323.07-.487s.037-.329.056-.495q.107-1,.22-2.045c.306-2.794.484-5.869.6-9.17.029-.826.028-1.665.043-2.519s.035-1.721.015-2.6-.022-1.772-.033-2.677c0-.452-.016-.907-.034-1.365s-.032-.919-.049-1.382c-.049-1.856-.174-3.754-.28-5.693-.064-.969-.142-1.947-.214-2.935-.038-.494-.071-.991-.115-1.489s-.091-1-.136-1.5c-.172-2.011-.394-4.052-.613-6.124-.241-2.069-.484-4.168-.764-6.288q-.1-.795-.2-1.585t-.175-1.55c-.091-1.034-.177-2.063-.214-3.091-.093-2.053-.1-4.085-.051-6.084s.131-3.965.244-5.892.241-3.814.37-5.657.253-3.646.375-5.395c.052-.877.111-1.74.152-2.592.012-.213.022-.425.033-.636l.017-.317a.649.649,0,0,1,.006-.08l.026-.149q.11-.615.219-1.219c.593-3.224,1.212-6.219,1.823-8.94a121.461,121.461,0,0,1,3.468-12.728C2312.607,994.045,2313.457,992.541,2313.352,992.478Z" transform="translate(-2303.301 -992.477)" fill="#3f3130"/>
          </g>
          <path id="Trazado_1033935" data-name="Trazado 1033935" d="M2006.17,666.578c-.055.485-.109,1.062-.166,1.71-3.745,2.026-8.51,2.9-12.517,3.8-4.032.9-8.14,1.417-12.181,2.241a12.939,12.939,0,0,0,.079-1.529,60.866,60.866,0,0,1,.554-9.153A76.45,76.45,0,0,0,2006.17,666.578Z" transform="translate(-1901.196 -580.507)" fill="#c2756b"/>
          <path id="Trazado_1033936" data-name="Trazado 1033936" d="M1928.445,283.977s7.781-1.631,11.515,2.434,15.126,20.281,15.678,22.917.1,36.4-8.5,42.266c-3.535,2.411-9.98,5.317-16.069,5.53-8.722.306-18.326-4.556-22.139-11.7-6.475-12.137-3.81-29.892-3.81-29.892s14.4-10.683,17.734-17.278A97.571,97.571,0,0,0,1928.445,283.977Z" transform="translate(-1837.997 -267.522)" fill="#f5b39a"/>
          <path id="Trazado_1033937" data-name="Trazado 1033937" d="M1753.749,405.519c-.261,4.7-3.47,8.642-6.547,12.2s-6.326,7.448-6.7,12.139c-.3,3.717,1.29,7.321,3.149,10.553a11.9,11.9,0,0,1-.1-11.516c2-3.607,5.759-5.911,8.12-9.3a14.719,14.719,0,0,0,1.467-13.867Z" transform="translate(-1702.822 -367.898)" fill="#834830"/>
          <path id="Trazado_1033938" data-name="Trazado 1033938" d="M2129.647,492.945c-.031,1.985-.91,3.58-1.966,3.564s-1.886-1.638-1.855-3.622.91-3.58,1.965-3.564S2129.677,490.96,2129.647,492.945Z" transform="translate(-2020.232 -436.924)" fill="#2f2f2f"/>
          <g id="Grupo_1180173" data-name="Grupo 1180173" transform="translate(102.526 52.141)">
            <path id="Trazado_1033939" data-name="Trazado 1033939" d="M2118.934,490.858c.075-.087.021-.271-.152-.537-.043-.066-.094-.138-.153-.214s-.132-.146-.209-.226a4.283,4.283,0,0,0-.558-.5c-.11-.085-.227-.174-.351-.263l-.406-.248-.218-.128c-.076-.039-.155-.075-.234-.114-.16-.075-.324-.154-.5-.226a7.734,7.734,0,0,0-2.388-.525,6.65,6.65,0,0,0-2.449.311,6.045,6.045,0,0,0-1.783.905,3.95,3.95,0,0,0-.927.952c-.174.268-.226.451-.148.537s.274.068.553-.029.656-.251,1.1-.431a9.78,9.78,0,0,1,1.592-.446,7.829,7.829,0,0,1,1.975-.133,10.472,10.472,0,0,1,1.984.315l.44.131.214.061.2.073.39.133.356.143C2118.18,490.76,2118.773,491.041,2118.934,490.858Z" transform="translate(-2108.426 -487.861)" fill="#2f2f2f"/>
          </g>
          <path id="Trazado_1033940" data-name="Trazado 1033940" d="M1960.577,486.592c-.03,1.985-.91,3.58-1.966,3.564s-1.886-1.638-1.856-3.622.911-3.58,1.966-3.564S1960.607,484.608,1960.577,486.592Z" transform="translate(-1880.973 -431.691)" fill="#2f2f2f"/>
          <g id="Grupo_1180174" data-name="Grupo 1180174" transform="translate(72.714 51.02)">
            <path id="Trazado_1033941" data-name="Trazado 1033941" d="M1949.863,484.5c.075-.087.021-.271-.152-.537-.044-.066-.094-.138-.153-.214s-.131-.146-.208-.226a4.28,4.28,0,0,0-.558-.5c-.111-.085-.227-.174-.351-.263l-.407-.248-.217-.128c-.076-.039-.155-.076-.234-.114-.16-.075-.324-.154-.5-.226a7.738,7.738,0,0,0-2.389-.525,6.645,6.645,0,0,0-2.449.311,6.04,6.04,0,0,0-1.783.905,3.948,3.948,0,0,0-.928.952c-.173.268-.226.451-.149.537s.274.068.553-.029.655-.251,1.1-.431a9.758,9.758,0,0,1,1.593-.446,7.816,7.816,0,0,1,1.975-.133,10.456,10.456,0,0,1,1.983.315l.441.131.214.061.2.073.39.133.355.143C1949.109,484.406,1949.7,484.687,1949.863,484.5Z" transform="translate(-1939.355 -481.507)" fill="#2f2f2f"/>
          </g>
          <g id="Grupo_1180175" data-name="Grupo 1180175" transform="translate(88.568 52.475)">
            <path id="Trazado_1033942" data-name="Trazado 1033942" d="M2033.164,502.121c-.1-.06-.292.1-.635.289a2.294,2.294,0,0,1-.62.236,1.374,1.374,0,0,1-.367.03.979.979,0,0,1-.873-.613.473.473,0,0,1-.023-.3,1.121,1.121,0,0,1,.2-.379c.059-.082.13-.171.21-.272s.168-.22.252-.335l.255-.355c.083-.121.156-.25.236-.378a10.379,10.379,0,0,0,.815-1.661,10.714,10.714,0,0,0,.682-3.479,9.667,9.667,0,0,0-.342-2.855,8.232,8.232,0,0,0-.363-1.038,7.425,7.425,0,0,0-.386-.733c-.259-.379-.446-.558-.544-.513-.219.1.079,1.016.2,2.488a13.152,13.152,0,0,1-.01,2.56,12.216,12.216,0,0,1-.706,3.011,11.315,11.315,0,0,1-.677,1.445c-.064.112-.121.226-.188.334l-.2.316c-.068.105-.128.206-.206.315s-.158.23-.239.363a2.318,2.318,0,0,0-.357.994,1.791,1.791,0,0,0,.232,1.063,2.083,2.083,0,0,0,1.391,1.015,2,2,0,0,0,1.329-.205,2.13,2.13,0,0,0,.708-.6C2033.234,502.458,2033.25,502.171,2033.164,502.121Z" transform="translate(-2029.27 -489.756)" fill="#2f2f2f"/>
          </g>
          <path id="Trazado_1033943" data-name="Trazado 1033943" d="M2121.747,550.8c-.023,1.354-2.008,2.417-4.433,2.375s-4.37-1.175-4.347-2.529,2.009-2.417,4.433-2.375S2121.771,549.443,2121.747,550.8Z" transform="translate(-2009.64 -485.475)" fill="#e38a8a"/>
          <ellipse id="Elipse_13286" data-name="Elipse 13286" cx="2.452" cy="4.391" rx="2.452" ry="4.391" transform="translate(72.939 67.284) rotate(-88.991)" fill="#e38a8a"/>
          <path id="Trazado_1033944" data-name="Trazado 1033944" d="M2088.934,434.8c.436.2,8.367-.87,11.18-.575a7.3,7.3,0,0,1,4.589,2.674s-.774-4.161-3.592-4.946-10.292-1.282-11.981-.436S2088.934,434.8,2088.934,434.8Z" transform="translate(-1989.343 -388.95)" fill="#433032"/>
          <path id="Trazado_1033945" data-name="Trazado 1033945" d="M1942.04,428.536c-.438.2-8.356-.969-11.172-.708a7.3,7.3,0,0,0-4.621,2.619s.823-4.152,3.65-4.9,10.306-1.159,11.986-.294S1942.04,428.536,1942.04,428.536Z" transform="translate(-1855.845 -383.749)" fill="#433032"/>
          <g id="Grupo_1180191" data-name="Grupo 1180191" transform="translate(49.771 6.674)">
            <g id="Grupo_1180176" data-name="Grupo 1180176" transform="translate(8.239 5.935)">
              <path id="Trazado_1033946" data-name="Trazado 1033946" d="M1891.568,263.682c-.027-.042-.264.043-.618.335a8.6,8.6,0,0,0-1.323,1.466,25.775,25.775,0,0,0-1.678,2.6l-.223.421c-.072.143-.137.287-.207.434-.143.294-.271.6-.41.911-.271.626-.544,1.289-.827,1.985l-1.829,4.548c-.666,1.625-1.385,3.359-2.24,5.112a26.572,26.572,0,0,1-1.42,2.592,21.035,21.035,0,0,1-1.86,2.434c-.69.793-1.444,1.57-2.224,2.357l-1.186,1.19q-.593.594-1.206,1.179a45.641,45.641,0,0,1-5.036,4.208c-1.725,1.226-3.514,2.307-5.154,3.484a27.131,27.131,0,0,0-2.328,1.849c-.182.161-.359.324-.53.493l-.257.25-.245.259c-.162.173-.325.341-.481.514l-.445.53c-.073.088-.147.174-.218.262l-.2.271-.4.534-.362.545c-.117.181-.241.355-.343.541-.209.368-.43.719-.6,1.087l-.27.537c-.087.178-.158.362-.236.539a15.193,15.193,0,0,0-1.124,4.014,13.421,13.421,0,0,0-.116,1.708,11.31,11.31,0,0,0,.107,1.433c.031.213.056.415.09.6l.128.52.115.441c.046.132.093.249.134.354.167.42.279.627.331.61s.04-.257-.025-.689c-.018-.108-.036-.228-.058-.36s-.025-.28-.039-.439l-.052-.508c-.009-.182-.009-.376-.016-.58a13.373,13.373,0,0,1,.032-1.357,14.588,14.588,0,0,1,.234-1.593,15.494,15.494,0,0,1,1.268-3.7c.081-.162.155-.33.244-.493l.275-.492c.176-.337.4-.657.606-.993.1-.17.224-.329.34-.493l.356-.5.389-.485.2-.246c.068-.08.141-.158.211-.237l.428-.479c.15-.156.306-.307.46-.463l.233-.234.245-.225c.163-.152.332-.3.506-.447a27.16,27.16,0,0,1,2.25-1.7c1.605-1.105,3.4-2.154,5.209-3.411a44.28,44.28,0,0,0,5.232-4.329q.631-.6,1.233-1.208l1.187-1.2c.786-.8,1.558-1.607,2.277-2.449a21.855,21.855,0,0,0,1.962-2.636,26.879,26.879,0,0,0,1.46-2.773c.848-1.831,1.528-3.6,2.147-5.261s1.158-3.215,1.654-4.628c.249-.706.485-1.378.716-2.007.117-.312.227-.621.344-.908.058-.144.113-.29.171-.426l.176-.4c.51-1.058.991-1.959,1.409-2.671a15.76,15.76,0,0,1,1.042-1.585C1891.439,263.894,1891.6,263.73,1891.568,263.682Z" transform="translate(-1855.968 -263.672)" fill="#2f2f2f"/>
            </g>
            <path id="Trazado_1033947" data-name="Trazado 1033947" d="M2047.118,260.4c.441.068-.011-1.263-.082-1.7a7.683,7.683,0,0,0-.7-2.493,2.609,2.609,0,0,0-2.026-1.448,2.718,2.718,0,0,0-2.071,1,12.625,12.625,0,0,0-1.308,1.979,14.761,14.761,0,0,1-2.155,2.738S2040.077,259.309,2047.118,260.4Z" transform="translate(-1998.303 -250.389)" fill="#2f2f2f"/>
            <g id="Grupo_1180177" data-name="Grupo 1180177" transform="translate(16.521 0.12)">
              <path id="Trazado_1033948" data-name="Trazado 1033948" d="M1902.938,262.674c.052.093.619-.1,1.583-.574a28.351,28.351,0,0,0,3.87-2.392,36.022,36.022,0,0,0,5.081-4.473c.446-.458.872-.956,1.315-1.457.425-.517.869-1.037,1.284-1.6.429-.548.832-1.132,1.246-1.72.394-.6.8-1.209,1.172-1.847.758-1.268,1.424-2.541,2.029-3.774s1.168-2.425,1.707-3.55a54.081,54.081,0,0,1,3.115-5.787c2-3.148,3.886-4.577,3.716-4.792-.033-.044-.18.005-.431.143q-.188.1-.454.272l-.283.184-.3.236c-.212.169-.447.358-.7.571l-.775.745c-.142.132-.271.284-.41.436l-.425.475c-.15.161-.286.339-.429.52l-.44.558a41.017,41.017,0,0,0-3.508,5.774c-1.171,2.234-2.336,4.727-3.792,7.162-.357.613-.745,1.2-1.118,1.779-.394.568-.774,1.133-1.179,1.667-.389.545-.808,1.053-1.2,1.561-.415.493-.811.984-1.227,1.439a45.276,45.276,0,0,1-4.69,4.579c-1.429,1.21-2.649,2.122-3.5,2.755S1902.882,262.573,1902.938,262.674Z" transform="translate(-1902.934 -230.696)" fill="#b0674a"/>
            </g>
            <g id="Grupo_1180178" data-name="Grupo 1180178" transform="translate(15.522)">
              <path id="Trazado_1033949" data-name="Trazado 1033949" d="M1897.277,252.306c.049.1.469,0,1.2-.282q.272-.1.6-.241c.216-.1.442-.215.688-.339a18.21,18.21,0,0,0,1.639-.909l.926-.579c.318-.208.633-.446.966-.683.676-.465,1.339-1.034,2.051-1.619a38.7,38.7,0,0,0,4.173-4.28,44.335,44.335,0,0,0,3.464-4.852l.682-1.149c.225-.37.412-.747.607-1.1s.381-.7.545-1.041l.469-.977c.3-.619.534-1.2.743-1.706.1-.254.2-.49.28-.71s.147-.425.206-.609c.237-.736.318-1.163.217-1.208s-.376.294-.784.941l-.725,1.185c-.283.461-.58,1-.942,1.57l-.55.908c-.189.317-.4.636-.612.973s-.421.689-.661,1.036l-.72,1.084c-1.008,1.467-2.151,3.052-3.456,4.628a52.767,52.767,0,0,1-3.929,4.207c-.658.591-1.263,1.177-1.879,1.668-.3.251-.588.5-.875.731l-.834.642c-.522.426-1.03.759-1.462,1.078l-.6.444q-.287.191-.52.357C1897.552,251.913,1897.228,252.206,1897.277,252.306Z" transform="translate(-1897.272 -230.016)" fill="#b0674a"/>
            </g>
            <g id="Grupo_1180179" data-name="Grupo 1180179" transform="translate(6.034 2.735)">
              <path id="Trazado_1033950" data-name="Trazado 1033950" d="M1843.5,267.434c.1.053.406-.275.875-.909q.176-.238.382-.532l.461-.626c.33-.449.682-.973,1.107-1.528l.649-.882c.225-.307.475-.614.723-.94.49-.656,1.052-1.326,1.629-2.042,1.181-1.409,2.522-2.92,4.006-4.433s2.987-2.863,4.381-4.063c.708-.586,1.371-1.157,2.021-1.655.323-.252.626-.506.93-.735l.874-.66c.549-.432,1.069-.791,1.514-1.127l.621-.468q.291-.209.526-.389c.627-.478.952-.79.9-.887s-.483.03-1.216.347c-.183.079-.386.17-.606.272s-.45.23-.7.362c-.5.268-1.072.566-1.674.946l-.953.588c-.329.207-.659.442-1.007.677-.7.464-1.412,1.009-2.165,1.579a47.3,47.3,0,0,0-8.613,8.724c-.56.76-1.1,1.479-1.551,2.185-.23.351-.46.683-.664,1.016l-.575.96c-.373.607-.663,1.184-.925,1.686-.129.252-.25.485-.353.7s-.188.425-.264.61C1843.522,266.951,1843.4,267.381,1843.5,267.434Z" transform="translate(-1843.465 -245.527)" fill="#b0674a"/>
            </g>
            <g id="Grupo_1180180" data-name="Grupo 1180180" transform="translate(4.344 29.012)">
              <path id="Trazado_1033951" data-name="Trazado 1033951" d="M1833.934,402.951c.358.272,2.2-1.553,4.312-3.9.529-.589,1.025-1.157,1.468-1.682.222-.263.429-.516.622-.754l.515-.655a6.727,6.727,0,0,1,.746-.823c.194-.183.336-.3.321-.411s-.2-.207-.554-.171a2.8,2.8,0,0,0-1.289.571c-.234.167-.46.356-.7.557s-.485.424-.741.664c-.511.479-1.051,1.027-1.59,1.628C1834.883,400.377,1833.583,402.686,1833.934,402.951Z" transform="translate(-1833.877 -394.547)" fill="#b0674a"/>
            </g>
            <g id="Grupo_1180181" data-name="Grupo 1180181" transform="translate(0 50.896)">
              <path id="Trazado_1033952" data-name="Trazado 1033952" d="M1809.286,538.959c.089.059.345-.127.7-.552a9.121,9.121,0,0,0,1.214-2,14.1,14.1,0,0,0,1.036-3.319,18.256,18.256,0,0,0,.272-4.24,23.275,23.275,0,0,0-.615-4.166,26.644,26.644,0,0,0-1-3.255c-.691-1.8-1.291-2.843-1.495-2.772s0,1.248.4,3.094a45.473,45.473,0,0,1,1.1,7.181,23.38,23.38,0,0,1-.13,3.93,20.031,20.031,0,0,1-.636,3.148C1809.627,537.777,1809.084,538.825,1809.286,538.959Z" transform="translate(-1809.243 -518.654)" fill="#b0674a"/>
            </g>
            <g id="Grupo_1180182" data-name="Grupo 1180182" transform="translate(9.554 53.179)">
              <path id="Trazado_1033953" data-name="Trazado 1033953" d="M1865.186,550.96c.223-.038.215-1.166.1-2.947s-.317-4.218-.243-6.877a31.03,31.03,0,0,1,.331-3.718,26.577,26.577,0,0,1,.63-2.982c.456-1.681.884-2.707.678-2.827-.094-.054-.328.132-.649.542a9.661,9.661,0,0,0-1.1,1.9,15.847,15.847,0,0,0-1.018,3.093,21.117,21.117,0,0,0-.483,3.947,28.923,28.923,0,0,0,.726,7.088C1864.567,549.943,1864.971,551,1865.186,550.96Z" transform="translate(-1863.423 -531.6)" fill="#b0674a"/>
            </g>
            <g id="Grupo_1180183" data-name="Grupo 1180183" transform="translate(5.31 72.685)">
              <path id="Trazado_1033954" data-name="Trazado 1033954" d="M1844.886,653.83c.131-.2-.373-.724-.979-1.661a18.641,18.641,0,0,1-.982-1.706c-.339-.662-.7-1.428-1.055-2.228a23.748,23.748,0,0,1-.894-2.252,11.965,11.965,0,0,1-.455-1.872c-.168-1.081-.09-1.807-.316-1.881-.1-.033-.261.112-.434.433a4.145,4.145,0,0,0-.389,1.47,7.471,7.471,0,0,0,.16,2.233,12.949,12.949,0,0,0,.858,2.527,17.238,17.238,0,0,0,1.243,2.318,9.039,9.039,0,0,0,1.4,1.7,4.5,4.5,0,0,0,1.236.852C1844.61,653.906,1844.827,653.919,1844.886,653.83Z" transform="translate(-1839.356 -642.226)" fill="#b0674a"/>
            </g>
            <g id="Grupo_1180184" data-name="Grupo 1180184" transform="translate(18.058 74.73)">
              <path id="Trazado_1033955" data-name="Trazado 1033955" d="M1914.154,661.212c.218-.006.416-.459.476-1.212a6.658,6.658,0,0,0-.04-1.315,8.61,8.61,0,0,0-.994-3.049,6.655,6.655,0,0,0-.743-1.086c-.492-.573-.92-.821-1.1-.7s-.1.594.106,1.257c.105.331.235.716.383,1.137l.462,1.367c.153.488.3.952.433,1.377s.251.814.362,1.144C1913.722,660.792,1913.927,661.219,1914.154,661.212Z" transform="translate(-1911.651 -653.821)" fill="#b0674a"/>
            </g>
            <g id="Grupo_1180185" data-name="Grupo 1180185" transform="translate(53.595 9.67)">
              <path id="Trazado_1033956" data-name="Trazado 1033956" d="M2127.784,300.323c.19-.109-.241-1.282-1.173-3.055a53.219,53.219,0,0,0-4.193-6.593c-.456-.615-.9-1.2-1.361-1.771a18.659,18.659,0,0,0-1.422-1.592,10.62,10.62,0,0,0-1.527-1.263,7.539,7.539,0,0,0-1.556-.808,5.3,5.3,0,0,0-2.495-.35c-.6.085-.887.261-.869.364s.333.156.85.263a7.356,7.356,0,0,1,2.043.76,8.087,8.087,0,0,1,1.232.844,11.618,11.618,0,0,1,1.25,1.216c.416.463.829.982,1.252,1.539s.861,1.152,1.307,1.755C2124.7,296.457,2127.387,300.546,2127.784,300.323Z" transform="translate(-2113.186 -284.858)" fill="#b0674a"/>
            </g>
            <g id="Grupo_1180186" data-name="Grupo 1180186" transform="translate(57.481 4.096)">
              <path id="Trazado_1033957" data-name="Trazado 1033957" d="M2151.036,281.042c.111-.007.175-.483.2-1.349.01-.433-.027-.958-.062-1.573-.018-.307-.064-.631-.1-.977s-.079-.713-.15-1.093a33.1,33.1,0,0,0-1.3-5.273,43.176,43.176,0,0,0-2.577-6.125,53.378,53.378,0,0,0-3.391-5.692c-.571-.839-1.127-1.631-1.717-2.35a12.1,12.1,0,0,0-1.841-1.85,6.617,6.617,0,0,0-3.486-1.5c-.909-.069-1.387.13-1.375.226.008.123.485.147,1.256.39a7.3,7.3,0,0,1,2.858,1.745,12.82,12.82,0,0,1,1.529,1.8c.5.7,1.006,1.5,1.533,2.347,1.053,1.689,2.155,3.578,3.2,5.614a56.785,56.785,0,0,1,2.611,5.885,47.744,47.744,0,0,1,1.589,5.012C2150.562,279.187,2150.785,281.059,2151.036,281.042Z" transform="translate(-2135.228 -253.246)" fill="#b0674a"/>
            </g>
            <g id="Grupo_1180187" data-name="Grupo 1180187" transform="translate(67.965 34.93)">
              <path id="Trazado_1033958" data-name="Trazado 1033958" d="M2203,448.264c.209-.024.293-1.279.145-3.306a30.048,30.048,0,0,0-.484-3.551,22.686,22.686,0,0,0-1.262-4.256,19.014,19.014,0,0,0-1.01-2.093c-.195-.322-.38-.643-.578-.946s-.4-.589-.6-.863c-.405-.548-.806-1.044-1.181-1.5s-.7-.872-1.011-1.264a22.822,22.822,0,0,0-1.543-1.834c-.4-.409-.675-.6-.761-.531s.017.374.261.883.618,1.225,1.125,2.1c.254.439.548.917.886,1.418s.684,1.006,1.037,1.549q.265.407.524.836c.17.286.328.588.5.888.314.618.633,1.261.905,1.949a30.618,30.618,0,0,1,1.3,3.985c.33,1.258.58,2.413.8,3.387C2202.476,447.069,2202.781,448.29,2203,448.264Z" transform="translate(-2194.683 -428.108)" fill="#2f2f2f"/>
            </g>
            <g id="Grupo_1180188" data-name="Grupo 1180188" transform="translate(75.974 58.738)">
              <path id="Trazado_1033959" data-name="Trazado 1033959" d="M2244.848,583.29c.11.018.255-.26.423-.786q.063-.2.131-.44c.042-.162.076-.34.114-.531a12.95,12.95,0,0,0,.208-1.309c.025-.245.052-.5.079-.768s.028-.547.041-.836c.032-.579.009-1.2-.01-1.85a23.641,23.641,0,0,0-1.922-8.226c-.272-.593-.525-1.158-.811-1.662-.14-.254-.267-.5-.407-.731l-.411-.654a13.161,13.161,0,0,0-.766-1.081c-.12-.154-.229-.3-.337-.425s-.217-.237-.313-.336c-.385-.4-.637-.581-.728-.517s-.011.372.206.865q.081.185.188.4c.067.148.139.309.216.482.155.345.353.722.536,1.158l.3.673c.106.233.2.484.307.737.222.5.417,1.06.638,1.637a33.825,33.825,0,0,1,1.823,7.8c.058.615.13,1.2.154,1.75.016.275.043.541.052.8s.017.5.026.738c.03.472.019.9.033,1.275q.011.284.02.528c0,.162,0,.311.011.445C2244.674,582.962,2244.739,583.272,2244.848,583.29Z" transform="translate(-2240.102 -563.127)" fill="#b0674a"/>
            </g>
            <g id="Grupo_1180189" data-name="Grupo 1180189" transform="translate(72.982 60.23)">
              <path id="Trazado_1033960" data-name="Trazado 1033960" d="M2223.268,590.084c.206.058.711-.9,1.189-2.57a26.589,26.589,0,0,0,.959-6.7,28.49,28.49,0,0,0-.171-3.73,16.506,16.506,0,0,0-.582-3.024,7.4,7.4,0,0,0-.862-1.922c-.282-.416-.507-.6-.6-.548-.207.113.153,1.089.352,2.713.1.813.175,1.789.214,2.895s.064,2.313.041,3.583C2223.727,585.871,2222.822,589.956,2223.268,590.084Z" transform="translate(-2223.137 -571.587)" fill="#b0674a"/>
            </g>
            <g id="Grupo_1180190" data-name="Grupo 1180190" transform="translate(64.004 70.036)">
              <path id="Trazado_1033961" data-name="Trazado 1033961" d="M2173.254,637.437c.225-.031.338-.624.41-1.545s.114-2.174.181-3.554.15-2.63.17-3.555-.035-1.525-.255-1.578-.552.465-.866,1.376a14.663,14.663,0,0,0-.366,7.4C2172.75,636.919,2173.037,637.467,2173.254,637.437Z" transform="translate(-2172.217 -627.2)" fill="#b0674a"/>
            </g>
          </g>
          <g id="Grupo_1180192" data-name="Grupo 1180192" transform="translate(126.61 57.461)">
            <path id="Trazado_1033962" data-name="Trazado 1033962" d="M2245.119,518.038c-.155.057-.145.565.045,1.441a12.405,12.405,0,0,0,.462,1.577,11.15,11.15,0,0,0,.963,2.022,7.614,7.614,0,0,0,1.9,2.142,6.784,6.784,0,0,0,1.43.838,12.674,12.674,0,0,0,1.555.537c.516.148,1.018.275,1.5.425s.966.32,1.441.517a9.9,9.9,0,0,1,2.633,1.573,9.8,9.8,0,0,1,2.834,5.136,22.458,22.458,0,0,1,.685,5.157c.042,3-.391,4.9-.043,5,.153.049.465-.361.82-1.2a14.282,14.282,0,0,0,.929-3.718,18.5,18.5,0,0,0-.219-5.737,14.075,14.075,0,0,0-1.068-3.336,9.463,9.463,0,0,0-2.361-3.141,11.335,11.335,0,0,0-3.331-1.94,15.969,15.969,0,0,0-1.69-.54c-.56-.147-1.091-.253-1.575-.362a12.4,12.4,0,0,1-1.323-.355,5.151,5.151,0,0,1-1.068-.507,6.65,6.65,0,0,1-1.653-1.484,24.331,24.331,0,0,1-1.947-2.961C2245.588,518.383,2245.277,517.979,2245.119,518.038Z" transform="translate(-2245.011 -518.033)" fill="#834830"/>
          </g>
          <ellipse id="Elipse_13287" data-name="Elipse 13287" cx="5.86" cy="6.139" rx="5.86" ry="6.139" transform="translate(88.844 307.941) rotate(-1.805)" fill="#a17878"/>
          <path id="Trazado_1033963" data-name="Trazado 1033963" d="M1994.29,585.356c.04-.345,9.226,2.78,19.1.6a9.758,9.758,0,0,1-9.6,5.6A11.577,11.577,0,0,1,1994.29,585.356Z" transform="translate(-1911.889 -516.002)" fill="#fff"/>
          <g id="Grupo_1180193" data-name="Grupo 1180193" transform="translate(82.395 69.269)">
            <path id="Trazado_1033964" data-name="Trazado 1033964" d="M2013.362,585.832c-.071-.218-1.146-.032-2.858.142a41.475,41.475,0,0,1-6.693.154,63.392,63.392,0,0,1-6.689-.781c-1.715-.275-2.785-.464-2.86-.261s.9.769,2.6,1.331a27.147,27.147,0,0,0,6.865,1.266,22.5,22.5,0,0,0,6.98-.627C2012.45,586.589,2013.427,586.022,2013.362,585.832Z" transform="translate(-1994.258 -585.002)" fill="#a34646"/>
          </g>
          <g id="Grupo_1180194" data-name="Grupo 1180194" transform="translate(82.295 69.344)">
            <path id="Trazado_1033965" data-name="Trazado 1033965" d="M1993.8,585.433c-.147.064-.147.452.043,1.077a9.8,9.8,0,0,0,1.222,2.46,11.314,11.314,0,0,0,2.912,3,9.19,9.19,0,0,0,2.295,1.168,8.747,8.747,0,0,0,2.767.46,10.283,10.283,0,0,0,5.073-1.326,11.478,11.478,0,0,0,3.2-2.681,9.3,9.3,0,0,0,1.455-2.34c.245-.607.275-1,.133-1.071s-.432.143-.884.558-1.07,1.024-1.878,1.69a13.9,13.9,0,0,1-3.01,1.929,9.666,9.666,0,0,1-4.079.905,7.467,7.467,0,0,1-2.077-.3,8.368,8.368,0,0,1-1.833-.8,13.59,13.59,0,0,1-2.789-2.225c-.739-.747-1.3-1.416-1.715-1.868S1993.946,585.368,1993.8,585.433Z" transform="translate(-1993.692 -585.422)" fill="#a34646"/>
          </g>
          <path id="Trazado_1033966" data-name="Trazado 1033966" d="M2186.407,503.174a6.945,6.945,0,0,1-3.349,4.823,13.341,13.341,0,0,1-4.5,1.292c-.2.032-.443.047-.56-.117a.549.549,0,0,1-.067-.325q.005-3.275.01-6.55a10.694,10.694,0,0,1,.533-4.511c1.275-2.739,4.961-2.319,6.584-.153A7.435,7.435,0,0,1,2186.407,503.174Z" transform="translate(-2063.146 -442.317)" fill="#f5b39a"/>
        </g>
        <g id="Grupo_1180271" data-name="Grupo 1180271" transform="translate(64.307 47.428)">
          <g id="Grupo_1180198" data-name="Grupo 1180198" transform="translate(0 0.721)">
            <path id="Trazado_1033968" data-name="Trazado 1033968" d="M1903.122,483.642a11.63,11.63,0,0,1-5.961-1.6h0c-3.948-2.363-6.406-8.341-5.155-12.541.861-2.892,3.271-4.407,6.778-4.268q.885.035,1.771.067c2.795.1,5.685.209,8.521.506,4.072.427,6.323,2.232,6.34,5.082a13.047,13.047,0,0,1-5.92,10.959A12.057,12.057,0,0,1,1903.122,483.642Zm-5.436-2.476a11.033,11.033,0,0,0,11.267-.185,12,12,0,0,0,5.44-10.078c-.017-2.9-2.959-3.82-5.424-4.079-2.8-.294-5.674-.4-8.451-.5q-.887-.033-1.774-.067c-3.044-.122-5.032,1.1-5.758,3.538-1.112,3.734,1.171,9.26,4.7,11.371Z" transform="translate(-1891.678 -465.226)" fill="#433032"/>
          </g>
          <g id="Grupo_1180199" data-name="Grupo 1180199" transform="translate(31.849 0)">
            <path id="Trazado_1033969" data-name="Trazado 1033969" d="M2084.593,479.552a12.056,12.056,0,0,1-6.374-1.793,13.044,13.044,0,0,1-5.92-10.951c.016-2.858,2.267-4.663,6.34-5.09,2.836-.3,5.726-.4,8.521-.506q.885-.033,1.771-.067c3.51-.138,5.917,1.377,6.778,4.269,1.251,4.2-1.206,10.177-5.154,12.541h0A11.629,11.629,0,0,1,2084.593,479.552Zm4.782-17.393q-.2,0-.4.008-.887.035-1.774.067c-2.778.1-5.65.207-8.452.5-2.465.258-5.407,1.175-5.423,4.071a12,12,0,0,0,5.44,10.086,11.032,11.032,0,0,0,11.267.185c3.528-2.111,5.812-7.637,4.7-11.371C2094.037,463.379,2092.189,462.158,2089.375,462.158Z" transform="translate(-2072.299 -461.136)" fill="#433032"/>
          </g>
          <g id="Grupo_1180200" data-name="Grupo 1180200" transform="translate(22.907 6.45)">
            <path id="Trazado_1033970" data-name="Trazado 1033970" d="M2031.457,499.936c-2.551-1.376-6.857-1.891-9.368-.324l-.5-.8c2.8-1.747,7.537-1.207,10.32.294Z" transform="translate(-2021.587 -497.717)" fill="#433032"/>
          </g>
        </g>
        <g id="Grupo_1180272" data-name="Grupo 1180272" transform="translate(56.068 344.354)">
          <g id="Grupo_1180258" data-name="Grupo 1180258" transform="translate(75.394 0)">
            <path id="Trazado_1034061" data-name="Trazado 1034061" d="M2272.564,2167.386c.158.073.865-1.056,1.771-3,.457-.968.952-2.14,1.469-3.455s1.034-2.78,1.538-4.33.928-3.046,1.281-4.415.624-2.614.81-3.669c.381-2.109.435-3.444.265-3.472s-.555,1.232-1.157,3.26c-.3,1.016-.664,2.22-1.068,3.559s-.872,2.8-1.364,4.339-.982,2.994-1.426,4.321-.855,2.517-1.2,3.521C2272.806,2166.055,2272.4,2167.309,2272.564,2167.386Z" transform="translate(-2272.527 -2145.049)" fill="#43312f"/>
          </g>
          <g id="Grupo_1180259" data-name="Grupo 1180259" transform="translate(0 0.597)">
            <path id="Trazado_1034062" data-name="Trazado 1034062" d="M1863.335,2173.278c-.022-.1-.483-.039-1.271-.13a7.066,7.066,0,0,1-3.073-1.2,10.8,10.8,0,0,1-1.77-1.482c-.149-.146-.287-.307-.433-.465l-.427-.508c-.282-.35-.564-.717-.835-1.107a29.861,29.861,0,0,1-2.931-5.488c-.872-2.056-1.607-4.079-2.353-5.9a39.917,39.917,0,0,0-2.246-4.758,17.979,17.979,0,0,0-2.034-2.927c-.141-.157-.265-.3-.379-.412s-.218-.207-.3-.279c-.17-.145-.275-.207-.31-.177-.155.129.975,1.573,2.214,4.219.623,1.322,1.275,2.937,1.946,4.767s1.38,3.869,2.274,5.978a26.936,26.936,0,0,0,3.157,5.683c.3.4.618.785.934,1.144l.481.521c.168.165.327.333.5.484a10.609,10.609,0,0,0,2.043,1.494,6.512,6.512,0,0,0,3.534.923l.307-.026c.1-.014.184-.033.266-.049l.224-.049c.068-.018.128-.043.181-.062Q1863.349,2173.345,1863.335,2173.278Z" transform="translate(-1844.955 -2148.434)" fill="#43312f"/>
          </g>
          <g id="Grupo_1180260" data-name="Grupo 1180260" transform="translate(27.848 10.297)">
            <path id="Trazado_1034063" data-name="Trazado 1034063" d="M2016.247,2212.724c.135-.356-3.2-1.831-6.845-4.381-3.662-2.521-6.211-5.133-6.5-4.882-.129.113.349.923,1.343,2.059.249.283.527.589.842.9s.657.639,1.025.977a26.394,26.394,0,0,0,5.323,3.695c.445.227.866.443,1.273.62s.786.34,1.137.474C2015.26,2212.72,2016.186,2212.884,2016.247,2212.724Z" transform="translate(-2002.884 -2203.444)" fill="#43312f"/>
          </g>
          <g id="Grupo_1180261" data-name="Grupo 1180261" transform="translate(47.936 7.216)">
            <path id="Trazado_1034064" data-name="Trazado 1034064" d="M2116.891,2198.614c.178.056.558-.7,1.176-1.87a38.869,38.869,0,0,1,2.659-4.4c.577-.818,1.166-1.57,1.726-2.236l.414-.483.1-.121c.041-.05.086-.1.122-.151.07-.094.135-.187.191-.275.23-.355.408-.684.568-.988.624-1.22.9-2.013.754-2.106s-.723.547-1.529,1.614c-.2.264-.423.559-.66.844-.06.073-.119.14-.178.2l-.194.191c-.155.151-.317.3-.475.469a18.958,18.958,0,0,0-1.9,2.29,18.244,18.244,0,0,0-2.446,4.8C2116.8,2197.7,2116.727,2198.565,2116.891,2198.614Z" transform="translate(-2116.81 -2185.972)" fill="#43312f"/>
          </g>
          <g id="Grupo_1180262" data-name="Grupo 1180262" transform="translate(53.858 20.565)">
            <path id="Trazado_1034065" data-name="Trazado 1034065" d="M2158.3,2261.719c-.119-.136-.6.079-1.272.5l-1.159.722a10.265,10.265,0,0,1-4.208,1.538c-.774.155-1.274.314-1.269.5s.495.342,1.319.419a7.278,7.278,0,0,0,1.474-.02,6.1,6.1,0,0,0,1.8-.493,7.316,7.316,0,0,0,1.565-.962,8.637,8.637,0,0,0,1.062-1C2158.161,2262.3,2158.417,2261.853,2158.3,2261.719Z" transform="translate(-2150.393 -2261.679)" fill="#43312f"/>
          </g>
          <g id="Grupo_1180263" data-name="Grupo 1180263" transform="translate(62.362 21.222)">
            <path id="Trazado_1034066" data-name="Trazado 1034066" d="M2205.01,2265.471c-.2-.3-1.71.384-3.449,1.38s-3.085,1.957-2.931,2.284,1.788-.13,3.576-1.159S2205.211,2265.764,2205.01,2265.471Z" transform="translate(-2198.618 -2265.401)" fill="#43312f"/>
          </g>
          <g id="Grupo_1180264" data-name="Grupo 1180264" transform="translate(28.048 20.399)">
            <path id="Trazado_1034067" data-name="Trazado 1034067" d="M2013.011,2264.632c-.015-.188-.586-.283-1.449-.459l-.339-.07c-.117-.023-.237-.059-.362-.087-.251-.052-.513-.133-.79-.206a16.777,16.777,0,0,1-1.749-.625,17.086,17.086,0,0,1-1.654-.845c-.243-.152-.481-.288-.691-.435-.106-.072-.215-.135-.312-.2l-.282-.2c-.721-.509-1.18-.859-1.328-.742s.083.675.707,1.416l.252.283c.089.1.191.188.294.287a8.019,8.019,0,0,0,.7.585,9,9,0,0,0,3.8,1.644,8.116,8.116,0,0,0,.9.105c.142.007.278.019.41.018l.379-.011C2012.463,2265.035,2013.027,2264.8,2013.011,2264.632Z" transform="translate(-2004.018 -2260.737)" fill="#43312f"/>
          </g>
          <g id="Grupo_1180265" data-name="Grupo 1180265" transform="translate(21.822 22.384)">
            <path id="Trazado_1034068" data-name="Trazado 1034068" d="M1976.718,2275.474c.026-.181-.435-.4-1.163-.684l-1.27-.486c-.473-.187-.989-.392-1.526-.621s-1.04-.465-1.5-.681l-1.226-.586c-.706-.333-1.183-.516-1.3-.372s.174.581.788,1.134a8.983,8.983,0,0,0,1.156.87,11.147,11.147,0,0,0,3.247,1.395,8.845,8.845,0,0,0,1.426.241C1976.177,2275.748,1976.693,2275.647,1976.718,2275.474Z" transform="translate(-1968.713 -2271.995)" fill="#43312f"/>
          </g>
          <g id="Grupo_1180266" data-name="Grupo 1180266" transform="translate(16.464 23.307)">
            <path id="Trazado_1034069" data-name="Trazado 1034069" d="M1941.778,2279.294c.147-.329-.513-.944-1.426-1.466s-1.78-.773-1.988-.479.371,1.052,1.346,1.606S1941.633,2279.62,1941.778,2279.294Z" transform="translate(-1938.323 -2277.225)" fill="#43312f"/>
          </g>
          <g id="Grupo_1180267" data-name="Grupo 1180267" transform="translate(49.928 7.435)">
            <path id="Trazado_1034070" data-name="Trazado 1034070" d="M2128.1,2200.444c.038.175,1.035.125,2.617-.1.4-.057.824-.121,1.293-.2a4.909,4.909,0,0,0,1.6-.508,2.384,2.384,0,0,0,.8-.719,2.445,2.445,0,0,0,.379-1.052,8.379,8.379,0,0,0,.052-.944q.007-.444.015-.9c.063-4.861-.177-8.806-.535-8.81s-.7,3.933-.761,8.793q0,.456-.008.9c0,.3,0,.577-.023.8a1.266,1.266,0,0,1-.155.533,1.239,1.239,0,0,1-.378.374,4.4,4.4,0,0,1-1.212.481c-.446.121-.872.239-1.254.353C2129,2199.9,2128.067,2200.269,2128.1,2200.444Z" transform="translate(-2128.104 -2187.215)" fill="#43312f"/>
          </g>
          <g id="Grupo_1180268" data-name="Grupo 1180268" transform="translate(29.022 11.61)">
            <path id="Trazado_1034071" data-name="Trazado 1034071" d="M2019.142,2219.874c.17-.338-2.357-1.849-4.948-4.305-2.615-2.43-4.281-4.857-4.608-4.667-.148.087.083.823.7,1.887.156.265.332.552.54.848s.436.608.684.929a18.3,18.3,0,0,0,3.851,3.615c.337.228.657.445.971.625s.606.346.881.485C2018.315,2219.843,2019.064,2220.027,2019.142,2219.874Z" transform="translate(-2009.543 -2210.891)" fill="#43312f"/>
          </g>
        </g>
      </g>
    </g>
  </g>
</svg>
