<svg xmlns="http://www.w3.org/2000/svg" xmlns:xlink="http://www.w3.org/1999/xlink" width="93.656" height="93.656" viewBox="0 0 93.656 93.656">
  <defs>
    <filter id="Trazado_982547" x="0" y="0" width="93.656" height="93.656" filterUnits="userSpaceOnUse">
      <feOffset dy="3" input="SourceAlpha"/>
      <feGaussianBlur stdDeviation="3" result="blur"/>
      <feFlood flood-opacity="0.161"/>
      <feComposite operator="in" in2="blur"/>
      <feComposite in="SourceGraphic"/>
    </filter>
  </defs>
  <g id="Grupo_1179915" data-name="Grupo 1179915" transform="translate(-188.461 -1576)">
    <g id="Grupo_1173049" data-name="Grupo 1173049" transform="translate(-0.709 -3706.832)">
      <g id="Grupo_1172067" data-name="Grupo 1172067" transform="translate(198.17 5288.832)">
        <g id="Grupo_1164308" data-name="Grupo 1164308" transform="translate(0 0)">
          <g id="Grupo_1163948" data-name="Grupo 1163948" transform="translate(0)">
            <g id="Grupo_1158168" data-name="Grupo 1158168" transform="translate(0)">
              <g id="Grupo_1152576" data-name="Grupo 1152576">
                <g id="Grupo_1148633" data-name="Grupo 1148633">
                  <g id="Grupo_1148525" data-name="Grupo 1148525">
                    <g transform="matrix(1, 0, 0, 1, -9, -6)" filter="url(#Trazado_982547)">
                      <g id="Trazado_982547-2" data-name="Trazado 982547" transform="translate(9 6)" fill="#e9f9fd">
                        <path d="M 37.8281364440918 74.15627288818359 C 32.92320251464844 74.15627288818359 28.16579246520996 73.19596862792969 23.68804740905762 71.30204772949219 C 19.36230278015137 69.47240447998047 15.47705841064453 66.85280609130859 12.1402702331543 63.51601409912109 C 8.803469657897949 60.17921447753906 6.1838698387146 56.29397964477539 4.354236602783203 51.96822357177734 C 2.460303068161011 47.49048233032227 1.500003099441528 42.73307037353516 1.500003099441528 37.8281364440918 C 1.500003099441528 32.92321395874023 2.460303068161011 28.16579246520996 4.354236602783203 23.68804740905762 C 6.1838698387146 19.36230278015137 8.803469657897949 15.47706985473633 12.1402702331543 12.1402702331543 C 15.47706985473633 8.803469657897949 19.36230278015137 6.1838698387146 23.68804740905762 4.354236602783203 C 28.16579246520996 2.460303068161011 32.92321395874023 1.500003099441528 37.8281364440918 1.500003099441528 C 42.73307037353516 1.500003099441528 47.49048233032227 2.460303068161011 51.96822357177734 4.354236602783203 C 56.29397964477539 6.1838698387146 60.17921447753906 8.803469657897949 63.51601409912109 12.1402702331543 C 66.85280609130859 15.47705841064453 69.47240447998047 19.36230278015137 71.30204772949219 23.68804740905762 C 73.19596862792969 28.16579246520996 74.15627288818359 32.92320251464844 74.15627288818359 37.8281364440918 C 74.15627288818359 42.73307037353516 73.19596862792969 47.49048233032227 71.30204772949219 51.96822357177734 C 69.47240447998047 56.29397964477539 66.85280609130859 60.17921447753906 63.51601409912109 63.51601409912109 C 60.17921447753906 66.85280609130859 56.29397964477539 69.47240447998047 51.96822357177734 71.30204772949219 C 47.49048233032227 73.19596862792969 42.73307037353516 74.15627288818359 37.8281364440918 74.15627288818359 Z" stroke="none"/>
                        <path d="M 37.8281364440918 3 C 33.12504959106445 3 28.56423568725586 3.920433044433594 24.27237319946289 5.735733032226562 C 20.12542343139648 7.48974609375 16.40044784545898 10.00139617919922 13.20092391967773 13.20092391967773 C 10.00139617919922 16.40044784545898 7.48974609375 20.12542343139648 5.735733032226562 24.27237319946289 C 3.920433044433594 28.56423568725586 3 33.12504959106445 3 37.8281364440918 C 3 42.53122329711914 3.920433044433594 47.09203720092773 5.735733032226562 51.3838996887207 C 7.48974609375 55.53084945678711 10.00139617919922 59.25582122802734 13.20092391967773 62.45534896850586 C 16.40044784545898 65.65487670898438 20.12542343139648 68.16652679443359 24.27237319946289 69.92053985595703 C 28.56423568725586 71.73583984375 33.12504959106445 72.65627288818359 37.8281364440918 72.65627288818359 C 42.53122329711914 72.65627288818359 47.09203720092773 71.73583984375 51.3838996887207 69.92053985595703 C 55.53084945678711 68.16652679443359 59.25582122802734 65.65487670898438 62.45534896850586 62.45534896850586 C 65.65487670898438 59.25582122802734 68.16652679443359 55.53084945678711 69.92053985595703 51.3838996887207 C 71.73583984375 47.09203720092773 72.65627288818359 42.53122329711914 72.65627288818359 37.8281364440918 C 72.65627288818359 33.12504959106445 71.73583984375 28.56423568725586 69.92053985595703 24.27237319946289 C 68.16652679443359 20.12542343139648 65.65487670898438 16.40044784545898 62.45534896850586 13.20092391967773 C 59.25582122802734 10.00139617919922 55.53084945678711 7.48974609375 51.3838996887207 5.735733032226562 C 47.09203720092773 3.920433044433594 42.53122329711914 3 37.8281364440918 3 M 37.8281364440918 0 C 58.72003555297852 0 75.65627288818359 16.93623733520508 75.65627288818359 37.8281364440918 C 75.65627288818359 58.72003555297852 58.72003555297852 75.65627288818359 37.8281364440918 75.65627288818359 C 16.93623733520508 75.65627288818359 0 58.72003555297852 0 37.8281364440918 C 0 16.93623733520508 16.93623733520508 0 37.8281364440918 0 Z" stroke="none" fill="#1d7083"/>
                      </g>
                    </g>
                  </g>
                </g>
              </g>
            </g>
          </g>
        </g>
      </g>
    </g>
    <g id="Layer_1" data-name="Layer 1" transform="translate(206.499 1579.81)">
      <path id="Trazado_1033165" data-name="Trazado 1033165" d="M184.891,91.853l10.848-29.8a1.255,1.255,0,0,1,1.608-.75l16.263,5.919a1.255,1.255,0,0,1,.75,1.608l-10.848,29.8a1.255,1.255,0,0,1-1.608.75l-16.263-5.919a1.255,1.255,0,0,1-.75-1.608Z" transform="translate(-162.958 -39.896)" fill="#94e671"/>
      <path id="Trazado_1033166" data-name="Trazado 1033166" d="M291.33,64.1l.978-2.687a1.08,1.08,0,0,1,1.385-.646l16.591,6.038a1.08,1.08,0,0,1,.646,1.385l-.978,2.688a1.08,1.08,0,0,0-.646-1.385l-16.591-6.038A1.08,1.08,0,0,0,291.33,64.1Z" transform="translate(-259.468 -39.425)" fill="#52cc7b"/>
      <path id="Trazado_1033167" data-name="Trazado 1033167" d="M222.378,123.946l8.213-22.566A2.84,2.84,0,0,0,234.5,99.8l8.749,3.184a2.839,2.839,0,0,0,1.7,3.639l-8.214,22.569a2.839,2.839,0,0,0-3.639,1.7l-9.009-3.279A2.858,2.858,0,0,0,222.378,123.946Z" transform="translate(-196.993 -74.85)" fill="#3d997a"/>
      <path id="Trazado_1033168" data-name="Trazado 1033168" d="M283.436,210.373A5.567,5.567,0,1,1,289,215.94,5.567,5.567,0,0,1,283.436,210.373Z" transform="translate(-252.315 -169.992)" fill="#ffdf40"/>
      <path id="Trazado_1033169" data-name="Trazado 1033169" d="M147.213,58.242V26.525a1.255,1.255,0,0,1,1.255-1.255h17.307a1.255,1.255,0,0,1,1.255,1.255V58.242a1.255,1.255,0,0,1-1.255,1.255H148.468a1.255,1.255,0,0,1-1.255-1.255Z" transform="translate(-128.888 -7.321)" fill="#94e671"/>
      <path id="Trazado_1033170" data-name="Trazado 1033170" d="M147.213,29.213v-2.86a1.08,1.08,0,0,1,1.08-1.08h17.656a1.08,1.08,0,0,1,1.08,1.08v2.86a1.08,1.08,0,0,0-1.08-1.08H148.294A1.08,1.08,0,0,0,147.213,29.213Z" transform="translate(-128.888 -7.324)" fill="#52cc7b"/>
      <path id="Trazado_1033171" data-name="Trazado 1033171" d="M171.334,76.229V52.215a2.84,2.84,0,0,0,3.135-2.824h9.31a2.839,2.839,0,0,0,2.839,2.839V76.248a2.839,2.839,0,0,0-2.839,2.839h-9.588a2.858,2.858,0,0,0-2.858-2.858Z" transform="translate(-150.744 -29.176)" fill="#3d997a"/>
      <path id="Trazado_1033172" data-name="Trazado 1033172" d="M193.426,153.756a5.567,5.567,0,1,1,5.567,5.567A5.567,5.567,0,0,1,193.426,153.756Z" transform="translate(-170.76 -118.694)" fill="#ffdf40"/>
      <path id="Trazado_1033173" data-name="Trazado 1033173" d="M22.768,98.227,11.92,68.422a1.255,1.255,0,0,1,.75-1.608l16.263-5.919a1.255,1.255,0,0,1,1.608.75l10.848,29.8a1.255,1.255,0,0,1-.75,1.608L24.376,98.977a1.255,1.255,0,0,1-1.608-.75Z" transform="translate(-6.235 -39.53)" fill="#94e671"/>
      <path id="Trazado_1033174" data-name="Trazado 1033174" d="M12.365,70.472l-.978-2.688a1.08,1.08,0,0,1,.646-1.385l16.591-6.038a1.08,1.08,0,0,1,1.385.646l.978,2.688a1.08,1.08,0,0,0-1.385-.646L13.011,69.087a1.08,1.08,0,0,0-.646,1.385Z" transform="translate(-5.761 -39.056)" fill="#52cc7b"/>
      <path id="Trazado_1033175" data-name="Trazado 1033175" d="M57.5,127.788l-8.213-22.565a2.84,2.84,0,0,0,1.981-3.726l8.749-3.184a2.839,2.839,0,0,0,3.639,1.7l8.214,22.569a2.839,2.839,0,0,0-1.7,3.639L61.159,129.5A2.858,2.858,0,0,0,57.5,127.788Z" transform="translate(-40.157 -73.502)" fill="#3d997a"/>
      <path id="Trazado_1033176" data-name="Trazado 1033176" d="M110.569,212.524a5.567,5.567,0,1,1,7.136,3.327A5.567,5.567,0,0,1,110.569,212.524Z" transform="translate(-95.381 -170.214)" fill="#ffdf40"/>
      <path id="Trazado_1033177" data-name="Trazado 1033177" d="M192.395,297.2v2.07a.811.811,0,0,0,0,1.622v2.07a.811.811,0,0,1-.811.811H173.54a.811.811,0,0,1-.811-.811v-2.07a.811.811,0,1,0,0-1.622V297.2a.811.811,0,0,1,.811-.811h18.044a.811.811,0,0,1,.811.811Zm-.811-4.5H173.54a.811.811,0,0,0-.811.811v2.07a.811.811,0,0,0,.811.811h18.044a.811.811,0,0,0,.811-.811v-2.07A.811.811,0,0,0,191.584,292.7Zm.811-4.5v-2.07a.811.811,0,0,0-.811-.811H173.54a.811.811,0,0,0-.811.811v2.07a.811.811,0,1,1,0,1.622v2.071a.811.811,0,0,0,.811.811h18.044a.811.811,0,0,0,.811-.811v-2.07a.811.811,0,0,1,0-1.622Z" transform="translate(-152.008 -242.935)" fill="#ffdf40"/>
      <path id="Trazado_1033178" data-name="Trazado 1033178" d="M192.395,316.624v1.328a.811.811,0,0,1-.811.811H173.54a.811.811,0,0,1-.811-.811v-1.328a.811.811,0,0,0,.811.811h18.044A.811.811,0,0,0,192.395,316.624Zm0-3.693v1.328a.811.811,0,0,1-.811.811H173.54a.811.811,0,0,1-.811-.811v-1.328a.811.811,0,0,0,.811.811h18.044a.811.811,0,0,0,.811-.811Zm0-3.693v1.328a.811.811,0,0,1-.811.811H173.54a.811.811,0,0,1-.811-.811v-1.328a.811.811,0,0,0,.811.811h18.044a.811.811,0,0,0,.811-.811Zm0-3.693v1.328a.811.811,0,0,1-.811.811H173.54a.811.811,0,0,1-.811-.811v-1.328a.811.811,0,0,0,.811.811h18.044a.811.811,0,0,0,.811-.811Zm0-3.693v1.328a.811.811,0,0,1-.811.811H173.54a.811.811,0,0,1-.811-.811v-1.328a.811.811,0,0,0,.811.811h18.044a.811.811,0,0,0,.811-.811Z" transform="translate(-152.008 -257.923)" fill="#ffbe40"/>
      <path id="Trazado_1033179" data-name="Trazado 1033179" d="M291.895,289.1a9.74,9.74,0,1,1-9.74-9.74,9.74,9.74,0,0,1,9.74,9.74Z" transform="translate(-242.33 -237.54)" fill="#fdbf00"/>
      <path id="Trazado_1033180" data-name="Trazado 1033180" d="M282.153,298.836a9.74,9.74,0,1,1,0-19.48Z" transform="translate(-242.328 -237.54)" fill="#ff9100"/>
      <path id="Trazado_1033181" data-name="Trazado 1033181" d="M308.194,322.178a7.04,7.04,0,1,1,7.04-7.04A7.04,7.04,0,0,1,308.194,322.178Z" transform="translate(-268.369 -263.582)" fill="#ffdf40"/>
      <path id="Trazado_1033182" data-name="Trazado 1033182" d="M308.194,322.178a7.04,7.04,0,0,1,0-14.08Z" transform="translate(-268.369 -263.582)" fill="#ffbe40"/>
      <path id="Trazado_1033183" data-name="Trazado 1033183" d="M42.114,52.669A2.134,2.134,0,0,1,41,54.921a2.782,2.782,0,0,1-.612.239v.647a.658.658,0,1,1-1.315,0v-.616a2.733,2.733,0,0,1-.493-.154,2.1,2.1,0,0,1-1.242-1.326A.658.658,0,1,1,38.6,53.35a.8.8,0,0,0,.489.476,1.525,1.525,0,0,0,1.286-.063.834.834,0,0,0,.444-.86c-.083-.46-.613-.8-1.417-.91a2.165,2.165,0,0,1-1.862-1.4,1.977,1.977,0,0,1,.449-2,2.373,2.373,0,0,1,1.082-.621v-.647a.658.658,0,1,1,1.315,0v.629a2.562,2.562,0,0,1,1.387.886.658.658,0,1,1-1.021.829,1.244,1.244,0,0,0-.932-.474,1.193,1.193,0,0,0-.887.314.651.651,0,0,0-.149.66.894.894,0,0,0,.8.523,2.673,2.673,0,0,1,2.533,1.979ZM47,51.565a7.273,7.273,0,1,1-7.273-7.274A7.273,7.273,0,0,1,47,51.565Zm-1.315,0a5.958,5.958,0,1,0-5.958,5.958,5.958,5.958,0,0,0,5.958-5.958ZM22.017,39.03a.973.973,0,0,1-.1.812.658.658,0,1,0,1.128.676,2.291,2.291,0,0,0,.326-1.361l.438-.16a.658.658,0,1,0-.45-1.236l-.453.165a2.113,2.113,0,0,0-.813-.662,1.789,1.789,0,0,0-1.843.239,1.97,1.97,0,0,0-.612,2c.138.638.036,1.126-.272,1.306a.618.618,0,0,1-.713-.094,1.21,1.21,0,0,1-.4-.941.6.6,0,0,1,.2-.462.658.658,0,1,0-.772-1.065,1.893,1.893,0,0,0-.743,1.46,2.441,2.441,0,0,0,.029.51l-.383.139a.658.658,0,0,0,.45,1.236l.474-.173a2.457,2.457,0,0,0,.264.276,1.961,1.961,0,0,0,1.306.5,1.874,1.874,0,0,0,.945-.255,2.38,2.38,0,0,0,.9-2.72.679.679,0,0,1,.155-.7.463.463,0,0,1,.477-.061A.921.921,0,0,1,22.017,39.03Zm30-10.011L46.673,43.709A10.488,10.488,0,0,1,36.317,61.485H21.529a1.47,1.47,0,0,1-1.469-1.469v-.665L18.2,60.03a1.733,1.733,0,0,1-2.221-1.036L5.067,29.019A1.734,1.734,0,0,1,6.1,26.8l11.62-4.229V18.922a1.734,1.734,0,0,1,1.732-1.732H37.017a1.734,1.734,0,0,1,1.732,1.732v3.423L50.984,26.8a1.734,1.734,0,0,1,1.036,2.22Zm-6.578-.44L38.75,26.143V34.49a6.2,6.2,0,0,1,3.729,6.951,10.388,10.388,0,0,1,1.09.361l3.524-9.682a3.488,3.488,0,0,1-1.651-3.541ZM38.75,41.12c.322-.03.649-.046.979-.046a10.541,10.541,0,0,1,1.462.1,4.894,4.894,0,0,0-2.44-5.234ZM19.037,22.091l3.57-1.3a1.736,1.736,0,0,1,.405-.093,2.163,2.163,0,0,0,.083-.6.658.658,0,0,1,.658-.658h9.262a.658.658,0,0,1,.658.658,2.169,2.169,0,0,0,2.167,2.167.658.658,0,0,1,.658.658V41.584q.46-.15.939-.257v-22.4a.418.418,0,0,0-.417-.417H19.454a.418.418,0,0,0-.417.417Zm-7.4,8.411a3.456,3.456,0,0,1-1.63,1.659l7.743,21.274a3.5,3.5,0,0,1,2.357.455,1.46,1.46,0,0,1,.2-.447,1.46,1.46,0,0,1-.246-.811v-2.07a1.461,1.461,0,0,1,.245-.811,1.46,1.46,0,0,1-.245-.811v-2.07a1.46,1.46,0,0,1,.245-.811,1.468,1.468,0,0,1-.129-.239A6.2,6.2,0,1,1,26,41.707h2.263L23.046,27.369A3.488,3.488,0,0,1,19.5,25.718l-7.582,2.76a3.458,3.458,0,0,1-.283,2.023Zm17.6,21.063a10.541,10.541,0,0,1,.064-1.158H21.529a.154.154,0,0,0-.154.154v2.07a.154.154,0,0,0,.154.154h7.78a10.552,10.552,0,0,1-.071-1.22Zm-7.709-9.858h3.05A4.878,4.878,0,1,0,20.06,44.5V43.176a1.47,1.47,0,0,1,1.469-1.469Zm0,14.771h8.933a10.422,10.422,0,0,1-.914-2.377h-8.02a.154.154,0,0,0-.154.154v2.071a.154.154,0,0,0,.154.153Zm8.9-9.763h-8.9a.154.154,0,0,0-.154.154v2.07a.154.154,0,0,0,.154.153h8a10.417,10.417,0,0,1,.9-2.377Zm3.218-3.693H21.529a.154.154,0,0,0-.154.154v2.07a.154.154,0,0,0,.154.154h9.718a10.579,10.579,0,0,1,2.4-2.378Zm-2.616-4.15a4.88,4.88,0,0,0-2.8-8.881c-.144,0-.287.008-.43.021Zm1.032,2.835h3.118V23.521a3.492,3.492,0,0,1-2.762-2.762H24.348c-.02.1-.045.2-.074.3a1.72,1.72,0,0,1,.553.764l2.517,6.914a6.195,6.195,0,0,1,4.15,11.4Zm-12,16.245v-.006a1.46,1.46,0,0,1,.245-.811,1.46,1.46,0,0,1-.245-.811v-.741a2.184,2.184,0,0,0-2.5-.746.658.658,0,0,1-.843-.393L8.549,32a.658.658,0,0,1,.458-.863,2.168,2.168,0,0,0,1.512-2.844.658.658,0,0,1,.393-.843l8.7-3.168a.658.658,0,0,1,.843.393,2.167,2.167,0,0,0,2.777,1.3.658.658,0,0,1,.843.393l5.586,15.347h1l-7.072-19.43a.417.417,0,0,0-.535-.249l-16.5,6.007a.418.418,0,0,0-.249.535l10.91,29.975a.418.418,0,0,0,.535.25ZM33.736,60.17a10.579,10.579,0,0,1-2.444-2.378H21.529a.154.154,0,0,0-.154.154v2.07a.154.154,0,0,0,.154.154Zm5.993-17.781A9.175,9.175,0,1,0,48.9,51.565a9.175,9.175,0,0,0-9.175-9.175ZM50.535,28.034,38.75,23.745v1l7.7,2.8a.658.658,0,0,1,.393.843,2.167,2.167,0,0,0,1.295,2.777.658.658,0,0,1,.393.843L44.764,42.364q.421.231.817.5l5.2-14.294a.418.418,0,0,0-.249-.535Z" transform="translate(0)"/>
    </g>
  </g>
</svg>
