<svg xmlns="http://www.w3.org/2000/svg" xmlns:xlink="http://www.w3.org/1999/xlink" width="93.656" height="93.656" viewBox="0 0 93.656 93.656">
  <defs>
    <filter id="Trazado_982547" x="0" y="0" width="93.656" height="93.656" filterUnits="userSpaceOnUse">
      <feOffset dy="3" input="SourceAlpha"/>
      <feGaussianBlur stdDeviation="3" result="blur"/>
      <feFlood flood-opacity="0.161"/>
      <feComposite operator="in" in2="blur"/>
      <feComposite in="SourceGraphic"/>
    </filter>
  </defs>
  <g id="Grupo_1180313" data-name="Grupo 1180313" transform="translate(-830.461 -7790)">
    <g id="Grupo_1180312" data-name="Grupo 1180312">
      <g id="Grupo_1174895" data-name="Grupo 1174895" transform="translate(641.291 2507.168)">
        <g id="Grupo_1172067" data-name="Grupo 1172067" transform="translate(198.17 5288.832)">
          <g id="Grupo_1164308" data-name="Grupo 1164308" transform="translate(0 0)">
            <g id="Grupo_1163948" data-name="Grupo 1163948" transform="translate(0)">
              <g id="Grupo_1158168" data-name="Grupo 1158168" transform="translate(0)">
                <g id="Grupo_1152576" data-name="Grupo 1152576">
                  <g id="Grupo_1148633" data-name="Grupo 1148633">
                    <g id="Grupo_1148525" data-name="Grupo 1148525">
                      <g transform="matrix(1, 0, 0, 1, -9, -6)" filter="url(#Trazado_982547)">
                        <g id="Trazado_982547-2" data-name="Trazado 982547" transform="translate(9 6)" fill="#e9f9fd">
                          <path d="M 37.8281364440918 74.15627288818359 C 32.92320251464844 74.15627288818359 28.16579246520996 73.19596862792969 23.68804740905762 71.30204772949219 C 19.36230278015137 69.47240447998047 15.47705841064453 66.85280609130859 12.1402702331543 63.51601409912109 C 8.803469657897949 60.17921447753906 6.1838698387146 56.29397964477539 4.354236602783203 51.96822357177734 C 2.460303068161011 47.49048233032227 1.500003099441528 42.73307037353516 1.500003099441528 37.8281364440918 C 1.500003099441528 32.92321395874023 2.460303068161011 28.16579246520996 4.354236602783203 23.68804740905762 C 6.1838698387146 19.36230278015137 8.803469657897949 15.47706985473633 12.1402702331543 12.1402702331543 C 15.47706985473633 8.803469657897949 19.36230278015137 6.1838698387146 23.68804740905762 4.354236602783203 C 28.16579246520996 2.460303068161011 32.92321395874023 1.500003099441528 37.8281364440918 1.500003099441528 C 42.73307037353516 1.500003099441528 47.49048233032227 2.460303068161011 51.96822357177734 4.354236602783203 C 56.29397964477539 6.1838698387146 60.17921447753906 8.803469657897949 63.51601409912109 12.1402702331543 C 66.85280609130859 15.47705841064453 69.47240447998047 19.36230278015137 71.30204772949219 23.68804740905762 C 73.19596862792969 28.16579246520996 74.15627288818359 32.92320251464844 74.15627288818359 37.8281364440918 C 74.15627288818359 42.73307037353516 73.19596862792969 47.49048233032227 71.30204772949219 51.96822357177734 C 69.47240447998047 56.29397964477539 66.85280609130859 60.17921447753906 63.51601409912109 63.51601409912109 C 60.17921447753906 66.85280609130859 56.29397964477539 69.47240447998047 51.96822357177734 71.30204772949219 C 47.49048233032227 73.19596862792969 42.73307037353516 74.15627288818359 37.8281364440918 74.15627288818359 Z" stroke="none"/>
                          <path d="M 37.8281364440918 3 C 33.12504959106445 3 28.56423568725586 3.920433044433594 24.27237319946289 5.735733032226562 C 20.12542343139648 7.48974609375 16.40044784545898 10.00139617919922 13.20092391967773 13.20092391967773 C 10.00139617919922 16.40044784545898 7.48974609375 20.12542343139648 5.735733032226562 24.27237319946289 C 3.920433044433594 28.56423568725586 3 33.12504959106445 3 37.8281364440918 C 3 42.53122329711914 3.920433044433594 47.09203720092773 5.735733032226562 51.3838996887207 C 7.48974609375 55.53084945678711 10.00139617919922 59.25582122802734 13.20092391967773 62.45534896850586 C 16.40044784545898 65.65487670898438 20.12542343139648 68.16652679443359 24.27237319946289 69.92053985595703 C 28.56423568725586 71.73583984375 33.12504959106445 72.65627288818359 37.8281364440918 72.65627288818359 C 42.53122329711914 72.65627288818359 47.09203720092773 71.73583984375 51.3838996887207 69.92053985595703 C 55.53084945678711 68.16652679443359 59.25582122802734 65.65487670898438 62.45534896850586 62.45534896850586 C 65.65487670898438 59.25582122802734 68.16652679443359 55.53084945678711 69.92053985595703 51.3838996887207 C 71.73583984375 47.09203720092773 72.65627288818359 42.53122329711914 72.65627288818359 37.8281364440918 C 72.65627288818359 33.12504959106445 71.73583984375 28.56423568725586 69.92053985595703 24.27237319946289 C 68.16652679443359 20.12542343139648 65.65487670898438 16.40044784545898 62.45534896850586 13.20092391967773 C 59.25582122802734 10.00139617919922 55.53084945678711 7.48974609375 51.3838996887207 5.735733032226562 C 47.09203720092773 3.920433044433594 42.53122329711914 3 37.8281364440918 3 M 37.8281364440918 0 C 58.72003555297852 0 75.65627288818359 16.93623733520508 75.65627288818359 37.8281364440918 C 75.65627288818359 58.72003555297852 58.72003555297852 75.65627288818359 37.8281364440918 75.65627288818359 C 16.93623733520508 75.65627288818359 0 58.72003555297852 0 37.8281364440918 C 0 16.93623733520508 16.93623733520508 0 37.8281364440918 0 Z" stroke="none" fill="#1d7083"/>
                        </g>
                      </g>
                    </g>
                  </g>
                </g>
              </g>
            </g>
          </g>
        </g>
      </g>
      <g id="mujer-policia" transform="translate(794.333 7808)">
        <path id="Trazado_1034138" data-name="Trazado 1034138" d="M116.429,10.7,104.443,7.5,92.456,10.7l-4.794,7.991,4.794,4.794h23.972l4.794-4.794Z" transform="translate(-21.188 -6.754)" fill="#8cb4eb"/>
        <path id="Trazado_1034139" data-name="Trazado 1034139" d="M103.719,257.548v-3.316c0-7.551,3.194-9.229,3.194-14.264H114.9v17.58Z" transform="translate(-35.644 -216.048)" fill="#5a4650"/>
        <path id="Trazado_1034140" data-name="Trazado 1034140" d="M105.187,336.6l-8.253-2.913a3.2,3.2,0,0,1-2.133-3.014v-2.529H85.212v2.529a3.2,3.2,0,0,1-2.133,3.014L74.827,336.6a4.794,4.794,0,0,0-3.2,4.521v4.6h36.758v-4.6A4.794,4.794,0,0,0,105.187,336.6Z" transform="translate(-6.752 -295.435)" fill="#e3aa75"/>
        <path id="Trazado_1034141" data-name="Trazado 1034141" d="M105.187,385.324l-8.253-2.913a3.173,3.173,0,0,1-.336-.149l-6.591,4.194-6.591-4.194a3.168,3.168,0,0,1-.336.149l-8.253,2.913a4.794,4.794,0,0,0-3.2,4.521v4.6h36.758v-4.6A4.794,4.794,0,0,0,105.187,385.324Z" transform="translate(-6.752 -344.157)" fill="#8cb4eb"/>
        <path id="Trazado_1034142" data-name="Trazado 1034142" d="M212.7,332.141a11.829,11.829,0,0,0,4.794-1.022v-2.973H207.9v2.973A11.832,11.832,0,0,0,212.7,332.141Z" transform="translate(-129.443 -295.436)" fill="#d29b6e"/>
        <path id="Trazado_1034143" data-name="Trazado 1034143" d="M144.9,135.733h-1.2v-3.2a4.8,4.8,0,0,0-4.794-4.794H127.718a4.794,4.794,0,0,0-4.794,4.794v3.2h-1.2a2,2,0,0,0,0,4h1.239a10.378,10.378,0,0,0,20.7,0H144.9a2,2,0,1,0,0-4Z" transform="translate(-50.057 -115.009)" fill="#f5b97d"/>
        <path id="Trazado_1034144" data-name="Trazado 1034144" d="M133.31,143.979a26.376,26.376,0,0,0,10.388-1.828v-2.4a4.788,4.788,0,0,0-2.146-4H125.068a4.788,4.788,0,0,0-2.146,4v3.2h-1.085a2.076,2.076,0,0,0-2.1,1.792,2,2,0,0,0,1.987,2.2h1.239a10.314,10.314,0,0,0,11.951,9.454,10.381,10.381,0,0,1-8.795-10.253h0a2.471,2.471,0,0,1,2.8-2.44A34.977,34.977,0,0,0,133.31,143.979Z" transform="translate(-50.055 -122.226)" fill="#e3aa75"/>
        <g id="Grupo_1180310" data-name="Grupo 1180310" transform="translate(71.268 15.131)">
          <path id="Trazado_1034145" data-name="Trazado 1034145" d="M345.585,157.552l1.788.214V151.79h-3.2v4.175A1.6,1.6,0,0,0,345.585,157.552Z" transform="translate(-323.401 -151.79)" fill="#5a4650"/>
          <path id="Trazado_1034146" data-name="Trazado 1034146" d="M137.547,157.552l-1.788.214V151.79h3.2v4.175A1.6,1.6,0,0,1,137.547,157.552Z" transform="translate(-135.759 -151.79)" fill="#5a4650"/>
        </g>
        <path id="Trazado_1034147" data-name="Trazado 1034147" d="M147.744,155.786c-6.62,0-11.986-1.789-11.986-4H159.73C159.73,154,154.364,155.786,147.744,155.786Z" transform="translate(-64.49 -136.66)" fill="#6e5a64"/>
        <path id="Trazado_1034148" data-name="Trazado 1034148" d="M239.569,456.4l-2.412.063-.74,4.731h3.9Z" transform="translate(-155.115 -410.908)" fill="#64505a"/>
        <path id="Trazado_1034149" data-name="Trazado 1034149" d="M158.932,103.695H136.558a.8.8,0,0,0-.8.8v4h23.972v-4A.8.8,0,0,0,158.932,103.695Z" transform="translate(-64.491 -93.359)" fill="#739bd7"/>
        <path id="Trazado_1034150" data-name="Trazado 1034150" d="M234.35,61.191h0a2.4,2.4,0,0,1-2.4-2.4V55.6h4.794v3.2A2.4,2.4,0,0,1,234.35,61.191Z" transform="translate(-151.096 -50.055)" fill="#ffe17d"/>
        <path id="Trazado_1034151" data-name="Trazado 1034151" d="M154.806,383.937l2.544,5.724a3.2,3.2,0,0,0,4.967,1.157l2.447-2.039,2.448,2.04a3.2,3.2,0,0,0,4.967-1.157l2.544-5.724a3.17,3.17,0,0,0,.143-.4l-3.175-1.121a3.171,3.171,0,0,1-.336-.149l-6.591,4.194-6.591-4.194a3.193,3.193,0,0,1-.336.149l-3.175,1.12A3.189,3.189,0,0,0,154.806,383.937Z" transform="translate(-81.51 -344.158)" fill="#739bd7"/>
        <path id="Trazado_1034152" data-name="Trazado 1034152" d="M229.562,420.751h-.825a1.6,1.6,0,0,1-1.525-1.121l-1.035-3.307h5.946l-1.035,3.307A1.6,1.6,0,0,1,229.562,420.751Z" transform="translate(-145.895 -374.823)" fill="#5a4650"/>
        <g id="Grupo_1180311" data-name="Grupo 1180311" transform="translate(75.418 36.237)">
          <path id="Trazado_1034153" data-name="Trazado 1034153" d="M180.192,363.764l5.028,5.029-3.982,3.318a.8.8,0,0,1-1.242-.289l-2.544-5.724a.8.8,0,0,1,.165-.89l1.444-1.444A.8.8,0,0,1,180.192,363.764Z" transform="translate(-177.384 -363.53)" fill="#8cb4eb"/>
          <path id="Trazado_1034154" data-name="Trazado 1034154" d="M261.029,363.764,256,368.793l3.982,3.318a.8.8,0,0,0,1.242-.289l2.544-5.724a.8.8,0,0,0-.165-.89l-1.444-1.444A.8.8,0,0,0,261.029,363.764Z" transform="translate(-248.163 -363.53)" fill="#8cb4eb"/>
        </g>
        <path id="Trazado_1034155" data-name="Trazado 1034155" d="M234.349,61.191h0a2.4,2.4,0,0,1-2.4-2.4V55.6h2.4Z" transform="translate(-151.095 -50.055)" fill="#ffd164"/>
        <path id="Trazado_1034156" data-name="Trazado 1034156" d="M227.6,274.843a4.226,4.226,0,0,0,2.922-1.014.748.748,0,0,0-1.05-1.064,3.294,3.294,0,0,1-3.744,0,.748.748,0,1,0-1.05,1.064A4.226,4.226,0,0,0,227.6,274.843Z" transform="translate(-144.342 -245.38)"/>
        <path id="Trazado_1034157" data-name="Trazado 1034157" d="M201.152,210.715a.748.748,0,0,0,.748-.748v-.8a.748.748,0,1,0-1.5,0v.8A.748.748,0,0,0,201.152,210.715Z" transform="translate(-122.692 -187.645)"/>
        <path id="Trazado_1034158" data-name="Trazado 1034158" d="M297.345,210.715a.748.748,0,0,0,.748-.748v-.8a.748.748,0,1,0-1.5,0v.8A.748.748,0,0,0,297.345,210.715Z" transform="translate(-209.296 -187.645)"/>
        <path id="Trazado_1034159" data-name="Trazado 1034159" d="M98.683,40.465l-6.723-2.373a.744.744,0,0,0-.187-.317l-1.832-1.832a1.541,1.541,0,0,0-1.145-.45V33.576a11.16,11.16,0,0,0,5.486-8.109h.559a2.745,2.745,0,0,0,1.147-5.239v-3.19l4.575-4.575a.748.748,0,0,0,.112-.913L95.882,3.559a.747.747,0,0,0-.448-.338L83.447.025a.747.747,0,0,0-.385,0l-11.986,3.2a.748.748,0,0,0-.448.338L65.833,11.55a.747.747,0,0,0,.112.913l4.575,4.575v3.19a2.744,2.744,0,0,0-.014,4.98,12.536,12.536,0,0,1-1.282,4.543,19.344,19.344,0,0,0-1.9,8.552V40.67a5.551,5.551,0,0,0-3.2,5.021v4.6a.748.748,0,1,0,1.5,0v-4.6a4.032,4.032,0,0,1,.262-1.428l3.781,3.24a2.446,2.446,0,0,1,.855,1.859v.927a.748.748,0,0,0,1.5,0v-.927a3.94,3.94,0,0,0-1.377-2.994l-3.963-3.4a4.036,4.036,0,0,1,1.648-1.1l6.664-2.352,2.36,5.31a1.534,1.534,0,0,0,1.062.878,1.565,1.565,0,0,0,.356.041,1.534,1.534,0,0,0,.985-.359l.726-.605.106.317a2.34,2.34,0,0,0,.656,1l-.674,4.062a.748.748,0,1,0,1.475.245l.615-3.709c.051,0,.1.006.153.006H83.7c.051,0,.1,0,.151-.006l.618,3.709a.748.748,0,1,0,1.475-.246l-.676-4.06a2.341,2.341,0,0,0,.658-1l.106-.317.726.605a1.533,1.533,0,0,0,.985.359,1.565,1.565,0,0,0,.356-.041,1.534,1.534,0,0,0,1.062-.878l1.133-2.549a.748.748,0,1,0-1.366-.607L87.8,44.226a.047.047,0,0,1-.035.029.048.048,0,0,1-.045-.011L84.362,41.45,88.812,37a.051.051,0,0,1,.073,0l1.469,1.469-.147.33a.747.747,0,0,0,1.3.719l6.675,2.356a4.037,4.037,0,0,1,1.648,1.1l-3.963,3.4a3.939,3.939,0,0,0-1.377,2.994v.927a.748.748,0,1,0,1.5,0v-.927a2.446,2.446,0,0,1,.855-1.859l3.781-3.24a4.029,4.029,0,0,1,.262,1.428v4.6a.748.748,0,1,0,1.5,0v-4.6A5.551,5.551,0,0,0,98.683,40.465Zm-24.966-22.1v.764a.852.852,0,0,1-.851.851h-.85v-2.5A8.655,8.655,0,0,0,73.717,18.362Zm1.3-1.115a7.47,7.47,0,0,1-2.6-1.368H94.092a7.469,7.469,0,0,1-2.6,1.368,27.128,27.128,0,0,1-8.239,1.132A27.128,27.128,0,0,1,75.016,17.247Zm17.776,1.115a8.651,8.651,0,0,0,1.7-.889v2.5h-.85a.851.851,0,0,1-.851-.851ZM71.754,4.588l11.5-3.067,11.5,3.067,4.338,7.231-3.105,3.105V11.135a1.548,1.548,0,0,0-1.547-1.547h-.8a.748.748,0,1,0,0,1.5h.8a.051.051,0,0,1,.051.051v3.248H72.016V11.135a.051.051,0,0,1,.051-.051h9.1a3.137,3.137,0,0,0,4.183,0h5.1a.748.748,0,1,0,0-1.5H86.282a3.135,3.135,0,0,0,.118-.85v-3.2a.748.748,0,0,0-.748-.748H80.857a.748.748,0,0,0-.748.748v3.2a3.135,3.135,0,0,0,.118.851h-8.16a1.548,1.548,0,0,0-1.547,1.547v3.789l-3.105-3.105ZM84.9,8.738a1.65,1.65,0,0,1-3.3,0V6.289h3.3V8.738ZM71.668,21.472h1.2a2.349,2.349,0,0,0,2.346-2.346v-.255a29.879,29.879,0,0,0,8.042,1,29.883,29.883,0,0,0,8.042-1v.255a2.346,2.346,0,0,0,2.346,2.346h1.2a1.25,1.25,0,1,1,0,2.5H94.39c0-.017,0-.034,0-.051a.748.748,0,0,0-1.5,0,9.64,9.64,0,1,1-19.281,0,.748.748,0,0,0-1.5,0c0,.017,0,.034,0,.051h-.452a1.25,1.25,0,0,1,0-2.5ZM70.6,30.339a14.14,14.14,0,0,0,1.39-4.872h.237a11.16,11.16,0,0,0,5.486,8.109v1.917a1.541,1.541,0,0,0-1.145.45l-1.832,1.832a.744.744,0,0,0-.187.317l-5.726,2.021V38.3A17.835,17.835,0,0,1,70.6,30.339Zm8.194,13.9a.048.048,0,0,1-.045.011.047.047,0,0,1-.035-.029l-2.558-5.756L77.625,37a.051.051,0,0,1,.073,0l4.45,4.45Zm6-.484-.291.873a.849.849,0,0,1-.807.582h-.893A.849.849,0,0,1,82,44.632l-.291-.873,1.544-1.287Zm-1.544-3.317L79.208,36.4v-2.1a11.136,11.136,0,0,0,8.094,0v2.1Z"/>
      </g>
    </g>
  </g>
</svg>
