<svg xmlns="http://www.w3.org/2000/svg" xmlns:xlink="http://www.w3.org/1999/xlink" width="93.656" height="93.656" viewBox="0 0 93.656 93.656">
  <defs>
    <filter id="Trazado_982547" x="0" y="0" width="93.656" height="93.656" filterUnits="userSpaceOnUse">
      <feOffset dy="3" input="SourceAlpha"/>
      <feGaussianBlur stdDeviation="3" result="blur"/>
      <feFlood flood-opacity="0.161"/>
      <feComposite operator="in" in2="blur"/>
      <feComposite in="SourceGraphic"/>
    </filter>
  </defs>
  <g id="Grupo_1179918" data-name="Grupo 1179918" transform="translate(-1028.5 -1576)">
    <g id="Grupo_1173053" data-name="Grupo 1173053" transform="translate(839.331 -3706.832)">
      <g id="Grupo_1172067" data-name="Grupo 1172067" transform="translate(198.17 5288.832)">
        <g id="Grupo_1164308" data-name="Grupo 1164308" transform="translate(0 0)">
          <g id="Grupo_1163948" data-name="Grupo 1163948" transform="translate(0)">
            <g id="Grupo_1158168" data-name="Grupo 1158168" transform="translate(0)">
              <g id="Grupo_1152576" data-name="Grupo 1152576">
                <g id="Grupo_1148633" data-name="Grupo 1148633">
                  <g id="Grupo_1148525" data-name="Grupo 1148525">
                    <g transform="matrix(1, 0, 0, 1, -9, -6)" filter="url(#Trazado_982547)">
                      <g id="Trazado_982547-2" data-name="Trazado 982547" transform="translate(9 6)" fill="#e9f9fd">
                        <path d="M 37.8281364440918 74.15627288818359 C 32.92320251464844 74.15627288818359 28.16579246520996 73.19596862792969 23.68804740905762 71.30204772949219 C 19.36230278015137 69.47240447998047 15.47705841064453 66.85280609130859 12.1402702331543 63.51601409912109 C 8.803469657897949 60.17921447753906 6.1838698387146 56.29397964477539 4.354236602783203 51.96822357177734 C 2.460303068161011 47.49048233032227 1.500003099441528 42.73307037353516 1.500003099441528 37.8281364440918 C 1.500003099441528 32.92321395874023 2.460303068161011 28.16579246520996 4.354236602783203 23.68804740905762 C 6.1838698387146 19.36230278015137 8.803469657897949 15.47706985473633 12.1402702331543 12.1402702331543 C 15.47706985473633 8.803469657897949 19.36230278015137 6.1838698387146 23.68804740905762 4.354236602783203 C 28.16579246520996 2.460303068161011 32.92321395874023 1.500003099441528 37.8281364440918 1.500003099441528 C 42.73307037353516 1.500003099441528 47.49048233032227 2.460303068161011 51.96822357177734 4.354236602783203 C 56.29397964477539 6.1838698387146 60.17921447753906 8.803469657897949 63.51601409912109 12.1402702331543 C 66.85280609130859 15.47705841064453 69.47240447998047 19.36230278015137 71.30204772949219 23.68804740905762 C 73.19596862792969 28.16579246520996 74.15627288818359 32.92320251464844 74.15627288818359 37.8281364440918 C 74.15627288818359 42.73307037353516 73.19596862792969 47.49048233032227 71.30204772949219 51.96822357177734 C 69.47240447998047 56.29397964477539 66.85280609130859 60.17921447753906 63.51601409912109 63.51601409912109 C 60.17921447753906 66.85280609130859 56.29397964477539 69.47240447998047 51.96822357177734 71.30204772949219 C 47.49048233032227 73.19596862792969 42.73307037353516 74.15627288818359 37.8281364440918 74.15627288818359 Z" stroke="none"/>
                        <path d="M 37.8281364440918 3 C 33.12504959106445 3 28.56423568725586 3.920433044433594 24.27237319946289 5.735733032226562 C 20.12542343139648 7.48974609375 16.40044784545898 10.00139617919922 13.20092391967773 13.20092391967773 C 10.00139617919922 16.40044784545898 7.48974609375 20.12542343139648 5.735733032226562 24.27237319946289 C 3.920433044433594 28.56423568725586 3 33.12504959106445 3 37.8281364440918 C 3 42.53122329711914 3.920433044433594 47.09203720092773 5.735733032226562 51.3838996887207 C 7.48974609375 55.53084945678711 10.00139617919922 59.25582122802734 13.20092391967773 62.45534896850586 C 16.40044784545898 65.65487670898438 20.12542343139648 68.16652679443359 24.27237319946289 69.92053985595703 C 28.56423568725586 71.73583984375 33.12504959106445 72.65627288818359 37.8281364440918 72.65627288818359 C 42.53122329711914 72.65627288818359 47.09203720092773 71.73583984375 51.3838996887207 69.92053985595703 C 55.53084945678711 68.16652679443359 59.25582122802734 65.65487670898438 62.45534896850586 62.45534896850586 C 65.65487670898438 59.25582122802734 68.16652679443359 55.53084945678711 69.92053985595703 51.3838996887207 C 71.73583984375 47.09203720092773 72.65627288818359 42.53122329711914 72.65627288818359 37.8281364440918 C 72.65627288818359 33.12504959106445 71.73583984375 28.56423568725586 69.92053985595703 24.27237319946289 C 68.16652679443359 20.12542343139648 65.65487670898438 16.40044784545898 62.45534896850586 13.20092391967773 C 59.25582122802734 10.00139617919922 55.53084945678711 7.48974609375 51.3838996887207 5.735733032226562 C 47.09203720092773 3.920433044433594 42.53122329711914 3 37.8281364440918 3 M 37.8281364440918 0 C 58.72003555297852 0 75.65627288818359 16.93623733520508 75.65627288818359 37.8281364440918 C 75.65627288818359 58.72003555297852 58.72003555297852 75.65627288818359 37.8281364440918 75.65627288818359 C 16.93623733520508 75.65627288818359 0 58.72003555297852 0 37.8281364440918 C 0 16.93623733520508 16.93623733520508 0 37.8281364440918 0 Z" stroke="none" fill="#1d7083"/>
                      </g>
                    </g>
                  </g>
                </g>
              </g>
            </g>
          </g>
        </g>
      </g>
    </g>
    <g id="XMLID_806_" transform="translate(1047.475 1584.738)">
      <g id="XMLID_1434_" transform="translate(11.652 11.249)">
        <rect id="XMLID_1457_" width="6.756" height="3.898" transform="translate(15.566 4.74)" fill="#d5f5fb"/>
        <path id="XMLID_1456_" d="M252.218,25h7.11a2.37,2.37,0,0,0,2.37-2.37h0a2.37,2.37,0,0,0-2.37-2.37h-7.11a2.37,2.37,0,0,0-2.37,2.37h0A2.37,2.37,0,0,0,252.218,25Z" transform="translate(-236.829 -20.262)" fill="#ff7480"/>
        <circle id="XMLID_1452_" cx="18.959" cy="18.959" r="18.959" transform="translate(0 8.638)" fill="#5ddef5"/>
        <circle id="XMLID_2618_" cx="14.331" cy="14.331" r="14.331" transform="translate(4.628 13.266)" fill="#fff"/>
        <circle id="XMLID_2592_" cx="2.081" cy="2.081" r="2.081" transform="translate(16.878 25.516)" fill="#ff838e"/>
      </g>
      <g id="XMLID_386_" transform="translate(0 10.262)">
        <path id="XMLID_389_" d="M50.46,36.863a19.931,19.931,0,0,0-15.5-17.476V16.877a3.357,3.357,0,0,0-.81-6.615h-7.11a3.357,3.357,0,0,0-.81,6.615v2.516a19.828,19.828,0,0,0-9.724,5.349,20.043,20.043,0,0,0-1.677,1.9c-.025,0-.05,0-.075,0H7.719a.987.987,0,0,0,0,1.975h5.768a19.8,19.8,0,0,0-1.752,3.8H.987a.987.987,0,0,0,0,1.975H11.177a20.077,20.077,0,0,0-.49,3.8H6.32a.987.987,0,1,0,0,1.975h4.4a20.048,20.048,0,0,0,.617,3.8h-6.4a.987.987,0,0,0,0,1.975h7.027A19.944,19.944,0,0,0,28.64,58.7q.978.1,1.957.1a20,20,0,0,0,10.886-3.217A.987.987,0,1,0,40.4,53.921a17.972,17.972,0,1,1,5.293-5.3A.987.987,0,1,0,47.354,49.7,20.01,20.01,0,0,0,50.46,36.863Zm-24.8-23.243a1.384,1.384,0,0,1,1.382-1.382h7.11a1.382,1.382,0,0,1,0,2.765h-7.11A1.384,1.384,0,0,1,25.659,13.619Zm2.547,5.434V16.977h4.781V19.05A20.12,20.12,0,0,0,28.206,19.054Z" transform="translate(0 -10.262)"/>
        <path id="XMLID_391_" d="M436.757,425.5a.988.988,0,1,0,.7.289A.993.993,0,0,0,436.757,425.5Z" transform="translate(-392.739 -384.497)"/>
        <path id="XMLID_394_" d="M170.19,144.609a15.318,15.318,0,1,0,15.318,15.318A15.336,15.336,0,0,0,170.19,144.609Zm0,28.662a13.344,13.344,0,1,1,13.344-13.344A13.359,13.359,0,0,1,170.19,173.271Z" transform="translate(-139.579 -131.343)"/>
        <path id="XMLID_397_" d="M268.513,219.7l-4.891,4.891a3.061,3.061,0,0,0-2.711,0l-2.189-2.189a.987.987,0,0,0-1.4,1.4l2.189,2.189a3.068,3.068,0,1,0,5.5,0l4.747-4.747h0l.143-.143a.987.987,0,0,0-1.4-1.4Zm-6.246,8.736a1.093,1.093,0,1,1,1.094-1.094A1.095,1.095,0,0,1,262.266,228.437Z" transform="translate(-231.655 -198.758)"/>
        <path id="XMLID_398_" d="M399.557,289.86h-.915a.987.987,0,1,0,0,1.975h.915a.987.987,0,0,0,0-1.975Z" transform="translate(-358.388 -262.251)"/>
        <path id="XMLID_399_" d="M194.984,289.616h-.915a.987.987,0,1,0,0,1.975h.915a.987.987,0,0,0,0-1.975Z" transform="translate(-174.016 -262.031)"/>
        <path id="XMLID_400_" d="M301.11,185.709a.988.988,0,0,0,.987-.987v-.915a.987.987,0,0,0-1.975,0v.915A.988.988,0,0,0,301.11,185.709Z" transform="translate(-270.487 -165.78)"/>
        <path id="XMLID_424_" d="M300.867,387.393a.987.987,0,0,0-.987.987v.915a.987.987,0,1,0,1.975,0v-.915A.987.987,0,0,0,300.867,387.393Z" transform="translate(-270.267 -350.153)"/>
        <path id="XMLID_425_" d="M.987,351.44a.987.987,0,1,0,.7,1.686.988.988,0,0,0-.7-1.686Z" transform="translate(0 -317.75)"/>
      </g>
    </g>
  </g>
</svg>
