<svg xmlns="http://www.w3.org/2000/svg" xmlns:xlink="http://www.w3.org/1999/xlink" width="113" height="113" viewBox="0 0 113 113">
  <defs>
    <filter id="Trazado_982547" x="0" y="0" width="113" height="113" filterUnits="userSpaceOnUse">
      <feOffset dy="3" input="SourceAlpha"/>
      <feGaussianBlur stdDeviation="3" result="blur"/>
      <feFlood flood-opacity="0.161"/>
      <feComposite operator="in" in2="blur"/>
      <feComposite in="SourceGraphic"/>
    </filter>
  </defs>
  <g id="Grupo_1180405" data-name="Grupo 1180405" transform="translate(-155.461 -2566)">
    <g id="Grupo_1174904" data-name="Grupo 1174904" transform="translate(174.461 2572)">
      <g id="Grupo_1166845" data-name="Grupo 1166845" transform="translate(-10)">
        <g id="Grupo_1166720" data-name="Grupo 1166720">
          <g id="Grupo_1164305" data-name="Grupo 1164305">
            <g id="Grupo_1163948" data-name="Grupo 1163948">
              <g id="Grupo_1158168" data-name="Grupo 1158168">
                <g id="Grupo_1152576" data-name="Grupo 1152576">
                  <g id="Grupo_1148633" data-name="Grupo 1148633">
                    <g id="Grupo_1148525" data-name="Grupo 1148525">
                      <g transform="matrix(1, 0, 0, 1, -9, -6)" filter="url(#Trazado_982547)">
                        <g id="Trazado_982547-2" data-name="Trazado 982547" transform="translate(9 6)" fill="#e9f9fd">
                          <path d="M 47.5 93.5 C 41.28937149047852 93.5 35.26533508300781 92.28397369384766 29.59518623352051 89.88570404052734 C 24.11771965026855 87.56893157958984 19.19813346862793 84.25196075439453 14.97309303283691 80.02691650390625 C 10.74804019927979 75.80186462402344 7.431066513061523 70.88229370117188 5.114293098449707 65.40481567382812 C 2.716026782989502 59.73468017578125 1.5 53.71062850952148 1.5 47.5 C 1.5 41.28937149047852 2.716026782989502 35.26533508300781 5.114293098449707 29.59518623352051 C 7.431066513061523 24.11771965026855 10.74804019927979 19.19813346862793 14.97309303283691 14.97309303283691 C 19.19813346862793 10.74804019927979 24.11771965026855 7.431066513061523 29.59518623352051 5.114293098449707 C 35.26533508300781 2.716026782989502 41.28937149047852 1.5 47.5 1.5 C 53.71062850952148 1.5 59.73468017578125 2.716026782989502 65.40481567382812 5.114293098449707 C 70.88229370117188 7.431066513061523 75.80186462402344 10.74804019927979 80.02691650390625 14.97309303283691 C 84.25196075439453 19.19813346862793 87.56893157958984 24.11771965026855 89.88570404052734 29.59518623352051 C 92.28397369384766 35.26533508300781 93.5 41.28937149047852 93.5 47.5 C 93.5 53.71062850952148 92.28397369384766 59.73468017578125 89.88570404052734 65.40481567382812 C 87.56893157958984 70.88229370117188 84.25196075439453 75.80186462402344 80.02691650390625 80.02691650390625 C 75.80186462402344 84.25196075439453 70.88229370117188 87.56893157958984 65.40481567382812 89.88570404052734 C 59.73468017578125 92.28397369384766 53.71062850952148 93.5 47.5 93.5 Z" stroke="none"/>
                          <path d="M 47.5 3 C 41.49121475219727 3 35.66376876831055 4.176155090332031 30.17950439453125 6.495796203613281 C 24.88084411621094 8.736953735351562 20.12152099609375 11.94598388671875 16.03375244140625 16.03375244140625 C 11.94598388671875 20.12152099609375 8.736953735351562 24.88084411621094 6.495796203613281 30.17950439453125 C 4.176155090332031 35.66376876831055 3 41.49121475219727 3 47.5 C 3 53.50878524780273 4.176155090332031 59.33623123168945 6.495796203613281 64.82049560546875 C 8.736953735351562 70.11915588378906 11.94598388671875 74.87847900390625 16.03375244140625 78.96624755859375 C 20.12152099609375 83.05401611328125 24.88084411621094 86.26304626464844 30.17950439453125 88.50419616699219 C 35.66376876831055 90.82384490966797 41.49121475219727 92 47.5 92 C 53.50878524780273 92 59.33623123168945 90.82384490966797 64.82049560546875 88.50419616699219 C 70.11915588378906 86.26304626464844 74.87847900390625 83.05401611328125 78.96624755859375 78.96624755859375 C 83.05401611328125 74.87847900390625 86.26304626464844 70.11915588378906 88.50419616699219 64.82049560546875 C 90.82384490966797 59.33623123168945 92 53.50878524780273 92 47.5 C 92 41.49121475219727 90.82384490966797 35.66376876831055 88.50419616699219 30.17950439453125 C 86.26304626464844 24.88084411621094 83.05401611328125 20.12152099609375 78.96624755859375 16.03375244140625 C 74.87847900390625 11.94598388671875 70.11915588378906 8.736953735351562 64.82049560546875 6.495796203613281 C 59.33623123168945 4.176155090332031 53.50878524780273 3 47.5 3 M 47.5 0 C 73.7335205078125 0 95 21.2664794921875 95 47.5 C 95 73.7335205078125 73.7335205078125 95 47.5 95 C 21.2664794921875 95 0 73.7335205078125 0 47.5 C 0 21.2664794921875 21.2664794921875 0 47.5 0 Z" stroke="none" fill="#36ceef"/>
                        </g>
                      </g>
                    </g>
                  </g>
                </g>
              </g>
            </g>
          </g>
        </g>
      </g>
    </g>
    <g id="empleado-del-mes" transform="translate(178.461 2586)">
      <g id="Grupo_1180403" data-name="Grupo 1180403" transform="translate(1.028 0.981)">
        <g id="Grupo_1180400" data-name="Grupo 1180400">
          <circle id="Elipse_13301" data-name="Elipse 13301" cx="26.708" cy="26.708" r="26.708" fill="#98db7c"/>
        </g>
        <path id="Trazado_1034268" data-name="Trazado 1034268" d="M53.99,234.555A26.707,26.707,0,0,1,8.42,216.773a26.707,26.707,0,1,0,53.368,0A26.611,26.611,0,0,1,53.99,234.555Z" transform="translate(-8.396 -191.168)" fill="#82d361"/>
        <path id="Trazado_1034269" data-name="Trazado 1034269" d="M124.707,214.284v-3.691a3.123,3.123,0,0,0-.318-.016,3.071,3.071,0,1,0,.626,6.077A9.219,9.219,0,0,1,124.707,214.284Z" transform="translate(-107.468 -185.732)" fill="#f4b184"/>
        <path id="Trazado_1034270" data-name="Trazado 1034270" d="M297.239,210.577a3.089,3.089,0,0,0-.318.016v3.691a9.221,9.221,0,0,1-.309,2.37,3.071,3.071,0,1,0,.626-6.077Z" transform="translate(-261.264 -185.732)" fill="#f4b184"/>
        <path id="Trazado_1034271" data-name="Trazado 1034271" d="M124.39,228.582a3.071,3.071,0,0,1-2.866-1.967,3.072,3.072,0,0,0,3.492,4.111,9.219,9.219,0,0,1-.305-2.16,3.115,3.115,0,0,1-.321.017Z" transform="translate(-107.468 -199.803)" fill="#eaa678"/>
        <path id="Trazado_1034272" data-name="Trazado 1034272" d="M297.24,228.582a3.114,3.114,0,0,1-.321-.017,9.219,9.219,0,0,1-.305,2.16,3.071,3.071,0,0,0,3.492-4.111A3.071,3.071,0,0,1,297.24,228.582Z" transform="translate(-261.264 -199.803)" fill="#eaa678"/>
        <path id="Trazado_1034273" data-name="Trazado 1034273" d="M148.946,133.615v13.146a9.209,9.209,0,1,0,18.419,0V133.615Z" transform="translate(-131.707 -118.209)" fill="#ffc89f"/>
        <path id="Trazado_1034274" data-name="Trazado 1034274" d="M158.155,232.015a9.209,9.209,0,0,1-9.209-9.209v2.208a9.209,9.209,0,0,0,18.419,0v-2.208A9.209,9.209,0,0,1,158.155,232.015Z" transform="translate(-131.707 -196.461)" fill="#f7bc94"/>
        <path id="Trazado_1034275" data-name="Trazado 1034275" d="M122.172,315.9h-6.733A11.347,11.347,0,0,0,104.1,326.966a26.737,26.737,0,0,0,29.424.342v-.064A11.347,11.347,0,0,0,122.172,315.9Z" transform="translate(-92.357 -278.135)" fill="#8bcaff"/>
        <path id="Trazado_1034276" data-name="Trazado 1034276" d="M104.331,389.455a11.364,11.364,0,0,0-.236,2.048,26.737,26.737,0,0,0,29.424.342v-.064a11.412,11.412,0,0,0-.181-2.028,26.742,26.742,0,0,1-29.007-.3Z" transform="translate(-92.357 -342.672)" fill="#60b8ff"/>
        <path id="Trazado_1034277" data-name="Trazado 1034277" d="M132.455,94.392c-1.825-1.019-3.517-3.981-3.517-3.981a7.59,7.59,0,0,1-5.583,3.621,4.314,4.314,0,0,0-.956-3.219,11.009,11.009,0,0,1-8.116,3.715,1.775,1.775,0,0,1-.464-.074c-2.411-.719-4.663-3.594-4.663-3.594,3.49.105,4.651-2.1,4.651-2.1-3.566.1-3.81-3.477-3.81-3.477,5.377.683,6.453-2.413,11.195-3.777a8.528,8.528,0,0,1,8.1,2.158s4.806-.452,5.218,4.319c.394,4.56-2.055,6.406-2.055,6.406" transform="translate(-96.798 -72.218)" fill="#7b7179"/>
        <g id="Grupo_1180401" data-name="Grupo 1180401" transform="translate(12.359 15.611)">
          <path id="Trazado_1034278" data-name="Trazado 1034278" d="M122.526,148.339a.613.613,0,0,0-1.02-.521,11,11,0,0,1-7.223,2.815,1.775,1.775,0,0,1-.464-.074,7.97,7.97,0,0,1-2.709-1.6,6.688,6.688,0,0,1-1.954.212s2.252,2.875,4.663,3.594a1.772,1.772,0,0,0,.464.074,11.008,11.008,0,0,0,8.116-3.715A7.688,7.688,0,0,0,122.526,148.339Z" transform="translate(-109.157 -146.142)" fill="#726a71"/>
          <path id="Trazado_1034279" data-name="Trazado 1034279" d="M229.223,135.29a6.965,6.965,0,0,1-1.663,4,.608.608,0,0,1-.8.086,12.03,12.03,0,0,1-2.6-2.928.613.613,0,0,0-.982-.047c-2.023,2.433-6.045,1.878-6.045,1.878a4.314,4.314,0,0,1,.956,3.219,7.59,7.59,0,0,0,5.583-3.621s1.692,2.962,3.517,3.981c0,0,2.5-1.888,2.04-6.562h0Z" transform="translate(-203.887 -135.29)" fill="#726a71"/>
        </g>
        <path id="Trazado_1034280" data-name="Trazado 1034280" d="M204.875,319.889h-4.132l-.9-3.992h5.934Z" transform="translate(-176.361 -278.135)" fill="#c61926"/>
        <path id="Trazado_1034281" data-name="Trazado 1034281" d="M191.89,359.777a26.864,26.864,0,0,0,7.9.076L197.9,348.446h-4.132Z" transform="translate(-169.384 -306.693)" fill="#ff4755"/>
        <path id="Trazado_1034282" data-name="Trazado 1034282" d="M192.245,423.287l-.356,2.152a26.862,26.862,0,0,0,7.9.076l-.358-2.16A26.86,26.86,0,0,1,192.245,423.287Z" transform="translate(-169.383 -372.355)" fill="#fc2b3a"/>
        <circle id="Elipse_13302" data-name="Elipse 13302" cx="11.071" cy="11.071" r="11.071" transform="translate(34.001 49.76) rotate(-45)" fill="#ff4755"/>
        <path id="Trazado_1034283" data-name="Trazado 1034283" d="M334.148,414.7a11.072,11.072,0,0,1-11.016-9.967q-.054.545-.055,1.1a11.071,11.071,0,1,0,22.142,0q0-.559-.055-1.1A11.072,11.072,0,0,1,334.148,414.7Z" transform="translate(-284.482 -356.075)" fill="#fc2b3a"/>
        <path id="Trazado_1034284" data-name="Trazado 1034284" d="M373.3,364.75l.958,1.941a1.048,1.048,0,0,0,.789.574l2.142.311a1.049,1.049,0,0,1,.581,1.788l-1.55,1.511a1.049,1.049,0,0,0-.3.928l.366,2.133a1.049,1.049,0,0,1-1.521,1.105l-1.916-1.007a1.049,1.049,0,0,0-.976,0l-1.916,1.007a1.049,1.049,0,0,1-1.521-1.105l.366-2.133a1.049,1.049,0,0,0-.3-.928l-1.55-1.511a1.049,1.049,0,0,1,.581-1.788l2.142-.311a1.049,1.049,0,0,0,.789-.574l.958-1.941A1.049,1.049,0,0,1,373.3,364.75Z" transform="translate(-322.699 -320.484)" fill="#fff5f5"/>
        <g id="Grupo_1180402" data-name="Grupo 1180402" transform="translate(45.725 51.223)">
          <path id="Trazado_1034285" data-name="Trazado 1034285" d="M389.021,427.552l-3.38-1.777a1.049,1.049,0,0,0-.976,0l-3.38,1.777-.057.332a1.049,1.049,0,0,0,1.521,1.105l1.916-1.007a1.048,1.048,0,0,1,.976,0l1.916,1.007a1.049,1.049,0,0,0,1.521-1.105Z" transform="translate(-381.212 -425.654)" fill="#efe2dd"/>
        </g>
      </g>
      <g id="Grupo_1180404" data-name="Grupo 1180404" transform="translate(0 0)">
        <path id="Trazado_1034286" data-name="Trazado 1034286" d="M53.038,38.982A27.695,27.695,0,0,0,27.722,0,27.566,27.566,0,0,0,8.117,8.108,28.049,28.049,0,0,0,5.465,11.17a.923.923,0,0,0,1.48,1.1A25.919,25.919,0,0,1,46.022,9.411,25.819,25.819,0,0,1,51.1,38.77c-.114,0-.228-.005-.343-.005a12.026,12.026,0,0,0-9.56,4.727A12.41,12.41,0,0,0,33,38.03a10.2,10.2,0,0,0,4.046-5.14,4,4,0,0,0,.575-7.951v-1.4c.762-.776,2.4-2.934,2.057-6.9a5.417,5.417,0,0,0-1.857-3.864,6.346,6.346,0,0,0-3.943-1.316,9.348,9.348,0,0,0-8.739-2.115,17.643,17.643,0,0,0-4.516,2.118c-1.863,1.128-3.334,2.02-6.346,1.637a.922.922,0,0,0-1.037.977A4.7,4.7,0,0,0,16.028,18.1a5.074,5.074,0,0,1-2.678.577.922.922,0,0,0-.755,1.49,13.4,13.4,0,0,0,4.7,3.763v1.007a4,4,0,0,0,.575,7.951,10.2,10.2,0,0,0,4.044,5.139,12.281,12.281,0,0,0-6.11,3,.922.922,0,1,0,1.242,1.364,10.442,10.442,0,0,1,6.7-2.707l.7,3.1-1.7,10.265a25.868,25.868,0,0,1-9.1-3.68,10.443,10.443,0,0,1,1.289-4.322.923.923,0,0,0-1.613-.9,12.271,12.271,0,0,0-1.391,4.007,26.036,26.036,0,0,1-2.511-2.2A25.59,25.59,0,0,1,2.078,31.172a26,26,0,0,1,2.94-15.907A.923.923,0,0,0,3.4,14.379,27.852,27.852,0,0,0,.249,31.42,27.711,27.711,0,0,0,23.46,55.037a28.173,28.173,0,0,0,4.3.332A27.56,27.56,0,0,0,38.935,53a12.043,12.043,0,0,0,18.053,8.058.922.922,0,1,0-.957-1.577A10.177,10.177,0,1,1,58.6,57.277a.922.922,0,0,0,1.42,1.178,12.008,12.008,0,0,0-6.98-19.473ZM39.18,28.892a2.158,2.158,0,0,1-1.66,2.095,10.161,10.161,0,0,0,.106-1.457V26.824a2.158,2.158,0,0,1,1.554,2.068Zm-23.438,0A2.158,2.158,0,0,1,17.3,26.824V29.53a10.164,10.164,0,0,0,.106,1.457,2.158,2.158,0,0,1-1.66-2.1Zm2.747-6.538a.86.86,0,0,1-.224-.036,8.172,8.172,0,0,1-3-1.974,5.352,5.352,0,0,0,3.542-2.416.922.922,0,0,0-.844-1.351,2.53,2.53,0,0,1-2.591-1.546,10.381,10.381,0,0,0,6.215-1.992,15.878,15.878,0,0,1,4.069-1.923,7.567,7.567,0,0,1,7.2,1.913.932.932,0,0,0,.751.282,5.169,5.169,0,0,1,2.1.333A3.375,3.375,0,0,1,37.844,16.8a7.744,7.744,0,0,1-.724,4.31,5.181,5.181,0,0,1-.537.83,13.591,13.591,0,0,1-2.609-3.247.923.923,0,0,0-.8-.465h-.012a.923.923,0,0,0-.8.485,6.312,6.312,0,0,1-3.846,2.925,5.855,5.855,0,0,0-1.2-2.677.923.923,0,0,0-.695-.329.9.9,0,0,0-.7.31,10.108,10.108,0,0,1-7.431,3.413Zm.653,7.175V24.176a12.177,12.177,0,0,0,7.3-3.133,2.57,2.57,0,0,1,.228,1.544.922.922,0,0,0,.988,1.109,8.823,8.823,0,0,0,5.5-2.879,12.126,12.126,0,0,0,2.629,2.826V29.53a8.319,8.319,0,0,1-16.638,0ZM29.284,39.679,28.8,41.835h-2.67l-.488-2.156ZM27.726,53.533a25.91,25.91,0,0,1-3.158-.194l1.6-9.661h2.581L30.363,53.4A25.86,25.86,0,0,1,27.726,53.533Zm11-2.754q0,.147,0,.292a25.9,25.9,0,0,1-6.539,2.072l-1.718-10.36.7-3.1a10.528,10.528,0,0,1,8.913,5.552A11.925,11.925,0,0,0,38.728,50.779Z" transform="translate(0 0)"/>
        <path id="Trazado_1034287" data-name="Trazado 1034287" d="M372.23,363.654a1.971,1.971,0,0,0-1.095-3.364l-2.15-.312a.129.129,0,0,1-.1-.071l-.961-1.945a1.977,1.977,0,0,0-3.543,0l-.961,1.945a.129.129,0,0,1-.1.071l-2.149.312a1.971,1.971,0,0,0-1.095,3.364l1.555,1.514a.129.129,0,0,1,.037.114l-.367,2.137a1.977,1.977,0,0,0,1.945,2.308,1.979,1.979,0,0,0,.921-.229l1.923-1.009a.128.128,0,0,1,.12,0l1.923,1.009A1.975,1.975,0,0,0,371,367.42l-.367-2.138a.129.129,0,0,1,.037-.114Zm-2.844.194a1.97,1.97,0,0,0-.568,1.746l.367,2.138a.129.129,0,0,1-.187.136l-1.923-1.009a1.977,1.977,0,0,0-1.838,0l-1.923,1.009a.129.129,0,0,1-.187-.136l.367-2.138a1.97,1.97,0,0,0-.568-1.746l-1.555-1.514a.129.129,0,0,1,.072-.22l2.149-.312a1.974,1.974,0,0,0,1.487-1.079l.961-1.945a.129.129,0,0,1,.232,0l.961,1.945a1.974,1.974,0,0,0,1.487,1.079l2.15.312a.129.129,0,0,1,.072.22Z" transform="translate(-315.395 -313.097)"/>
        <path id="Trazado_1034288" data-name="Trazado 1034288" d="M199.493,249.961a3.786,3.786,0,0,0,3.55-1.914.923.923,0,1,0-1.649-.826c-.427.887-1.841.9-1.9.9s-1.476-.011-1.9-.9a.923.923,0,1,0-1.648.829A3.785,3.785,0,0,0,199.493,249.961Z" transform="translate(-171.807 -216.418)"/>
        <path id="Trazado_1034289" data-name="Trazado 1034289" d="M180.791,202.973a.922.922,0,0,0-.923.922v2.069a.923.923,0,0,0,1.846,0v-2.069A.922.922,0,0,0,180.791,202.973Z" transform="translate(-157.808 -178.08)"/>
        <path id="Trazado_1034290" data-name="Trazado 1034290" d="M253.821,206.884a.922.922,0,0,0,.923-.922v-2.069a.923.923,0,0,0-1.846,0v2.069A.922.922,0,0,0,253.821,206.884Z" transform="translate(-221.882 -178.079)"/>
      </g>
    </g>
  </g>
</svg>
