<svg xmlns="http://www.w3.org/2000/svg" xmlns:xlink="http://www.w3.org/1999/xlink" width="113" height="113" viewBox="0 0 113 113">
  <defs>
    <filter id="Trazado_982547" x="0" y="0" width="113" height="113" filterUnits="userSpaceOnUse">
      <feOffset dy="3" input="SourceAlpha"/>
      <feGaussianBlur stdDeviation="3" result="blur"/>
      <feFlood flood-opacity="0.161"/>
      <feComposite operator="in" in2="blur"/>
      <feComposite in="SourceGraphic"/>
    </filter>
  </defs>
  <g id="Grupo_1180392" data-name="Grupo 1180392" transform="translate(-744.461 -796)">
    <g id="Grupo_1174902" data-name="Grupo 1174902" transform="translate(0.961 -5152.015)">
      <g id="Grupo_1174055" data-name="Grupo 1174055" transform="translate(752.5 5954.015)">
        <g id="Grupo_1172010" data-name="Grupo 1172010">
          <g id="Grupo_1171046" data-name="Grupo 1171046">
            <g id="Grupo_1148525" data-name="Grupo 1148525">
              <g transform="matrix(1, 0, 0, 1, -9, -6)" filter="url(#Trazado_982547)">
                <g id="Trazado_982547-2" data-name="Trazado 982547" transform="translate(9 6)" fill="#f2f7e5">
                  <path d="M 47.5 93.5 C 41.28937149047852 93.5 35.26533508300781 92.28397369384766 29.59518623352051 89.88570404052734 C 24.11771965026855 87.56893157958984 19.19813346862793 84.25196075439453 14.97309303283691 80.02691650390625 C 10.74804019927979 75.80186462402344 7.431066513061523 70.88229370117188 5.114293098449707 65.40481567382812 C 2.716026782989502 59.73468017578125 1.5 53.71062850952148 1.5 47.5 C 1.5 41.28937149047852 2.716026782989502 35.26533508300781 5.114293098449707 29.59518623352051 C 7.431066513061523 24.11771965026855 10.74804019927979 19.19813346862793 14.97309303283691 14.97309303283691 C 19.19813346862793 10.74804019927979 24.11771965026855 7.431066513061523 29.59518623352051 5.114293098449707 C 35.26533508300781 2.716026782989502 41.28937149047852 1.5 47.5 1.5 C 53.71062850952148 1.5 59.73468017578125 2.716026782989502 65.40481567382812 5.114293098449707 C 70.88229370117188 7.431066513061523 75.80186462402344 10.74804019927979 80.02691650390625 14.97309303283691 C 84.25196075439453 19.19813346862793 87.56893157958984 24.11771965026855 89.88570404052734 29.59518623352051 C 92.28397369384766 35.26533508300781 93.5 41.28937149047852 93.5 47.5 C 93.5 53.71062850952148 92.28397369384766 59.73468017578125 89.88570404052734 65.40481567382812 C 87.56893157958984 70.88229370117188 84.25196075439453 75.80186462402344 80.02691650390625 80.02691650390625 C 75.80186462402344 84.25196075439453 70.88229370117188 87.56893157958984 65.40481567382812 89.88570404052734 C 59.73468017578125 92.28397369384766 53.71062850952148 93.5 47.5 93.5 Z" stroke="none"/>
                  <path d="M 47.5 3 C 41.49121475219727 3 35.66376876831055 4.176155090332031 30.17950439453125 6.495796203613281 C 24.88084411621094 8.736953735351562 20.12152099609375 11.94598388671875 16.03375244140625 16.03375244140625 C 11.94598388671875 20.12152099609375 8.736953735351562 24.88084411621094 6.495796203613281 30.17950439453125 C 4.176155090332031 35.66376876831055 3 41.49121475219727 3 47.5 C 3 53.50878524780273 4.176155090332031 59.33623123168945 6.495796203613281 64.82049560546875 C 8.736953735351562 70.11915588378906 11.94598388671875 74.87847900390625 16.03375244140625 78.96624755859375 C 20.12152099609375 83.05401611328125 24.88084411621094 86.26304626464844 30.17950439453125 88.50419616699219 C 35.66376876831055 90.82384490966797 41.49121475219727 92 47.5 92 C 53.50878524780273 92 59.33623123168945 90.82384490966797 64.82049560546875 88.50419616699219 C 70.11915588378906 86.26304626464844 74.87847900390625 83.05401611328125 78.96624755859375 78.96624755859375 C 83.05401611328125 74.87847900390625 86.26304626464844 70.11915588378906 88.50419616699219 64.82049560546875 C 90.82384490966797 59.33623123168945 92 53.50878524780273 92 47.5 C 92 41.49121475219727 90.82384490966797 35.66376876831055 88.50419616699219 30.17950439453125 C 86.26304626464844 24.88084411621094 83.05401611328125 20.12152099609375 78.96624755859375 16.03375244140625 C 74.87847900390625 11.94598388671875 70.11915588378906 8.736953735351562 64.82049560546875 6.495796203613281 C 59.33623123168945 4.176155090332031 53.50878524780273 3 47.5 3 M 47.5 0 C 73.7335205078125 0 95 21.2664794921875 95 47.5 C 95 73.7335205078125 73.7335205078125 95 47.5 95 C 21.2664794921875 95 0 73.7335205078125 0 47.5 C 0 21.2664794921875 21.2664794921875 0 47.5 0 Z" stroke="none" fill="#86b60c"/>
                </g>
              </g>
            </g>
          </g>
        </g>
      </g>
    </g>
    <g id="obediente" transform="translate(758.383 820)">
      <g id="Grupo_1180368" data-name="Grupo 1180368" transform="translate(26.522 0.848)">
        <path id="Trazado_1034211" data-name="Trazado 1034211" d="M152.88,7.5h-36a.565.565,0,0,0-.565.565V23.737h3.707a2.77,2.77,0,0,1,.193,5.534v3.437h0a1.13,1.13,0,0,1,.959,1.116V40.84a1.13,1.13,0,0,1-.959,1.116h0v3.437a2.77,2.77,0,0,1-.193,5.534h-3.707v4.639h7.8a1.13,1.13,0,0,1,1.13,1.13v2.249s0,0,0,0h.861a1.13,1.13,0,0,1,1.13,1.13v3.605h26.207V8.065A.565.565,0,0,0,152.88,7.5Z" transform="translate(-116.315 -7.5)" fill="#fff3de"/>
      </g>
      <g id="Grupo_1180369" data-name="Grupo 1180369" transform="translate(26.522 0.848)">
        <path id="Trazado_1034212" data-name="Trazado 1034212" d="M120.022,23.737l.1,0V8.065a.565.565,0,0,1,.565-.565H116.88a.565.565,0,0,0-.565.565V23.737Z" transform="translate(-116.315 -7.5)" fill="#ffe5c2"/>
        <path id="Trazado_1034213" data-name="Trazado 1034213" d="M120.022,391.629h-3.707v4.639h3.808v-4.642Z" transform="translate(-116.315 -348.203)" fill="#ffe5c2"/>
      </g>
      <g id="Grupo_1180387" data-name="Grupo 1180387" transform="translate(15.926 17.084)">
        <g id="Grupo_1180370" data-name="Grupo 1180370" transform="translate(15.455 11.662)">
          <path id="Trazado_1034214" data-name="Trazado 1034214" d="M159.3,254.29h5.233v3.866H159.3Z" transform="translate(-159.296 -254.29)" fill="#883f2e"/>
          <path id="Trazado_1034215" data-name="Trazado 1034215" d="M237.5,254.29h7.474v3.866H237.5Z" transform="translate(-228.661 -254.29)" fill="#883f2e"/>
        </g>
        <g id="Grupo_1180371" data-name="Grupo 1180371" transform="translate(15.455 13.664)">
          <path id="Trazado_1034216" data-name="Trazado 1034216" d="M159.3,272h5.233v1.864H159.3Z" transform="translate(-159.296 -272)" fill="#6d3326"/>
          <path id="Trazado_1034217" data-name="Trazado 1034217" d="M237.5,272h7.474v1.864H237.5Z" transform="translate(-228.661 -272)" fill="#6d3326"/>
        </g>
        <g id="Grupo_1180372" data-name="Grupo 1180372" transform="translate(31.77 10.76)">
          <path id="Trazado_1034218" data-name="Trazado 1034218" d="M324.621,249.145a2.835,2.835,0,0,1-2.835,2.835H304.26a.644.644,0,0,1-.644-.644v-4.381a.644.644,0,0,1,.644-.644h17.525A2.835,2.835,0,0,1,324.621,249.145Z" transform="translate(-303.616 -246.31)" fill="#ca6e59"/>
        </g>
        <g id="Grupo_1180373" data-name="Grupo 1180373" transform="translate(31.77 10.76)">
          <path id="Trazado_1034219" data-name="Trazado 1034219" d="M307.469,249.553a.644.644,0,0,1-.644-.644v-2.6H304.26a.644.644,0,0,0-.644.644v4.381a.644.644,0,0,0,.644.644h17.525a2.835,2.835,0,0,0,2.805-2.427Z" transform="translate(-303.616 -246.31)" fill="#bb5d4c"/>
        </g>
        <g id="Grupo_1180374" data-name="Grupo 1180374" transform="translate(20.688 10.76)">
          <path id="Trazado_1034220" data-name="Trazado 1034220" d="M209.193,246.876v4.539a.565.565,0,0,1-.565.565H206.15a.565.565,0,0,1-.565-.565v-4.539a.565.565,0,0,1,.565-.565h2.478A.565.565,0,0,1,209.193,246.876Z" transform="translate(-205.585 -246.311)" fill="#ca6e59"/>
        </g>
        <g id="Grupo_1180375" data-name="Grupo 1180375" transform="translate(20.688 10.76)">
          <path id="Trazado_1034221" data-name="Trazado 1034221" d="M207.224,251.416v-4.539a.565.565,0,0,1,.565-.565H206.15a.565.565,0,0,0-.565.565v4.539a.565.565,0,0,0,.565.565h1.639A.565.565,0,0,1,207.224,251.416Z" transform="translate(-205.585 -246.311)" fill="#bb5d4c"/>
        </g>
        <g id="Grupo_1180376" data-name="Grupo 1180376" transform="translate(7.023 5.534)">
          <path id="Trazado_1034222" data-name="Trazado 1034222" d="M92.005,312.311h-7.13a1.138,1.138,0,0,1-.172-.014v3.437c.064,0,.128-.007.193-.007h7.087c.065,0,.129,0,.193.007V312.3A1.122,1.122,0,0,1,92.005,312.311Z" transform="translate(-84.703 -299.611)" fill="#883f2e"/>
          <path id="Trazado_1034223" data-name="Trazado 1034223" d="M84.875,312.311a1.138,1.138,0,0,1-.172-.014v3.437c.064,0,.128-.007.193-.007H87.55v-3.415H84.875Z" transform="translate(-84.703 -299.611)" fill="#6d3326"/>
          <path id="Trazado_1034224" data-name="Trazado 1034224" d="M84.875,203.5H92a1.136,1.136,0,0,1,.172.014v-3.437c-.064,0-.128.007-.193.007H84.9c-.065,0-.129,0-.193-.007v3.437A1.136,1.136,0,0,1,84.875,203.5Z" transform="translate(-84.703 -200.079)" fill="#883f2e"/>
          <path id="Trazado_1034225" data-name="Trazado 1034225" d="M84.875,203.5H87.55v-3.415H84.9c-.065,0-.129,0-.193-.007v3.437A1.15,1.15,0,0,1,84.875,203.5Z" transform="translate(-84.703 -200.078)" fill="#6d3326"/>
        </g>
        <g id="Grupo_1180377" data-name="Grupo 1180377" transform="translate(6.065 8.956)">
          <path id="Trazado_1034226" data-name="Trazado 1034226" d="M85.616,231.482V238.5a1.13,1.13,0,0,1-1.13,1.13h-7.13a1.13,1.13,0,0,1-1.13-1.13v-7.017a1.13,1.13,0,0,1,1.13-1.13h7.13A1.13,1.13,0,0,1,85.616,231.482Z" transform="translate(-76.225 -230.352)" fill="#ca6e59"/>
        </g>
        <g id="Grupo_1180378" data-name="Grupo 1180378" transform="translate(6.065 8.956)">
          <path id="Trazado_1034227" data-name="Trazado 1034227" d="M80.043,238.5v-7.017a1.13,1.13,0,0,1,1.13-1.13H77.355a1.13,1.13,0,0,0-1.13,1.13V238.5a1.13,1.13,0,0,0,1.13,1.13h3.818A1.13,1.13,0,0,1,80.043,238.5Z" transform="translate(-76.225 -230.352)" fill="#bb5d4c"/>
        </g>
        <g id="Grupo_1180381" data-name="Grupo 1180381" transform="translate(0 31.829)">
          <path id="Trazado_1034228" data-name="Trazado 1034228" d="M57.726,436.181a1.158,1.158,0,0,0,.006-.116v-2.249a1.13,1.13,0,0,0-1.13-1.13H41.325a1.13,1.13,0,0,0-1.13,1.13v2.249a1.158,1.158,0,0,0,.006.116Z" transform="translate(-38.203 -432.685)" fill="#ca6e59"/>
          <path id="Trazado_1034229" data-name="Trazado 1034229" d="M44.022,436.181a1.156,1.156,0,0,1-.006-.116v-2.249a1.13,1.13,0,0,1,1.13-1.13H41.325a1.13,1.13,0,0,0-1.13,1.13v2.249a1.158,1.158,0,0,0,.006.116Z" transform="translate(-38.203 -432.685)" fill="#bb5d4c"/>
          <g id="Grupo_1180379" data-name="Grupo 1180379" transform="translate(0 3.383)">
            <path id="Trazado_1034230" data-name="Trazado 1034230" d="M44.1,467.344H23.143a.565.565,0,0,1-.565-.565v-3.04a1.13,1.13,0,0,1,1.13-1.13H42.968a1.13,1.13,0,0,1,1.13,1.13Z" transform="translate(-22.578 -462.608)" fill="#883f2e"/>
          </g>
          <g id="Grupo_1180380" data-name="Grupo 1180380" transform="translate(0 3.383)">
            <path id="Trazado_1034231" data-name="Trazado 1034231" d="M26.356,466.779v-3.04a1.13,1.13,0,0,1,1.13-1.13H23.708a1.13,1.13,0,0,0-1.13,1.13v3.04a.565.565,0,0,0,.565.565h3.778A.565.565,0,0,1,26.356,466.779Z" transform="translate(-22.578 -462.608)" fill="#6d3326"/>
          </g>
        </g>
        <g id="Grupo_1180386" data-name="Grupo 1180386" transform="translate(4.446)">
          <g id="Grupo_1180382" data-name="Grupo 1180382" transform="translate(0 21.649)">
            <path id="Trazado_1034232" data-name="Trazado 1034232" d="M74.534,345.4a2.771,2.771,0,0,1-2.771,2.771H64.676a2.771,2.771,0,0,1,0-5.541h7.087A2.771,2.771,0,0,1,74.534,345.4Z" transform="translate(-61.905 -342.633)" fill="#ca6e59"/>
          </g>
          <g id="Grupo_1180383" data-name="Grupo 1180383" transform="translate(0 21.649)">
            <path id="Trazado_1034233" data-name="Trazado 1034233" d="M65.679,345.4a2.771,2.771,0,0,1,2.771-2.771H64.676a2.771,2.771,0,0,0,0,5.541h3.774A2.771,2.771,0,0,1,65.679,345.4Z" transform="translate(-61.905 -342.633)" fill="#bb5d4c"/>
          </g>
          <g id="Grupo_1180384" data-name="Grupo 1180384" transform="translate(0)">
            <path id="Trazado_1034234" data-name="Trazado 1034234" d="M74.534,153.9a2.771,2.771,0,0,1-2.771,2.771H64.676a2.771,2.771,0,0,1,0-5.541h7.087A2.771,2.771,0,0,1,74.534,153.9Z" transform="translate(-61.905 -151.128)" fill="#ca6e59"/>
          </g>
          <g id="Grupo_1180385" data-name="Grupo 1180385">
            <path id="Trazado_1034235" data-name="Trazado 1034235" d="M65.679,153.9a2.771,2.771,0,0,1,2.771-2.771H64.676a2.771,2.771,0,1,0,0,5.541h3.774A2.771,2.771,0,0,1,65.679,153.9Z" transform="translate(-61.905 -151.128)" fill="#bb5d4c"/>
          </g>
        </g>
      </g>
      <g id="Grupo_1180390" data-name="Grupo 1180390" transform="translate(37.155 6.117)">
        <g id="Grupo_1180388" data-name="Grupo 1180388">
          <circle id="Elipse_13299" data-name="Elipse 13299" cx="7.932" cy="7.932" r="7.932" fill="#4fc123"/>
        </g>
        <g id="Grupo_1180389" data-name="Grupo 1180389" transform="translate(0)">
          <path id="Trazado_1034236" data-name="Trazado 1034236" d="M214.174,62.039a7.934,7.934,0,0,1,6.032-7.7,7.932,7.932,0,1,0,0,15.4A7.934,7.934,0,0,1,214.174,62.039Z" transform="translate(-210.372 -54.107)" fill="#47a920"/>
        </g>
      </g>
      <g id="Grupo_1180391" data-name="Grupo 1180391" transform="translate(15.078 0)">
        <path id="Trazado_1034237" data-name="Trazado 1034237" d="M65.866,27H64.5V12.322a.848.848,0,0,0-.874-.848.871.871,0,0,0-.822.883V27H57.122a.848.848,0,0,0,0,1.7h8.743a1.987,1.987,0,0,1,0,3.974H48.544V28.692h4.622a.848.848,0,1,0,0-1.7H48.341a1.494,1.494,0,0,0-1.37.9h-6a1.414,1.414,0,0,0-1.316-.9H37.179a1.414,1.414,0,0,0-1.316.9H32.229v-.728a1.977,1.977,0,0,0-.959-1.692V23.32a3.618,3.618,0,0,0-1.041-7.083H27.37V1.7H62.8v6.67a.848.848,0,0,0,.874.848A.871.871,0,0,0,64.5,8.33V1.413A1.413,1.413,0,0,0,63.088,0h-36a1.413,1.413,0,0,0-1.413,1.413V16.237H23.142A3.618,3.618,0,0,0,22.1,23.32v2.159a1.977,1.977,0,0,0-.959,1.692v7.017A1.977,1.977,0,0,0,22.1,35.88v2.159a3.618,3.618,0,0,0,1.041,7.083h2.532v2.943H19.048a1.981,1.981,0,0,0-1.978,1.978v1.4h-.013a1.981,1.981,0,0,0-1.978,1.978v3.04a1.415,1.415,0,0,0,1.413,1.413h46.6A1.413,1.413,0,0,0,64.5,56.467v-22.1h1.365a3.683,3.683,0,0,0,0-7.366Zm-24.8,2.6h5.778v2.17H41.07Zm-3.608-.9h1.912v3.974H37.462Zm-5.233.9h3.537v2.17H32.229Zm-11.01-9.739a1.925,1.925,0,0,1,1.923-1.923H30.23a1.923,1.923,0,0,1,0,3.845H23.142A1.925,1.925,0,0,1,21.219,19.855Zm1.9,14.616a.283.283,0,0,1-.283-.283V27.171a.283.283,0,0,1,.283-.283h7.13a.283.283,0,0,1,.283.283v7.017a.283.283,0,0,1-.283.283Zm6.454,1.7v1.719H23.8V36.166ZM23.8,25.193V23.473h5.778v1.719Zm-.655,18.234a1.923,1.923,0,1,1,0-3.845H30.23a1.923,1.923,0,0,1,0,3.845ZM36.6,56.184H16.774V53.427a.283.283,0,0,1,.283-.283H22.3a.848.848,0,0,0,0-1.7H18.765v-1.4a.283.283,0,0,1,.283-.283H34.324a.283.283,0,0,1,.283.283v1.4H26.261a.848.848,0,1,0,0,1.7H36.315a.283.283,0,0,1,.283.283Zm26.207,0H38.294V53.427a1.981,1.981,0,0,0-1.978-1.978H36.3v-1.4a1.981,1.981,0,0,0-1.978-1.978H27.37V45.122H30.23a3.618,3.618,0,0,0,1.041-7.083V35.88a1.977,1.977,0,0,0,.959-1.692V33.46h3.634a1.414,1.414,0,0,0,1.316.9h2.478a1.414,1.414,0,0,0,1.316-.9h6a1.494,1.494,0,0,0,1.37.9H62.8V56.184Z" transform="translate(-15.078 0)"/>
        <path id="Trazado_1034238" data-name="Trazado 1034238" d="M202.872,55.387a8.78,8.78,0,1,0,8.78-8.78A8.79,8.79,0,0,0,202.872,55.387Zm15.865,0a7.084,7.084,0,1,1-7.085-7.085A7.093,7.093,0,0,1,218.737,55.387Z" transform="translate(-181.643 -41.338)"/>
        <path id="Trazado_1034239" data-name="Trazado 1034239" d="M247.791,102.842a.848.848,0,1,0-1.2,1.2l2.608,2.608a.848.848,0,0,0,1.2,0l4.042-4.042a.848.848,0,1,0-1.2-1.2L249.8,104.85Z" transform="translate(-220.2 -89.724)"/>
        <path id="Trazado_1034240" data-name="Trazado 1034240" d="M243.681,327.917a.848.848,0,0,0,.848.848h15.592a.848.848,0,1,0,0-1.7H244.529A.848.848,0,0,0,243.681,327.917Z" transform="translate(-217.838 -290.095)"/>
        <path id="Trazado_1034241" data-name="Trazado 1034241" d="M319.387,363.546h-8.039a.848.848,0,1,0,0,1.7h8.039a.848.848,0,0,0,0-1.7Z" transform="translate(-277.104 -322.448)"/>
        <path id="Trazado_1034242" data-name="Trazado 1034242" d="M244.529,365.242h4.614a.848.848,0,1,0,0-1.7h-4.614a.848.848,0,1,0,0,1.7Z" transform="translate(-217.838 -322.448)"/>
        <path id="Trazado_1034243" data-name="Trazado 1034243" d="M260.12,400.023H244.528a.848.848,0,0,0,0,1.7H260.12a.848.848,0,1,0,0-1.7Z" transform="translate(-217.837 -354.802)"/>
        <path id="Trazado_1034244" data-name="Trazado 1034244" d="M350.43,436.5h-4.082a.848.848,0,0,0,0,1.7h4.082a.848.848,0,0,0,0-1.7Z" transform="translate(-308.147 -387.155)"/>
        <path id="Trazado_1034245" data-name="Trazado 1034245" d="M253.439,436.5h-8.91a.848.848,0,1,0,0,1.7h8.91a.848.848,0,0,0,0-1.7Z" transform="translate(-217.838 -387.155)"/>
      </g>
    </g>
  </g>
</svg>
