<svg xmlns="http://www.w3.org/2000/svg" xmlns:xlink="http://www.w3.org/1999/xlink" width="108" height="108" viewBox="0 0 108 108">
  <defs>
    <filter id="Trazado_904820" x="0" y="0" width="108" height="108" filterUnits="userSpaceOnUse">
      <feOffset dy="3" input="SourceAlpha"/>
      <feGaussianBlur stdDeviation="3" result="blur"/>
      <feFlood flood-opacity="0.161"/>
      <feComposite operator="in" in2="blur"/>
      <feComposite in="SourceGraphic"/>
    </filter>
  </defs>
  <g id="Grupo_1180348" data-name="Grupo 1180348" transform="translate(-200.461 -323)">
    <g id="Grupo_1174900" data-name="Grupo 1174900" transform="translate(0.006 -432.67)">
      <g id="Grupo_1173787" data-name="Grupo 1173787" transform="translate(209.455 761.67)">
        <g id="Grupo_1171910" data-name="Grupo 1171910" transform="translate(0)">
          <g id="Grupo_1167341" data-name="Grupo 1167341">
            <g id="Grupo_1166792" data-name="Grupo 1166792">
              <g transform="matrix(1, 0, 0, 1, -9, -6)" filter="url(#Trazado_904820)">
                <g id="Trazado_904820-2" data-name="Trazado 904820" transform="translate(9 6)" fill="#e9f9fd">
                  <path d="M 44.99999618530273 88.50003051757812 C 39.12687301635742 88.50003051757812 33.43022155761719 87.35010528564453 28.06829643249512 85.08219909667969 C 22.88852119445801 82.89134216308594 18.23629570007324 79.75461578369141 14.24084663391113 75.75916290283203 C 10.24540901184082 71.76371765136719 7.108683586120605 67.11150360107422 4.917821407318115 61.93172836303711 C 2.649921178817749 56.56978988647461 1.499996185302734 50.87313842773438 1.499996185302734 45.00001525878906 C 1.499996185302734 39.12689208984375 2.649921178817749 33.43024063110352 4.917821407318115 28.06831550598145 C 7.108683586120605 22.88854026794434 10.24540901184082 18.23631477355957 14.24084663391113 14.24086570739746 C 18.23629570007324 10.24541568756104 22.88852119445801 7.10869026184082 28.06829643249512 4.917840480804443 C 33.43022155761719 2.649927854537964 39.12687301635742 1.50000274181366 44.99999618530273 1.50000274181366 C 50.87311935424805 1.50000274181366 56.56977081298828 2.649927854537964 61.93169784545898 4.917840480804443 C 67.11147308349609 7.10869026184082 71.76369476318359 10.24541568756104 75.75914764404297 14.24086570739746 C 79.75458526611328 18.23631477355957 82.89131164550781 22.88854026794434 85.08216857910156 28.06831550598145 C 87.35007476806641 33.43024063110352 88.5 39.12689208984375 88.5 45.00001525878906 C 88.5 50.87313842773438 87.35007476806641 56.56978988647461 85.08216857910156 61.93172836303711 C 82.89131164550781 67.11150360107422 79.75458526611328 71.76371765136719 75.75914764404297 75.75916290283203 C 71.76369476318359 79.75461578369141 67.11147308349609 82.89134216308594 61.93169784545898 85.08219909667969 C 56.56977081298828 87.35010528564453 50.87311935424805 88.50003051757812 44.99999618530273 88.50003051757812 Z" stroke="none"/>
                  <path d="M 44.99999618530273 3 C 39.32870864868164 3 33.82865142822266 4.110061645507812 28.65262603759766 6.299346923828125 C 23.65165710449219 8.414573669433594 19.15968322753906 11.44334411621094 15.301513671875 15.301513671875 C 11.44333648681641 19.15968322753906 8.414566040039062 23.65165710449219 6.299339294433594 28.65262985229492 C 4.110054016113281 33.82867050170898 2.999992370605469 39.32872772216797 2.999992370605469 45.00001525878906 C 2.999992370605469 50.67130279541016 4.110054016113281 56.17136001586914 6.299339294433594 61.34738922119141 C 8.414566040039062 66.34837341308594 11.44333648681641 70.84033203125 15.301513671875 74.69850158691406 C 19.15968322753906 78.55668640136719 23.65165710449219 81.58545684814453 28.65262603759766 83.70068359375 C 33.82865142822266 85.88996887207031 39.32870864868164 87.00003051757812 44.99999618530273 87.00003051757812 C 50.67128372192383 87.00003051757812 56.17134094238281 85.88996887207031 61.34736633300781 83.70068359375 C 66.34834289550781 81.58545684814453 70.84030914306641 78.55668640136719 74.69847869873047 74.69850158691406 C 78.55665588378906 70.84033203125 81.58542633056641 66.34837341308594 83.70065307617188 61.34738922119141 C 85.88993835449219 56.17136001586914 87 50.67130279541016 87 45.00001525878906 C 87 39.32872772216797 85.88993835449219 33.82867050170898 83.70065307617188 28.65262985229492 C 81.58542633056641 23.65165710449219 78.55665588378906 19.15968322753906 74.69847869873047 15.301513671875 C 70.84030914306641 11.44334411621094 66.34834289550781 8.414573669433594 61.34736633300781 6.299346923828125 C 56.17134094238281 4.110061645507812 50.67128372192383 3 44.99999618530273 3 M 44.99999618530273 0 C 69.85281372070312 0 90 20.14718627929688 90 45.00001525878906 C 90 69.85282897949219 69.85281372070312 90.00003051757812 44.99999618530273 90.00003051757812 C 20.14717864990234 90.00003051757812 -7.62939453125e-06 69.85282897949219 -7.62939453125e-06 45.00001525878906 C -7.62939453125e-06 20.14718627929688 20.14717864990234 0 44.99999618530273 0 Z" stroke="none" fill="#1d7083"/>
                </g>
              </g>
            </g>
          </g>
        </g>
      </g>
    </g>
    <g id="red" transform="translate(226.461 346)">
      <g id="Grupo_1180320" data-name="Grupo 1180320" transform="translate(41.114 34.981)">
        <g id="Grupo_1180316" data-name="Grupo 1180316" transform="translate(0 8.761)">
          <path id="Trazado_1034171" data-name="Trazado 1034171" d="M379.24,407.426v4.819h13.58v-4.819a3.943,3.943,0,0,0-3.942-3.942h-5.695A3.942,3.942,0,0,0,379.24,407.426Z" transform="translate(-379.24 -403.484)" fill="#e69642"/>
        </g>
        <g id="Grupo_1180317" data-name="Grupo 1180317" transform="translate(6.79 8.761)">
          <path id="Trazado_1034172" data-name="Trazado 1034172" d="M444.717,403.484H441.87a3.942,3.942,0,0,1,3.943,3.942v4.819h2.847v-4.819A3.942,3.942,0,0,0,444.717,403.484Z" transform="translate(-441.87 -403.484)" fill="#e38523"/>
        </g>
        <g id="Grupo_1180318" data-name="Grupo 1180318" transform="translate(2.409)">
          <circle id="Elipse_13290" data-name="Elipse 13290" cx="4.381" cy="4.381" r="4.381" fill="#fed2a4"/>
        </g>
        <g id="Grupo_1180319" data-name="Grupo 1180319" transform="translate(2.923 0.514)">
          <path id="Trazado_1034173" data-name="Trazado 1034173" d="M412.132,327.413a4.381,4.381,0,0,1-5.926,5.926,4.381,4.381,0,1,0,5.926-5.926Z" transform="translate(-406.206 -327.413)" fill="#ffbd86"/>
        </g>
      </g>
      <g id="Grupo_1180325" data-name="Grupo 1180325" transform="translate(0.813 34.981)">
        <g id="Grupo_1180321" data-name="Grupo 1180321" transform="translate(0 8.761)">
          <path id="Trazado_1034174" data-name="Trazado 1034174" d="M7.5,407.426v4.819H21.08v-4.819a3.943,3.943,0,0,0-3.942-3.942H11.442A3.942,3.942,0,0,0,7.5,407.426Z" transform="translate(-7.5 -403.484)" fill="#ad7fdd"/>
        </g>
        <g id="Grupo_1180322" data-name="Grupo 1180322" transform="translate(6.79 8.761)">
          <path id="Trazado_1034175" data-name="Trazado 1034175" d="M72.977,403.484H70.13a3.942,3.942,0,0,1,3.942,3.942v4.819H76.92v-4.819A3.942,3.942,0,0,0,72.977,403.484Z" transform="translate(-70.13 -403.484)" fill="#9d66d6"/>
        </g>
        <g id="Grupo_1180323" data-name="Grupo 1180323" transform="translate(2.409)">
          <circle id="Elipse_13291" data-name="Elipse 13291" cx="4.381" cy="4.381" r="4.381" fill="#fed2a4"/>
        </g>
        <g id="Grupo_1180324" data-name="Grupo 1180324" transform="translate(2.923 0.514)">
          <path id="Trazado_1034176" data-name="Trazado 1034176" d="M40.391,327.413a4.381,4.381,0,0,1-5.926,5.926,4.381,4.381,0,1,0,5.926-5.926Z" transform="translate(-34.465 -327.413)" fill="#ffbd86"/>
        </g>
      </g>
      <g id="Grupo_1180330" data-name="Grupo 1180330" transform="translate(41.114 3.003)">
        <g id="Grupo_1180326" data-name="Grupo 1180326" transform="translate(0 8.761)">
          <path id="Trazado_1034177" data-name="Trazado 1034177" d="M379.24,112.459v4.819h13.58v-4.819a3.943,3.943,0,0,0-3.942-3.942h-5.695A3.942,3.942,0,0,0,379.24,112.459Z" transform="translate(-379.24 -108.516)" fill="#62a4fb"/>
        </g>
        <g id="Grupo_1180327" data-name="Grupo 1180327" transform="translate(6.79 8.761)">
          <path id="Trazado_1034178" data-name="Trazado 1034178" d="M444.717,108.516H441.87a3.942,3.942,0,0,1,3.943,3.942v4.819h2.847v-4.819a3.942,3.942,0,0,0-3.942-3.942Z" transform="translate(-441.87 -108.516)" fill="#5392f9"/>
        </g>
        <g id="Grupo_1180328" data-name="Grupo 1180328" transform="translate(2.409)">
          <circle id="Elipse_13292" data-name="Elipse 13292" cx="4.381" cy="4.381" r="4.381" fill="#fed2a4"/>
        </g>
        <g id="Grupo_1180329" data-name="Grupo 1180329" transform="translate(2.923 0.514)">
          <path id="Trazado_1034179" data-name="Trazado 1034179" d="M412.132,32.445a4.381,4.381,0,0,1-5.926,5.926,4.381,4.381,0,1,0,5.926-5.926Z" transform="translate(-406.206 -32.445)" fill="#ffbd86"/>
        </g>
      </g>
      <g id="Grupo_1180335" data-name="Grupo 1180335" transform="translate(0.813 3.003)">
        <g id="Grupo_1180331" data-name="Grupo 1180331" transform="translate(0 8.761)">
          <path id="Trazado_1034180" data-name="Trazado 1034180" d="M7.5,112.459v4.819H21.08v-4.819a3.943,3.943,0,0,0-3.942-3.942H11.442A3.943,3.943,0,0,0,7.5,112.459Z" transform="translate(-7.5 -108.516)" fill="#e175a5"/>
        </g>
        <g id="Grupo_1180332" data-name="Grupo 1180332" transform="translate(6.79 8.761)">
          <path id="Trazado_1034181" data-name="Trazado 1034181" d="M72.977,108.516H70.13a3.942,3.942,0,0,1,3.942,3.942v4.819H76.92v-4.819a3.942,3.942,0,0,0-3.942-3.942Z" transform="translate(-70.13 -108.516)" fill="#de5791"/>
        </g>
        <g id="Grupo_1180333" data-name="Grupo 1180333" transform="translate(2.409)">
          <circle id="Elipse_13293" data-name="Elipse 13293" cx="4.381" cy="4.381" r="4.381" fill="#fed2a4"/>
        </g>
        <g id="Grupo_1180334" data-name="Grupo 1180334" transform="translate(2.923 0.514)">
          <path id="Trazado_1034182" data-name="Trazado 1034182" d="M40.391,32.445a4.381,4.381,0,0,1-5.926,5.926,4.381,4.381,0,1,0,5.926-5.926Z" transform="translate(-34.465 -32.445)" fill="#ffbd86"/>
        </g>
      </g>
      <g id="Grupo_1180342" data-name="Grupo 1180342" transform="translate(19.794 19.794)">
        <g id="Grupo_1180338" data-name="Grupo 1180338">
          <g id="Grupo_1180336" data-name="Grupo 1180336">
            <circle id="Elipse_13294" data-name="Elipse 13294" cx="7.959" cy="7.959" r="7.959" fill="#a2f5c3"/>
          </g>
          <g id="Grupo_1180337" data-name="Grupo 1180337" transform="translate(1.26 1.26)">
            <path id="Trazado_1034183" data-name="Trazado 1034183" d="M205.2,194.2A7.957,7.957,0,0,1,194.2,205.2,7.958,7.958,0,1,0,205.2,194.2Z" transform="translate(-194.204 -194.204)" fill="#88f2a9"/>
          </g>
        </g>
        <g id="Grupo_1180341" data-name="Grupo 1180341" transform="translate(3.906 4.591)">
          <g id="Grupo_1180340" data-name="Grupo 1180340">
            <g id="Grupo_1180339" data-name="Grupo 1180339">
              <path id="Trazado_1034184" data-name="Trazado 1034184" d="M221.737,231.666a1.752,1.752,0,0,1-1.239-.513l-1.369-1.369a1.752,1.752,0,1,1,2.478-2.478l.13.13,1.993-1.993a1.752,1.752,0,1,1,2.478,2.478l-3.232,3.232A1.752,1.752,0,0,1,221.737,231.666Z" transform="translate(-218.616 -224.93)" fill="#e6f7fe"/>
            </g>
          </g>
        </g>
      </g>
      <g id="Grupo_1180343" data-name="Grupo 1180343" transform="translate(24.906 0.813)">
        <circle id="Elipse_13295" data-name="Elipse 13295" cx="2.847" cy="2.847" r="2.847" fill="#a2f5c3"/>
      </g>
      <g id="Grupo_1180344" data-name="Grupo 1180344" transform="translate(48.999 24.906)">
        <circle id="Elipse_13296" data-name="Elipse 13296" cx="2.847" cy="2.847" r="2.847" fill="#a2f5c3"/>
      </g>
      <g id="Grupo_1180345" data-name="Grupo 1180345" transform="translate(0.813 24.906)">
        <circle id="Elipse_13297" data-name="Elipse 13297" cx="2.847" cy="2.847" r="2.847" fill="#a2f5c3"/>
      </g>
      <g id="Grupo_1180346" data-name="Grupo 1180346" transform="translate(24.906 48.999)">
        <circle id="Elipse_13298" data-name="Elipse 13298" cx="2.847" cy="2.847" r="2.847" fill="#a2f5c3"/>
      </g>
      <g id="Grupo_1180347" data-name="Grupo 1180347" transform="translate(0 0)">
        <path id="Trazado_1034185" data-name="Trazado 1034185" d="M54.694,21.338a.813.813,0,0,0,.813-.813V15.707A4.762,4.762,0,0,0,51.6,11.029,5.192,5.192,0,1,0,42.71,7.384c0,.159.008.315.022.47A24.8,24.8,0,0,0,31.372,3.11a3.661,3.661,0,0,0-7.238,0,24.8,24.8,0,0,0-11.36,4.744c.014-.155.022-.312.022-.47a5.194,5.194,0,1,0-8.889,3.645A4.762,4.762,0,0,0,0,15.707v4.819a.813.813,0,0,0,.813.813h2.87a24.848,24.848,0,0,0-.574,2.8,3.661,3.661,0,0,0,0,7.238,24.831,24.831,0,0,0,.981,4.168,5.184,5.184,0,0,0-.183,7.467A4.762,4.762,0,0,0,0,47.685V52.5a.813.813,0,0,0,.813.813h13.58a.813.813,0,0,0,.813-.813V49.27A24.952,24.952,0,0,0,24.134,52.4a3.661,3.661,0,0,0,7.238,0A24.951,24.951,0,0,0,40.3,49.27V52.5a.813.813,0,0,0,.813.813H45.6a.813.813,0,1,0,0-1.626H41.927V47.685a3.133,3.133,0,0,1,3.13-3.13h5.694a3.133,3.133,0,0,1,3.13,3.13V51.69H49.394a.813.813,0,1,0,0,1.626h5.3a.813.813,0,0,0,.813-.813V47.685A4.763,4.763,0,0,0,51.6,43.006a5.184,5.184,0,0,0-.184-7.466,24.833,24.833,0,0,0,.981-4.168,3.661,3.661,0,0,0,0-7.238,24.845,24.845,0,0,0-.574-2.8Zm-.813-5.632v4.005H41.927V15.707a3.133,3.133,0,0,1,3.129-3.129h5.695A3.133,3.133,0,0,1,53.88,15.707ZM47.9,3.816a3.567,3.567,0,1,1-3.567,3.567A3.571,3.571,0,0,1,47.9,3.816Zm-20.15-2.19A2.034,2.034,0,1,1,25.719,3.66,2.037,2.037,0,0,1,27.753,1.626ZM7.6,3.816A3.567,3.567,0,1,1,4.035,7.384,3.571,3.571,0,0,1,7.6,3.816ZM1.626,27.753A2.034,2.034,0,1,1,3.66,29.788a2.037,2.037,0,0,1-2.034-2.034ZM7.6,35.794a3.567,3.567,0,1,1-3.567,3.567A3.571,3.571,0,0,1,7.6,35.794ZM1.626,51.69V47.685a3.133,3.133,0,0,1,3.129-3.129H10.45a3.133,3.133,0,0,1,3.129,3.129V51.69Zm26.127,2.19a2.034,2.034,0,1,1,2.034-2.034A2.037,2.037,0,0,1,27.753,53.88ZM47.92,42.929h-.033a3.567,3.567,0,1,1,.033,0Zm5.96-15.175a2.034,2.034,0,1,1-2.034-2.034A2.037,2.037,0,0,1,53.88,27.753Zm-3.11-3.5a3.661,3.661,0,0,0,0,7A23.221,23.221,0,0,1,50,34.613a5.19,5.19,0,0,0-5.8,8.393,4.764,4.764,0,0,0-3.894,4.347,23.3,23.3,0,0,1-9.061,3.418,3.661,3.661,0,0,0-7,0,23.306,23.306,0,0,1-9.061-3.418A4.763,4.763,0,0,0,11.3,43.006a5.19,5.19,0,0,0-5.8-8.393,23.22,23.22,0,0,1-.767-3.361,3.661,3.661,0,0,0,0-7,23.2,23.2,0,0,1,.634-2.916H7.015a.813.813,0,1,0,0-1.626H1.626V15.707a3.133,3.133,0,0,1,3.13-3.129H10.45a3.133,3.133,0,0,1,3.13,3.129v4.006H10.81a.813.813,0,1,0,0,1.626h3.583a.813.813,0,0,0,.813-.813V15.707a4.762,4.762,0,0,0-3.691-4.633,23.2,23.2,0,0,1,12.74-6.337,3.661,3.661,0,0,0,7,0,23.2,23.2,0,0,1,12.739,6.336A4.763,4.763,0,0,0,40.3,15.707v4.819a.813.813,0,0,0,.813.813h9.023a23.188,23.188,0,0,1,.634,2.916Z" transform="translate(0 0)"/>
        <path id="Trazado_1034186" data-name="Trazado 1034186" d="M190.242,179.033a.813.813,0,0,0-.271,1.117,7.141,7.141,0,1,1-2.4-2.4.813.813,0,0,0,.846-1.389,8.767,8.767,0,1,0,2.94,2.94A.813.813,0,0,0,190.242,179.033Z" transform="translate(-156.109 -156.108)"/>
        <path id="Trazado_1034187" data-name="Trazado 1034187" d="M218.284,217.43a2.548,2.548,0,0,0-1.814.751L215,219.654a2.566,2.566,0,0,0-3.128,4.018l1.369,1.369a2.565,2.565,0,0,0,3.628,0l3.232-3.232a2.565,2.565,0,0,0-1.814-4.379Zm.664,3.229-3.232,3.232a.939.939,0,0,1-1.328,0l-1.369-1.369a.939.939,0,1,1,1.328-1.328l.13.13a.813.813,0,0,0,1.15,0l1.993-1.993a.939.939,0,1,1,1.328,1.328Z" transform="translate(-188.23 -193.858)"/>
        <path id="Trazado_1034188" data-name="Trazado 1034188" d="M249.313,92.721a.813.813,0,0,0,.813-.813V85.666a.813.813,0,0,0-1.626,0v6.242A.813.813,0,0,0,249.313,92.721Z" transform="translate(-221.56 -75.654)"/>
        <path id="Trazado_1034189" data-name="Trazado 1034189" d="M354.567,249.313a.813.813,0,0,0,.813.813h6.242a.813.813,0,0,0,0-1.626H355.38A.813.813,0,0,0,354.567,249.313Z" transform="translate(-316.128 -221.56)"/>
        <path id="Trazado_1034190" data-name="Trazado 1034190" d="M249.313,354.567a.813.813,0,0,0-.813.813v6.242a.813.813,0,0,0,1.626,0V355.38A.813.813,0,0,0,249.313,354.567Z" transform="translate(-221.56 -316.128)"/>
        <path id="Trazado_1034191" data-name="Trazado 1034191" d="M91.909,248.5H85.667a.813.813,0,0,0,0,1.626h6.242a.813.813,0,0,0,0-1.626Z" transform="translate(-75.655 -221.56)"/>
      </g>
    </g>
  </g>
</svg>
