<svg xmlns="http://www.w3.org/2000/svg" xmlns:xlink="http://www.w3.org/1999/xlink" width="295" height="184.781" viewBox="0 0 295 184.781">
  <defs>
    <clipPath id="clip-path">
      <rect id="Rectángulo_414967" data-name="Rectángulo 414967" width="295" height="172" transform="translate(705.461 1414)" fill="#fff" stroke="#707070" stroke-width="1" opacity="0.72"/>
    </clipPath>
  </defs>
  <g id="Grupo_1180535" data-name="Grupo 1180535" transform="translate(-705.461 -1414)">
    <path id="Trazado_1039539" data-name="Trazado 1039539" d="M439.66,634.634c-3.609,13.09-13.616,26.464-24.1,35.122H231.75a66.09,66.09,0,0,1-13-8.3c-6.727-5.47-13.032-12.857-15.874-22.794-4.18-14.62.019-31.237,5.975-44.67a128.477,128.477,0,0,1,22.532-34.953c6.347-6.891,13.418-12.743,21.193-15.928,6.468-2.649,13.268-3.4,20.017-3.811a215.164,215.164,0,0,1,74.528,8.648c5.764,1.712,11.538,3.674,17.435,3.912,7.427.3,14.774-2.15,22.2-2.431,15.179-.575,30.41,8.459,40.432,23.98C436.185,587.341,444.815,615.938,439.66,634.634Z" transform="translate(545.187 918.243)" fill="#fff4e6"/>
    <g id="Grupo_1180534" data-name="Grupo 1180534">
      <g id="Enmascarar_grupo_1098805" data-name="Enmascarar grupo 1098805" clip-path="url(#clip-path)">
        <g id="Grupo_1180532" data-name="Grupo 1180532" transform="translate(-4657.885 2254.665)">
          <path id="Trazado_1035939" data-name="Trazado 1035939" d="M1327.256,99.7s4.721,28.076-8.675,32.626l38.218,1.406,9.143-14.569-19.536-16.02Z" transform="translate(4188.675 -911.454)" fill="#fd521b"/>
          <path id="Trazado_1035940" data-name="Trazado 1035940" d="M1322.859,260.017c-12.54,14.164-12.167,55.945-12.167,55.945H1393.2s-4.513-37.288-15.093-58.59c-6.484-13.056-43.992-10.066-55.246,2.645" transform="translate(4191.958 -973.555)"/>
          <path id="Trazado_1035941" data-name="Trazado 1035941" d="M1323.273,280.643a.292.292,0,0,1-.018-.583l63.047-3.871a.3.3,0,0,1,.309.273.292.292,0,0,1-.274.309l-63.047,3.871h-.017" transform="translate(4186.843 -984.905)" fill="#fff"/>
          <path id="Trazado_1035942" data-name="Trazado 1035942" d="M1351.777,304.219a.292.292,0,0,1-.288-.248c-1.635-10.735,1.287-35.745,1.318-36a.292.292,0,1,1,.579.068c-.029.25-2.943,25.183-1.32,35.841a.291.291,0,0,1-.245.332.28.28,0,0,1-.044,0" transform="translate(4175.186 -981.379)" fill="#fff"/>
          <path id="Trazado_1035943" data-name="Trazado 1035943" d="M1365.456,302.375a.292.292,0,0,1-.288-.251c-1.527-10.77,1.289-35.742,1.318-35.993a.292.292,0,0,1,.58.066c-.028.25-2.837,25.148-1.32,35.845a.291.291,0,0,1-.248.33l-.042,0" transform="translate(4169.475 -980.612)" fill="#fff"/>
          <path id="Trazado_1035944" data-name="Trazado 1035944" d="M1359.472,274.205a2.092,2.092,0,1,1,2.092-2.091,2.093,2.093,0,0,1-2.092,2.091m0-3.6a1.508,1.508,0,1,0,1.508,1.508,1.509,1.509,0,0,0-1.508-1.508" transform="translate(4172.527 -982.339)" fill="#fff"/>
          <path id="Trazado_1035945" data-name="Trazado 1035945" d="M1422.386,296.978c-4.508,0-8.128-1.4-10.764-4.153-5.128-5.362-4.736-14.155-4.732-14.243a.292.292,0,1,1,.583.03c0,.086-.381,8.635,4.574,13.812,2.521,2.635,6,3.971,10.34,3.971.05,0,.126,0,.15,0a.292.292,0,0,1,0,.584h-.153" transform="translate(4151.926 -985.786)" fill="#fff"/>
          <path id="Trazado_1035946" data-name="Trazado 1035946" d="M1357.285,120.614l3.267,16.444,13.231-1.071-3.106-22.39Z" transform="translate(4172.566 -917.237)" fill="#ffac99"/>
          <path id="Trazado_1035947" data-name="Trazado 1035947" d="M1358.554,128.011c9.9-1.016,12.078-11.13,12.078-11.13l-2.656-.861-10.692,5.6Z" transform="translate(4172.566 -918.245)"/>
          <path id="Trazado_1035948" data-name="Trazado 1035948" d="M1335.916,71.244c-3.436,4.037-5.359,10.767-5.323,21.861.041,12.654,22.5,17.507,32.829-1.284,7.465-13.587-4.037-25.778-9.135-24.907,0,0-12.873-2.13-18.37,4.33" transform="translate(4183.675 -897.668)" fill="#ffac99"/>
          <path id="Trazado_1035949" data-name="Trazado 1035949" d="M1338.431,99.253a.293.293,0,0,1-.276-.2l-1.119-3.2a.292.292,0,0,1,.41-.356L1340,96.822a.292.292,0,0,1-.268.519l-1.907-.984.877,2.507a.292.292,0,0,1-.276.388" transform="translate(4181 -909.693)"/>
          <path id="Trazado_1035950" data-name="Trazado 1035950" d="M1341.727,111.995a6.094,6.094,0,0,1-3.865-1.636.292.292,0,1,1,.408-.417,5.483,5.483,0,0,0,3.73,1.46,4.948,4.948,0,0,0,3.511-2.189.292.292,0,1,1,.462.357,5.494,5.494,0,0,1-3.937,2.415c-.1.008-.207.011-.309.011" transform="translate(4180.687 -915.365)"/>
          <path id="Trazado_1035951" data-name="Trazado 1035951" d="M1353.808,98.534a3.574,3.574,0,0,1-.685-.066,4.7,4.7,0,0,1-3.069-2.66.292.292,0,0,1,.538-.228,4.177,4.177,0,0,0,2.647,2.316c1.44.277,3.1-.518,4.954-2.369a.292.292,0,0,1,.413.413c-1.724,1.724-3.334,2.594-4.8,2.594" transform="translate(4175.585 -909.665)"/>
          <path id="Trazado_1035952" data-name="Trazado 1035952" d="M1333.277,97.147a1.423,1.423,0,0,1-.179-.011c-.824-.1-1.467-.886-1.913-2.328a.292.292,0,0,1,.558-.172c.256.827.711,1.833,1.428,1.921,1.025.133,2.264-1.529,2.657-2.178a.292.292,0,0,1,.5.3c-.064.1-1.516,2.465-3.05,2.465" transform="translate(4183.435 -909.18)"/>
          <path id="Trazado_1035953" data-name="Trazado 1035953" d="M1323.52,141.863l-17.046,3.193-.108,3.842-19.642,2.384a29.749,29.749,0,0,0-17.76,9.464c-13.1,14.465-36.6,47.027-35.254,64.206,1.8,23.02,34.219,31.047,45.795,29.479s3.3-17.216,3.3-17.216-4.025-10.927-16.72-17.873l13.18-18.484s3.646,13.17,10.012,16.3l56.77-4.335c8.846-5.083,7.814-16.35,7.814-16.35l21.334,21.187s-15.613,11.463-21.93,22.4l4.12,11.9s44.664-1.575,52.872-29.065c5.337-17.873-30.7-52.5-48.437-68.581-5.252-4.764-12.721-6.257-19.808-6.045l-17.586-.191Z" transform="translate(4224.019 -929.001)" fill="#ff9d1c"/>
          <path id="Trazado_1036735" data-name="Trazado 1036735" d="M1414.036,177.714l1.684,19.858,2.77,11.8-15.305,8.894-14.236-32.712,5.779-12.686Z" transform="translate(4159.389 -941.904)" fill="#ff9d1c"/>
          <path id="Trazado_1036736" data-name="Trazado 1036736" d="M1458.994,274.157s16.275-14.844,27.41-16.529,13.36,16.529,13.36,16.529l-20.993,14.494h-14.835Z" transform="translate(4130.237 -977.135)" fill="#ff9d1c"/>
          <path id="Trazado_1036737" data-name="Trazado 1036737" d="M1474.706,265.641a.292.292,0,0,1-.19-.513c6.4-5.508,20.936-9.261,21.082-9.3a.292.292,0,1,1,.145.566c-.145.037-14.546,3.757-20.846,9.175a.293.293,0,0,1-.19.071" transform="translate(4123.819 -976.428)" fill="#fff"/>
          <path id="Trazado_1036738" data-name="Trazado 1036738" d="M1437.2,187.391h-.013a.292.292,0,0,1-.279-.3l1.451-31.725a.292.292,0,1,1,.583.027l-1.451,31.725a.291.291,0,0,1-.291.278" transform="translate(4139.428 -934.502)" fill="#fff"/>
          <path id="Trazado_1036739" data-name="Trazado 1036739" d="M1310.366,230.778a.293.293,0,0,1-.279-.2c-.026-.086-2.677-8.733-1.305-17.27a.292.292,0,0,1,.577.093c-1.351,8.4,1.26,16.918,1.287,17a.292.292,0,0,1-.193.365.275.275,0,0,1-.087.013" transform="translate(4192.917 -958.631)" fill="#fff"/>
          <path id="Trazado_1036740" data-name="Trazado 1036740" d="M1309.743,189.882a.291.291,0,0,1-.288-.252l-2.755-20.111a.292.292,0,1,1,.578-.079l2.755,20.111a.29.29,0,0,1-.29.332" transform="translate(4193.621 -940.373)" fill="#fff"/>
          <path id="Trazado_1036741" data-name="Trazado 1036741" d="M1273.634,270.2a.289.289,0,0,1-.16-.048,46.08,46.08,0,0,0-21.4-6.2.291.291,0,0,1-.278-.3.274.274,0,0,1,.3-.279,46.667,46.667,0,0,1,21.69,6.3.292.292,0,0,1-.161.535" transform="translate(4216.468 -979.566)" fill="#fff"/>
          <path id="Trazado_1036742" data-name="Trazado 1036742" d="M1270.319,263.277a.292.292,0,0,1-.225-.106c-5.863-7.074-16.209-7.329-16.313-7.331a.292.292,0,0,1-.287-.3.316.316,0,0,1,.3-.287c.107,0,10.717.258,16.754,7.542a.292.292,0,0,1-.224.478" transform="translate(4215.763 -976.194)" fill="#fff"/>
          <path id="Trazado_1036743" data-name="Trazado 1036743" d="M1357.545,84.624a.292.292,0,0,1-.2-.075,4.493,4.493,0,0,0-5.949-.325.292.292,0,0,1-.372-.451,5.145,5.145,0,0,1,6.711.342.292.292,0,0,1-.194.509" transform="translate(4175.214 -904.366)"/>
          <path id="Trazado_1036744" data-name="Trazado 1036744" d="M1338.345,84a.292.292,0,0,1-.224-.1,2.653,2.653,0,0,0-3.718-.467.292.292,0,0,1-.359-.461c2.44-1.9,4.505.53,4.526.555a.292.292,0,0,1-.225.478" transform="translate(4182.285 -904.188)"/>
          <path id="Trazado_1036746" data-name="Trazado 1036746" d="M1319.664,296.219l-8.663-.563c-1.442-.094-2.63,1.334-2.641,3.172-.01,1.891,1.227,3.45,2.708,3.413l8.655-.218c1.272-.032,2.245-1.388,2.162-3.011a2.737,2.737,0,0,0-2.221-2.792" transform="translate(4192.928 -993.006)" fill="#ffa992"/>
          <path id="Trazado_1036747" data-name="Trazado 1036747" d="M1319.822,312.5l-10.358.08a2.7,2.7,0,0,1-2.4-2.422l-.057-.292c-.377-1.938.733-3.764,2.268-3.733l10.415.212c1.25.026,2.3,1.3,2.414,2.911.119,1.755-.92,3.234-2.279,3.244" transform="translate(4193.523 -997.37)" fill="#ffa992"/>
          <path id="Trazado_1036748" data-name="Trazado 1036748" d="M1320.818,319.185h0a2.428,2.428,0,0,0-2.1-2.381l-6.9-.268a2.373,2.373,0,0,0-2.235,2.318l-.077.68c-.188,1.668.9,3.136,2.27,3.055l6.972-.412a2.574,2.574,0,0,0,2.068-2.992" transform="translate(4192.459 -1001.697)" fill="#ffa992"/>
          <path id="Trazado_1036749" data-name="Trazado 1036749" d="M1319.988,328.027h0a2.036,2.036,0,0,0-1.735-1.754l-5.693-.082c-.929-.013-1.64.969-1.6,2.206l.027.78c.048,1.357.976,2.441,1.983,2.317l5.666-.7c1.02-.126,1.655-1.43,1.349-2.768" transform="translate(4191.846 -1005.716)" fill="#ffa992"/>
          <path id="Trazado_1036750" data-name="Trazado 1036750" d="M1325.881,302.443a2.156,2.156,0,1,1,2.323-2.164,2.24,2.24,0,0,1-2.323,2.164" transform="translate(4186.611 -994.043)"/>
          <path id="Trazado_1036751" data-name="Trazado 1036751" d="M1327.029,312.311a2.166,2.166,0,1,1,2.422-2.165,2.3,2.3,0,0,1-2.422,2.165" transform="translate(4186.174 -998.15)"/>
          <path id="Trazado_1036752" data-name="Trazado 1036752" d="M1323.861,321.97a1.746,1.746,0,1,1,2.011-1.738,1.884,1.884,0,0,1-2.011,1.738" transform="translate(4187.32 -1002.523)"/>
          <path id="Trazado_1036753" data-name="Trazado 1036753" d="M1322.8,330.853a1.439,1.439,0,1,1,1.544-1.444,1.492,1.492,0,0,1-1.544,1.444" transform="translate(4187.565 -1006.462)"/>
          <path id="Trazado_1036754" data-name="Trazado 1036754" d="M1310.088,306.187a.2.2,0,0,1,.01-.127.124.124,0,0,1,.183-.069,3.257,3.257,0,0,0,1.5.378l9.165-.1a.17.17,0,0,1,0,.333l-9.163.1a3.424,3.424,0,0,1-1.632-.417.164.164,0,0,1-.066-.1" transform="translate(4192.212 -997.301)"/>
          <path id="Trazado_1036755" data-name="Trazado 1036755" d="M1311.633,306.746a3.543,3.543,0,0,1-1.663-.441.31.31,0,0,1-.127-.186v0a.351.351,0,0,1,.017-.217.292.292,0,0,1,.181-.167.266.266,0,0,1,.217.033,3.138,3.138,0,0,0,1.417.354l9.167-.1h0a.314.314,0,0,1,0,.625l-9.163.1h-.051m-1.507-.7a.051.051,0,0,0,.006.013,3.259,3.259,0,0,0,1.547.392l9.166-.1-.018-.047-9.146.107a3.482,3.482,0,0,1-1.582-.4l-.113.074Z" transform="translate(4192.315 -997.197)"/>
          <path id="Trazado_1036756" data-name="Trazado 1036756" d="M1310.928,317.314a.192.192,0,0,1-.005-.064.146.146,0,0,1,.147-.151c.565.064,2.773.126,3.179.114l5.471-.166a.151.151,0,0,1,.139.162.156.156,0,0,1-.132.171l-5.471.166c-.41.012-2.64-.051-3.21-.116a.145.145,0,0,1-.117-.117" transform="translate(4191.861 -1001.91)"/>
          <path id="Trazado_1036757" data-name="Trazado 1036757" d="M1314.015,317.59c-.636,0-2.562-.058-3.091-.118a.286.286,0,0,1-.242-.227.334.334,0,0,1-.009-.111.319.319,0,0,1,.112-.224.265.265,0,0,1,.2-.06c.557.063,2.745.126,3.158.113l5.471-.166a.294.294,0,0,1,.192.075.326.326,0,0,1,.1.231.3.3,0,0,1-.274.319l-5.471.167-.141,0m-3.065-.45.016.035a.023.023,0,0,0,.006.012c.555.06,2.766.123,3.175.109l5.471-.167-.016-.047-5.453.172c-.411.015-2.634-.051-3.2-.115" transform="translate(4191.967 -1001.806)"/>
          <path id="Trazado_1036758" data-name="Trazado 1036758" d="M1311.743,326.721a.206.206,0,0,1-.005-.064.146.146,0,0,1,.148-.151c.558.064,3.919-.068,4.479-.118.522-.047,2.234-.12,2.306-.123a.15.15,0,0,1,.14.161.156.156,0,0,1-.131.172c-.018,0-1.779.075-2.3.122s-3.921.186-4.523.117a.146.146,0,0,1-.117-.117" transform="translate(4191.522 -1005.747)"/>
          <path id="Trazado_1036759" data-name="Trazado 1036759" d="M1312.375,326.9c-.29,0-.516-.006-.635-.02a.287.287,0,0,1-.242-.226.359.359,0,0,1-.009-.112.32.32,0,0,1,.112-.223.271.271,0,0,1,.2-.061c.553.064,3.893-.067,4.45-.118.54-.048,2.3-.123,2.313-.123a.274.274,0,0,1,.192.073.33.33,0,0,1,.1.23.3.3,0,0,1-.271.322c-.016,0-1.775.075-2.289.121-.423.039-2.719.137-3.919.137m-.61-.351.016.035a.038.038,0,0,0,.005.012c.553.058,3.921-.072,4.481-.123.518-.047,2.29-.122,2.3-.123l-.017-.047c-.152.013-1.788.084-2.28.128-.563.051-3.946.183-4.508.117" transform="translate(4191.627 -1005.643)"/>
          <path id="Trazado_1036760" data-name="Trazado 1036760" d="M1437.662,298.19a19.748,19.748,0,0,0-.008-3.629,6.269,6.269,0,0,0-6.965-5.653l-9.33,1.072a1.9,1.9,0,0,0-1.611,2.4,3.433,3.433,0,0,0,3.5,2.517l6.316-.264Z" transform="translate(4146.599 -990.182)" fill="#ffa992"/>
          <path id="Trazado_1036761" data-name="Trazado 1036761" d="M1435.515,310.314l1.75-3.293a3.6,3.6,0,0,0,.426-1.519,5.987,5.987,0,0,0-3.021-5.479l-1.518-.864a7.831,7.831,0,0,0-7.052-.349l-6.844,3.036c-3.305,1.469-1.344,4.726,1.632,5.16a6.308,6.308,0,0,0,.9.068c2.69,0,8.151-2.412,8.151-2.412Z" transform="translate(4147.491 -994.039)" fill="#ffa992"/>
          <path id="Trazado_1036762" data-name="Trazado 1036762" d="M1437.391,315.989s1.459-4.928.647-6.691a5.711,5.711,0,0,0-7.75-2.794l-7.649,3.871a1.785,1.785,0,0,0-.621,2.615,3.224,3.224,0,0,0,1.547,1.19,3.1,3.1,0,0,0,2.242-.07l5.324-2.214Z" transform="translate(4145.763 -997.271)" fill="#ffa992"/>
          <path id="Trazado_1036763" data-name="Trazado 1036763" d="M1439.574,318.5c-.575-3.137-3.44-4.754-5.943-3.668l-6.681,2.9a1.959,1.959,0,0,0-.826,2.5,2.857,2.857,0,0,0,1.109,1.354,2.135,2.135,0,0,0,1.828.2l3.249-1.287c4.477-1.506,4.78.823,5.656,5.972,0,0,2.347-3.935,1.608-7.964" transform="translate(4143.982 -1000.848)" fill="#ffa992"/>
          <path id="Trazado_1036764" data-name="Trazado 1036764" d="M1420.926,293.737a1.86,1.86,0,0,1-1.511-1.507,1.57,1.57,0,0,1,.729-1.331,3.417,3.417,0,0,1,1.823-.609c1.463-.082,2.7.656,2.753,1.645s-1.091,1.857-2.552,1.939a3.668,3.668,0,0,1-1.242-.136" transform="translate(4146.71 -990.771)"/>
          <path id="Trazado_1036765" data-name="Trazado 1036765" d="M1419.332,307.969a1.989,1.989,0,0,1-1.427-1.265,1.941,1.941,0,0,1,.409-1.767,3.693,3.693,0,0,1,1.85-1.223c1.6-.489,3.191.056,3.546,1.215s-.659,2.5-2.259,2.99a3.733,3.733,0,0,1-2.118.05" transform="translate(4147.367 -996.286)"/>
          <path id="Trazado_1036766" data-name="Trazado 1036766" d="M1422.956,316.23a1.594,1.594,0,0,1-1.082-.891,1.674,1.674,0,0,1,.249-1.587,3.773,3.773,0,0,1,3.6-1.492,1.538,1.538,0,0,1,1.05,2.53,3.77,3.77,0,0,1-3.6,1.493c-.075-.015-.148-.033-.218-.053" transform="translate(4145.729 -999.896)"/>
          <path id="Trazado_1036767" data-name="Trazado 1036767" d="M1427.046,322.809a1.513,1.513,0,0,1-1.022-.835c-.379-.914.394-2.108,1.725-2.659a3.307,3.307,0,0,1,1.879-.231,1.573,1.573,0,0,1,1.221.888c.38.914-.393,2.107-1.724,2.659a3.2,3.2,0,0,1-2.079.178" transform="translate(4143.998 -1002.737)"/>
          <path id="Trazado_1036768" data-name="Trazado 1036768" d="M1426,320.261a.12.12,0,0,1-.078-.069,2.088,2.088,0,0,1,.89-2.655l6.681-2.9a4.138,4.138,0,0,1,3.613.149,5.032,5.032,0,0,1,2.5,3.608.121.121,0,1,1-.237.044A4.793,4.793,0,0,0,1437,315a3.845,3.845,0,0,0-3.4-.141l-6.681,2.9a1.837,1.837,0,0,0-.763,2.341.121.121,0,0,1-.145.162" transform="translate(4144.066 -1000.765)"/>
          <path id="Trazado_1036769" data-name="Trazado 1036769" d="M1425.883,320.328a.364.364,0,0,1-.094-.013h0a.341.341,0,0,1-.215-.194,2.315,2.315,0,0,1,1-2.941l6.681-2.9a4.354,4.354,0,0,1,3.8.157,5.252,5.252,0,0,1,2.609,3.762.341.341,0,0,1-.271.4.345.345,0,0,1-.4-.272,4.577,4.577,0,0,0-2.261-3.285,3.63,3.63,0,0,0-3.213-.132l-6.682,2.9a1.632,1.632,0,0,0-.648,2.055.34.34,0,0,1-.182.444.344.344,0,0,1-.132.026" transform="translate(4144.221 -1000.608)"/>
          <path id="Trazado_1036770" data-name="Trazado 1036770" d="M1423.2,310.43a.121.121,0,0,1-.02-.224l7.648-3.871a6.137,6.137,0,0,1,5.822.33,5.212,5.212,0,0,1,2.311,4.939.12.12,0,0,1-.241-.009,4.982,4.982,0,0,0-2.2-4.727,5.885,5.885,0,0,0-5.582-.318l-7.649,3.871a.119.119,0,0,1-.088.008" transform="translate(4145.171 -997.21)"/>
          <path id="Trazado_1036771" data-name="Trazado 1036771" d="M1438.682,311.784h-.013a.34.34,0,0,1-.326-.353,4.771,4.771,0,0,0-2.1-4.533,5.656,5.656,0,0,0-5.365-.306l-7.649,3.871a.339.339,0,1,1-.306-.606l7.648-3.871a6.365,6.365,0,0,1,6.039.342,5.422,5.422,0,0,1,2.411,5.132.341.341,0,0,1-.34.326" transform="translate(4145.326 -997.055)"/>
          <path id="Trazado_1036772" data-name="Trazado 1036772" d="M1442.756,302.062a.125.125,0,0,1-.049-.029,24.214,24.214,0,0,0-3.594-2.871,7.538,7.538,0,0,0-6.942-.344.12.12,0,0,1-.1-.22,7.772,7.772,0,0,1,7.159.354,23.967,23.967,0,0,1,3.642,2.907.121.121,0,0,1-.118.2" transform="translate(4141.471 -993.938)"/>
          <path id="Trazado_1036773" data-name="Trazado 1036773" d="M1442.635,302.13a.325.325,0,0,1-.095-.013.34.34,0,0,1-.142-.082,23.932,23.932,0,0,0-3.549-2.837,7.32,7.32,0,0,0-6.744-.334.338.338,0,0,1-.448-.173.336.336,0,0,1-.006-.258.329.329,0,0,1,.179-.189,7.991,7.991,0,0,1,7.356.364,24.306,24.306,0,0,1,3.685,2.939.342.342,0,0,1,.1.238.336.336,0,0,1-.094.242.343.343,0,0,1-.245.1m.067-.411h0Z" transform="translate(4141.626 -993.782)"/>
          <path id="Trazado_1036774" data-name="Trazado 1036774" d="M1150.327,223.721s46.832,15.253,42.442,62.288c-2.927,31.358-62.984,24.051-80.165,24.051s-31.474-19.7.184-68.525l-10.019-1.349a1.063,1.063,0,0,1-.531-1.876c6.724-5.5,29.822-24.026,42.456-29.724a1.906,1.906,0,0,1,2.648,1.334Z" transform="translate(4282.137 -967.088)" fill="#ffc849"/>
          <path id="Trazado_1037296" data-name="Trazado 1037296" d="M1151.9,304.539c-5.511,14.216-18.11,22.588-28.139,18.7s-13.692-18.565-8.181-32.78,18.11-22.588,28.139-18.7,13.692,18.564,8.181,32.78" transform="translate(4274.229 -987.733)" fill="#ffebc7"/>
          <path id="Trazado_1037297" data-name="Trazado 1037297" d="M1123.2,252.426a.584.584,0,0,1-.087-1.161c.246-.037,24.8-3.937,39.729-19.082a.584.584,0,1,1,.831.82c-15.2,15.426-40.134,19.379-40.384,19.417a.561.561,0,0,1-.088.006" transform="translate(4271.231 -976.067)"/>
          <path id="Trazado_1037298" data-name="Trazado 1037298" d="M1130.791,258.58a.536.536,0,0,1-.087-.007c-.153-.023-.424-.055-.78-.1-7.429-.879-10.809-1.949-11.3-3.581-.142-.466-.109-1.192.842-2,3.068-2.609,7.094,1.761,7.265,1.948a.584.584,0,0,1-.864.785c-.033-.037-3.439-3.722-5.643-1.844-.213.181-.559.523-.483.776.181.6,1.761,1.746,10.321,2.758.372.044.654.078.815.1a.584.584,0,0,1-.086,1.161" transform="translate(4275.286 -985.913)"/>
          <path id="Trazado_1037299" data-name="Trazado 1037299" d="M1162.652,245.045a.584.584,0,0,1-.522-.845c2.473-4.943,4.191-9.71,3.817-10.558a2.666,2.666,0,0,0-1.06.562.584.584,0,0,1-.685-.945c.461-.334,1.686-1.22,2.492-.535,1.517,1.287-1.553,8.07-3.518,12a.584.584,0,0,1-.523.323" transform="translate(4255.813 -976.529)"/>
          <path id="Trazado_1037300" data-name="Trazado 1037300" d="M1144.183,314.165a7.837,7.837,0,0,1-3.447,2.326,8.288,8.288,0,0,1-4.49.2l-.849,3.224-2.019-.532.859-3.262a8.666,8.666,0,0,1-4.729-3.949,8.995,8.995,0,0,1-.62-6.482l5.743,1.513q-.441,2.437,1.022,3.546l1.657-6.287a27.784,27.784,0,0,1-3.52-2.586,7.17,7.17,0,0,1-1.931-3.105,8.489,8.489,0,0,1,.1-4.867,8.248,8.248,0,0,1,3.661-5.247,8.608,8.608,0,0,1,6.124-1.025l.849-3.223,2.02.532-.849,3.223a8.077,8.077,0,0,1,4.6,3.808,9.516,9.516,0,0,1,.6,6.414l-5.773-1.521a3.146,3.146,0,0,0-.875-3.209l-1.625,6.167a36.481,36.481,0,0,1,3.608,2.7,7.1,7.1,0,0,1,1.916,3.036,8.219,8.219,0,0,1-.07,4.812,9.436,9.436,0,0,1-1.963,3.8m-6.38-17.276a4.453,4.453,0,0,0,1.089,1.563l1.458-5.53a2.417,2.417,0,0,0-1.615.49,3,3,0,0,0-.983,1.677,2.875,2.875,0,0,0,.05,1.8m1.588,13.949a3.2,3.2,0,0,0,1.045-1.725,2.725,2.725,0,0,0-.075-1.828,4.355,4.355,0,0,0-1.231-1.537l-1.489,5.651a2.483,2.483,0,0,0,1.75-.56" transform="translate(4267.754 -993.394)" fill="#ffc849"/>
          <path id="Trazado_1037301" data-name="Trazado 1037301" d="M1384.225,94.54s-.279,26.447,15.346,28.034L1363.113,139.4s11.235-11.774,9.946-31.79c-.228-3.536,2.951-13.862,2.951-13.862Z" transform="translate(4170.141 -908.978)" fill="#fd521b"/>
          <path id="Trazado_1037302" data-name="Trazado 1037302" d="M1336.229,73.63s5.181-6.032,11.428-5.526c0,0,2.255,10.557,16.824,20.895l6.573,3a18.413,18.413,0,0,0,1.982-9.44c-.283-9.37-6.6-15.5-16.437-17.19-9.369-1.615-17.972,1.763-20.37,8.259" transform="translate(4181.33 -897)" fill="#fd521b"/>
          <path id="Trazado_1037303" data-name="Trazado 1037303" d="M1378.568,101.231s4.309-3.039,6.717,1.6-5.572,9.78-8.276,6.4,1.559-8,1.559-8" transform="translate(4164.732 -911.684)" fill="#ffac99"/>
          <path id="Trazado_1037304" data-name="Trazado 1037304" d="M1378.332,108.059a.292.292,0,0,1-.206-.5c2.331-2.33,6.139-2.172,6.3-2.164a.293.293,0,0,1,.277.306.275.275,0,0,1-.306.277c-.038,0-3.71-.152-5.856,1.994a.292.292,0,0,1-.207.086" transform="translate(4163.928 -913.822)"/>
          <path id="Trazado_1037305" data-name="Trazado 1037305" d="M1382.174,110.769a.292.292,0,0,1-.249-.139l-1.719-2.8a.292.292,0,1,1,.5-.305l1.719,2.8a.292.292,0,0,1-.249.445" transform="translate(4163.045 -914.653)"/>
        </g>
      </g>
      <g id="Grupo_1180533" data-name="Grupo 1180533" transform="translate(-1254.539 164)">
        <path id="Trazado_1039533" data-name="Trazado 1039533" d="M1150.327,223.721s46.832,15.253,42.442,62.288c-2.927,31.358-62.984,24.051-80.165,24.051s-31.474-19.7.184-68.525l-10.019-1.349a1.063,1.063,0,0,1-.531-1.876c6.724-5.5,29.822-24.026,42.456-29.724a1.906,1.906,0,0,1,2.648,1.334Z" transform="translate(878.791 1123.983)" fill="#ffc849"/>
        <path id="Trazado_1039534" data-name="Trazado 1039534" d="M1151.9,304.539c-5.511,14.216-18.11,22.588-28.139,18.7s-13.692-18.565-8.181-32.78,18.11-22.588,28.139-18.7,13.692,18.564,8.181,32.78" transform="translate(870.884 1103.338)" fill="#ffebc7"/>
        <path id="Trazado_1039535" data-name="Trazado 1039535" d="M1123.2,252.426a.584.584,0,0,1-.087-1.161c.246-.037,24.8-3.937,39.729-19.082a.584.584,0,1,1,.831.82c-15.2,15.426-40.134,19.379-40.384,19.417a.561.561,0,0,1-.088.006" transform="translate(867.885 1115.005)"/>
        <path id="Trazado_1039536" data-name="Trazado 1039536" d="M1130.791,258.58a.536.536,0,0,1-.087-.007c-.153-.023-.424-.055-.78-.1-7.429-.879-10.809-1.949-11.3-3.581-.142-.466-.109-1.192.842-2,3.068-2.609,7.094,1.761,7.265,1.948a.584.584,0,0,1-.864.785c-.033-.037-3.439-3.722-5.643-1.844-.213.181-.559.523-.483.776.181.6,1.761,1.746,10.321,2.758.372.044.654.078.815.1a.584.584,0,0,1-.086,1.161" transform="translate(871.94 1105.158)"/>
        <path id="Trazado_1039537" data-name="Trazado 1039537" d="M1162.652,245.045a.584.584,0,0,1-.522-.845c2.473-4.943,4.191-9.71,3.817-10.558a2.666,2.666,0,0,0-1.06.562.584.584,0,0,1-.685-.945c.461-.334,1.686-1.22,2.492-.535,1.517,1.287-1.553,8.07-3.518,12a.584.584,0,0,1-.523.323" transform="translate(852.467 1114.543)"/>
        <path id="Trazado_1039538" data-name="Trazado 1039538" d="M1144.183,314.165a7.837,7.837,0,0,1-3.447,2.326,8.288,8.288,0,0,1-4.49.2l-.849,3.224-2.019-.532.859-3.262a8.666,8.666,0,0,1-4.729-3.949,8.995,8.995,0,0,1-.62-6.482l5.743,1.513q-.441,2.437,1.022,3.546l1.657-6.287a27.784,27.784,0,0,1-3.52-2.586,7.17,7.17,0,0,1-1.931-3.105,8.489,8.489,0,0,1,.1-4.867,8.248,8.248,0,0,1,3.661-5.247,8.608,8.608,0,0,1,6.124-1.025l.849-3.223,2.02.532-.849,3.223a8.077,8.077,0,0,1,4.6,3.808,9.516,9.516,0,0,1,.6,6.414l-5.773-1.521a3.146,3.146,0,0,0-.875-3.209l-1.625,6.167a36.481,36.481,0,0,1,3.608,2.7,7.1,7.1,0,0,1,1.916,3.036,8.219,8.219,0,0,1-.07,4.812,9.436,9.436,0,0,1-1.963,3.8m-6.38-17.276a4.453,4.453,0,0,0,1.089,1.563l1.458-5.53a2.417,2.417,0,0,0-1.615.49,3,3,0,0,0-.983,1.677,2.875,2.875,0,0,0,.05,1.8m1.588,13.949a3.2,3.2,0,0,0,1.045-1.725,2.725,2.725,0,0,0-.075-1.828,4.355,4.355,0,0,0-1.231-1.537l-1.489,5.651a2.483,2.483,0,0,0,1.75-.56" transform="translate(864.408 1097.678)" fill="#ffc849"/>
      </g>
    </g>
  </g>
</svg>
