<svg xmlns="http://www.w3.org/2000/svg" xmlns:xlink="http://www.w3.org/1999/xlink" width="93.934" height="93.934" viewBox="0 0 93.934 93.934">
  <defs>
    <filter id="Trazado_982547" x="0" y="0" width="93.934" height="93.934" filterUnits="userSpaceOnUse">
      <feOffset dy="3" input="SourceAlpha"/>
      <feGaussianBlur stdDeviation="3" result="blur"/>
      <feFlood flood-opacity="0.161"/>
      <feComposite operator="in" in2="blur"/>
      <feComposite in="SourceGraphic"/>
    </filter>
  </defs>
  <g id="Grupo_1180688" data-name="Grupo 1180688" transform="translate(-609 -2654)">
    <g id="Grupo_1179673" data-name="Grupo 1179673" transform="translate(0 47)">
      <g id="Grupo_1173794" data-name="Grupo 1173794" transform="translate(419.967 621)">
        <g id="Grupo_1167337" data-name="Grupo 1167337" transform="translate(198.033 1992)">
          <g id="Grupo_1166720" data-name="Grupo 1166720">
            <g id="Grupo_1164305" data-name="Grupo 1164305">
              <g id="Grupo_1163948" data-name="Grupo 1163948">
                <g id="Grupo_1158168" data-name="Grupo 1158168">
                  <g id="Grupo_1152576" data-name="Grupo 1152576">
                    <g id="Grupo_1148633" data-name="Grupo 1148633">
                      <g id="Grupo_1148525" data-name="Grupo 1148525">
                        <g transform="matrix(1, 0, 0, 1, -9, -6)" filter="url(#Trazado_982547)">
                          <g id="Trazado_982547-2" data-name="Trazado 982547" transform="translate(9 6)" fill="#e9f9fd">
                            <path d="M 37.966796875 74.43359375 C 33.04315185546875 74.43359375 28.26757431030273 73.46962738037109 23.77274131774902 71.56847381591797 C 19.43047523498535 69.73184967041016 15.53040790557861 67.10224914550781 12.18087482452393 63.75271987915039 C 8.831341743469238 60.4031867980957 6.201741218566895 56.50312042236328 4.365118980407715 52.16086196899414 C 2.463963508605957 47.66601943969727 1.499996900558472 42.89044189453125 1.499996900558472 37.966796875 C 1.499996900558472 33.04315185546875 2.463963508605957 28.26757431030273 4.365118980407715 23.77274131774902 C 6.201741218566895 19.43047523498535 8.831341743469238 15.53040790557861 12.18087482452393 12.18087482452393 C 15.53040790557861 8.831341743469238 19.43047523498535 6.201741218566895 23.77274131774902 4.365118980407715 C 28.26757431030273 2.463963508605957 33.04315185546875 1.499996900558472 37.966796875 1.499996900558472 C 42.89044189453125 1.499996900558472 47.66601943969727 2.463963508605957 52.16086196899414 4.365118980407715 C 56.50312042236328 6.201741218566895 60.4031867980957 8.831341743469238 63.75271987915039 12.18087482452393 C 67.10224914550781 15.53040790557861 69.73184967041016 19.43047523498535 71.56847381591797 23.77274131774902 C 73.46962738037109 28.26757431030273 74.43359375 33.04315185546875 74.43359375 37.966796875 C 74.43359375 42.89044189453125 73.46962738037109 47.66601943969727 71.56847381591797 52.16086196899414 C 69.73184967041016 56.50313186645508 67.10224914550781 60.4031867980957 63.75271987915039 63.75271987915039 C 60.4031867980957 67.10224914550781 56.50313186645508 69.73184967041016 52.16086196899414 71.56847381591797 C 47.66601943969727 73.46962738037109 42.89044189453125 74.43359375 37.966796875 74.43359375 Z" stroke="none"/>
                            <path d="M 37.966796875 3 C 33.2449836730957 3 28.66600799560547 3.924095153808594 24.35705947875977 5.746635437011719 C 20.19359588623047 7.507637023925781 16.45379638671875 10.02928161621094 13.24153518676758 13.24153518676758 C 10.02927398681641 16.45379638671875 7.507621765136719 20.19359588623047 5.746635437011719 24.35705947875977 C 3.924095153808594 28.66600799560547 3 33.2449836730957 3 37.966796875 C 3 42.6886100769043 3.924095153808594 47.26758575439453 5.746635437011719 51.57653427124023 C 7.507621765136719 55.73999786376953 10.02927398681641 59.47979736328125 13.24153518676758 62.69205856323242 C 16.45379638671875 65.90431976318359 20.19359588623047 68.42597198486328 24.35705947875977 70.18695831298828 C 28.66600799560547 72.00949859619141 33.2449836730957 72.93359375 37.966796875 72.93359375 C 42.6886100769043 72.93359375 47.26758575439453 72.00949859619141 51.57653427124023 70.18695831298828 C 55.73999786376953 68.42597198486328 59.47979736328125 65.90431976318359 62.69205856323242 62.69205856323242 C 65.90431976318359 59.47979736328125 68.42597198486328 55.73999786376953 70.18695831298828 51.57653427124023 C 72.00949859619141 47.26758575439453 72.93359375 42.6886100769043 72.93359375 37.966796875 C 72.93359375 33.2449836730957 72.00949859619141 28.66600799560547 70.18695831298828 24.35705947875977 C 68.42597198486328 20.19359588623047 65.90431976318359 16.45379638671875 62.69205856323242 13.24153518676758 C 59.47979736328125 10.02928161621094 55.73999786376953 7.507637023925781 51.57653427124023 5.746635437011719 C 47.26758575439453 3.924095153808594 42.6886100769043 3 37.966796875 3 M 37.966796875 0 C 58.93528366088867 0 75.93359375 16.99832153320312 75.93359375 37.966796875 C 75.93359375 58.93528366088867 58.93528366088867 75.93359375 37.966796875 75.93359375 C 16.99831008911133 75.93359375 0 58.93528366088867 0 37.966796875 C 0 16.99832153320312 16.99831008911133 0 37.966796875 0 Z" stroke="none" fill="#1d7083"/>
                          </g>
                        </g>
                      </g>
                    </g>
                  </g>
                </g>
              </g>
            </g>
          </g>
        </g>
      </g>
    </g>
    <g id="lluvia-de-ideas" transform="translate(584.903 2673)">
      <g id="Grupo_1180686" data-name="Grupo 1180686" transform="translate(51.831 0.735)">
        <path id="Trazado_1040051" data-name="Trazado 1040051" d="M242.316,16.873l-5.709.636V30.355l5.7,1.6a1.839,1.839,0,0,1,.593-.6,8.331,8.331,0,0,0-.586-14.488Z" transform="translate(-219.151 -15.954)" fill="#ffd500"/>
        <path id="Trazado_1040052" data-name="Trazado 1040052" d="M182.589,22.91a8.322,8.322,0,0,1,.6-14.492,8.331,8.331,0,0,0-8.193,14.492,1.87,1.87,0,0,1,.876,1.592V25.98l1.3,1.355h4.42l1.3-1.355V24.534a1.963,1.963,0,0,1,.29-1.031A1.838,1.838,0,0,0,182.589,22.91Z" transform="translate(-160.023 -7.499)" fill="#fbc700"/>
        <path id="Trazado_1040053" data-name="Trazado 1040053" d="M237.881,227.162v1.088a2.21,2.21,0,0,1-4.42,0v-1.088l.9-1.139h2.484Z" transform="translate(-216.313 -204.594)" fill="#6b7ed9"/>
        <g id="Grupo_1180683" data-name="Grupo 1180683" transform="translate(2.113 29.098)">
          <circle id="Elipse_13309" data-name="Elipse 13309" cx="4.34" cy="4.34" r="4.34" transform="translate(12.905)" fill="#ffb1a0"/>
          <circle id="Elipse_13310" data-name="Elipse 13310" cx="4.34" cy="4.34" r="4.34" transform="translate(25.811)" fill="#ffb1a0"/>
          <circle id="Elipse_13311" data-name="Elipse 13311" cx="4.34" cy="4.34" r="4.34" fill="#ffb1a0"/>
        </g>
        <path id="Trazado_1040054" data-name="Trazado 1040054" d="M68.009,393.458a6.394,6.394,0,0,0-3.049-.725,6.508,6.508,0,0,0-6.365,6.537v3.1a1.323,1.323,0,0,0,1.323,1.323h4.6l1.662-1.569,2.059-7.289Z" transform="translate(-58.595 -354.955)" fill="#fbc700"/>
        <g id="Grupo_1180684" data-name="Grupo 1180684" transform="translate(5.923 38.48)">
          <path id="Trazado_1040055" data-name="Trazado 1040055" d="M154.126,399.905l.045.023h0Z" transform="translate(-150.681 -399.905)" fill="#ffe02f"/>
          <path id="Trazado_1040056" data-name="Trazado 1040056" d="M125.978,405.868a6.468,6.468,0,0,0-3.493-5.726,6.47,6.47,0,0,0-3.49,5.726v4.507h6.982l.808-1v-2.762Z" transform="translate(-118.996 -400.119)" fill="#ffe02f"/>
        </g>
        <path id="Trazado_1040057" data-name="Trazado 1040057" d="M196.562,392.733a6.508,6.508,0,0,0-6.365,6.537v4.422h5.923l1.357-1.038,2.14-7.722v-1.471A6.394,6.394,0,0,0,196.562,392.733Z" transform="translate(-177.292 -354.955)" fill="#1ca8ff"/>
        <path id="Trazado_1040058" data-name="Trazado 1040058" d="M258.64,406.93l-1.06-1.043a6.47,6.47,0,0,0-3.485-5.724,6.566,6.566,0,0,0-3.5,5.809V410.4h6.982l1.06-1.225V406.93Z" transform="translate(-231.77 -361.658)" fill="#00c2fb"/>
        <path id="Trazado_1040059" data-name="Trazado 1040059" d="M331.219,393.461a6.394,6.394,0,0,0-3.055-.728,6.508,6.508,0,0,0-6.365,6.537v4.422h5.923l1.225-.964,2.7-7.649Z" transform="translate(-295.988 -354.955)" fill="#f3239b"/>
        <g id="Grupo_1180685" data-name="Grupo 1180685" transform="translate(31.734 38.503)">
          <path id="Trazado_1040060" data-name="Trazado 1040060" d="M417.812,400.139l0,0h0Z" transform="translate(-414.32 -400.139)" fill="#ff4fb9"/>
          <path id="Trazado_1040061" data-name="Trazado 1040061" d="M385.7,400.165a6.566,6.566,0,0,0-3.5,5.808V410.4h5.66a1.323,1.323,0,0,0,1.323-1.323v-3.185A6.47,6.47,0,0,0,385.7,400.165Z" transform="translate(-382.201 -400.163)" fill="#ff4fb9"/>
        </g>
        <path id="Trazado_1040062" data-name="Trazado 1040062" d="M220.205,195.959c0,.014,0,2.381,0,2.4a1.787,1.787,0,0,0,1.8,1.761h3.429a1.786,1.786,0,0,0,1.8-1.78v-2.378Z" transform="translate(-204.357 -177.478)" fill="#dbedff"/>
      </g>
      <g id="Grupo_1180687" data-name="Grupo 1180687" transform="translate(51.096 0)">
        <path id="Trazado_1040063" data-name="Trazado 1040063" d="M86.947,306a5.075,5.075,0,1,0-5.7.006,7.309,7.309,0,0,0-3.594,3.457A7.274,7.274,0,0,0,74.041,306a5.075,5.075,0,1,0-5.7.006,7.308,7.308,0,0,0-3.594,3.457A7.273,7.273,0,0,0,61.136,306a5.075,5.075,0,1,0-5.7.006,7.309,7.309,0,0,0-4.344,6.675v3.1a2.06,2.06,0,0,0,2.058,2.058H69.473a.735.735,0,1,0,0-1.471h-4v-3.687a5.718,5.718,0,1,1,11.434,0v3.687h-4a.735.735,0,1,0,0,1.471H89.225a2.06,2.06,0,0,0,2.058-2.058V312.6A7.2,7.2,0,0,0,86.947,306Zm-32.267-4.2a3.6,3.6,0,1,1,3.6,3.6,3.608,3.608,0,0,1-3.6-3.6ZM64,312.683v3.687H53.154a.588.588,0,0,1-.587-.587v-3.1a5.718,5.718,0,1,1,11.434,0Zm7.2-7.273h-.03a3.581,3.581,0,1,1,.03,0Zm9.289-3.6a3.6,3.6,0,1,1,3.6,3.6A3.608,3.608,0,0,1,80.491,301.807Zm9.321,13.976a.588.588,0,0,1-.587.587H78.378v-3.687a5.718,5.718,0,1,1,11.434-.085Z" transform="translate(-51.096 -267.634)"/>
        <path id="Trazado_1040064" data-name="Trazado 1040064" d="M386.085,83.055a.735.735,0,0,0,.735.735h.991a.735.735,0,0,0,0-1.471h-.991A.735.735,0,0,0,386.085,83.055Z" transform="translate(-353.235 -74.247)"/>
        <path id="Trazado_1040065" data-name="Trazado 1040065" d="M101.539,82.32a.735.735,0,1,0,0,1.471h.991a.735.735,0,0,0,0-1.471Z" transform="translate(-95.93 -74.247)"/>
        <path id="Trazado_1040066" data-name="Trazado 1040066" d="M368.877,8.571l-.859.5a.735.735,0,0,0,.735,1.274l.859-.5a.735.735,0,0,0-.735-1.274Z" transform="translate(-336.609 -7.642)"/>
        <path id="Trazado_1040067" data-name="Trazado 1040067" d="M121.816,151.212l-.858.5a.735.735,0,0,0,.735,1.274l.858-.5a.735.735,0,1,0-.735-1.274Z" transform="translate(-113.775 -136.295)"/>
        <path id="Trazado_1040068" data-name="Trazado 1040068" d="M368.019,152.485l.859.5a.735.735,0,1,0,.735-1.274l-.859-.5a.735.735,0,0,0-.735,1.274Z" transform="translate(-336.608 -136.294)"/>
        <path id="Trazado_1040069" data-name="Trazado 1040069" d="M122.552,9.066l-.858-.5a.735.735,0,0,0-.735,1.274l.858.5a.735.735,0,0,0,.735-1.274Z" transform="translate(-113.775 -7.641)"/>
        <path id="Trazado_1040070" data-name="Trazado 1040070" d="M172.322,1.476A7.623,7.623,0,0,1,180,7.265a.736.736,0,1,0,1.429-.347,9.067,9.067,0,1,0-13.583,9.854,1.141,1.141,0,0,1,.528.967c0,.021,0,3.857,0,3.878a2.506,2.506,0,0,0,1.3,2.173v.6a2.945,2.945,0,1,0,5.891,0v-.6a2.515,2.515,0,0,0,1.3-2.2V17.77a1.18,1.18,0,0,1,.536-1,9.076,9.076,0,0,0,4.144-6.115A.735.735,0,1,0,180.1,10.4a7.6,7.6,0,0,1-3.473,5.122,2.661,2.661,0,0,0-1.231,2.253v.71h-2.039V11.433c0-.017,0-.033,0-.049h1.533a.735.735,0,1,0,0-1.471h-4.531a.735.735,0,0,0,0,1.471h1.532c0,.016,0,.033,0,.049v7.048h-2.039v-.742a2.623,2.623,0,0,0-1.224-2.217,7.594,7.594,0,0,1,3.7-14.046Zm1.772,22.915a1.475,1.475,0,1,1-2.949,0v-.283h2.949Zm1.3-4.44v1.642a1.054,1.054,0,0,1-1.06,1.044H170.9a1.05,1.05,0,0,1-1.06-1.027c0-.03,0-.967,0-1.66h5.549Z" transform="translate(-152.526 0)"/>
      </g>
    </g>
  </g>
</svg>
