<svg xmlns="http://www.w3.org/2000/svg" xmlns:xlink="http://www.w3.org/1999/xlink" width="93.934" height="93.934" viewBox="0 0 93.934 93.934">
  <defs>
    <filter id="Trazado_982547" x="0" y="0" width="93.934" height="93.934" filterUnits="userSpaceOnUse">
      <feOffset dy="3" input="SourceAlpha"/>
      <feGaussianBlur stdDeviation="3" result="blur"/>
      <feFlood flood-opacity="0.161"/>
      <feComposite operator="in" in2="blur"/>
      <feComposite in="SourceGraphic"/>
    </filter>
  </defs>
  <g id="Grupo_1180704" data-name="Grupo 1180704" transform="translate(-186 -2821)">
    <g id="Grupo_1179676" data-name="Grupo 1179676" transform="translate(-3 42)">
      <g id="Grupo_1174889" data-name="Grupo 1174889" transform="translate(-0.033 793)">
        <g id="Grupo_1167337" data-name="Grupo 1167337" transform="translate(198.033 1992)">
          <g id="Grupo_1166720" data-name="Grupo 1166720">
            <g id="Grupo_1164305" data-name="Grupo 1164305">
              <g id="Grupo_1163948" data-name="Grupo 1163948">
                <g id="Grupo_1158168" data-name="Grupo 1158168">
                  <g id="Grupo_1152576" data-name="Grupo 1152576">
                    <g id="Grupo_1148633" data-name="Grupo 1148633">
                      <g id="Grupo_1148525" data-name="Grupo 1148525">
                        <g transform="matrix(1, 0, 0, 1, -9, -6)" filter="url(#Trazado_982547)">
                          <g id="Trazado_982547-2" data-name="Trazado 982547" transform="translate(9 6)" fill="#e9f9fd">
                            <path d="M 37.966796875 74.43359375 C 33.04315185546875 74.43359375 28.26757431030273 73.46962738037109 23.77274131774902 71.56847381591797 C 19.43047523498535 69.73184967041016 15.53040790557861 67.10224914550781 12.18087482452393 63.75271987915039 C 8.831341743469238 60.4031867980957 6.201741218566895 56.50312042236328 4.365118980407715 52.16086196899414 C 2.463963508605957 47.66601943969727 1.499996900558472 42.89044189453125 1.499996900558472 37.966796875 C 1.499996900558472 33.04315185546875 2.463963508605957 28.26757431030273 4.365118980407715 23.77274131774902 C 6.201741218566895 19.43047523498535 8.831341743469238 15.53040790557861 12.18087482452393 12.18087482452393 C 15.53040790557861 8.831341743469238 19.43047523498535 6.201741218566895 23.77274131774902 4.365118980407715 C 28.26757431030273 2.463963508605957 33.04315185546875 1.499996900558472 37.966796875 1.499996900558472 C 42.89044189453125 1.499996900558472 47.66601943969727 2.463963508605957 52.16086196899414 4.365118980407715 C 56.50312042236328 6.201741218566895 60.4031867980957 8.831341743469238 63.75271987915039 12.18087482452393 C 67.10224914550781 15.53040790557861 69.73184967041016 19.43047523498535 71.56847381591797 23.77274131774902 C 73.46962738037109 28.26757431030273 74.43359375 33.04315185546875 74.43359375 37.966796875 C 74.43359375 42.89044189453125 73.46962738037109 47.66601943969727 71.56847381591797 52.16086196899414 C 69.73184967041016 56.50313186645508 67.10224914550781 60.4031867980957 63.75271987915039 63.75271987915039 C 60.4031867980957 67.10224914550781 56.50313186645508 69.73184967041016 52.16086196899414 71.56847381591797 C 47.66601943969727 73.46962738037109 42.89044189453125 74.43359375 37.966796875 74.43359375 Z" stroke="none"/>
                            <path d="M 37.966796875 3 C 33.2449836730957 3 28.66600799560547 3.924095153808594 24.35705947875977 5.746635437011719 C 20.19359588623047 7.507637023925781 16.45379638671875 10.02928161621094 13.24153518676758 13.24153518676758 C 10.02927398681641 16.45379638671875 7.507621765136719 20.19359588623047 5.746635437011719 24.35705947875977 C 3.924095153808594 28.66600799560547 3 33.2449836730957 3 37.966796875 C 3 42.6886100769043 3.924095153808594 47.26758575439453 5.746635437011719 51.57653427124023 C 7.507621765136719 55.73999786376953 10.02927398681641 59.47979736328125 13.24153518676758 62.69205856323242 C 16.45379638671875 65.90431976318359 20.19359588623047 68.42597198486328 24.35705947875977 70.18695831298828 C 28.66600799560547 72.00949859619141 33.2449836730957 72.93359375 37.966796875 72.93359375 C 42.6886100769043 72.93359375 47.26758575439453 72.00949859619141 51.57653427124023 70.18695831298828 C 55.73999786376953 68.42597198486328 59.47979736328125 65.90431976318359 62.69205856323242 62.69205856323242 C 65.90431976318359 59.47979736328125 68.42597198486328 55.73999786376953 70.18695831298828 51.57653427124023 C 72.00949859619141 47.26758575439453 72.93359375 42.6886100769043 72.93359375 37.966796875 C 72.93359375 33.2449836730957 72.00949859619141 28.66600799560547 70.18695831298828 24.35705947875977 C 68.42597198486328 20.19359588623047 65.90431976318359 16.45379638671875 62.69205856323242 13.24153518676758 C 59.47979736328125 10.02928161621094 55.73999786376953 7.507637023925781 51.57653427124023 5.746635437011719 C 47.26758575439453 3.924095153808594 42.6886100769043 3 37.966796875 3 M 37.966796875 0 C 58.93528366088867 0 75.93359375 16.99832153320312 75.93359375 37.966796875 C 75.93359375 58.93528366088867 58.93528366088867 75.93359375 37.966796875 75.93359375 C 16.99831008911133 75.93359375 0 58.93528366088867 0 37.966796875 C 0 16.99832153320312 16.99831008911133 0 37.966796875 0 Z" stroke="none" fill="#1d7083"/>
                          </g>
                        </g>
                      </g>
                    </g>
                  </g>
                </g>
              </g>
            </g>
          </g>
        </g>
      </g>
    </g>
    <g id="trabajo-en-equipo" transform="translate(211 2843)">
      <g id="Grupo_1180702" data-name="Grupo 1180702" transform="translate(0.637 0.637)">
        <g id="Grupo_1180694" data-name="Grupo 1180694" transform="translate(29.835 20.3)">
          <path id="Trazado_1040093" data-name="Trazado 1040093" d="M368.962,307.145h10.653v15.71a.858.858,0,0,1-.858.858h-9.795Z" transform="translate(-368.1 -301.998)" fill="#e69642"/>
          <path id="Trazado_1040094" data-name="Trazado 1040094" d="M379.616,322.486a3.582,3.582,0,0,0-2.041-.644h-3.641a3.568,3.568,0,0,0-3.447-2.663h-1.524v15.546h9.795a.858.858,0,0,0,.858-.858V322.486Z" transform="translate(-368.101 -313.01)" fill="#e38523"/>
          <path id="Trazado_1040095" data-name="Trazado 1040095" d="M370.326,251.682H359.669a.858.858,0,0,1-.858-.858v-3.431a.858.858,0,0,1,.858-.858h10.657a.858.858,0,0,1,.858.858v3.431A.858.858,0,0,1,370.326,251.682Z" transform="translate(-358.811 -246.535)" fill="#e6f7fe"/>
          <path id="Trazado_1040096" data-name="Trazado 1040096" d="M465.987,246.535H463.35a.858.858,0,0,1,.858.858v3.431a.858.858,0,0,1-.858.858h2.637a.858.858,0,0,0,.858-.858v-3.431A.858.858,0,0,0,465.987,246.535Z" transform="translate(-454.472 -246.535)" fill="#d3effd"/>
        </g>
        <g id="Grupo_1180696" data-name="Grupo 1180696" transform="translate(0.192 28.7)">
          <path id="Trazado_1040097" data-name="Trazado 1040097" d="M26.329,368.962v10.653H10.619a.858.858,0,0,1-.858-.858v-9.795Z" transform="translate(-9.761 -366.965)" fill="#ad7fdd"/>
          <path id="Trazado_1040098" data-name="Trazado 1040098" d="M9.762,368.962v9.795a.858.858,0,0,0,.858.858H22a3.542,3.542,0,0,0,.644-2.041v-3.641a3.568,3.568,0,0,0,2.663-3.447v-1.524H9.762Z" transform="translate(-9.762 -366.965)" fill="#9d66d6"/>
          <g id="Grupo_1180695" data-name="Grupo 1180695" transform="translate(21.716)">
            <path id="Trazado_1040099" data-name="Trazado 1040099" d="M281.466,357.476a1.332,1.332,0,0,0-1.331-1.38H282.6a1.352,1.352,0,0,0,1.363-1.283,1.332,1.332,0,0,0-1.331-1.38h.915a1.352,1.352,0,0,0,1.363-1.283,1.332,1.332,0,0,0-1.331-1.38h-.741a1.352,1.352,0,0,0,1.363-1.283,1.332,1.332,0,0,0-1.331-1.38h-7.088a1.332,1.332,0,0,0,0-2.663H272.6a3.994,3.994,0,0,0-2.4.8l-.533.4a3.994,3.994,0,0,1-2.4.8h-1.805v10.653h2.481a5.325,5.325,0,0,1,1.292.159l1.391.348a5.325,5.325,0,0,0,1.292.159H280.1A1.353,1.353,0,0,0,281.466,357.476Z" transform="translate(-265.465 -345.443)" fill="#fed2a4"/>
          </g>
          <path id="Trazado_1040100" data-name="Trazado 1040100" d="M340.839,380.846a1.332,1.332,0,0,0-1.331-1.38h-.741a1.352,1.352,0,0,0,1.363-1.283,1.332,1.332,0,0,0-1.331-1.38h-2.717a12.99,12.99,0,0,1-3.786,7,13.64,13.64,0,0,1-5.708,3.5,5.325,5.325,0,0,0,1.265.153h8.183a1.352,1.352,0,0,0,1.363-1.283,1.332,1.332,0,0,0-1.331-1.38h2.461a1.352,1.352,0,0,0,1.363-1.283,1.332,1.332,0,0,0-1.331-1.38h.915A1.352,1.352,0,0,0,340.839,380.846Z" transform="translate(-299.682 -374.14)" fill="#ffbd86"/>
          <path id="Trazado_1040101" data-name="Trazado 1040101" d="M204.855,370.326V359.669a.858.858,0,0,1,.858-.858h3.431a.858.858,0,0,1,.858.858v10.657a.858.858,0,0,1-.858.858h-3.431A.858.858,0,0,1,204.855,370.326Z" transform="translate(-188.287 -357.676)" fill="#e6f7fe"/>
          <path id="Trazado_1040102" data-name="Trazado 1040102" d="M210,465.987V463.35a.858.858,0,0,1-.858.858h-3.431a.858.858,0,0,1-.858-.858v2.637a.858.858,0,0,0,.858.858h3.431A.858.858,0,0,0,210,465.987Z" transform="translate(-188.287 -453.337)" fill="#d3effd"/>
        </g>
        <g id="Grupo_1180698" data-name="Grupo 1180698" transform="translate(0 0.192)">
          <path id="Trazado_1040103" data-name="Trazado 1040103" d="M28.255,26.329H17.6V10.619a.858.858,0,0,1,.858-.858h9.795Z" transform="translate(-16.744 -9.761)" fill="#a2f5c3"/>
          <path id="Trazado_1040104" data-name="Trazado 1040104" d="M17.6,22a3.582,3.582,0,0,0,2.041.644h3.641a3.568,3.568,0,0,0,3.447,2.663h1.524V9.762H18.459a.858.858,0,0,0-.858.858V22Z" transform="translate(-16.743 -9.762)" fill="#88f2a9"/>
          <g id="Grupo_1180697" data-name="Grupo 1180697" transform="translate(0.192 21.716)">
            <path id="Trazado_1040105" data-name="Trazado 1040105" d="M11.044,281.466a1.332,1.332,0,0,0,1.38-1.331V282.6a1.352,1.352,0,0,0,1.283,1.363,1.332,1.332,0,0,0,1.38-1.331v.905A1.352,1.352,0,0,0,16.37,284.9a1.332,1.332,0,0,0,1.38-1.331v-.731a1.352,1.352,0,0,0,1.283,1.363,1.332,1.332,0,0,0,1.38-1.331v-7.088a1.332,1.332,0,0,0,2.663,0V272.6a3.994,3.994,0,0,0-.8-2.4l-.4-.533a3.994,3.994,0,0,1-.8-2.4v-1.805H10.427v2.481a5.325,5.325,0,0,1-.159,1.292l-.348,1.391a5.325,5.325,0,0,0-.159,1.292V280.1a1.353,1.353,0,0,0,1.283,1.363Z" transform="translate(-9.761 -265.465)" fill="#fed2a4"/>
          </g>
          <path id="Trazado_1040106" data-name="Trazado 1040106" d="M50.974,312.393l-.4-.533c-.07-.093-.135-.188-.2-.286a14.727,14.727,0,0,1-2.861,6.894,14.443,14.443,0,0,1-6.4,5v1.318a1.352,1.352,0,0,0,1.283,1.363,1.332,1.332,0,0,0,1.38-1.331v.905a1.352,1.352,0,0,0,1.283,1.363,1.332,1.332,0,0,0,1.38-1.331v-.731a1.352,1.352,0,0,0,1.283,1.363,1.332,1.332,0,0,0,1.38-1.331v-7.088a1.332,1.332,0,0,0,2.663,0V314.79A3.993,3.993,0,0,0,50.974,312.393Z" transform="translate(-38.265 -285.943)" fill="#ffbd86"/>
          <path id="Trazado_1040107" data-name="Trazado 1040107" d="M8.358,204.855H19.015a.858.858,0,0,1,.858.858v3.431a.858.858,0,0,1-.858.858H8.358a.858.858,0,0,1-.858-.858v-3.431A.858.858,0,0,1,8.358,204.855Z" transform="translate(-7.5 -188.287)" fill="#e6f7fe"/>
          <path id="Trazado_1040108" data-name="Trazado 1040108" d="M114.675,204.855h-2.637a.858.858,0,0,1,.858.858v3.432a.858.858,0,0,1-.858.858h2.637a.858.858,0,0,0,.858-.858v-3.432A.858.858,0,0,0,114.675,204.855Z" transform="translate(-103.16 -188.287)" fill="#d3effd"/>
        </g>
        <g id="Grupo_1180700" data-name="Grupo 1180700" transform="translate(0.858)">
          <path id="Trazado_1040109" data-name="Trazado 1040109" d="M307.145,28.255V17.6h15.71a.858.858,0,0,1,.858.858v9.795Z" transform="translate(-282.556 -16.744)" fill="#e175a5"/>
          <path id="Trazado_1040110" data-name="Trazado 1040110" d="M334.725,28.255V18.46a.858.858,0,0,0-.858-.858H322.486a3.542,3.542,0,0,0-.644,2.041v3.641a3.568,3.568,0,0,0-2.663,3.447v1.524h15.546Z" transform="translate(-293.568 -16.744)" fill="#de5791"/>
          <g id="Grupo_1180699" data-name="Grupo 1180699" transform="translate(0 0.192)">
            <path id="Trazado_1040111" data-name="Trazado 1040111" d="M21.043,11.044a1.332,1.332,0,0,0,1.331,1.38H19.913a1.352,1.352,0,0,0-1.363,1.283,1.332,1.332,0,0,0,1.331,1.38h-.915A1.352,1.352,0,0,0,17.6,16.37a1.332,1.332,0,0,0,1.331,1.38h.741a1.352,1.352,0,0,0-1.363,1.283,1.332,1.332,0,0,0,1.331,1.38h7.088a1.332,1.332,0,0,0,0,2.663h3.182a3.994,3.994,0,0,0,2.4-.8l.533-.4a3.994,3.994,0,0,1,2.4-.8h1.805V10.427H34.563a5.325,5.325,0,0,1-1.292-.159L31.88,9.92a5.325,5.325,0,0,0-1.292-.159H22.406a1.353,1.353,0,0,0-1.363,1.283Z" transform="translate(-17.602 -9.761)" fill="#fed2a4"/>
            <path id="Trazado_1040112" data-name="Trazado 1040112" d="M133.935,12.485a14.607,14.607,0,0,1,4.412,8.6l.1,0h1.805V10.427H137.77a5.325,5.325,0,0,1-1.292-.159l-1.391-.348a5.325,5.325,0,0,0-1.292-.159h-3.408a16.833,16.833,0,0,1,3.548,2.724Z" transform="translate(-120.809 -9.761)" fill="#ffbd86"/>
          </g>
          <path id="Trazado_1040113" data-name="Trazado 1040113" d="M251.682,8.358V19.015a.858.858,0,0,1-.858.858h-3.431a.858.858,0,0,1-.858-.858V8.358a.858.858,0,0,1,.858-.858h3.431A.858.858,0,0,1,251.682,8.358Z" transform="translate(-227.093 -7.5)" fill="#e6f7fe"/>
          <path id="Trazado_1040114" data-name="Trazado 1040114" d="M246.535,8.358v2.637a.858.858,0,0,1,.858-.858h3.431a.858.858,0,0,1,.858.858V8.358a.858.858,0,0,0-.858-.858h-3.431A.858.858,0,0,0,246.535,8.358Z" transform="translate(-227.093 -7.5)" fill="#d3effd"/>
        </g>
        <g id="Grupo_1180701" data-name="Grupo 1180701" transform="translate(28.7 0.858)">
          <path id="Trazado_1040115" data-name="Trazado 1040115" d="M357.476,21.043a1.332,1.332,0,0,0-1.38,1.331V19.913a1.352,1.352,0,0,0-1.283-1.363,1.332,1.332,0,0,0-1.38,1.331v-.915a1.352,1.352,0,0,0-1.283-1.363,1.332,1.332,0,0,0-1.38,1.331v.741a1.352,1.352,0,0,0-1.283-1.363,1.332,1.332,0,0,0-1.38,1.331v7.088a1.332,1.332,0,0,0-2.663,0v3.182a3.994,3.994,0,0,0,.8,2.4l.4.533a3.994,3.994,0,0,1,.8,2.4v1.805h10.653V34.563a5.325,5.325,0,0,1,.159-1.292l.348-1.391a5.325,5.325,0,0,0,.159-1.292V22.406a1.353,1.353,0,0,0-1.283-1.363Z" transform="translate(-345.443 -17.602)" fill="#fed2a4"/>
          <path id="Trazado_1040116" data-name="Trazado 1040116" d="M377.535,133.935a14.607,14.607,0,0,1-8.6,4.412c0,.033,0,.065,0,.1v1.805h10.653V137.77a5.325,5.325,0,0,1,.159-1.292l.348-1.391a5.326,5.326,0,0,0,.159-1.292v-3.408A16.834,16.834,0,0,1,377.535,133.935Z" transform="translate(-366.944 -120.809)" fill="#ffbd86"/>
        </g>
      </g>
      <path id="Trazado_1040117" data-name="Trazado 1040117" d="M198.054,190.149l1.26-1.368a.858.858,0,0,0,.112-1.01l-.742-1.285a.858.858,0,0,0-.931-.408l-1.815.407-.058-.033-.555-1.775a.858.858,0,0,0-.819-.6h-1.484a.858.858,0,0,0-.819.6l-.555,1.775-.058.033-1.815-.407a.858.858,0,0,0-.931.408l-.742,1.285a.858.858,0,0,0,.112,1.01l1.26,1.368v.066l-1.26,1.368a.858.858,0,0,0-.112,1.01l.742,1.285a.858.858,0,0,0,.931.408l1.815-.407.058.033.555,1.775a.858.858,0,0,0,.819.6h1.484a.858.858,0,0,0,.819-.6l.555-1.775.058-.033,1.815.407a.858.858,0,0,0,.931-.408l.742-1.285a.858.858,0,0,0-.112-1.01l-1.26-1.368v-.066Zm-4.289,1.406a1.373,1.373,0,1,1,1.373-1.373A1.373,1.373,0,0,1,193.765,191.555Z" transform="translate(-172.025 -168.442)" fill="#62a4fb"/>
      <path id="Trazado_1040118" data-name="Trazado 1040118" d="M238.577,211.579v-.066l1.26-1.368a.858.858,0,0,0,.112-1.01l-.742-1.285a.858.858,0,0,0-.931-.408l-1.03.231a6.043,6.043,0,0,1-4.973,7.927l.454,1.453a.858.858,0,0,0,.819.6h1.484a.858.858,0,0,0,.819-.6l.555-1.775.058-.033,1.815.407a.858.858,0,0,0,.931-.408l.742-1.285a.858.858,0,0,0-.112-1.01Z" transform="translate(-212.548 -189.805)" fill="#5392f9"/>
      <g id="Grupo_1180703" data-name="Grupo 1180703" transform="translate(0 0)">
        <path id="Trazado_1040119" data-name="Trazado 1040119" d="M42.624,20.445V18.456a4.7,4.7,0,0,1,.14-1.137l.348-1.392a5.992,5.992,0,0,0,.178-1.446v-.847a.637.637,0,1,0-1.274,0v.847a4.71,4.71,0,0,1-.14,1.137l-.348,1.391a5.978,5.978,0,0,0-.178,1.446V20.3H31.971V19.132a4.663,4.663,0,0,0-.926-2.779l-.4-.533a3.376,3.376,0,0,1-.672-2.014V10.624a.695.695,0,1,1,1.389,0s0,0,0,0v2.3a.637.637,0,1,0,1.274,0v-2.3s0,0,0,0V3.535a.695.695,0,0,1,.72-.694.718.718,0,0,1,.67.727V10.4a.637.637,0,1,0,1.274,0V2.826a.694.694,0,0,1,.721-.694.717.717,0,0,1,.669.727V10.4a.637.637,0,1,0,1.274,0V3.774a.694.694,0,0,1,.721-.694.717.717,0,0,1,.669.726v6.6a.637.637,0,1,0,1.274,0V6.267a.694.694,0,0,1,.721-.694.717.717,0,0,1,.669.721V6.3s0,0,0,0v4.36a.637.637,0,1,0,1.274,0V2.353A1.5,1.5,0,0,0,41.794.858H26.577A1.5,1.5,0,0,0,25.226,0H21.795a1.5,1.5,0,0,0-1.35.858H18.456a4.7,4.7,0,0,1-1.137-.14L15.928.37A5.969,5.969,0,0,0,14.481.192H2.353A1.5,1.5,0,0,0,.858,1.687V16.9A1.5,1.5,0,0,0,0,18.255v3.431a1.5,1.5,0,0,0,.858,1.35v1.989a4.7,4.7,0,0,1-.14,1.137L.37,27.554A5.969,5.969,0,0,0,.192,29V41.129a1.5,1.5,0,0,0,1.495,1.495H12.659a.637.637,0,0,0,0-1.274H11.529a1.952,1.952,0,0,0,.589-1.4V34.7a1.969,1.969,0,0,0,2.663-1.842v-.886H16.76V41.35H15.631a.637.637,0,0,0,0,1.274H16.9a1.5,1.5,0,0,0,1.35.858h3.431a1.5,1.5,0,0,0,1.35-.858h1.989a4.7,4.7,0,0,1,1.137.14l1.391.348A5.969,5.969,0,0,0,29,43.289H41.129a1.5,1.5,0,0,0,1.495-1.495V26.577a1.5,1.5,0,0,0,.858-1.35V21.795a1.5,1.5,0,0,0-.858-1.35ZM41.35,31.952a1.952,1.952,0,0,0-1.4-.589H34.7A1.969,1.969,0,0,0,32.858,28.7h-.886V26.721H41.35v5.231Zm.637-6.5H31.33a.221.221,0,0,1-.221-.221V21.795a.221.221,0,0,1,.22-.221H41.989a.221.221,0,0,1,.218.221v3.431a.221.221,0,0,1-.221.221h0ZM31.363,8.782A1.968,1.968,0,0,0,28.7,10.624v.886H26.721V2.132h5.231a1.951,1.951,0,0,0-.589,1.4ZM42.015,2.353V4.425a1.948,1.948,0,0,0-.623-.125,1.968,1.968,0,0,0-.766.124V3.805a2,2,0,0,0-.886-1.674h2.054A.221.221,0,0,1,42.015,2.353ZM21.795,1.274h3.431a.221.221,0,0,1,.221.221h0V12.147h0v0a.221.221,0,0,1-.221.221H21.795a.221.221,0,0,1-.221-.221V1.495a.221.221,0,0,1,.221-.221Zm-6.176.332,1.391.348a5.969,5.969,0,0,0,1.446.178H20.3v9.379H19.132a4.66,4.66,0,0,0-2.779.926l-.533.4a3.378,3.378,0,0,1-2.015.672H10.624a.695.695,0,1,1,0-1.389h2.3a.637.637,0,0,0,0-1.274H3.536a.695.695,0,0,1-.694-.721.717.717,0,0,1,.726-.669H10.4a.637.637,0,1,0,0-1.274H2.826a.695.695,0,0,1-.694-.721.717.717,0,0,1,.726-.669H10.4a.637.637,0,1,0,0-1.274H3.774A.695.695,0,0,1,3.08,4.8a.717.717,0,0,1,.726-.669h6.6a.637.637,0,1,0,0-1.274H6.267a.695.695,0,0,1-.694-.721A.717.717,0,0,1,6.3,1.466h8.184a4.694,4.694,0,0,1,1.137.14ZM11.51,16.76h-5.4a.637.637,0,1,0,0,1.274h6.039a.221.221,0,0,1,.219.221v3.431a.221.221,0,0,1-.221.221H1.495a.221.221,0,0,1-.221-.221V18.255a.221.221,0,0,1,.218-.221H3.142a.637.637,0,0,0,0-1.274H2.132v-5.23a1.952,1.952,0,0,0,1.4.589H8.782a1.969,1.969,0,0,0,1.842,2.663h.886V16.76ZM2.353,1.466H4.425a1.976,1.976,0,0,0,0,1.389H3.806a2,2,0,0,0-1.674.886V1.687a.221.221,0,0,1,.221-.221ZM1.687,41.35a.221.221,0,0,1-.221-.221V39.056a1.951,1.951,0,0,0,.624.126,1.97,1.97,0,0,0,.766-.124v.618a2,2,0,0,0,.886,1.674Zm11.821-8.492a.695.695,0,1,1-1.389,0v-2.3a.637.637,0,0,0-1.274,0v9.39a.695.695,0,0,1-.721.694.717.717,0,0,1-.669-.726V33.08a.637.637,0,1,0-1.274,0v7.565a.695.695,0,0,1-.721.694.717.717,0,0,1-.669-.726V33.08a.637.637,0,1,0-1.274,0v6.628A.695.695,0,0,1,4.8,40.4a.717.717,0,0,1-.669-.726v-6.6a.637.637,0,0,0-1.274,0v4.135a.695.695,0,0,1-.721.694.717.717,0,0,1-.669-.726V29a4.7,4.7,0,0,1,.14-1.137l.348-1.391a5.969,5.969,0,0,0,.178-1.446V23.181h9.379V24.35a4.66,4.66,0,0,0,.926,2.779l.4.533a3.378,3.378,0,0,1,.672,2.015v3.182Zm.348-5.961-.4-.533a3.378,3.378,0,0,1-.672-2.015V23.039a1.5,1.5,0,0,0,.862-1.352V18.255a1.5,1.5,0,0,0-.862-1.353v-2.12h1.021a4.66,4.66,0,0,0,2.779-.926l.533-.4a3.378,3.378,0,0,1,2.015-.672h1.311a1.5,1.5,0,0,0,1.352.862h3.431a1.5,1.5,0,0,0,1.353-.862H28.7v1.021a4.657,4.657,0,0,0,.926,2.779l.4.533a3.381,3.381,0,0,1,.672,2.015v1.311a1.5,1.5,0,0,0-.862,1.352v3.431a1.5,1.5,0,0,0,.862,1.353V28.7H29.676a4.66,4.66,0,0,0-2.779.926l-.533.4a3.378,3.378,0,0,1-2.015.672H23.039a1.5,1.5,0,0,0-1.352-.862H18.255A1.5,1.5,0,0,0,16.9,30.7H14.782V29.676a4.66,4.66,0,0,0-.926-2.779Zm7.831,15.31H18.255a.221.221,0,0,1-.221-.218V31.335s0,0,0-.006a.221.221,0,0,1,.221-.22h3.431a.221.221,0,0,1,.221.221V41.987a.221.221,0,0,1-.221.221Zm6.176-.332-1.391-.348a5.969,5.969,0,0,0-1.446-.178H23.181V31.971H24.35a4.66,4.66,0,0,0,2.779-.926l.533-.4a3.378,3.378,0,0,1,2.015-.672h3.182a.695.695,0,1,1,0,1.389h-2.3a.637.637,0,0,0,0,1.274h9.39a.695.695,0,0,1,.694.721.717.717,0,0,1-.726.669H33.08a.637.637,0,1,0,0,1.274h7.575a.695.695,0,0,1,.694.721.717.717,0,0,1-.726.669H33.08a.637.637,0,0,0,0,1.274h6.628a.695.695,0,0,1,.694.721.717.717,0,0,1-.726.669h-6.6a.637.637,0,0,0,0,1.274h4.135a.695.695,0,0,1,.694.721.717.717,0,0,1-.726.669H29a4.693,4.693,0,0,1-1.137-.14Zm13.266.14H39.057a1.976,1.976,0,0,0,0-1.389h.618a2,2,0,0,0,1.674-.886v2.054A.221.221,0,0,1,41.129,42.015Z" transform="translate(0 0)"/>
        <path id="Trazado_1040120" data-name="Trazado 1040120" d="M382.209,269.264a.643.643,0,1,0,.643.643A.643.643,0,0,0,382.209,269.264Z" transform="translate(-349.162 -246.397)"/>
        <path id="Trazado_1040121" data-name="Trazado 1040121" d="M228.227,381.565a.643.643,0,1,0,.643.643A.643.643,0,0,0,228.227,381.565Z" transform="translate(-208.257 -349.161)"/>
        <path id="Trazado_1040122" data-name="Trazado 1040122" d="M115.925,228.871a.643.643,0,1,0-.643-.643A.643.643,0,0,0,115.925,228.871Z" transform="translate(-105.492 -208.257)"/>
        <path id="Trazado_1040123" data-name="Trazado 1040123" d="M269.907,116.57a.643.643,0,1,0-.643-.643A.643.643,0,0,0,269.907,116.57Z" transform="translate(-246.397 -105.493)"/>
        <path id="Trazado_1040124" data-name="Trazado 1040124" d="M234.347,236.356a2.01,2.01,0,1,0-2.01-2.01A2.012,2.012,0,0,0,234.347,236.356Zm0-2.745a.736.736,0,1,1-.736.736A.737.737,0,0,1,234.347,233.611Z" transform="translate(-212.606 -212.606)"/>
        <path id="Trazado_1040125" data-name="Trazado 1040125" d="M181.762,183.318l-.893.97a1.489,1.489,0,0,0-.195,1.76l.742,1.285a1.488,1.488,0,0,0,1.622.711l1.287-.289.393,1.259a1.488,1.488,0,0,0,1.427,1.049h1.484a1.489,1.489,0,0,0,1.427-1.049l.393-1.259,1.287.289a1.488,1.488,0,0,0,1.622-.711l.742-1.285a1.489,1.489,0,0,0-.2-1.76l-.893-.97.893-.97a1.488,1.488,0,0,0,.195-1.76l-.742-1.285a1.488,1.488,0,0,0-1.622-.711l-1.287.289-.393-1.259a1.488,1.488,0,0,0-1.427-1.049h-1.484a1.488,1.488,0,0,0-1.427,1.049l-.393,1.259-1.287-.289a1.488,1.488,0,0,0-1.622.711l-.742,1.285a1.489,1.489,0,0,0,.2,1.76Zm.015-2.093.742-1.285a.22.22,0,0,1,.24-.105l1.815.407a.637.637,0,0,0,.458-.07l.057-.033a.637.637,0,0,0,.289-.362l.555-1.775a.22.22,0,0,1,.211-.155h1.484a.22.22,0,0,1,.211.155l.555,1.775a.637.637,0,0,0,.289.362l.057.033a.636.636,0,0,0,.458.07l1.815-.407a.22.22,0,0,1,.24.105l.742,1.285a.22.22,0,0,1-.029.26l-1.26,1.368a.637.637,0,0,0-.168.432v.066a.637.637,0,0,0,.168.432l1.26,1.368a.22.22,0,0,1,.029.26l-.742,1.285a.22.22,0,0,1-.24.105l-1.815-.407a.637.637,0,0,0-.459.07l-.057.033a.637.637,0,0,0-.289.362l-.555,1.775a.22.22,0,0,1-.211.155h-1.484a.22.22,0,0,1-.211-.155l-.555-1.775a.637.637,0,0,0-.289-.362l-.057-.033a.637.637,0,0,0-.458-.07l-1.815.407a.221.221,0,0,1-.24-.105l-.742-1.285a.22.22,0,0,1,.029-.26l1.26-1.368a.637.637,0,0,0,.168-.432v-.066a.637.637,0,0,0-.168-.432l-1.26-1.368a.22.22,0,0,1-.029-.26Z" transform="translate(-165.145 -161.578)"/>
      </g>
    </g>
  </g>
</svg>
