<svg xmlns="http://www.w3.org/2000/svg" xmlns:xlink="http://www.w3.org/1999/xlink" width="93.934" height="93.934" viewBox="0 0 93.934 93.934">
  <defs>
    <filter id="Trazado_982547" x="0" y="0" width="93.934" height="93.934" filterUnits="userSpaceOnUse">
      <feOffset dy="3" input="SourceAlpha"/>
      <feGaussianBlur stdDeviation="3" result="blur"/>
      <feFlood flood-opacity="0.161"/>
      <feComposite operator="in" in2="blur"/>
      <feComposite in="SourceGraphic"/>
    </filter>
  </defs>
  <g id="Grupo_1180707" data-name="Grupo 1180707" transform="translate(-609 -2821)">
    <g id="Grupo_1179708" data-name="Grupo 1179708" transform="translate(0 42)">
      <g id="Grupo_1174890" data-name="Grupo 1174890" transform="translate(419.967 793)">
        <g id="Grupo_1167337" data-name="Grupo 1167337" transform="translate(198.033 1992)">
          <g id="Grupo_1166720" data-name="Grupo 1166720">
            <g id="Grupo_1164305" data-name="Grupo 1164305">
              <g id="Grupo_1163948" data-name="Grupo 1163948">
                <g id="Grupo_1158168" data-name="Grupo 1158168">
                  <g id="Grupo_1152576" data-name="Grupo 1152576">
                    <g id="Grupo_1148633" data-name="Grupo 1148633">
                      <g id="Grupo_1148525" data-name="Grupo 1148525">
                        <g transform="matrix(1, 0, 0, 1, -9, -6)" filter="url(#Trazado_982547)">
                          <g id="Trazado_982547-2" data-name="Trazado 982547" transform="translate(9 6)" fill="#e9f9fd">
                            <path d="M 37.966796875 74.43359375 C 33.04315185546875 74.43359375 28.26757431030273 73.46962738037109 23.77274131774902 71.56847381591797 C 19.43047523498535 69.73184967041016 15.53040790557861 67.10224914550781 12.18087482452393 63.75271987915039 C 8.831341743469238 60.4031867980957 6.201741218566895 56.50312042236328 4.365118980407715 52.16086196899414 C 2.463963508605957 47.66601943969727 1.499996900558472 42.89044189453125 1.499996900558472 37.966796875 C 1.499996900558472 33.04315185546875 2.463963508605957 28.26757431030273 4.365118980407715 23.77274131774902 C 6.201741218566895 19.43047523498535 8.831341743469238 15.53040790557861 12.18087482452393 12.18087482452393 C 15.53040790557861 8.831341743469238 19.43047523498535 6.201741218566895 23.77274131774902 4.365118980407715 C 28.26757431030273 2.463963508605957 33.04315185546875 1.499996900558472 37.966796875 1.499996900558472 C 42.89044189453125 1.499996900558472 47.66601943969727 2.463963508605957 52.16086196899414 4.365118980407715 C 56.50312042236328 6.201741218566895 60.4031867980957 8.831341743469238 63.75271987915039 12.18087482452393 C 67.10224914550781 15.53040790557861 69.73184967041016 19.43047523498535 71.56847381591797 23.77274131774902 C 73.46962738037109 28.26757431030273 74.43359375 33.04315185546875 74.43359375 37.966796875 C 74.43359375 42.89044189453125 73.46962738037109 47.66601943969727 71.56847381591797 52.16086196899414 C 69.73184967041016 56.50313186645508 67.10224914550781 60.4031867980957 63.75271987915039 63.75271987915039 C 60.4031867980957 67.10224914550781 56.50313186645508 69.73184967041016 52.16086196899414 71.56847381591797 C 47.66601943969727 73.46962738037109 42.89044189453125 74.43359375 37.966796875 74.43359375 Z" stroke="none"/>
                            <path d="M 37.966796875 3 C 33.2449836730957 3 28.66600799560547 3.924095153808594 24.35705947875977 5.746635437011719 C 20.19359588623047 7.507637023925781 16.45379638671875 10.02928161621094 13.24153518676758 13.24153518676758 C 10.02927398681641 16.45379638671875 7.507621765136719 20.19359588623047 5.746635437011719 24.35705947875977 C 3.924095153808594 28.66600799560547 3 33.2449836730957 3 37.966796875 C 3 42.6886100769043 3.924095153808594 47.26758575439453 5.746635437011719 51.57653427124023 C 7.507621765136719 55.73999786376953 10.02927398681641 59.47979736328125 13.24153518676758 62.69205856323242 C 16.45379638671875 65.90431976318359 20.19359588623047 68.42597198486328 24.35705947875977 70.18695831298828 C 28.66600799560547 72.00949859619141 33.2449836730957 72.93359375 37.966796875 72.93359375 C 42.6886100769043 72.93359375 47.26758575439453 72.00949859619141 51.57653427124023 70.18695831298828 C 55.73999786376953 68.42597198486328 59.47979736328125 65.90431976318359 62.69205856323242 62.69205856323242 C 65.90431976318359 59.47979736328125 68.42597198486328 55.73999786376953 70.18695831298828 51.57653427124023 C 72.00949859619141 47.26758575439453 72.93359375 42.6886100769043 72.93359375 37.966796875 C 72.93359375 33.2449836730957 72.00949859619141 28.66600799560547 70.18695831298828 24.35705947875977 C 68.42597198486328 20.19359588623047 65.90431976318359 16.45379638671875 62.69205856323242 13.24153518676758 C 59.47979736328125 10.02928161621094 55.73999786376953 7.507637023925781 51.57653427124023 5.746635437011719 C 47.26758575439453 3.924095153808594 42.6886100769043 3 37.966796875 3 M 37.966796875 0 C 58.93528366088867 0 75.93359375 16.99832153320312 75.93359375 37.966796875 C 75.93359375 58.93528366088867 58.93528366088867 75.93359375 37.966796875 75.93359375 C 16.99831008911133 75.93359375 0 58.93528366088867 0 37.966796875 C 0 16.99832153320312 16.99831008911133 0 37.966796875 0 Z" stroke="none" fill="#1d7083"/>
                          </g>
                        </g>
                      </g>
                    </g>
                  </g>
                </g>
              </g>
            </g>
          </g>
        </g>
      </g>
    </g>
    <g id="estadisticas" transform="translate(633 2830.6)">
      <g id="Grupo_1180705" data-name="Grupo 1180705" transform="translate(0.664 13.064)">
        <path id="Trazado_1040126" data-name="Trazado 1040126" d="M16.022,392.243H9.976A2.476,2.476,0,0,0,7.5,394.719v6.363h11v-6.363A2.476,2.476,0,0,0,16.022,392.243Z" transform="translate(-7.5 -359.285)" fill="#61a2f9"/>
        <path id="Trazado_1040127" data-name="Trazado 1040127" d="M12.349,392.237a2.477,2.477,0,0,0-2.477,2.477v6.363H7.5v-6.363a2.476,2.476,0,0,1,2.476-2.477Z" transform="translate(-7.5 -359.279)" fill="#4073c8"/>
        <path id="Trazado_1040128" data-name="Trazado 1040128" d="M140.273,326.693h-6.046a2.476,2.476,0,0,0-2.476,2.476v12.165h11V329.169A2.476,2.476,0,0,0,140.273,326.693Z" transform="translate(-120.753 -299.537)" fill="#78d0b1"/>
        <path id="Trazado_1040129" data-name="Trazado 1040129" d="M136.6,326.687a2.477,2.477,0,0,0-2.477,2.477v12.165H131.75V329.164a2.476,2.476,0,0,1,2.476-2.477Z" transform="translate(-120.752 -299.531)" fill="#57988b"/>
        <path id="Trazado_1040130" data-name="Trazado 1040130" d="M264.523,235.944h-6.046A2.476,2.476,0,0,0,256,238.42v20.2h11v-20.2A2.476,2.476,0,0,0,264.523,235.944Z" transform="translate(-234.005 -216.821)" fill="#f6e266"/>
        <path id="Trazado_1040131" data-name="Trazado 1040131" d="M260.849,235.938a2.477,2.477,0,0,0-2.477,2.477v20.2H256v-20.2a2.476,2.476,0,0,1,2.476-2.477Z" transform="translate(-234.004 -216.815)" fill="#eab14d"/>
        <path id="Trazado_1040132" data-name="Trazado 1040132" d="M388.773,122.345h-6.046a2.476,2.476,0,0,0-2.476,2.476v30.253h11V124.821A2.476,2.476,0,0,0,388.773,122.345Z" transform="translate(-347.257 -113.277)" fill="#dd636e"/>
        <path id="Trazado_1040133" data-name="Trazado 1040133" d="M385.1,122.34a2.477,2.477,0,0,0-2.477,2.477V155.07H380.25V124.817a2.476,2.476,0,0,1,2.476-2.477Z" transform="translate(-347.256 -113.272)" fill="#c10a54"/>
        <path id="Trazado_1040134" data-name="Trazado 1040134" d="M85.842,19.9l-9.494.787,1.2,1.728L58.925,35.328,61.957,39.7,80.578,26.788l1.2,1.728Z" transform="translate(-54.373 -19.9)" fill="#dd636e"/>
      </g>
      <g id="Grupo_1180706" data-name="Grupo 1180706" transform="translate(0 12.4)">
        <path id="Trazado_1040135" data-name="Trazado 1040135" d="M44.656,142.6a.664.664,0,0,0,.664-.664V117.99a3.143,3.143,0,0,0-3.14-3.14H36.134a3.143,3.143,0,0,0-3.14,3.14v7.493a3.122,3.122,0,0,0-1.812-.578H25.136a3.144,3.144,0,0,0-3.14,3.14v5.471a3.121,3.121,0,0,0-1.812-.578H14.138a3.144,3.144,0,0,0-3.14,3.14v3.24a3.121,3.121,0,0,0-1.812-.578H3.14A3.144,3.144,0,0,0,0,141.88v6.363a.664.664,0,0,0,.664.664H44.656a.664.664,0,0,0,.664-.664v-3.65a.664.664,0,1,0-1.328,0v2.987h-9.67V117.99a1.814,1.814,0,0,1,1.812-1.812h6.047a1.814,1.814,0,0,1,1.812,1.812v23.947A.664.664,0,0,0,44.656,142.6ZM1.328,141.88a1.814,1.814,0,0,1,1.812-1.812H9.186A1.814,1.814,0,0,1,11,141.88v5.7H1.328Zm11-5.8a1.814,1.814,0,0,1,1.812-1.812h6.046A1.814,1.814,0,0,1,22,136.078v11.5h-9.67Zm11-8.033a1.814,1.814,0,0,1,1.812-1.812h6.046a1.814,1.814,0,0,1,1.812,1.812v19.534h-9.67Z" transform="translate(0 -105.781)"/>
        <path id="Trazado_1040136" data-name="Trazado 1040136" d="M54.579,33.243a.664.664,0,0,0,.924.167L73.578,20.876l.82,1.182a.664.664,0,0,0,1.146-.1l4.065-8.616a.664.664,0,0,0-.655-.945l-9.494.787a.664.664,0,0,0-.491,1.04l.82,1.183L58.178,23.464a.664.664,0,1,0,.757,1.091l12.157-8.43a.664.664,0,0,0,.167-.924l-.543-.784,7.2-.6-3.084,6.536-.543-.783a.664.664,0,0,0-.924-.167L55.292,31.941l-2.275-3.282,3.744-2.6A.664.664,0,1,0,56,24.971l-4.289,2.975a.664.664,0,0,0-.167.924Z" transform="translate(-46.876 -12.4)"/>
      </g>
    </g>
  </g>
</svg>
