<svg xmlns="http://www.w3.org/2000/svg" xmlns:xlink="http://www.w3.org/1999/xlink" width="505" height="359" viewBox="0 0 505 359">
  <defs>
    <clipPath id="clip-path">
      <rect id="Rectángulo_414922" data-name="Rectángulo 414922" width="505" height="359" transform="translate(915.461 7224)" fill="#fff" stroke="#707070" stroke-width="1" opacity="0.72"/>
    </clipPath>
    <clipPath id="clip-path-2">
      <path id="Trazado_1033742" data-name="Trazado 1033742" d="M809.1,2179.263a64.4,64.4,0,0,1-17.16,43.859c-.161.174-.322.347-.486.52q-.842.893-1.721,1.752a64.675,64.675,0,0,1-15.373,11.187c-.1.051-.2.1-.293.152a64.618,64.618,0,0,1-57.612.792q-.774-.372-1.535-.767-2.415-1.242-4.706-2.679a64.849,64.849,0,0,1-12.838-10.551q-.308-.327-.612-.66a64.631,64.631,0,1,1,112.337-43.6Z" transform="translate(-679.837 -2114.631)"/>
    </clipPath>
    <clipPath id="clip-path-3">
      <path id="Trazado_1033802" data-name="Trazado 1033802" d="M1280.116,521.8a64.885,64.885,0,0,1-17.291,44.192c-.162.175-.325.35-.49.524q-.849.9-1.734,1.765a65.161,65.161,0,0,1-15.49,11.272c-.1.052-.2.1-.3.154a65.105,65.105,0,0,1-58.049.8q-.78-.375-1.547-.772-2.433-1.252-4.742-2.7a65.33,65.33,0,0,1-12.936-10.631q-.31-.329-.617-.665a65.122,65.122,0,1,1,113.19-43.935Z" transform="translate(-1149.872 -456.676)"/>
    </clipPath>
  </defs>
  <g id="Enmascarar_grupo_1098802" data-name="Enmascarar grupo 1098802" transform="translate(-915.461 -7224)" clip-path="url(#clip-path)">
    <g id="Grupo_1180276" data-name="Grupo 1180276" transform="translate(7040.023 1840.896)">
      <path id="die" d="M581.586,373.884c-40.02,8.409-41.811,34.9-93.846,42.955-33.766,5.228-55.934-2.387-77.156,15.732-17.269,14.745-21.829,36.21-22.435,39.262-3.734,18.785,1.78,33.582,4.1,41.861,16.165,57.587-40.463,90.378-26.266,141.179,9.847,35.233,49.646,64.4,82.765,64.844,19.23.256,47.016-9.03,66.89-15.671a143.074,143.074,0,0,1,27.922-6.832c24.941-3.4,43.911-.208,60.7,4.571h0C625.863,730.577,728.8,721.5,763.12,662.26c18.374-31.708,10.955-67.2,10.534-69.084-4.26-19.049-13.425-20.61-19.562-40.083-9.451-29.985,3.777-47.19,3.146-68.537C755.557,427.686,656.026,358.243,581.586,373.884Z" transform="translate(-6438 5011.217)" fill="#f2f7e5"/>
      <g id="decor" transform="translate(-6063.023 5406.365)">
        <g id="Grupo_1179975" data-name="Grupo 1179975" transform="translate(0 0)">
          <g id="Grupo_1179955" data-name="Grupo 1179955" transform="translate(24.286 68.402)">
            <path id="Trazado_1033646" data-name="Trazado 1033646" d="M686.5,1203.508a3.282,3.282,0,1,1,3.282-3.282A3.286,3.286,0,0,1,686.5,1203.508Zm0-6.11a2.827,2.827,0,1,0,2.827,2.827A2.831,2.831,0,0,0,686.5,1197.4Z" transform="translate(-683.214 -1196.944)" fill="#95b0ce"/>
          </g>
          <g id="Grupo_1179956" data-name="Grupo 1179956" transform="translate(82.801 127.217)">
            <path id="Trazado_1033647" data-name="Trazado 1033647" d="M1211.959,1731.658a3.282,3.282,0,1,1,3.282-3.282A3.286,3.286,0,0,1,1211.959,1731.658Zm0-6.109a2.827,2.827,0,1,0,2.827,2.827A2.83,2.83,0,0,0,1211.959,1725.549Z" transform="translate(-1208.677 -1725.094)" fill="#95b0ce"/>
          </g>
          <g id="Grupo_1179957" data-name="Grupo 1179957" transform="translate(221.833 148.619)">
            <path id="Trazado_1033648" data-name="Trazado 1033648" d="M2460.459,1923.848a3.282,3.282,0,1,1,3.282-3.282A3.286,3.286,0,0,1,2460.459,1923.848Zm0-6.11a2.827,2.827,0,1,0,2.827,2.827A2.83,2.83,0,0,0,2460.459,1917.738Z" transform="translate(-2457.177 -1917.284)" fill="#95b0ce"/>
          </g>
          <g id="Grupo_1179958" data-name="Grupo 1179958" transform="translate(217.024)">
            <path id="Trazado_1033649" data-name="Trazado 1033649" d="M2417.279,589.259a3.282,3.282,0,1,1,3.282-3.282A3.286,3.286,0,0,1,2417.279,589.259Zm0-6.109a2.827,2.827,0,1,0,2.827,2.827A2.831,2.831,0,0,0,2417.279,583.15Z" transform="translate(-2413.997 -582.695)" fill="#95b0ce"/>
          </g>
          <g id="Grupo_1179959" data-name="Grupo 1179959" transform="translate(279.548 89.878)">
            <path id="Trazado_1033650" data-name="Trazado 1033650" d="M2978.739,1396.358a3.282,3.282,0,1,1,3.283-3.282A3.286,3.286,0,0,1,2978.739,1396.358Zm0-6.109a2.827,2.827,0,1,0,2.828,2.827A2.831,2.831,0,0,0,2978.739,1390.249Z" transform="translate(-2975.457 -1389.794)" fill="#95b0ce"/>
          </g>
          <g id="Grupo_1179960" data-name="Grupo 1179960" transform="translate(205.946 241.743)">
            <path id="Trazado_1033651" data-name="Trazado 1033651" d="M2317.8,2760.1a3.282,3.282,0,1,1,3.282-3.283A3.286,3.286,0,0,1,2317.8,2760.1Zm0-6.109a2.827,2.827,0,1,0,2.827,2.827A2.83,2.83,0,0,0,2317.8,2753.989Z" transform="translate(-2314.518 -2753.534)" fill="#95b0ce"/>
          </g>
          <g id="Grupo_1179961" data-name="Grupo 1179961" transform="translate(261.341 13.543)">
            <path id="Trazado_1033652" data-name="Trazado 1033652" d="M2814.411,709.208a2.448,2.448,0,1,1,2.448-2.448A2.451,2.451,0,0,1,2814.411,709.208Zm0-4.442a1.994,1.994,0,1,0,1.993,1.994A2,2,0,0,0,2814.411,704.766Z" transform="translate(-2811.963 -704.311)" fill="#95b0ce"/>
          </g>
          <g id="Grupo_1179962" data-name="Grupo 1179962" transform="translate(326.263 64.518)">
            <path id="Trazado_1033653" data-name="Trazado 1033653" d="M3397.4,1166.965a2.448,2.448,0,1,1,2.448-2.448A2.451,2.451,0,0,1,3397.4,1166.965Zm0-4.442a1.993,1.993,0,1,0,1.993,1.994A2,2,0,0,0,3397.4,1162.523Z" transform="translate(-3394.953 -1162.068)" fill="#95b0ce"/>
          </g>
          <g id="Grupo_1179963" data-name="Grupo 1179963" transform="translate(164.192 263.175)">
            <path id="Trazado_1033654" data-name="Trazado 1033654" d="M1942.012,2950.895a2.448,2.448,0,1,1,2.448-2.448A2.451,2.451,0,0,1,1942.012,2950.895Zm0-4.44a1.993,1.993,0,1,0,1.994,1.993A2,2,0,0,0,1942.012,2946.454Z" transform="translate(-1939.564 -2945.998)" fill="#95b0ce"/>
          </g>
          <g id="Grupo_1179964" data-name="Grupo 1179964" transform="translate(235.533 226.069)">
            <path id="Trazado_1033655" data-name="Trazado 1033655" d="M2582.651,2617.685a2.448,2.448,0,1,1,2.448-2.448A2.451,2.451,0,0,1,2582.651,2617.685Zm0-4.442a1.994,1.994,0,1,0,1.994,1.993A2,2,0,0,0,2582.651,2613.242Z" transform="translate(-2580.203 -2612.788)" fill="#95b0ce"/>
          </g>
          <g id="Grupo_1179965" data-name="Grupo 1179965" transform="translate(233.53 78.639)">
            <path id="Trazado_1033656" data-name="Trazado 1033656" d="M2564.186,1292.8a1.968,1.968,0,1,1,1.968-1.968A1.97,1.97,0,0,1,2564.186,1292.8Zm0-3.481a1.513,1.513,0,1,0,1.513,1.513A1.515,1.515,0,0,0,2564.186,1289.321Z" transform="translate(-2562.218 -1288.866)" fill="#95b0ce"/>
          </g>
          <g id="Grupo_1179966" data-name="Grupo 1179966" transform="translate(342.159 265.673)">
            <path id="Trazado_1033657" data-name="Trazado 1033657" d="M3539.666,2972.362a1.968,1.968,0,1,1,1.968-1.968A1.97,1.97,0,0,1,3539.666,2972.362Zm0-3.481a1.513,1.513,0,1,0,1.512,1.513A1.515,1.515,0,0,0,3539.666,2968.881Z" transform="translate(-3537.698 -2968.426)" fill="#95b0ce"/>
          </g>
          <g id="Grupo_1179967" data-name="Grupo 1179967" transform="translate(240.166 254.891)">
            <path id="Trazado_1033658" data-name="Trazado 1033658" d="M2623.776,2875.542a1.968,1.968,0,1,1,1.968-1.968A1.97,1.97,0,0,1,2623.776,2875.542Zm0-3.481a1.513,1.513,0,1,0,1.512,1.513A1.514,1.514,0,0,0,2623.776,2872.061Z" transform="translate(-2621.808 -2871.606)" fill="#95b0ce"/>
          </g>
          <g id="Grupo_1179968" data-name="Grupo 1179968" transform="translate(277.757 293.649)">
            <path id="Trazado_1033659" data-name="Trazado 1033659" d="M2961.346,3223.581a1.968,1.968,0,1,1,1.968-1.968A1.97,1.97,0,0,1,2961.346,3223.581Zm0-3.481a1.513,1.513,0,1,0,1.513,1.513A1.515,1.515,0,0,0,2961.346,3220.1Z" transform="translate(-2959.378 -3219.646)" fill="#95b0ce"/>
          </g>
          <g id="Grupo_1179969" data-name="Grupo 1179969" transform="translate(367.687 260.062)">
            <path id="Trazado_1033660" data-name="Trazado 1033660" d="M3768.906,2921.973a1.968,1.968,0,1,1,1.967-1.968A1.97,1.97,0,0,1,3768.906,2921.973Zm0-3.481a1.513,1.513,0,1,0,1.513,1.513A1.515,1.515,0,0,0,3768.906,2918.492Z" transform="translate(-3766.938 -2918.037)" fill="#95b0ce"/>
          </g>
          <g id="Grupo_1179970" data-name="Grupo 1179970" transform="translate(326.743 30.917)">
            <path id="Trazado_1033661" data-name="Trazado 1033661" d="M3401.236,864.267a1.968,1.968,0,1,1,1.968-1.968A1.97,1.97,0,0,1,3401.236,864.267Zm0-3.481a1.513,1.513,0,1,0,1.513,1.513A1.515,1.515,0,0,0,3401.236,860.786Z" transform="translate(-3399.268 -860.331)" fill="#95b0ce"/>
          </g>
          <g id="Grupo_1179971" data-name="Grupo 1179971" transform="translate(160.296 192.352)">
            <path id="Trazado_1033662" data-name="Trazado 1033662" d="M1906.546,2313.942a1.968,1.968,0,1,1,1.968-1.968A1.97,1.97,0,0,1,1906.546,2313.942Zm0-3.479a1.513,1.513,0,1,0,1.513,1.512A1.514,1.514,0,0,0,1906.546,2310.463Z" transform="translate(-1904.578 -2310.007)" fill="#95b0ce"/>
          </g>
          <g id="Grupo_1179972" data-name="Grupo 1179972" transform="translate(389.038 230.699)">
            <path id="Trazado_1033663" data-name="Trazado 1033663" d="M3960.646,2658.3a1.968,1.968,0,1,1,1.968-1.968A1.97,1.97,0,0,1,3960.646,2658.3Zm0-3.481a1.513,1.513,0,1,0,1.513,1.513A1.514,1.514,0,0,0,3960.646,2654.821Z" transform="translate(-3958.678 -2654.365)" fill="#95b0ce"/>
          </g>
          <g id="Grupo_1179973" data-name="Grupo 1179973" transform="translate(231.259 55.567)">
            <path id="Trazado_1033664" data-name="Trazado 1033664" d="M2543.8,1085.622a1.968,1.968,0,1,1,1.969-1.968A1.97,1.97,0,0,1,2543.8,1085.622Zm0-3.481a1.513,1.513,0,1,0,1.513,1.513A1.514,1.514,0,0,0,2543.8,1082.141Z" transform="translate(-2541.828 -1081.686)" fill="#95b0ce"/>
          </g>
          <g id="Grupo_1179974" data-name="Grupo 1179974" transform="translate(0 254.952)">
            <path id="Trazado_1033665" data-name="Trazado 1033665" d="M467.578,2877.045a2.448,2.448,0,1,1,2.448-2.448A2.451,2.451,0,0,1,467.578,2877.045Zm0-4.442a1.994,1.994,0,1,0,1.994,1.994A2,2,0,0,0,467.578,2872.6Z" transform="translate(-465.13 -2872.148)" fill="#95b0ce"/>
          </g>
        </g>
      </g>
      <g id="icons" transform="translate(-6019.95 5453.29)">
        <g id="Grupo_1179983" data-name="Grupo 1179983" transform="translate(135.068 182.567)">
          <g id="Grupo_1179982" data-name="Grupo 1179982">
            <g id="Grupo_1179976" data-name="Grupo 1179976" transform="translate(0 0.001)">
              <path id="Trazado_1033666" data-name="Trazado 1033666" d="M2086.023,2670.218H2065.1a.278.278,0,0,1-.278-.279v-19.531a.279.279,0,0,1,.07-.185l5.837-6.594a.278.278,0,0,1,.208-.094h15.083a.278.278,0,0,1,.278.278v26.126A.278.278,0,0,1,2086.023,2670.218Zm-20.642-.558h20.364v-25.57h-14.679l-5.684,6.422v19.147Z" transform="translate(-2064.825 -2643.536)" fill="#95b0ce"/>
            </g>
            <g id="Grupo_1179977" data-name="Grupo 1179977">
              <path id="Trazado_1033667" data-name="Trazado 1033667" d="M2070.939,2650.554H2065.1a.278.278,0,0,1-.207-.464l5.837-6.469a.278.278,0,0,1,.485.186v6.469A.278.278,0,0,1,2070.939,2650.554Zm-5.212-.556h4.934v-5.467Z" transform="translate(-2064.823 -2643.53)" fill="#95b0ce"/>
            </g>
            <g id="Grupo_1179978" data-name="Grupo 1179978" transform="translate(2.556 10.065)">
              <path id="Trazado_1033668" data-name="Trazado 1033668" d="M2103.646,2734.472h-15.588a.278.278,0,0,1,0-.556h15.588a.278.278,0,1,1,0,.556Z" transform="translate(-2087.78 -2733.916)" fill="#95b0ce"/>
            </g>
            <g id="Grupo_1179979" data-name="Grupo 1179979" transform="translate(2.556 13.663)">
              <path id="Trazado_1033669" data-name="Trazado 1033669" d="M2103.646,2766.781h-15.588a.278.278,0,0,1,0-.556h15.588a.278.278,0,1,1,0,.556Z" transform="translate(-2087.78 -2766.226)" fill="#95b0ce"/>
            </g>
            <g id="Grupo_1179980" data-name="Grupo 1179980" transform="translate(2.556 17.26)">
              <path id="Trazado_1033670" data-name="Trazado 1033670" d="M2098.97,2799.082h-10.917a.278.278,0,1,1,0-.556h10.917a.278.278,0,1,1,0,.556Z" transform="translate(-2087.775 -2798.526)" fill="#95b0ce"/>
            </g>
            <g id="Grupo_1179981" data-name="Grupo 1179981" transform="translate(2.556 20.857)">
              <path id="Trazado_1033671" data-name="Trazado 1033671" d="M2094.93,2831.382h-6.879a.278.278,0,1,1,0-.556h6.879a.278.278,0,0,1,0,.556Z" transform="translate(-2087.773 -2830.826)" fill="#95b0ce"/>
            </g>
          </g>
        </g>
        <g id="Grupo_1179991" data-name="Grupo 1179991" transform="translate(290.242 28.849)">
          <g id="Grupo_1179990" data-name="Grupo 1179990">
            <g id="Grupo_1179984" data-name="Grupo 1179984">
              <path id="Trazado_1033672" data-name="Trazado 1033672" d="M3477.588,1287.446h-19.051a.253.253,0,0,1-.253-.253v-17.786a.252.252,0,0,1,.063-.168l5.316-6.005a.254.254,0,0,1,.189-.086h13.735a.253.253,0,0,1,.253.253v23.791A.252.252,0,0,1,3477.588,1287.446Zm-18.8-.506h18.544v-23.285h-13.368l-5.176,5.848Z" transform="translate(-3458.285 -1263.148)" fill="#95b0ce"/>
            </g>
            <g id="Grupo_1179985" data-name="Grupo 1179985" transform="translate(0.001 0.001)">
              <path id="Trazado_1033673" data-name="Trazado 1033673" d="M3463.859,1269.554h-5.315a.253.253,0,0,1-.188-.423l5.316-5.891a.254.254,0,0,1,.442.17v5.89A.255.255,0,0,1,3463.859,1269.554Zm-4.746-.507h4.493v-4.978Z" transform="translate(-3458.291 -1263.157)" fill="#95b0ce"/>
            </g>
            <g id="Grupo_1179986" data-name="Grupo 1179986" transform="translate(2.328 9.166)">
              <path id="Trazado_1033674" data-name="Trazado 1033674" d="M3493.638,1345.968h-14.194a.253.253,0,0,1,0-.506h14.194a.253.253,0,0,1,0,.506Z" transform="translate(-3479.191 -1345.462)" fill="#95b0ce"/>
            </g>
            <g id="Grupo_1179987" data-name="Grupo 1179987" transform="translate(2.328 12.443)">
              <path id="Trazado_1033675" data-name="Trazado 1033675" d="M3493.638,1375.388h-14.194a.253.253,0,0,1,0-.506h14.194a.253.253,0,0,1,0,.506Z" transform="translate(-3479.191 -1374.882)" fill="#95b0ce"/>
            </g>
            <g id="Grupo_1179988" data-name="Grupo 1179988" transform="translate(2.328 15.718)">
              <path id="Trazado_1033676" data-name="Trazado 1033676" d="M3489.384,1404.8h-9.942a.253.253,0,1,1,0-.506h9.942a.253.253,0,1,1,0,.506Z" transform="translate(-3479.188 -1404.292)" fill="#95b0ce"/>
            </g>
            <g id="Grupo_1179989" data-name="Grupo 1179989" transform="translate(2.328 18.994)">
              <path id="Trazado_1033677" data-name="Trazado 1033677" d="M3485.7,1434.219h-6.264a.253.253,0,1,1,0-.507h6.264a.253.253,0,0,1,0,.507Z" transform="translate(-3479.186 -1433.712)" fill="#95b0ce"/>
            </g>
          </g>
        </g>
        <g id="Grupo_1179999" data-name="Grupo 1179999" transform="translate(256.73 223.656)">
          <g id="Grupo_1179998" data-name="Grupo 1179998">
            <g id="Grupo_1179992" data-name="Grupo 1179992" transform="translate(0)">
              <path id="Trazado_1033678" data-name="Trazado 1033678" d="M3176.658,3036.8h-19.05a.253.253,0,0,1-.253-.253v-17.786a.253.253,0,0,1,.064-.168l5.315-6.005a.254.254,0,0,1,.19-.085h13.734a.253.253,0,0,1,.253.253v23.791A.254.254,0,0,1,3176.658,3036.8Zm-18.8-.507h18.544v-23.285h-13.367l-5.177,5.848Z" transform="translate(-3157.355 -3012.507)" fill="#95b0ce"/>
            </g>
            <g id="Grupo_1179993" data-name="Grupo 1179993">
              <path id="Trazado_1033679" data-name="Trazado 1033679" d="M3162.919,3018.9H3157.6a.253.253,0,0,1-.188-.423l5.315-5.89a.253.253,0,0,1,.441.17v5.89A.252.252,0,0,1,3162.919,3018.9Zm-4.746-.507h4.493v-4.979Z" transform="translate(-3157.35 -3012.507)" fill="#95b0ce"/>
            </g>
            <g id="Grupo_1179994" data-name="Grupo 1179994" transform="translate(2.327 9.165)">
              <path id="Trazado_1033680" data-name="Trazado 1033680" d="M3192.7,3095.319H3178.5a.253.253,0,1,1,0-.507H3192.7a.253.253,0,0,1,0,.507Z" transform="translate(-3178.25 -3094.812)" fill="#95b0ce"/>
            </g>
            <g id="Grupo_1179995" data-name="Grupo 1179995" transform="translate(2.327 12.442)">
              <path id="Trazado_1033681" data-name="Trazado 1033681" d="M3192.7,3124.738H3178.5a.253.253,0,1,1,0-.506H3192.7a.253.253,0,1,1,0,.506Z" transform="translate(-3178.25 -3124.232)" fill="#95b0ce"/>
            </g>
            <g id="Grupo_1179996" data-name="Grupo 1179996" transform="translate(2.327 15.717)">
              <path id="Trazado_1033682" data-name="Trazado 1033682" d="M3188.444,3154.149H3178.5a.253.253,0,1,1,0-.507h9.942a.253.253,0,0,1,0,.507Z" transform="translate(-3178.248 -3153.642)" fill="#95b0ce"/>
            </g>
            <g id="Grupo_1179997" data-name="Grupo 1179997" transform="translate(2.328 18.993)">
              <path id="Trazado_1033683" data-name="Trazado 1033683" d="M3184.773,3183.569h-6.264a.254.254,0,0,1,0-.507h6.264a.254.254,0,0,1,0,.507Z" transform="translate(-3178.256 -3183.062)" fill="#95b0ce"/>
            </g>
          </g>
        </g>
        <g id="Grupo_1180007" data-name="Grupo 1180007" transform="translate(0 0)">
          <g id="Grupo_1180006" data-name="Grupo 1180006">
            <g id="Grupo_1180000" data-name="Grupo 1180000" transform="translate(0 0)">
              <path id="Trazado_1033684" data-name="Trazado 1033684" d="M871.227,1028.386H852.176a.253.253,0,0,1-.253-.253v-17.786a.253.253,0,0,1,.064-.168l5.316-6.005a.253.253,0,0,1,.19-.086h13.735a.253.253,0,0,1,.253.253v23.791A.254.254,0,0,1,871.227,1028.386Zm-18.8-.507h18.544v-23.285H857.606l-5.176,5.848Z" transform="translate(-851.923 -1004.088)" fill="#95b0ce"/>
            </g>
            <g id="Grupo_1180001" data-name="Grupo 1180001">
              <path id="Trazado_1033685" data-name="Trazado 1033685" d="M857.492,1010.484h-5.316a.253.253,0,0,1-.188-.423l5.316-5.89a.253.253,0,0,1,.441.169v5.89A.253.253,0,0,1,857.492,1010.484Zm-4.746-.507h4.493V1005Z" transform="translate(-851.923 -1004.087)" fill="#95b0ce"/>
            </g>
            <g id="Grupo_1180002" data-name="Grupo 1180002" transform="translate(2.327 9.165)">
              <path id="Trazado_1033686" data-name="Trazado 1033686" d="M887.27,1086.9H873.076a.253.253,0,0,1,0-.507h14.194a.253.253,0,1,1,0,.507Z" transform="translate(-872.823 -1086.392)" fill="#95b0ce"/>
            </g>
            <g id="Grupo_1180003" data-name="Grupo 1180003" transform="translate(2.327 12.442)">
              <path id="Trazado_1033687" data-name="Trazado 1033687" d="M887.27,1116.318H873.076a.253.253,0,0,1,0-.507h14.194a.253.253,0,1,1,0,.507Z" transform="translate(-872.823 -1115.812)" fill="#95b0ce"/>
            </g>
            <g id="Grupo_1180004" data-name="Grupo 1180004" transform="translate(2.327 15.717)">
              <path id="Trazado_1033688" data-name="Trazado 1033688" d="M883.018,1145.728h-9.942a.253.253,0,1,1,0-.506h9.942a.253.253,0,1,1,0,.506Z" transform="translate(-872.823 -1145.222)" fill="#95b0ce"/>
            </g>
            <g id="Grupo_1180005" data-name="Grupo 1180005" transform="translate(2.327 18.993)">
              <path id="Trazado_1033689" data-name="Trazado 1033689" d="M879.34,1175.148h-6.264a.253.253,0,1,1,0-.506h6.264a.253.253,0,1,1,0,.506Z" transform="translate(-872.823 -1174.642)" fill="#95b0ce"/>
            </g>
          </g>
        </g>
      </g>
      <g id="documents" transform="translate(-6034.776 5416.247)">
        <g id="Grupo_1180047" data-name="Grupo 1180047" transform="translate(0 0)">
          <path id="Trazado_1033690" data-name="Trazado 1033690" d="M1003.38,957.292a1.707,1.707,0,0,1,1.56-1.823h0a1.691,1.691,0,0,1,1.618,1.758h0a1.711,1.711,0,0,1-1.56,1.823h-.029A1.7,1.7,0,0,1,1003.38,957.292Zm-12.375,1.38h0a1.73,1.73,0,0,1-1.479-1.9h0a1.667,1.667,0,0,1,1.69-1.671v0A1.728,1.728,0,0,1,992.7,957h0a1.682,1.682,0,0,1-1.583,1.67h0C991.077,958.675,991.043,958.675,991.005,958.672Zm26.217-2.185a1.752,1.752,0,0,1,1.416-1.967h0a1.649,1.649,0,0,1,1.745,1.6h0a1.748,1.748,0,0,1-1.416,1.967h0a1.43,1.43,0,0,1-.165.01h0A1.675,1.675,0,0,1,1017.222,956.487Zm-40.132.46a1.775,1.775,0,0,1-1.326-2.045h0a1.627,1.627,0,0,1,1.812-1.5h0a1.779,1.779,0,0,1,1.329,2.044h0a1.662,1.662,0,0,1-1.569,1.517h0A1.7,1.7,0,0,1,977.091,956.947Zm53.862-2.6a1.791,1.791,0,0,1,1.257-2.1h0a1.6,1.6,0,0,1,1.86,1.417h0a1.788,1.788,0,0,1-1.257,2.1h0a1.372,1.372,0,0,1-.3.036h0A1.657,1.657,0,0,1,1030.953,954.342Zm-67.593-.489a1.816,1.816,0,0,1-1.165-2.165h0a1.59,1.59,0,0,1,1.924-1.312h0a1.815,1.815,0,0,1,1.161,2.168h0a1.636,1.636,0,0,1-1.54,1.361h0A1.4,1.4,0,0,1,963.36,953.853Zm81.1-3.009a1.834,1.834,0,0,1,1.089-2.217h0a1.572,1.572,0,0,1,1.965,1.224h0a1.832,1.832,0,0,1-1.087,2.217h0a1.385,1.385,0,0,1-.439.072h0A1.633,1.633,0,0,1,1044.463,950.844ZM949.925,949.4a1.854,1.854,0,0,1-.985-2.276h0a1.553,1.553,0,0,1,2.02-1.114h0a1.854,1.854,0,0,1,.985,2.276h0a1.617,1.617,0,0,1-1.5,1.211h0A1.442,1.442,0,0,1,949.925,949.4Zm107.72-3.4a1.867,1.867,0,0,1,.9-2.318h0a1.539,1.539,0,0,1,2.057,1.019h0a1.87,1.87,0,0,1-.9,2.318h0a1.411,1.411,0,0,1-.578.124h0A1.6,1.6,0,0,1,1057.645,946ZM936.9,943.587a1.89,1.89,0,0,1-.794-2.37h0a1.519,1.519,0,0,1,2.1-.9h0a1.889,1.889,0,0,1,.8,2.367h0a1.592,1.592,0,0,1-1.45,1.055h0A1.426,1.426,0,0,1,936.9,943.587Zm133.474-3.767a1.9,1.9,0,0,1,.711-2.4h0a1.51,1.51,0,0,1,2.132.8h0a1.9,1.9,0,0,1-.711,2.4h0a1.423,1.423,0,0,1-.708.192h0A1.587,1.587,0,0,1,1070.374,939.82Zm-145.967-3.379a1.923,1.923,0,0,1-.6-2.445h0a1.5,1.5,0,0,1,2.167-.671h0a1.918,1.918,0,0,1,.6,2.442h0a1.565,1.565,0,0,1-1.384.9h0A1.471,1.471,0,0,1,924.407,936.441Zm158.132-4.113a1.935,1.935,0,0,1,.506-2.471v0a1.487,1.487,0,0,1,2.19.567h0a1.927,1.927,0,0,1-.506,2.468h0a1.438,1.438,0,0,1-.841.273h0A1.564,1.564,0,0,1,1082.539,932.328Zm-169.97-4.344a1.943,1.943,0,0,1-.384-2.5h0a1.479,1.479,0,0,1,2.213-.433h0a1.94,1.94,0,0,1,.384,2.5h0a1.538,1.538,0,0,1-1.3.759h0A1.454,1.454,0,0,1,912.569,927.984Zm181.443-4.431a1.942,1.942,0,0,1,.289-2.51h0a1.474,1.474,0,0,1,2.228.326h0a1.947,1.947,0,0,1-.289,2.514h0v0h0a1.472,1.472,0,0,1-.968.375h0A1.528,1.528,0,0,1,1094.012,923.553Zm-192.494-5.291a1.951,1.951,0,0,1-.162-2.526h0a1.468,1.468,0,0,1,2.242-.182h0a1.955,1.955,0,0,1,.162,2.526h0a1.522,1.522,0,0,1-1.2.618h0A1.48,1.48,0,0,1,901.518,918.263Zm203.138-4.711a1.955,1.955,0,0,1,.063-2.533h0a1.464,1.464,0,0,1,2.245.072h0a1.954,1.954,0,0,1-.061,2.53h0a1.5,1.5,0,0,1-1.092.491h0A1.509,1.509,0,0,1,1104.656,913.551ZM891.39,907.323a1.951,1.951,0,0,1,.069-2.53h0a1.464,1.464,0,0,1,2.245.078h0a1.951,1.951,0,0,1-.069,2.53h0a1.483,1.483,0,0,1-1.086.485h0A1.506,1.506,0,0,1,891.39,907.323Zm222.945-4.952a1.955,1.955,0,0,1-.173-2.526h0a1.468,1.468,0,0,1,2.242-.2h0a1.959,1.959,0,0,1,.173,2.527h0a1.518,1.518,0,0,1-1.208.625h0A1.5,1.5,0,0,1,1114.335,902.371Zm-232-7.13a1.945,1.945,0,0,1,.309-2.507h0a1.475,1.475,0,0,1,2.228.348h0a1.945,1.945,0,0,1-.309,2.507h0a1.478,1.478,0,0,1-.956.365h0A1.537,1.537,0,0,1,882.335,895.24ZM1122.9,890.1a1.939,1.939,0,0,1-.416-2.487h0a1.478,1.478,0,0,1,2.207-.469h0a1.937,1.937,0,0,1,.419,2.488h0a1.546,1.546,0,0,1-1.315.781h0A1.458,1.458,0,0,1,1122.9,890.1Zm-248.391-7.987h0a1.92,1.92,0,0,1,.555-2.451h0a1.494,1.494,0,0,1,2.178.625h0a1.921,1.921,0,0,1-.558,2.455h0a1.448,1.448,0,0,1-.806.251h0A1.559,1.559,0,0,1,874.508,882.109Zm255.7-5.277a1.913,1.913,0,0,1-.665-2.419h0a1.5,1.5,0,0,1,2.147-.749h0a1.906,1.906,0,0,1,.665,2.419h0a1.574,1.574,0,0,1-1.407.954h0A1.444,1.444,0,0,1,1130.2,876.832Zm-262.148-8.775a1.888,1.888,0,0,1,.806-2.364h0a1.524,1.524,0,0,1,2.1.908h0a1.884,1.884,0,0,1-.806,2.364h0a1.435,1.435,0,0,1-.644.156h0A1.592,1.592,0,0,1,868.056,868.056ZM1136.1,862.7a1.867,1.867,0,0,1-.913-2.315h0a1.542,1.542,0,0,1,2.054-1.029h0a1.871,1.871,0,0,1,.913,2.315h0a1.611,1.611,0,0,1-1.485,1.149h0A1.413,1.413,0,0,1,1136.1,862.7Zm-272.982-9.458a1.846,1.846,0,0,1,1.052-2.24h0a1.565,1.565,0,0,1,1.985,1.185h0a1.836,1.836,0,0,1-1.049,2.237h0a1.407,1.407,0,0,1-.471.081h0A1.626,1.626,0,0,1,863.121,853.246Zm277.345-5.363a1.815,1.815,0,0,1-1.156-2.172h0a1.586,1.586,0,0,1,1.927-1.3h0a1.819,1.819,0,0,1,1.156,2.175h0a1.635,1.635,0,0,1-1.54,1.355h0A1.34,1.34,0,0,1,1140.467,847.883ZM859.813,837.858a1.782,1.782,0,0,1,1.286-2.074h0a1.612,1.612,0,0,1,1.843,1.449h0a1.785,1.785,0,0,1-1.286,2.078h0a1.624,1.624,0,0,1-.28.026h0A1.657,1.657,0,0,1,859.813,837.858Zm283.381-5.284a1.76,1.76,0,0,1-1.384-2h0a1.645,1.645,0,0,1,1.774-1.56h0a1.761,1.761,0,0,1,1.381,2h0a1.667,1.667,0,0,1-1.575,1.57h0A1.645,1.645,0,0,1,1143.194,832.574ZM858.207,822.135a1.722,1.722,0,0,1,1.5-1.885h0a1.673,1.673,0,0,1,1.67,1.693h0a1.73,1.73,0,0,1-1.5,1.885h-.084A1.683,1.683,0,0,1,858.207,822.135Zm284.438-6.919a1.7,1.7,0,0,1,1.589-1.791h0a1.7,1.7,0,0,1,1.589,1.791h0a1.7,1.7,0,0,1-1.589,1.791h0A1.7,1.7,0,0,1,1142.645,815.217Zm-282.855-7a1.731,1.731,0,0,1-1.477-1.908h0a1.665,1.665,0,0,1,1.693-1.664h0a1.732,1.732,0,0,1,1.476,1.908h0a1.681,1.681,0,0,1-1.583,1.67h0A.7.7,0,0,1,859.79,808.212Zm282.219-6.413a1.755,1.755,0,0,1,1.41-1.973h0a1.65,1.65,0,0,1,1.751,1.589h0a1.753,1.753,0,0,1-1.41,1.973h0a1.6,1.6,0,0,1-.17.01h0A1.673,1.673,0,0,1,1142.009,801.8ZM861.4,792.7a1.789,1.789,0,0,1-1.257-2.1h0A1.608,1.608,0,0,1,862,789.189h0a1.79,1.79,0,0,1,1.257,2.1h0a1.649,1.649,0,0,1-1.557,1.448h0A1.449,1.449,0,0,1,861.4,792.7Zm278.324-6.076h0a1.809,1.809,0,0,1,1.184-2.152h0a1.592,1.592,0,0,1,1.91,1.335h0a1.809,1.809,0,0,1-1.185,2.152h0a1.423,1.423,0,0,1-.364.049h0A1.642,1.642,0,0,1,1139.721,786.626Zm-275.042-9.094a1.846,1.846,0,0,1-1.02-2.257h0a1.558,1.558,0,0,1,2-1.149h0a1.845,1.845,0,0,1,1.02,2.256h0a1.615,1.615,0,0,1-1.511,1.237h0A1.389,1.389,0,0,1,864.679,777.533ZM1135.8,771.88h0a1.863,1.863,0,0,1,.945-2.3h0a1.546,1.546,0,0,1,2.04,1.065h0a1.858,1.858,0,0,1-.945,2.3h0a1.41,1.41,0,0,1-.546.111h0A1.614,1.614,0,0,1,1135.8,771.88Zm-266.232-8.957a1.894,1.894,0,0,1-.774-2.377h0a1.522,1.522,0,0,1,2.112-.873h0a1.9,1.9,0,0,1,.774,2.38h0a1.586,1.586,0,0,1-1.442,1.035h0A1.437,1.437,0,0,1,869.568,762.923Zm260.772-5.158a1.9,1.9,0,0,1,.7-2.409h0a1.511,1.511,0,0,1,2.138.785h0a1.911,1.911,0,0,1-.7,2.41h0a1.463,1.463,0,0,1-.719.2h0A1.575,1.575,0,0,1,1130.34,757.765Zm-254.387-8.7a1.929,1.929,0,0,1-.526-2.465h0a1.488,1.488,0,0,1,2.184-.589h0a1.923,1.923,0,0,1,.526,2.461h0a1.563,1.563,0,0,1-1.358.856h0A1.431,1.431,0,0,1,875.953,749.069Zm247.5-4.62a1.934,1.934,0,0,1,.451-2.481h0a1.483,1.483,0,0,1,2.2.5h0a1.938,1.938,0,0,1-.448,2.485h0a1.48,1.48,0,0,1-.875.3h0A1.55,1.55,0,0,1,1123.451,744.449ZM883.694,736.12a1.945,1.945,0,0,1-.277-2.514h0a1.468,1.468,0,0,1,2.228-.313h0a1.948,1.948,0,0,1,.28,2.514h0a1.535,1.535,0,0,1-1.257.69h0A1.47,1.47,0,0,1,883.694,736.12Zm231.587-4.041a1.952,1.952,0,0,1,.2-2.523h0a1.471,1.471,0,0,1,2.239.231h0a1.948,1.948,0,0,1-.205,2.52h0a1.472,1.472,0,0,1-1.014.417h0A1.518,1.518,0,0,1,1115.281,732.079ZM892.65,724.2a1.955,1.955,0,0,1-.041-2.533h0a1.468,1.468,0,0,1,2.248-.046h0a1.958,1.958,0,0,1,.037,2.533h0a1.493,1.493,0,0,1-1.141.547h0A1.494,1.494,0,0,1,892.65,724.2Zm213.315-3.439a1.955,1.955,0,0,1-.031-2.533h0a1.466,1.466,0,0,1,2.248-.036h0a1.954,1.954,0,0,1,.032,2.53h0a1.493,1.493,0,0,1-1.141.544h0A1.491,1.491,0,0,1,1105.965,720.762Zm-203.3-7.357a1.952,1.952,0,0,1,.191-2.524h0a1.469,1.469,0,0,1,2.239.215h0a1.948,1.948,0,0,1-.191,2.523h0a1.482,1.482,0,0,1-1.023.423h0A1.521,1.521,0,0,1,902.667,713.4Zm192.992-2.82a1.944,1.944,0,0,1-.26-2.513h0a1.468,1.468,0,0,1,2.231-.293h0a1.948,1.948,0,0,1,.263,2.513h0a1.534,1.534,0,0,1-1.251.68h0A1.477,1.477,0,0,1,1095.659,710.585Zm-182.053-6.779a1.935,1.935,0,0,1,.41-2.487h0a1.482,1.482,0,0,1,2.21.462h0a1.94,1.94,0,0,1-.413,2.491h0a1.46,1.46,0,0,1-.9.313h0A1.535,1.535,0,0,1,913.606,703.805Zm170.894-2.191h0a1.933,1.933,0,0,1-.477-2.475h0a1.487,1.487,0,0,1,2.2-.537h0a1.932,1.932,0,0,1,.477,2.474h0a1.555,1.555,0,0,1-1.338.824h0A1.461,1.461,0,0,1,1084.5,701.614Zm-159.178-6.157a1.912,1.912,0,0,1,.621-2.432h0a1.5,1.5,0,0,1,2.161.7h0a1.918,1.918,0,0,1-.624,2.436h0a1.451,1.451,0,0,1-.766.221h0A1.566,1.566,0,0,1,925.322,695.457Zm147.3-1.56h0a1.9,1.9,0,0,1-.682-2.413h0a1.5,1.5,0,0,1,2.138-.772h0a1.907,1.907,0,0,1,.685,2.413h0a1.576,1.576,0,0,1-1.413.97h0A1.464,1.464,0,0,1,1072.622,693.9Zm-134.934-5.5a1.884,1.884,0,0,1,.824-2.357h0a1.524,1.524,0,0,1,2.092.925h0a1.885,1.885,0,0,1-.823,2.357h0a1.435,1.435,0,0,1-.633.15h0A1.6,1.6,0,0,1,937.688,688.4Zm122.464-.934a1.873,1.873,0,0,1-.881-2.328h0a1.535,1.535,0,0,1,2.069-.993h0a1.876,1.876,0,0,1,.881,2.331h0a1.6,1.6,0,0,1-1.476,1.12h0A1.438,1.438,0,0,1,1060.152,687.467Zm-109.568-4.8a1.85,1.85,0,0,1,1.009-2.263h0a1.555,1.555,0,0,1,2.008,1.136h0a1.847,1.847,0,0,1-1.008,2.263h0a1.429,1.429,0,0,1-.5.091h0A1.618,1.618,0,0,1,950.584,682.665Zm96.624-.309a1.841,1.841,0,0,1-1.066-2.234h0a1.569,1.569,0,0,1,1.979-1.2h0a1.84,1.84,0,0,1,1.066,2.231h0a1.63,1.63,0,0,1-1.523,1.276h0A1.482,1.482,0,0,1,1047.208,682.355Zm-83.322-4.086a1.809,1.809,0,0,1,1.185-2.152h0a1.59,1.59,0,0,1,1.91,1.335h0A1.81,1.81,0,0,1,965.8,679.6h0a1.382,1.382,0,0,1-.364.046h0A1.644,1.644,0,0,1,963.886,678.269Zm70.017.3h0a1.8,1.8,0,0,1-1.237-2.116h0a1.606,1.606,0,0,1,1.878-1.393h0a1.8,1.8,0,0,1,1.234,2.117h0a1.645,1.645,0,0,1-1.551,1.429h0A1.593,1.593,0,0,1,1033.9,678.572Zm-56.42-3.35a1.769,1.769,0,0,1,1.346-2.025h0a1.633,1.633,0,0,1,1.8,1.521h0a1.769,1.769,0,0,1-1.349,2.025h0a1.3,1.3,0,0,1-.225.02h0A1.667,1.667,0,0,1,977.483,675.222Zm42.872.905a1.762,1.762,0,0,1-1.4-1.986h0a1.643,1.643,0,0,1,1.762-1.573h0a1.755,1.755,0,0,1,1.4,1.986h0a1.668,1.668,0,0,1-1.575,1.583h0A1.776,1.776,0,0,1,1020.355,676.127Zm-29.092-2.6a1.727,1.727,0,0,1,1.5-1.888h0a1.674,1.674,0,0,1,1.676,1.69h0a1.728,1.728,0,0,1-1.5,1.885h0a.836.836,0,0,1-.089,0h0A1.686,1.686,0,0,1,991.262,673.528Zm15.4,1.485a1.715,1.715,0,0,1-1.543-1.843h0a1.685,1.685,0,0,1,1.635-1.739h0a1.715,1.715,0,0,1,1.543,1.843h0a1.7,1.7,0,0,1-1.589,1.739h-.046Z" transform="translate(-842.678 -671.431)" fill="#88a9cd"/>
          <g id="Grupo_1180018" data-name="Grupo 1180018" transform="translate(152.159 253.242)">
            <g id="Grupo_1180008" data-name="Grupo 1180008" transform="translate(39.208)">
              <rect id="Rectángulo_414907" data-name="Rectángulo 414907" width="24.283" height="38.822" fill="#95b0ce"/>
            </g>
            <g id="Grupo_1180017" data-name="Grupo 1180017" transform="translate(0 4.795)">
              <g id="Grupo_1180009" data-name="Grupo 1180009">
                <rect id="Rectángulo_414908" data-name="Rectángulo 414908" width="51.35" height="44.802" fill="#b1c9e1"/>
              </g>
              <g id="Grupo_1180010" data-name="Grupo 1180010" transform="translate(0.191 2.849)">
                <circle id="Elipse_13272" data-name="Elipse 13272" cx="11.291" cy="11.291" r="11.291" transform="translate(0 15.967) rotate(-45)" fill="#d8e7f5"/>
              </g>
              <g id="Grupo_1180011" data-name="Grupo 1180011" transform="translate(30.244 12.071)">
                <path id="Trazado_1033691" data-name="Trazado 1033691" d="M2372.051,3097.6h-15a.3.3,0,0,1,0-.606h15a.3.3,0,0,1,0,.606Z" transform="translate(-2356.746 -3096.99)" fill="#6c87a4"/>
              </g>
              <g id="Grupo_1180012" data-name="Grupo 1180012" transform="translate(30.244 17.252)">
                <path id="Trazado_1033692" data-name="Trazado 1033692" d="M2372.051,3144.116h-15a.3.3,0,0,1,0-.606h15a.3.3,0,0,1,0,.606Z" transform="translate(-2356.746 -3143.51)" fill="#6c87a4"/>
              </g>
              <g id="Grupo_1180013" data-name="Grupo 1180013" transform="translate(30.244 22.433)">
                <path id="Trazado_1033693" data-name="Trazado 1033693" d="M2372.051,3190.646h-15a.3.3,0,0,1,0-.606h15a.3.3,0,0,1,0,.606Z" transform="translate(-2356.746 -3190.04)" fill="#6c87a4"/>
              </g>
              <g id="Grupo_1180014" data-name="Grupo 1180014" transform="translate(30.244 27.614)">
                <path id="Trazado_1033694" data-name="Trazado 1033694" d="M2372.051,3237.166h-15a.3.3,0,0,1,0-.606h15a.3.3,0,0,1,0,.606Z" transform="translate(-2356.746 -3236.56)" fill="#6c87a4"/>
              </g>
              <g id="Grupo_1180015" data-name="Grupo 1180015" transform="translate(5.342 35.456)">
                <path id="Trazado_1033695" data-name="Trazado 1033695" d="M2175.041,3307.586h-41.605a.3.3,0,1,1,0-.605h41.605a.3.3,0,0,1,0,.605Z" transform="translate(-2133.133 -3306.98)" fill="#6c87a4"/>
              </g>
              <g id="Grupo_1180016" data-name="Grupo 1180016" transform="translate(5.342 38.828)">
                <path id="Trazado_1033696" data-name="Trazado 1033696" d="M2175.041,3337.865h-41.605a.3.3,0,1,1,0-.606h41.605a.3.3,0,0,1,0,.606Z" transform="translate(-2133.133 -3337.26)" fill="#6c87a4"/>
              </g>
            </g>
          </g>
          <g id="Grupo_1180033" data-name="Grupo 1180033" transform="translate(0 79.423)">
            <g id="Grupo_1180032" data-name="Grupo 1180032">
              <g id="Grupo_1180019" data-name="Grupo 1180019">
                <rect id="Rectángulo_414909" data-name="Rectángulo 414909" width="45.309" height="65.294" fill="#b1c9e1"/>
              </g>
              <g id="Grupo_1180020" data-name="Grupo 1180020" transform="translate(4.075 6.18)">
                <path id="Trazado_1033697" data-name="Trazado 1033697" d="M759.109,1444.407h-2.951a.788.788,0,0,1-.788-.788v-2.683a.788.788,0,0,1,.788-.788h2.951a.788.788,0,0,1,.788.788v2.683A.788.788,0,0,1,759.109,1444.407Z" transform="translate(-755.37 -1440.147)" fill="#95b0ce"/>
              </g>
              <g id="Grupo_1180021" data-name="Grupo 1180021" transform="translate(12.57 7.577)">
                <rect id="Rectángulo_414910" data-name="Rectángulo 414910" width="28.435" height="1.466" fill="#95b0ce"/>
              </g>
              <g id="Grupo_1180022" data-name="Grupo 1180022" transform="translate(12.57 17.597)">
                <rect id="Rectángulo_414911" data-name="Rectángulo 414911" width="28.435" height="1.466" fill="#95b0ce"/>
              </g>
              <g id="Grupo_1180023" data-name="Grupo 1180023" transform="translate(12.57 27.618)">
                <rect id="Rectángulo_414912" data-name="Rectángulo 414912" width="28.435" height="1.466" fill="#95b0ce"/>
              </g>
              <g id="Grupo_1180024" data-name="Grupo 1180024" transform="translate(4.075 16.2)">
                <path id="Trazado_1033698" data-name="Trazado 1033698" d="M759.109,1534.387h-2.951a.788.788,0,0,1-.788-.788v-2.683a.788.788,0,0,1,.788-.788h2.951a.788.788,0,0,1,.788.788v2.683A.788.788,0,0,1,759.109,1534.387Z" transform="translate(-755.37 -1530.127)" fill="#95b0ce"/>
              </g>
              <g id="Grupo_1180025" data-name="Grupo 1180025" transform="translate(4.075 26.221)">
                <path id="Trazado_1033699" data-name="Trazado 1033699" d="M759.109,1624.377h-2.951a.788.788,0,0,1-.788-.788v-2.683a.788.788,0,0,1,.788-.788h2.951a.788.788,0,0,1,.788.788v2.683A.788.788,0,0,1,759.109,1624.377Z" transform="translate(-755.37 -1620.117)" fill="#95b0ce"/>
              </g>
              <g id="Grupo_1180026" data-name="Grupo 1180026" transform="translate(4.075 35.616)">
                <path id="Trazado_1033700" data-name="Trazado 1033700" d="M759.109,1708.738h-2.951a.788.788,0,0,1-.788-.788v-2.684a.788.788,0,0,1,.788-.788h2.951a.788.788,0,0,1,.788.788v2.684A.788.788,0,0,1,759.109,1708.738Z" transform="translate(-755.37 -1704.478)" fill="#95b0ce"/>
              </g>
              <g id="Grupo_1180027" data-name="Grupo 1180027" transform="translate(12.57 37.012)">
                <rect id="Rectángulo_414913" data-name="Rectángulo 414913" width="28.435" height="1.466" fill="#95b0ce"/>
              </g>
              <g id="Grupo_1180028" data-name="Grupo 1180028" transform="translate(12.57 47.034)">
                <rect id="Rectángulo_414914" data-name="Rectángulo 414914" width="28.435" height="1.466" fill="#95b0ce"/>
              </g>
              <g id="Grupo_1180029" data-name="Grupo 1180029" transform="translate(12.57 57.054)">
                <rect id="Rectángulo_414915" data-name="Rectángulo 414915" width="28.435" height="1.466" fill="#95b0ce"/>
              </g>
              <g id="Grupo_1180030" data-name="Grupo 1180030" transform="translate(4.075 45.637)">
                <path id="Trazado_1033701" data-name="Trazado 1033701" d="M759.109,1798.727h-2.951a.788.788,0,0,1-.788-.788v-2.683a.788.788,0,0,1,.788-.788h2.951a.788.788,0,0,1,.788.788v2.683A.788.788,0,0,1,759.109,1798.727Z" transform="translate(-755.37 -1794.467)" fill="#95b0ce"/>
              </g>
              <g id="Grupo_1180031" data-name="Grupo 1180031" transform="translate(4.075 55.658)">
                <path id="Trazado_1033702" data-name="Trazado 1033702" d="M759.109,1888.716h-2.951a.788.788,0,0,1-.788-.788v-2.684a.788.788,0,0,1,.788-.788h2.951a.788.788,0,0,1,.788.788v2.684A.788.788,0,0,1,759.109,1888.716Z" transform="translate(-755.37 -1884.457)" fill="#95b0ce"/>
              </g>
            </g>
          </g>
          <g id="Grupo_1180046" data-name="Grupo 1180046" transform="translate(216.686 7.21)">
            <g id="Grupo_1180034" data-name="Grupo 1180034" transform="translate(24.022 5.103)">
              <rect id="Rectángulo_414916" data-name="Rectángulo 414916" width="31.162" height="46.908" fill="#95b0ce"/>
            </g>
            <g id="Grupo_1180035" data-name="Grupo 1180035" transform="translate(27.115 7.743)">
              <path id="Trazado_1033703" data-name="Trazado 1033703" d="M2932.7,806.461h-24.223a.377.377,0,0,1,0-.755H2932.7a.377.377,0,1,1,0,.755Z" transform="translate(-2908.1 -805.706)" fill="#bdd6f0"/>
            </g>
            <g id="Grupo_1180036" data-name="Grupo 1180036" transform="translate(27.115 10.825)">
              <path id="Trazado_1033704" data-name="Trazado 1033704" d="M2932.7,834.137h-24.223a.377.377,0,0,1,0-.755H2932.7a.377.377,0,1,1,0,.755Z" transform="translate(-2908.1 -833.382)" fill="#bdd6f0"/>
            </g>
            <g id="Grupo_1180037" data-name="Grupo 1180037" transform="translate(27.115 13.907)">
              <path id="Trazado_1033705" data-name="Trazado 1033705" d="M2932.7,861.814h-24.223a.377.377,0,0,1,0-.755H2932.7a.377.377,0,1,1,0,.755Z" transform="translate(-2908.1 -861.059)" fill="#bdd6f0"/>
            </g>
            <g id="Grupo_1180038" data-name="Grupo 1180038">
              <rect id="Rectángulo_414917" data-name="Rectángulo 414917" width="33.262" height="45.912" fill="#b1c9e1"/>
            </g>
            <g id="Grupo_1180042" data-name="Grupo 1180042" transform="translate(14.134 13.995)">
              <g id="Grupo_1180041" data-name="Grupo 1180041">
                <g id="Grupo_1180039" data-name="Grupo 1180039" transform="translate(6.833 3.431)">
                  <path id="Trazado_1033706" data-name="Trazado 1033706" d="M2868.872,895l.794.348a.66.66,0,1,0,.531-1.209l-3.236-1.419-.009,0-.028-.01a.635.635,0,0,0-.086-.025l-.03-.006a.661.661,0,0,0-.227,0l-.028.006a.65.65,0,0,0-.089.026l-.024.009a.646.646,0,0,0-.1.053l-.023.016c-.015.01-.03.02-.044.032l-.03.028s-.01.008-.015.012l-.008.01a.615.615,0,0,0-.073.09l-.011.018a.69.69,0,0,0-.045.084l-.013.032a.638.638,0,0,0-.028.1s0,.008,0,.012a.682.682,0,0,0-.011.112c0,.01,0,.021,0,.031a.6.6,0,0,0,.008.086c0,.011,0,.021.005.032s0,.01,0,.015l.783,3.326a.66.66,0,0,0,1.285-.3l-.07-.3a11.043,11.043,0,0,1-14.225,15.441.66.66,0,1,0-.549,1.2A12.363,12.363,0,0,0,2868.872,895Z" transform="translate(-2852.891 -892.663)" fill="#465273"/>
                </g>
                <g id="Grupo_1180040" data-name="Grupo 1180040">
                  <path id="Trazado_1033707" data-name="Trazado 1033707" d="M2795.7,879.1a.66.66,0,0,0-.615.7l.079,1.175a11.043,11.043,0,0,1,14.3-16.3.66.66,0,0,0,.667-1.14,12.364,12.364,0,0,0-16.277,17.89l-.757-.252a.66.66,0,0,0-.417,1.253l3.06,1.017a.66.66,0,0,0,.867-.67l-.2-3.065A.659.659,0,0,0,2795.7,879.1Z" transform="translate(-2791.533 -861.855)" fill="#465273"/>
                </g>
              </g>
            </g>
            <g id="Grupo_1180043" data-name="Grupo 1180043" transform="translate(3.654 3.47)">
              <path id="Trazado_1033708" data-name="Trazado 1033708" d="M2722.02,768.089H2697.8a.377.377,0,1,1,0-.754h24.223a.377.377,0,0,1,0,.754Z" transform="translate(-2697.419 -767.335)" fill="#e5edf5"/>
            </g>
            <g id="Grupo_1180044" data-name="Grupo 1180044" transform="translate(3.654 6.552)">
              <path id="Trazado_1033709" data-name="Trazado 1033709" d="M2722.02,795.767H2697.8a.377.377,0,0,1,0-.755h24.223a.377.377,0,0,1,0,.755Z" transform="translate(-2697.419 -795.012)" fill="#e5edf5"/>
            </g>
            <g id="Grupo_1180045" data-name="Grupo 1180045" transform="translate(3.654 9.634)">
              <path id="Trazado_1033710" data-name="Trazado 1033710" d="M2722.02,823.444H2697.8a.377.377,0,0,1,0-.755h24.223a.377.377,0,0,1,0,.755Z" transform="translate(-2697.419 -822.689)" fill="#e5edf5"/>
            </g>
          </g>
        </g>
      </g>
      <g id="woman" transform="translate(-6045.851 5570.224)">
        <g id="Grupo_1180065" data-name="Grupo 1180065" transform="translate(6.738 6.737)">
          <path id="Trazado_1033711" data-name="Trazado 1033711" d="M809.1,2179.263a64.4,64.4,0,0,1-17.16,43.859c-.161.174-.322.347-.486.52q-.842.893-1.721,1.752a64.675,64.675,0,0,1-15.373,11.187c-.1.051-.2.1-.293.152a64.618,64.618,0,0,1-57.612.792q-.774-.372-1.535-.767-2.415-1.242-4.706-2.679a64.849,64.849,0,0,1-12.838-10.551q-.308-.327-.612-.66a64.631,64.631,0,1,1,112.337-43.6Z" transform="translate(-679.837 -2114.631)" fill="#fff"/>
          <g id="Grupo_1180064" data-name="Grupo 1180064" clip-path="url(#clip-path-2)">
            <path id="Trazado_1033712" data-name="Trazado 1033712" d="M935.562,2244.622c-5.052-1.867-11.862,1.647-14.717,10.763s-1.318,19.44-5.052,30.313-10.089,22.925-3.562,32.495,14.215,2.321,14.215,2.321,55.819,9.51,55.147-1.231-9.74-19.142-9.434-31.882c.329-13.729-.666-32.455-12.435-42.01C950.8,2238.139,939.3,2239.459,935.562,2244.622Z" transform="translate(-883.848 -2226.349)" fill="#8f3d2e"/>
            <path id="Trazado_1033713" data-name="Trazado 1033713" d="M1159.647,2676.317a20.992,20.992,0,0,0,8.139-6.572l-.335-6.883-19.275,2.307v5.047C1150.6,2674.448,1155.006,2678.5,1159.647,2676.317Z" transform="translate(-1096.023 -2601.812)" fill="#c27d5d"/>
            <g id="Grupo_1180048" data-name="Grupo 1180048" transform="translate(40.003 24.21)">
              <path id="Trazado_1033714" data-name="Trazado 1033714" d="M1039.384,2351.694h-.023a.323.323,0,0,1-.3-.344c.412-5.811,2.037-10.723,4.7-14.205,2.518-3.3,5.864-5.109,9.422-5.109a.322.322,0,1,1,0,.645c-7.267,0-12.683,7.521-13.477,18.715A.324.324,0,0,1,1039.384,2351.694Z" transform="translate(-1039.061 -2332.034)" fill="#6c2316"/>
            </g>
            <g id="Grupo_1180049" data-name="Grupo 1180049" transform="translate(38.827 52.961)">
              <path id="Trazado_1033715" data-name="Trazado 1033715" d="M1031.6,2621.362a.324.324,0,0,1-.268-.143c-4.455-6.646-2.716-12.21-1.034-17.59,1.269-4.058,2.58-8.254,1.335-13.011a.323.323,0,1,1,.624-.163c1.293,4.936-.047,9.222-1.343,13.367-1.712,5.476-3.329,10.648.955,17.038a.323.323,0,0,1-.268.5Z" transform="translate(-1028.501 -2590.214)" fill="#6c2316"/>
            </g>
            <g id="Grupo_1180050" data-name="Grupo 1180050" transform="translate(30.249 52.21)">
              <path id="Trazado_1033716" data-name="Trazado 1033716" d="M953.607,2620.981a.323.323,0,0,1-.292-.185c-4-8.482-.711-15.682,2.47-22.645,2.243-4.909,4.361-9.547,3.748-14.316a.323.323,0,1,1,.64-.082c.636,4.951-1.519,9.67-3.8,14.666-3.12,6.829-6.345,13.89-2.473,22.1a.323.323,0,0,1-.154.429A.328.328,0,0,1,953.607,2620.981Z" transform="translate(-951.47 -2583.472)" fill="#6c2316"/>
            </g>
            <g id="Grupo_1180051" data-name="Grupo 1180051" transform="translate(51.392 17.95)">
              <path id="Trazado_1033717" data-name="Trazado 1033717" d="M1144.063,2282.722a.322.322,0,0,1-.3-.207l-2.409-6.26a.323.323,0,1,1,.6-.232l2.409,6.26a.323.323,0,0,1-.185.417A.315.315,0,0,1,1144.063,2282.722Z" transform="translate(-1141.332 -2275.817)" fill="#6c2316"/>
            </g>
            <g id="Grupo_1180052" data-name="Grupo 1180052" transform="translate(38.401 19.706)">
              <path id="Trazado_1033718" data-name="Trazado 1033718" d="M1025.413,2315.672a.322.322,0,0,1-.313-.246c-1.306-5.377.422-14.982,4.987-20.167a9.66,9.66,0,0,1,8.638-3.607.323.323,0,1,1-.072.641,9.041,9.041,0,0,0-8.082,3.392c-4.307,4.892-6.11,14.376-4.845,19.588a.322.322,0,0,1-.237.39A.351.351,0,0,1,1025.413,2315.672Z" transform="translate(-1024.677 -2291.588)" fill="#6c2316"/>
            </g>
            <path id="Trazado_1033719" data-name="Trazado 1033719" d="M764.325,2832.99c-4.613,3.13-18.256,7.872-27.183,15.486-5.6,4.778-5.766,24.382-10.544,33.443s-10.379,15.486-8.237,21.087,5.931,14.826,5.931,14.826l44.151,18.451H808.97s23.558-13.19,27.677-23.558c4.778-12.026.734-14.494-4.036-21.974-3.867-6.064-8.979-36.84-17.051-42.276-7.324-4.932-29.16-15.486-29.16-15.486Z" transform="translate(-713.653 -2752.994)" fill="#dc7581"/>
            <path id="Trazado_1033720" data-name="Trazado 1033720" d="M1481.7,3053.42l.824,33.279-4.449-1.649Z" transform="translate(-1389.188 -2948.878)" fill="#b04956"/>
            <g id="Grupo_1180053" data-name="Grupo 1180053" transform="translate(61.387 84.451)">
              <path id="Trazado_1033721" data-name="Trazado 1033721" d="M1233.222,2918.288a.327.327,0,0,1-.323-.325l-1.812-44.646a.32.32,0,0,1,.31-.32.314.314,0,0,1,.336.309l1.812,44.645a.322.322,0,0,1-.309.335Z" transform="translate(-1231.087 -2872.997)" fill="#b04956"/>
            </g>
            <path id="Trazado_1033722" data-name="Trazado 1033722" d="M970.653,3037.15v39.7l5.6-1.812Z" transform="translate(-938.268 -2934.419)" fill="#b04956"/>
            <path id="Trazado_1033723" data-name="Trazado 1033723" d="M1159.648,2731.237c-4.641,2.184-9.05-1.87-11.47-6.1v16.369h20.428l-.819-16.841A21,21,0,0,1,1159.648,2731.237Z" transform="translate(-1096.024 -2656.732)" fill="#eab298"/>
            <g id="Grupo_1180054" data-name="Grupo 1180054" transform="translate(106.855 144.105)">
              <path id="Trazado_1033724" data-name="Trazado 1033724" d="M1639.716,3412.608a.323.323,0,0,1-.279-.484c2.552-4.423,10.059-3.336,10.377-3.288a.323.323,0,0,1-.1.638c-.074-.012-7.39-1.069-9.722,2.972A.323.323,0,0,1,1639.716,3412.608Z" transform="translate(-1639.394 -3408.684)" fill="#ab7225"/>
            </g>
            <g id="Grupo_1180055" data-name="Grupo 1180055" transform="translate(19.589 126.342)">
              <path id="Trazado_1033725" data-name="Trazado 1033725" d="M856.064,3304.188a.322.322,0,0,1-.322-.322v-50.082a4.611,4.611,0,0,1,4.606-4.606h11.485a.323.323,0,1,1,0,.645H860.348a3.965,3.965,0,0,0-3.961,3.961v50.082A.322.322,0,0,1,856.064,3304.188Z" transform="translate(-855.742 -3249.178)" fill="#aaacb5"/>
            </g>
            <path id="Trazado_1033726" data-name="Trazado 1033726" d="M1182.1,3412.879a7.833,7.833,0,0,0,2.881,5.978,8.513,8.513,0,0,1-3.3.652c-4.207,0-7.621-2.968-7.621-6.63s3.414-6.633,7.621-6.633a8.539,8.539,0,0,1,3.3.655A7.83,7.83,0,0,0,1182.1,3412.879Z" transform="translate(-1119.025 -3262.413)" fill="#fff"/>
            <path id="Trazado_1033727" data-name="Trazado 1033727" d="M1279.177,3433.732a6.063,6.063,0,0,1-1.562,4.02,4.552,4.552,0,0,1,0-8.04A6.068,6.068,0,0,1,1279.177,3433.732Z" transform="translate(-1208.9 -3283.266)" fill="#fff"/>
            <path id="Trazado_1033728" data-name="Trazado 1033728" d="M1381.155,2846.891l-10.533-4.087c.242-3.9.271-10.172-1.439-14.915a29.148,29.148,0,0,1-3.126,13.147l-4.014-1.558s3.949-13.77-.564-22.7,14.6-.529,14.6-.529l6.191,8.452C1384.23,2833.27,1381.155,2846.891,1381.155,2846.891Z" transform="translate(-1284.958 -2734.933)" fill="#8f3d2e"/>
            <g id="Grupo_1180056" data-name="Grupo 1180056" transform="translate(77.552 46.502)">
              <path id="Trazado_1033729" data-name="Trazado 1033729" d="M1390.559,2596.315l-.037,0a.323.323,0,0,1-.284-.358c.169-1.472,1.465-14.688-4.919-25.3-6.1-10.135-7.962-24.3-9.066-38.089a.323.323,0,0,1,.643-.052c1.1,13.715,2.946,27.788,8.975,37.809,6.495,10.792,5.179,24.209,5.008,25.7A.323.323,0,0,1,1390.559,2596.315Z" transform="translate(-1376.252 -2532.22)" fill="#6c2316"/>
            </g>
            <path id="Trazado_1033730" data-name="Trazado 1033730" d="M1103.357,2769.38l-5.617,9.36,8.912,12.386,6.259-9.884Z" transform="translate(-1051.203 -2696.468)" fill="#dc7581"/>
            <path id="Trazado_1033731" data-name="Trazado 1033731" d="M1244.276,2769.38l4.513,8.931-6.737,12.815-8.073-9.884Z" transform="translate(-1172.271 -2696.468)" fill="#dc7581"/>
            <g id="Grupo_1180057" data-name="Grupo 1180057" transform="translate(46.214 81.52)">
              <path id="Trazado_1033732" data-name="Trazado 1033732" d="M1118.407,2860.14a.324.324,0,0,1-.25-.118l-7.79-9.538-6.021,9.506a.325.325,0,0,1-.263.15.318.318,0,0,1-.271-.134l-8.912-12.386a.323.323,0,0,1,.524-.377l8.633,12,6-9.481a.323.323,0,0,1,.522-.031l7.764,9.507,6.51-12.384a.323.323,0,0,1,.571.3l-6.737,12.815a.324.324,0,0,1-.253.17A.2.2,0,0,1,1118.407,2860.14Z" transform="translate(-1094.839 -2846.68)" fill="#b04956"/>
            </g>
            <g id="Grupo_1180058" data-name="Grupo 1180058" transform="translate(52.873 17.55)">
              <path id="Trazado_1033733" data-name="Trazado 1033733" d="M1198.646,2363.344l-.043,0a.322.322,0,0,1-.278-.362c.917-6.994.931-12.674-6.913-27.332-5.3-9.907-5.67-16.629-6.18-25.933-.271-4.945-.578-10.55-1.65-17.829-1.453-9.866-7.195-16.824-15.358-18.614-5.451-1.193-10.794.328-12.994,3.7a.323.323,0,1,1-.541-.352c2.343-3.594,7.965-5.231,13.673-3.981,8.436,1.849,14.365,9.008,15.858,19.15,1.077,7.309,1.384,12.929,1.656,17.888.5,9.221.87,15.883,6.1,25.664,7.935,14.827,7.917,20.6,6.984,27.72A.321.321,0,0,1,1198.646,2363.344Z" transform="translate(-1154.637 -2272.226)" fill="#6c2316"/>
            </g>
            <g id="Grupo_1180059" data-name="Grupo 1180059" transform="translate(76.774 52.018)">
              <path id="Trazado_1033734" data-name="Trazado 1033734" d="M1376.716,2623.013a.323.323,0,0,1-.288-.177c-7.567-14.958-8.07-24.673-6.334-40.794a.317.317,0,0,1,.355-.286.322.322,0,0,1,.286.355c-1.721,15.989-1.225,25.622,6.269,40.434a.322.322,0,0,1-.142.433A.328.328,0,0,1,1376.716,2623.013Z" transform="translate(-1369.265 -2581.754)" fill="#6c2316"/>
            </g>
            <path id="Trazado_1033735" data-name="Trazado 1033735" d="M1077.6,2334.929c-6.363,6.7-12.513,15.376-10.756,26.359s12.74,19.659,18.341,19.33,16.035-7.249,16.364-19.989S1090.35,2338.125,1077.6,2334.929Z" transform="translate(-1023.479 -2310.397)" fill="#eab298"/>
            <g id="Grupo_1180060" data-name="Grupo 1180060" transform="translate(59.19 48.149)">
              <path id="Trazado_1033736" data-name="Trazado 1033736" d="M1213.969,2555.388a5.083,5.083,0,0,1-2.438-.666.323.323,0,1,1,.307-.568,3.829,3.829,0,0,0,4.053.037.728.728,0,0,0,.231-.976,19.4,19.4,0,0,1-2.31-5.833.323.323,0,0,1,.636-.107,18.758,18.758,0,0,0,2.233,5.619,1.378,1.378,0,0,1-.45,1.845A4.29,4.29,0,0,1,1213.969,2555.388Z" transform="translate(-1211.362 -2547.007)" fill="#a46143"/>
            </g>
            <g id="Grupo_1180061" data-name="Grupo 1180061" transform="translate(55.017 58.696)">
              <path id="Trazado_1033737" data-name="Trazado 1033737" d="M1180.539,2645.547a7.682,7.682,0,0,1-6.584-3.305.323.323,0,1,1,.507-.4c1.51,1.915,3.577,3.862,9.029,2.723a.322.322,0,1,1,.131.631A15.075,15.075,0,0,1,1180.539,2645.547Z" transform="translate(-1173.886 -2641.719)" fill="#a46143"/>
            </g>
            <g id="Grupo_1180062" data-name="Grupo 1180062" transform="translate(56.238 62.416)">
              <path id="Trazado_1033738" data-name="Trazado 1033738" d="M1189.055,2677.565a5.324,5.324,0,0,1-4.117-1.9.323.323,0,0,1,.479-.432,5.119,5.119,0,0,0,5.489,1.427.322.322,0,1,1,.157.625A8.19,8.19,0,0,1,1189.055,2677.565Z" transform="translate(-1184.855 -2675.127)" fill="#a46143"/>
            </g>
            <g id="Grupo_1180063" data-name="Grupo 1180063" transform="translate(52.874 58.298)">
              <path id="Trazado_1033739" data-name="Trazado 1033739" d="M1154.962,2639.679a.323.323,0,0,1-.2-.577,6.192,6.192,0,0,1,3.4-.956.323.323,0,1,1,0,.645,5.531,5.531,0,0,0-3,.82A.324.324,0,0,1,1154.962,2639.679Z" transform="translate(-1154.639 -2638.146)" fill="#a46143"/>
            </g>
            <ellipse id="Elipse_13273" data-name="Elipse 13273" cx="1.112" cy="1.689" rx="1.112" ry="1.689" transform="translate(67.682 46.182)" fill="#481a12"/>
            <ellipse id="Elipse_13274" data-name="Elipse 13274" cx="1.112" cy="1.689" rx="1.112" ry="1.689" transform="translate(53.196 46.182)" fill="#481a12"/>
            <path id="Trazado_1033740" data-name="Trazado 1033740" d="M1128.984,2489.183c0,.409-1.955-.453-4.366-.453s-4.366.863-4.366.453,1.954-1.936,4.366-1.936S1128.984,2488.773,1128.984,2489.183Z" transform="translate(-1071.208 -2445.752)" fill="#692216"/>
            <path id="Trazado_1033741" data-name="Trazado 1033741" d="M1272.013,2489.183c0,.409-1.955-.453-4.366-.453s-4.366.863-4.366.453,1.955-1.936,4.366-1.936S1272.013,2488.773,1272.013,2489.183Z" transform="translate(-1198.31 -2445.752)" fill="#692216"/>
            <ellipse id="Elipse_13275" data-name="Elipse 13275" cx="3.876" cy="5.188" rx="3.876" ry="5.188" transform="matrix(0.927, -0.374, 0.374, 0.927, 34.792, 45.096)" fill="#eab298"/>
          </g>
        </g>
        <g id="Grupo_1180066" data-name="Grupo 1180066" transform="translate(0 0)">
          <path id="Trazado_1033743" data-name="Trazado 1033743" d="M690.7,2196.873a71.088,71.088,0,0,1-30.935-7.036c-.576-.277-1.151-.563-1.707-.852-1.76-.905-3.51-1.9-5.19-2.956a71.581,71.581,0,0,1-14.17-11.646c-.224-.238-.45-.482-.675-.728a71.369,71.369,0,1,1,105.1.28c-.182.2-.361.389-.542.58-.6.64-1.245,1.294-1.9,1.932a71.331,71.331,0,0,1-16.957,12.341c-.118.063-.238.125-.357.185a71.02,71.02,0,0,1-32.665,7.9Zm0-134.861a63.491,63.491,0,0,0-46.865,106.326q.3.325.6.645a63.723,63.723,0,0,0,12.617,10.371c1.5.938,3.049,1.823,4.622,2.633q.746.386,1.506.751a63.453,63.453,0,0,0,56.595-.776l.045-.023c.073-.036.145-.075.217-.113l.026-.014a63.461,63.461,0,0,0,15.1-10.99c.582-.57,1.149-1.146,1.689-1.72.169-.178.327-.348.484-.518A63.49,63.49,0,0,0,690.7,2062.013Z" transform="translate(-619.333 -2054.136)" fill="#b1c9e1"/>
        </g>
      </g>
      <g id="man2" transform="translate(-5824.391 5512.486)">
        <path id="Trazado_1033744" data-name="Trazado 1033744" d="M2669.42,1662.236a64.956,64.956,0,0,0,17.31,44.24c.163.175.325.35.49.524q.849.9,1.735,1.767a65.244,65.244,0,0,0,15.506,11.284c.1.052.2.1.3.154a65.177,65.177,0,0,0,58.113.8q.781-.375,1.549-.773,2.435-1.253,4.747-2.7a65.365,65.365,0,0,0,12.95-10.643q.311-.329.617-.665a65.193,65.193,0,1,0-113.314-43.984Z" transform="translate(-2662.583 -1590.206)" fill="#fff"/>
        <g id="Grupo_1180073" data-name="Grupo 1180073" transform="translate(27.339 23.511)">
          <g id="Grupo_1180069" data-name="Grupo 1180069" transform="translate(0 73.769)">
            <path id="Trazado_1033745" data-name="Trazado 1033745" d="M2868.23,2431.481a61.506,61.506,0,0,0,14.624,10.642c.092.049.186.1.279.145a61.459,61.459,0,0,0,54.8.753q.736-.354,1.461-.729,2.3-1.181,4.476-2.549-.782-12.064-1.564-24.127c0-.078-.011-.156-.014-.235-1.105-.344-2.957-.9-5.28-1.466-6.956-1.706-9.576-1.462-12.9-1.828h0a30.962,30.962,0,0,1-5.457-1.128,47.068,47.068,0,0,0-10.044-1.728,14.509,14.509,0,0,0-2.5.16,14.721,14.721,0,0,0-4.729,1.59,7.991,7.991,0,0,1-2.092.717h0c-2.2.475-5.568.643-13.012,1.923-1.206.207-2.138.378-2.882.532a12.943,12.943,0,0,0-2.6.735l-.011.006-.029.014c-.223.1-.429.207-.641.326a11.826,11.826,0,0,0-2.6,2l-.066.066c-.055.056-.109.112-.163.169a17.258,17.258,0,0,0-2.6,3.778A111.493,111.493,0,0,1,2868.23,2431.481Z" transform="translate(-2866.593 -2409.228)" fill="#465273"/>
            <g id="Grupo_1180067" data-name="Grupo 1180067" transform="translate(62.634 6.093)">
              <path id="Trazado_1033746" data-name="Trazado 1033746" d="M3416.635,2494.843a61.169,61.169,0,0,0,8.054-3.2q.736-.354,1.461-.729,2.3-1.181,4.476-2.549a61.653,61.653,0,0,0,12.213-10.037c-3.321-5.333-8.56-12.421-13.776-14.089a10.624,10.624,0,0,0-1.115-.253,2.739,2.739,0,0,0-.71-.031C3420.689,2464.556,3413.806,2481.113,3416.635,2494.843Z" transform="translate(-3415.982 -2463.947)" fill="#465273"/>
            </g>
            <g id="Grupo_1180068" data-name="Grupo 1180068" transform="translate(0 4.92)">
              <path id="Trazado_1033747" data-name="Trazado 1033747" d="M2853.53,2469.076q.8.85,1.637,1.666a61.508,61.508,0,0,0,14.624,10.641c.092.049.186.1.279.145a61.166,61.166,0,0,0,10.876,4.351c3.734-14-3.428-31.838-10.23-32.459a2.307,2.307,0,0,0-.384,0c-.155.008-.266.027-.327.036a8.034,8.034,0,0,0-2.27.7l-.012.006-.029.014a13.234,13.234,0,0,0-3.238,2.325l-.066.066c-.056.056-.109.112-.163.169A147.6,147.6,0,0,0,2853.53,2469.076Z" transform="translate(-2853.53 -2453.409)" fill="#465273"/>
            </g>
          </g>
          <g id="Grupo_1180072" data-name="Grupo 1180072" transform="translate(15.284)">
            <path id="Trazado_1033748" data-name="Trazado 1033748" d="M3067.671,1762.226c.3-1.744.574-3.147.743-3.99a15.15,15.15,0,0,1,3.755-7.041,14.777,14.777,0,0,1,6.437-3.99,18.932,18.932,0,0,1,6.406-.323c1.646.119,5.3.711,11.11,3.331a44.074,44.074,0,0,1,17.934,14.224,62.951,62.951,0,0,0-3.768,22.815l-42.045-3.578a38.072,38.072,0,0,1-1.336-5.419,36.239,36.239,0,0,1-.468-4.24C3066.263,1770.443,3066.73,1767.656,3067.671,1762.226Z" transform="translate(-3057.98 -1746.785)" fill="#4d3225"/>
            <path id="Trazado_1033749" data-name="Trazado 1033749" d="M3145.91,2298.043a43.841,43.841,0,0,0,.552-16.54c7.012-.173,13.943-.629,20.953-.871a28.066,28.066,0,0,0-.111,4.337,32.345,32.345,0,0,0,.888,5.658,34.871,34.871,0,0,0,2.747,7.313,21.112,21.112,0,0,1-25.029.1Z" transform="translate(-3128.634 -2221.182)" fill="#ebae95"/>
            <path id="Trazado_1033750" data-name="Trazado 1033750" d="M3075.615,1908.87a52.845,52.845,0,0,0,9.667,9.12,2.287,2.287,0,0,0,1.245.436c3.575.156,8.016.3,11.639.458a3.077,3.077,0,0,0,1.835-.513,120.77,120.77,0,0,0,11.652-8.844,3.044,3.044,0,0,0,1.063-2.158,99.723,99.723,0,0,1,2.981-20.474q-.458-.562-.886-1.151a30.469,30.469,0,0,1-5.644-16.132,34.68,34.68,0,0,0-27.234-.714,29.08,29.08,0,0,1-4.44,11.644q-.645.992-1.364,1.917a200.719,200.719,0,0,1-1.216,24.06A3.181,3.181,0,0,0,3075.615,1908.87Z" transform="translate(-3065.527 -1853.123)" fill="#ebae95"/>
            <ellipse id="Elipse_13276" data-name="Elipse 13276" cx="5.752" cy="4.67" rx="5.752" ry="4.67" transform="translate(43.62 42.943) rotate(-49.335)" fill="#ebae95"/>
            <ellipse id="Elipse_13277" data-name="Elipse 13277" cx="4.67" cy="5.752" rx="4.67" ry="5.752" transform="matrix(0.652, -0.759, 0.759, 0.652, 0, 37.861)" fill="#ebae95"/>
            <path id="Trazado_1033751" data-name="Trazado 1033751" d="M3292.878,2019.757a4.061,4.061,0,0,0-.124-.388c-.052-.122-.107-.246-.168-.366s-.133-.232-.2-.349-.154-.219-.231-.331a5.389,5.389,0,0,0-1.174-1.118,6.19,6.19,0,0,0-6.317-.442,5.375,5.375,0,0,0-1.318.944c-.094.1-.187.194-.276.3s-.17.208-.248.317-.148.226-.218.339a4.008,4.008,0,0,0-.177.367.225.225,0,0,0,.124.292.227.227,0,0,0,.115.015l.015,0c.132-.018.255-.045.375-.069s.242-.044.356-.069.231-.042.344-.063.225-.038.334-.057c.439-.072.858-.125,1.265-.164a13.46,13.46,0,0,1,4.641.325c.4.1.805.206,1.23.339.106.033.212.07.323.1s.216.076.332.11.224.079.342.118.233.084.362.121l.014,0a.224.224,0,0,0,.278-.154A.221.221,0,0,0,3292.878,2019.757Z" transform="translate(-3249.935 -1986.109)" fill="#4d3225"/>
            <path id="Trazado_1033752" data-name="Trazado 1033752" d="M3143.167,2011.577a3.859,3.859,0,0,0-.124-.388c-.052-.122-.107-.246-.168-.367s-.133-.232-.2-.349-.153-.219-.232-.33a5.37,5.37,0,0,0-1.174-1.119,6.188,6.188,0,0,0-6.316-.442,5.371,5.371,0,0,0-1.318.944c-.094.1-.187.195-.276.3s-.17.208-.248.317-.148.226-.217.339a4.008,4.008,0,0,0-.177.367.225.225,0,0,0,.124.292.221.221,0,0,0,.114.015l.015,0c.133-.018.255-.045.375-.069s.242-.044.356-.069.232-.042.344-.063.224-.038.334-.057c.439-.072.858-.125,1.265-.164a13.447,13.447,0,0,1,4.642.324c.4.1.805.207,1.23.339.106.033.212.07.323.1s.216.076.332.11.225.079.343.118.233.084.362.121l.014,0a.225.225,0,0,0,.28-.27Z" transform="translate(-3116.895 -1978.84)" fill="#4d3225"/>
            <path id="Trazado_1033753" data-name="Trazado 1033753" d="M3301.819,2074.181c-.123,1.166.367,2.173,1.1,2.25s1.419-.805,1.543-1.971-.367-2.174-1.1-2.25S3301.942,2073.015,3301.819,2074.181Z" transform="translate(-3267.165 -2035.966)" fill="#411632"/>
            <path id="Trazado_1033754" data-name="Trazado 1033754" d="M3178.829,2063.112c-.123,1.166.367,2.173,1.1,2.25s1.419-.806,1.542-1.971-.367-2.174-1.1-2.25S3178.952,2061.946,3178.829,2063.112Z" transform="translate(-3157.87 -2026.13)" fill="#411632"/>
            <g id="Grupo_1180070" data-name="Grupo 1180070" transform="translate(23.836 39.305)">
              <path id="Trazado_1033755" data-name="Trazado 1033755" d="M3209.429,2110.7a.382.382,0,0,0,.047-.755,7.529,7.529,0,0,1-3.559-1.8c-.23-.208-.337-.368-.326-.49.013-.156.227-.327.415-.478a10.622,10.622,0,0,0,3.881-7.01.382.382,0,1,0-.759-.088,9.851,9.851,0,0,1-3.6,6.5,1.528,1.528,0,0,0-.7,1.01,1.419,1.419,0,0,0,.574,1.121,8.3,8.3,0,0,0,3.92,1.984A.412.412,0,0,0,3209.429,2110.7Z" transform="translate(-3204.826 -2099.739)" fill="#bd7465"/>
            </g>
            <path id="Trazado_1033756" data-name="Trazado 1033756" d="M3075.216,2012.509a52.824,52.824,0,0,0,9.8,9.307,2.534,2.534,0,0,0,1.382.484c3.619.158,8.107.3,11.736.461a2.515,2.515,0,0,0,1.5-.413,120.9,120.9,0,0,0,11.983-9.1,2.542,2.542,0,0,0,.885-1.793,112.819,112.819,0,0,1,3.423-21.784c-.305-.374-.789-.737-1.074-1.129-1.626,8.092-6.016,21.833-10.044,25.165-3.32-5.906-16.295-9.484-22.257-1.429-5.216-2.844-5.412-19.072-5.271-28.946-.43.661-1.047,1.325-1.525,1.94a222.546,222.546,0,0,1-1.078,25.392A2.52,2.52,0,0,0,3075.216,2012.509Z" transform="translate(-3065.317 -1956.993)" fill="#4d3225"/>
            <path id="Trazado_1033757" data-name="Trazado 1033757" d="M3175.82,2227.841a7,7,0,0,0,4.676,2.95,8.753,8.753,0,0,0,.464-3.09,5.7,5.7,0,0,0,2.1-.078c.224-.048.686-.188.686-.188a9.555,9.555,0,0,0,.677,3.14,9.436,9.436,0,0,0,5.175-2.638,8.478,8.478,0,0,0-13.783-.095Z" transform="translate(-3155.214 -2171.167)" fill="#e7a293"/>
            <g id="Grupo_1180071" data-name="Grupo 1180071" transform="translate(23.137 54.882)">
              <path id="Trazado_1033758" data-name="Trazado 1033758" d="M3202.584,2241.508a7.381,7.381,0,0,0,3.88-1.042.382.382,0,0,0-.394-.655,6.6,6.6,0,0,1-3.473.933h-.011a6.6,6.6,0,0,1-3.447-1.064.382.382,0,0,0-.418.639,7.371,7.371,0,0,0,3.85,1.188Z" transform="translate(-3198.548 -2239.618)" fill="#bd7465"/>
            </g>
          </g>
        </g>
        <g id="Grupo_1180077" data-name="Grupo 1180077" transform="translate(0 0)">
          <g id="Grupo_1180076" data-name="Grupo 1180076">
            <g id="Grupo_1180075" data-name="Grupo 1180075">
              <g id="Grupo_1180074" data-name="Grupo 1180074">
                <path id="Trazado_1033759" data-name="Trazado 1033759" d="M2680.057,1679.714a71.688,71.688,0,0,1-32.969-7.973c-.12-.06-.24-.123-.359-.186a72,72,0,0,1-17.121-12.461c-.651-.637-1.3-1.3-1.918-1.954-.174-.182-.354-.377-.534-.571a72.03,72.03,0,1,1,106.065-.287q-.341.373-.683.737a72.263,72.263,0,0,1-14.3,11.755c-1.692,1.061-3.458,2.067-5.246,2.986-.552.286-1.132.576-1.714.856a71.746,71.746,0,0,1-31.218,7.1Zm0-136.033a64,64,0,0,0-47.011,107.436c.155.167.314.338.475.508.555.589,1.126,1.171,1.707,1.739a64.008,64.008,0,0,0,15.23,11.085l.024.013c.073.039.147.077.221.115l.045.023a63.99,63.99,0,0,0,57.05.783c.511-.245,1.017-.5,1.508-.753,1.6-.822,3.164-1.714,4.667-2.657a64.269,64.269,0,0,0,12.72-10.454c.205-.218.406-.436.607-.655a64,64,0,0,0-47.244-107.183Z" transform="translate(-2608.027 -1535.655)" fill="#b1c9e1"/>
              </g>
            </g>
          </g>
        </g>
      </g>
      <g id="man1" transform="translate(-5993.605 5385.496)">
        <g id="Grupo_1180103" data-name="Grupo 1180103" transform="translate(6.835 6.835)">
          <path id="Trazado_1033760" data-name="Trazado 1033760" d="M1280.116,521.8a64.885,64.885,0,0,1-17.291,44.192c-.162.175-.325.35-.49.524q-.849.9-1.734,1.765a65.161,65.161,0,0,1-15.49,11.272c-.1.052-.2.1-.3.154a65.105,65.105,0,0,1-58.049.8q-.78-.375-1.547-.772-2.433-1.252-4.742-2.7a65.33,65.33,0,0,1-12.936-10.631q-.31-.329-.617-.665a65.122,65.122,0,1,1,113.19-43.935Z" transform="translate(-1149.872 -456.676)" fill="#fff"/>
          <g id="man_26_" clip-path="url(#clip-path-3)">
            <g id="Grupo_1180095" data-name="Grupo 1180095" transform="translate(-25.217 12.382)">
              <g id="Grupo_1180081" data-name="Grupo 1180081" transform="translate(58.089)">
                <path id="Trazado_1033761" data-name="Trazado 1033761" d="M1619.913,1075.258l-.569,5.308a15.105,15.105,0,0,1-3.936,3.552,14.8,14.8,0,0,1-4.958,1.974,15.233,15.233,0,0,1-3.342.239,14.133,14.133,0,0,1-5.91-1.346,13.244,13.244,0,0,1-3.4-2.376q-.388-4.4-.775-8.8Z" transform="translate(-1580.098 -1017.465)" fill="#bf7a5e"/>
                <path id="Trazado_1033762" data-name="Trazado 1033762" d="M1518.53,766.818c.833,3.759,1.685,7.414,2.423,10.326a32.435,32.435,0,0,0,1.879,6.132c1.344,1.674,10,10.861,16.9,9.96s17.282-9.774,17.738-15.347c.09-1.123.083-3.18.01-5.746-.077-2.78-.23-6.157-.41-9.6-.164.046-.3.03-.379-.087-4.34-4.614-3.565-10.884-4.587-16.419-10.184,2.278-21.361,4.85-31.639,2.165a52.794,52.794,0,0,1-.293,17.189A1.658,1.658,0,0,1,1518.53,766.818Z" transform="translate(-1510.348 -726.198)" fill="#e8a182"/>
                <path id="Trazado_1033763" data-name="Trazado 1033763" d="M1525.942,604.125c-4.34-4.614-3.565-10.884-4.587-16.419-10.184,2.278-21.361,4.85-31.639,2.165a52.807,52.807,0,0,1-.293,17.189,1.66,1.66,0,0,1-1.641,1.425c-1.961-8.853-3.823-18.295-3.852-20.032-.057-3.321,3.75-3.7,3.75-3.7s-2.8-5.7,3.209-7.4,23.811-.117,28.45-5.854,5.864-3.61,7.249-.889,2.08,12-1.421,14.885c0,0,.676,9.582,1.155,18.719C1526.157,604.258,1526.021,604.242,1525.942,604.125Z" transform="translate(-1479.6 -567.864)" fill="#37162b"/>
                <ellipse id="Elipse_13278" data-name="Elipse 13278" cx="5.622" cy="4.385" rx="5.622" ry="4.385" transform="translate(42.2 43.484) rotate(-62.94)" fill="#e8a182"/>
                <ellipse id="Elipse_13279" data-name="Elipse 13279" cx="4.385" cy="5.622" rx="4.385" ry="5.622" transform="translate(0 43.859) rotate(-41.047)" fill="#e8a182"/>
                <path id="Trazado_1033764" data-name="Trazado 1033764" d="M1540.28,985.448a32.421,32.421,0,0,0,1.879,6.132c1.344,1.674,10,10.861,16.9,9.96s17.282-9.773,17.737-15.347c.091-1.123.083-3.18.011-5.746a17.079,17.079,0,0,1-8.5,11.035,16.592,16.592,0,0,0-9.119-6.014,20.964,20.964,0,0,0-10.856,7.066A29.84,29.84,0,0,1,1540.28,985.448Z" transform="translate(-1529.676 -934.501)" fill="#37162b"/>
                <path id="Trazado_1033765" data-name="Trazado 1033765" d="M1644.8,1062.279a12.25,12.25,0,0,0,7.209-4.12,17.909,17.909,0,0,0-6.119-3.614,29.8,29.8,0,0,0-8.16,3.958C1639.856,1060.3,1643.537,1062.445,1644.8,1062.279Z" transform="translate(-1616.278 -1000.349)" fill="#e8a182"/>
                <g id="Grupo_1180078" data-name="Grupo 1180078" transform="translate(24.771 56.613)">
                  <path id="Trazado_1033766" data-name="Trazado 1033766" d="M1672.864,1078.033a7.913,7.913,0,0,0,3.505-1.323.255.255,0,0,0-.29-.42,7.315,7.315,0,0,1-8.186.076.255.255,0,0,0-.282.426,7.9,7.9,0,0,0,4.391,1.3A7.441,7.441,0,0,0,1672.864,1078.033Z" transform="translate(-1667.497 -1076.244)" fill="#bf7a5e"/>
                </g>
                <g id="Grupo_1180079" data-name="Grupo 1180079" transform="translate(26.286 58.836)">
                  <path id="Trazado_1033767" data-name="Trazado 1033767" d="M1684.575,1097.234a5.89,5.89,0,0,0,1.219-.283.255.255,0,1,0-.168-.482,5.484,5.484,0,0,1-4.156-.239.255.255,0,0,0-.222.46A6,6,0,0,0,1684.575,1097.234Z" transform="translate(-1681.105 -1096.204)" fill="#bf7a5e"/>
                </g>
                <g id="Grupo_1180080" data-name="Grupo 1180080" transform="translate(27.256 38.855)">
                  <path id="Trazado_1033768" data-name="Trazado 1033768" d="M1692.094,928.472a9.028,9.028,0,0,0,3.026-.926c.812-.418,1.254-.927,1.313-1.513.085-.845-.625-1.46-1.2-1.955l-.021-.018a11.384,11.384,0,0,1-3.784-7.055.255.255,0,1,0-.507.065,11.9,11.9,0,0,0,3.956,7.375l.02.018c.506.439,1.08.937,1.022,1.518-.041.4-.39.776-1.039,1.11a8.55,8.55,0,0,1-4.791.888.255.255,0,1,0-.055.508A8.959,8.959,0,0,0,1692.094,928.472Z" transform="translate(-1689.813 -916.782)" fill="#bf7a5e"/>
                </g>
                <ellipse id="Elipse_13280" data-name="Elipse 13280" cx="4.282" cy="1.687" rx="4.282" ry="1.687" transform="translate(15.088 32.77) rotate(-6.99)" fill="#37162b"/>
                <ellipse id="Elipse_13281" data-name="Elipse 13281" cx="4.282" cy="1.687" rx="4.282" ry="1.687" transform="matrix(0.999, -0.034, 0.034, 0.999, 30.666, 31.698)" fill="#37162b"/>
                <ellipse id="Elipse_13282" data-name="Elipse 13282" cx="1.326" cy="2.13" rx="1.326" ry="2.13" transform="translate(33.864 37.134) rotate(-6.99)" fill="#37162b"/>
                <ellipse id="Elipse_13283" data-name="Elipse 13283" cx="1.326" cy="2.13" rx="1.326" ry="2.13" transform="translate(18.299 39.043) rotate(-6.99)" fill="#37162b"/>
              </g>
              <g id="Grupo_1180094" data-name="Grupo 1180094" transform="translate(0 63.118)">
                <g id="Grupo_1180085" data-name="Grupo 1180085" transform="translate(113.942 18.444)">
                  <path id="Trazado_1033769" data-name="Trazado 1033769" d="M1951.2,1300.29a23.9,23.9,0,0,1,8.36,1.819c5.912,2.488,9.2,6.829,12.323,11.056,7.1,9.618,10.656,14.427,14.3,19.577,12.6,17.829,15.236,15.87,16.313,21.7.8,4.337-2.672,15.373-22.694,34.162-6.859,6.436-9.166,7.7-11.967,7.587-7.258-.281-14.134-9.6-12.55-14.984.8-2.735,3.1-2.109,7.341-7.838,2.1-2.835,2.661-4.107,5.008-6.685a38.932,38.932,0,0,1,3.656-3.439c4-3.417,3.088-3.533,3.088-3.533-2.39-.9-18.607-7.313-25.214-25.345C1942.907,1317.3,1949.978,1302.71,1951.2,1300.29Z" transform="translate(-1946.613 -1300.29)" fill="#f0cd8b"/>
                  <g id="Grupo_1180082" data-name="Grupo 1180082" transform="translate(27.476 51.563)">
                    <path id="Trazado_1033770" data-name="Trazado 1033770" d="M2193.651,1771.852a.306.306,0,0,0,.2-.082,55.3,55.3,0,0,1,8.933-6.8c.606-.388,1.179-.755,1.74-1.13a.271.271,0,0,0,.072-.391.308.308,0,0,0-.414-.066c-.556.372-1.127.737-1.73,1.123a55.83,55.83,0,0,0-9.019,6.87.27.27,0,0,0,0,.4A.3.3,0,0,0,2193.651,1771.852Z" transform="translate(-2193.345 -1763.327)" fill="#6486ac"/>
                  </g>
                  <path id="Trazado_1033771" data-name="Trazado 1033771" d="M1983.013,2041.19l-7.273,4.721a1.135,1.135,0,0,0-.528.949c0,.056.005.112.005.112a1.132,1.132,0,0,0,.115.394l5.754,11.432a1.279,1.279,0,0,0,1.847.454l8.485-5.84Z" transform="translate(-1972.028 -1958.684)" fill="#b1c9e1"/>
                  <g id="Grupo_1180083" data-name="Grupo 1180083" transform="translate(9.509 83.795)">
                    <path id="Trazado_1033772" data-name="Trazado 1033772" d="M2040.6,2063.957a.306.306,0,0,0,.2-.11.27.27,0,0,0-.052-.393,23.562,23.562,0,0,1-8.166-10.507.3.3,0,0,0-.38-.164.281.281,0,0,0-.179.362,24.126,24.126,0,0,0,8.36,10.758A.311.311,0,0,0,2040.6,2063.957Z" transform="translate(-2032 -2052.764)" fill="#6486ac"/>
                  </g>
                  <g id="Grupo_1180084" data-name="Grupo 1180084" transform="translate(4.293 87.483)">
                    <path id="Trazado_1033773" data-name="Trazado 1033773" d="M1987.81,2086.746a1.109,1.109,0,0,0-.268-.433,1.461,1.461,0,0,0-.6-.353,1.433,1.433,0,0,0-1.473.315,1.212,1.212,0,0,0-.233,1.242,1.337,1.337,0,0,0,.956.9,1.361,1.361,0,0,0,.161.026,1.428,1.428,0,0,0,1.148-.448,1.2,1.2,0,0,0,.337-.571A1.341,1.341,0,0,0,1987.81,2086.746Zm-.553.563a.714.714,0,0,1-.195.3.846.846,0,0,1-.595.271.646.646,0,0,1-.138-.015.761.761,0,0,1-.524-.515.692.692,0,0,1,.113-.7.763.763,0,0,1,.634-.2.994.994,0,0,1,.21.042.851.851,0,0,1,.349.2.541.541,0,0,1,.131.21A.8.8,0,0,1,1987.257,2087.31Z" transform="translate(-1985.164 -2085.883)" fill="#6486ac"/>
                  </g>
                </g>
                <g id="Grupo_1180089" data-name="Grupo 1180089" transform="translate(0 17.859)">
                  <path id="Trazado_1033774" data-name="Trazado 1033774" d="M974.819,1295.04a23.9,23.9,0,0,0-8.36,1.819c-5.912,2.488-9.2,6.829-12.323,11.056-7.1,9.618-10.657,14.427-14.3,19.576-12.6,17.829-15.236,15.871-16.314,21.7-.8,4.337,2.672,15.373,22.694,34.162,6.859,6.436,9.166,7.7,11.967,7.587,7.258-.281,14.134-9.6,12.55-14.984-.8-2.734-3.1-2.109-7.341-7.838-2.1-2.835-2.661-4.107-5.008-6.685a38.939,38.939,0,0,0-3.656-3.439c-4-3.416-3.089-3.533-3.089-3.533,2.39-.9,18.607-7.313,25.215-25.345C983.112,1312.052,976.041,1297.46,974.819,1295.04Z" transform="translate(-923.422 -1295.04)" fill="#f0cd8b"/>
                  <g id="Grupo_1180086" data-name="Grupo 1180086" transform="translate(17.202 51.563)">
                    <path id="Trazado_1033775" data-name="Trazado 1033775" d="M1088.9,1766.6a.3.3,0,0,1-.2-.082,55.281,55.281,0,0,0-8.934-6.8c-.606-.388-1.179-.755-1.74-1.13a.271.271,0,0,1-.072-.391.309.309,0,0,1,.415-.067c.556.372,1.126.737,1.73,1.124a55.807,55.807,0,0,1,9.019,6.87.27.27,0,0,1,0,.4A.3.3,0,0,1,1088.9,1766.6Z" transform="translate(-1077.897 -1758.077)" fill="#6486ac"/>
                  </g>
                  <path id="Trazado_1033776" data-name="Trazado 1033776" d="M1260.437,2035.94l7.273,4.721a1.12,1.12,0,0,1,.407,1.454l-5.754,11.432a1.278,1.278,0,0,1-1.847.454l-8.485-5.84Z" transform="translate(-1215.437 -1953.434)" fill="#b1c9e1"/>
                  <g id="Grupo_1180087" data-name="Grupo 1180087" transform="translate(37.618 83.795)">
                    <path id="Trazado_1033777" data-name="Trazado 1033777" d="M1261.489,2058.707a.307.307,0,0,1-.2-.109.271.271,0,0,1,.052-.394,23.56,23.56,0,0,0,8.166-10.507.3.3,0,0,1,.38-.164.281.281,0,0,1,.178.362,24.125,24.125,0,0,1-8.36,10.757A.305.305,0,0,1,1261.489,2058.707Z" transform="translate(-1261.227 -2047.515)" fill="#6486ac"/>
                  </g>
                  <g id="Grupo_1180088" data-name="Grupo 1180088" transform="translate(48.984 87.483)">
                    <path id="Trazado_1033778" data-name="Trazado 1033778" d="M1365.7,2081.026a1.433,1.433,0,0,0-1.473-.314,1.456,1.456,0,0,0-.6.353,1.107,1.107,0,0,0-.268.432,1.333,1.333,0,0,0-.032.675,1.2,1.2,0,0,0,.337.572,1.424,1.424,0,0,0,1.149.446,1.1,1.1,0,0,0,.161-.026,1.335,1.335,0,0,0,.956-.9A1.214,1.214,0,0,0,1365.7,2081.026Zm-.334,1.077a.857.857,0,0,1-.208.336.665.665,0,0,1-.316.178.808.808,0,0,1-.733-.255.711.711,0,0,1-.195-.3.807.807,0,0,1,.015-.4.541.541,0,0,1,.131-.21.861.861,0,0,1,.348-.2.981.981,0,0,1,.21-.042.767.767,0,0,1,.634.2A.692.692,0,0,1,1365.364,2082.1Z" transform="translate(-1363.299 -2080.634)" fill="#6486ac"/>
                  </g>
                </g>
                <path id="Trazado_1033779" data-name="Trazado 1033779" d="M1426.539,2059.114a131.65,131.65,0,0,0,32.925-2.762,112.086,112.086,0,0,0-1.194-11.791c-1.519-4.875-59.719,3.179-59.719,3.179-.474,2.641-1.005,5.852-1.566,9.472a17.677,17.677,0,0,0,3.171.4C1409.082,2058.926,1417.811,2058.739,1426.539,2059.114Z" transform="translate(-1344.249 -1941.843)" fill="#241e21"/>
                <path id="Trazado_1033780" data-name="Trazado 1033780" d="M1439.025,2181.4c-6.292.865-13.145,1.6-20.5,2.086-9.6.637-17.264.672-21.555.637-1.843-.014-10-.1-20.757-.907-1.814-.137-3.332-.265-4.414-.362q.8-5.516,1.615-11.029.592-4.009,1.19-8.018a17.8,17.8,0,0,0,3.171.4,116.219,116.219,0,0,0,11.911,1.044q1.516.067,3.029.112c2.066.066,4.126.112,6.185.167,1.754.047,3.506.1,5.258.174q4.943.226,9.877.056,2.781-.094,5.551-.309,1.651-.125,3.3-.3a137.573,137.573,0,0,0,14.2-2.213q.58,4.158,1.058,8.558Q1438.688,2176.591,1439.025,2181.4Z" transform="translate(-1321.867 -2048.438)" fill="#4d494a"/>
                <path id="Trazado_1033781" data-name="Trazado 1033781" d="M1532.335,2110.355a2.384,2.384,0,0,0,.255,1.523c.539.777,1.736.743,2.712.62q.166-5.612.333-11.224l-2.6-.016a15.909,15.909,0,0,0-.432,4.374Q1532.47,2107.993,1532.335,2110.355Z" transform="translate(-1464.514 -1993.619)" fill="#4d494a"/>
                <path id="Trazado_1033782" data-name="Trazado 1033782" d="M1795.575,2098.242a2.049,2.049,0,0,0,.28,1.128,1.458,1.458,0,0,0,1.751.341,2.172,2.172,0,0,0,1.1-1.451,6.03,6.03,0,0,0,.089-1.834q-.243-4.466-.511-8.932a1.862,1.862,0,0,0-.234-.96,1.458,1.458,0,0,0-1.556-.439c-.545.143-1.113.155-1.655.326,0,1.564.3,3.083.379,4.645Q1795.4,2094.653,1795.575,2098.242Z" transform="translate(-1697.8 -1980.092)" fill="#4d494a"/>
                <path id="Trazado_1033783" data-name="Trazado 1033783" d="M1627.744,2103.487q-.092,3.974-.185,7.949a1.451,1.451,0,0,1-.457,1.249,1.648,1.648,0,0,1-.919.177l-12.081-.026a2.615,2.615,0,0,1-1.931-.526,2.256,2.256,0,0,1-.384-1.725q.18-3.327.36-6.654a3.2,3.2,0,0,1,2.312-.746l9.057-.15A11.659,11.659,0,0,1,1627.744,2103.487Z" transform="translate(-1535.119 -1995.192)" fill="#e39f4a"/>
                <path id="Trazado_1033784" data-name="Trazado 1033784" d="M1357.223,1222.7c-8.661,1.577-23.247,5.3-25.83,6.882s4.1,42.009,6.23,51.758,4.71,21.363,3.647,25.521-4.71,9.032.912,10.61,18.233,3.011,33.275,1.72,16.865-2.294,22.487-2.294,1.671-9.176.912-17.492,5.47-36.274,8.357-46.454,6.837-20.933,4.862-22.653-23.855-9.319-28.413-10.466S1357.223,1222.7,1357.223,1222.7Z" transform="translate(-1285.442 -1210.167)" fill="#f0cd8b"/>
                <path id="Trazado_1033785" data-name="Trazado 1033785" d="M1629.41,1285l6.685,12.474,8.356-14.337-8.356-1.147Z" transform="translate(-1550.792 -1265.584)" fill="#465273"/>
                <path id="Trazado_1033786" data-name="Trazado 1033786" d="M1633.664,1351.52l-4.254,56.633,8.508,19.786,6.533-19.213-6.685-57.206Z" transform="translate(-1550.792 -1327.371)" fill="#465273"/>
                <path id="Trazado_1033787" data-name="Trazado 1033787" d="M1614.142,1140.421a14.952,14.952,0,0,0,6.267-1.69,14.756,14.756,0,0,0,4.812-4.067v12.1l-2.735,4.583-6.631-.016-10.083.016-1.671-4.014-.467-10.65A15.779,15.779,0,0,0,1614.142,1140.421Z" transform="translate(-1527.887 -1134.664)" fill="#e8a182"/>
                <path id="Trazado_1033788" data-name="Trazado 1033788" d="M1550.287,1178.99l-6.837,7.743,6.837,14.1,9.42-10.369Z" transform="translate(-1474.404 -1174.054)" fill="#f0cd8b"/>
                <g id="Grupo_1180090" data-name="Grupo 1180090" transform="translate(68.767 12.399)">
                  <path id="Trazado_1033789" data-name="Trazado 1033789" d="M1548.065,1260.664l-.04,0a.279.279,0,0,1-.211-.154l-6.837-14.1a.278.278,0,0,1,.5-.243l6.658,13.726,9.143-10.064a.278.278,0,0,1,.412.375l-9.42,10.369A.278.278,0,0,1,1548.065,1260.664Z" transform="translate(-1540.949 -1246.011)" fill="#d6ad66"/>
                </g>
                <path id="Trazado_1033790" data-name="Trazado 1033790" d="M1701.467,1178.99l5.831,6.234-7.867,15.6-9.99-10.369Z" transform="translate(-1604.137 -1174.054)" fill="#f0cd8b"/>
                <g id="Grupo_1180091" data-name="Grupo 1180091" transform="translate(85.025 10.891)">
                  <path id="Trazado_1033791" data-name="Trazado 1033791" d="M1697.212,1248.624a.277.277,0,0,1-.2-.085l-9.99-10.369a.278.278,0,0,1,.4-.386l9.717,10.086,7.691-15.255a.278.278,0,0,1,.5.251l-7.867,15.605a.278.278,0,0,1-.207.15A.287.287,0,0,1,1697.212,1248.624Z" transform="translate(-1686.944 -1232.462)" fill="#d6ad66"/>
                </g>
                <g id="Grupo_1180092" data-name="Grupo 1180092" transform="translate(117.858 19.853)">
                  <path id="Trazado_1033792" data-name="Trazado 1033792" d="M1982.056,1350.267l-.029,0a.3.3,0,0,1-.242-.343c1.161-6.655,3.651-23.613,8.49-36.783a.3.3,0,0,1,.559.2c-4.815,13.107-7.306,30.049-8.462,36.682A.3.3,0,0,1,1982.056,1350.267Z" transform="translate(-1981.78 -1312.943)" fill="#d6ad66"/>
                </g>
                <g id="Grupo_1180093" data-name="Grupo 1180093" transform="translate(41.78 20.116)">
                  <path id="Trazado_1033793" data-name="Trazado 1033793" d="M1306.976,1354.815h0a.321.321,0,0,1-.326-.311c-1.063-12.087-4.788-29.762-8.018-38.735a.356.356,0,0,1,.163-.441.286.286,0,0,1,.388.185c3.253,9.033,6.991,26.771,8.06,38.94A.319.319,0,0,1,1306.976,1354.815Z" transform="translate(-1298.607 -1315.303)" fill="#d6ad66"/>
                </g>
              </g>
            </g>
            <g id="Grupo_1180096" data-name="Grupo 1180096" transform="translate(35.678 192.24)">
              <path id="Trazado_1033794" data-name="Trazado 1033794" d="M1476.7,2183.206l-1.985,11.206a9.056,9.056,0,0,1-1.459,4.7,8.891,8.891,0,0,1-2.3,2.373l-.305-.017-.4-.021a7.569,7.569,0,0,0,1.625-1.228,7.262,7.262,0,0,0,1.051-1.308,13.05,13.05,0,0,0,1.409-4.568l1.985-11.206a.192.192,0,0,1,.377.067Z" transform="translate(-1470.258 -2182.981)" fill="#2c2529"/>
            </g>
            <g id="Grupo_1180097" data-name="Grupo 1180097" transform="translate(78.674 191.489)">
              <path id="Trazado_1033795" data-name="Trazado 1033795" d="M1860.26,2194.344l-.26.027-.3.031a7.909,7.909,0,0,1-1.172-1.247,7.413,7.413,0,0,1-.742-1.193,12.282,12.282,0,0,1-.887-4.764l-.534-10.761a.193.193,0,0,1,.182-.2.19.19,0,0,1,.2.183l.534,10.761a8.069,8.069,0,0,0,.85,4.616A7.91,7.91,0,0,0,1860.26,2194.344Z" transform="translate(-1856.362 -2176.235)" fill="#2c2529"/>
            </g>
            <g id="Grupo_1180098" data-name="Grupo 1180098" transform="translate(56.479 193.175)">
              <path id="Trazado_1033796" data-name="Trazado 1033796" d="M1657.43,2192.141q.066,8.862.132,17.724l-.183,0-.2,0q-.067-8.864-.133-17.728a.192.192,0,0,1,.19-.193A.19.19,0,0,1,1657.43,2192.141Z" transform="translate(-1657.047 -2191.887)" fill="#2c2529"/>
              <path id="Trazado_1033797" data-name="Trazado 1033797" d="M1707.783,2209.2l-.193.007-.19.007c-.016-.732-.041-1.834-.07-3.177-.052-2.406-.056-2.7-.062-3-.078-3.76-.157-7.647-.261-11.464a.193.193,0,0,1,.187-.2s.1,0,.2.187C1707.562,2191.886,1707.7,2201.272,1707.783,2209.2Z" transform="translate(-1701.444 -2191.38)" fill="#2c2529"/>
            </g>
            <g id="Grupo_1180100" data-name="Grupo 1180100" transform="translate(89.491 184.074)">
              <path id="Trazado_1033798" data-name="Trazado 1033798" d="M1961.27,2128.427a38.437,38.437,0,0,1-1.145,4.921q-2,.3-4.164.587l-.586.078c.056-1.377.158-2.952.137-4.576-.109-8.258-3.344-10.847-1.38-15.818a11.789,11.789,0,0,1,2.637-3.966l2.923,5.808c.068.779.178,1.956.343,3.385C1960.774,2125.3,1961.326,2125.648,1961.27,2128.427Z" transform="translate(-1953.501 -2109.653)" fill="#e8a182"/>
              <g id="Grupo_1180099" data-name="Grupo 1180099" transform="translate(2.089 9.014)">
                <path id="Trazado_1033799" data-name="Trazado 1033799" d="M1972.486,2201.577a2.64,2.64,0,0,0,2.743-1.912c.3-1.312.014-2.758-.427-4.945-.228-1.131-.485-2.411-.724-3.975a.173.173,0,0,0-.342.052c.24,1.573.5,2.857.727,3.991.431,2.143.716,3.559.428,4.8a2.305,2.305,0,0,1-2.444,1.643.173.173,0,0,0-.025.345S1972.447,2201.577,1972.486,2201.577Z" transform="translate(-1972.263 -2190.598)" fill="#ba7152"/>
              </g>
            </g>
            <g id="Grupo_1180102" data-name="Grupo 1180102" transform="translate(19.657 183.6)">
              <path id="Trazado_1033800" data-name="Trazado 1033800" d="M1332.349,2125.943c-.149,1.359-.225,2.945-.225,2.945-.074,1.141-.121,2.122-.152,2.887l-4.526-.442c-.085-.985-.212-1.774-.306-2.291-.4-2.207-.88-3.081-.714-4.737a8.113,8.113,0,0,1,.242-1.311c.389-1.522,1.063-2.485,2.272-6.887.422-1.534.72-2.8.905-3.627l3.567-7.087a12.992,12.992,0,0,1,1.98,4.137C1336.894,2115.081,1333.283,2117.437,1332.349,2125.943Z" transform="translate(-1326.392 -2105.394)" fill="#e8a182"/>
              <g id="Grupo_1180101" data-name="Grupo 1180101" transform="translate(2.902 9.106)">
                <path id="Trazado_1033801" data-name="Trazado 1033801" d="M1355.171,2198.8a2.776,2.776,0,0,1-2.677-2.277c-.186-1.4.264-2.887.946-5.132.353-1.16.751-2.474,1.16-4.087a.182.182,0,0,1,.352.089c-.41,1.621-.811,2.94-1.164,4.1-.668,2.2-1.109,3.652-.933,4.978a2.422,2.422,0,0,0,2.392,1.966.182.182,0,0,1-.009.364S1355.212,2198.8,1355.171,2198.8Z" transform="translate(-1352.452 -2187.164)" fill="#ba7152"/>
              </g>
            </g>
          </g>
        </g>
        <g id="Grupo_1180104" data-name="Grupo 1180104" transform="translate(0 0)">
          <path id="Trazado_1033803" data-name="Trazado 1033803" d="M1160.452,539.21a71.677,71.677,0,0,1-31.19-7.094c-.58-.279-1.16-.568-1.721-.859-1.776-.914-3.54-1.918-5.233-2.98a72.176,72.176,0,0,1-14.287-11.743c-.226-.239-.453-.485-.68-.733a71.958,71.958,0,1,1,105.963.282c-.184.2-.364.392-.546.584-.61.647-1.256,1.305-1.913,1.948a71.906,71.906,0,0,1-17.095,12.441c-.12.064-.242.128-.363.189a71.623,71.623,0,0,1-32.934,7.965Zm0-135.884a63.926,63.926,0,0,0-47.186,107.054c.2.217.4.435.6.649a64.168,64.168,0,0,0,12.7,10.442c1.5.944,3.069,1.835,4.654,2.65q.75.389,1.516.757a63.89,63.89,0,0,0,56.982-.781l.046-.023c.072-.036.144-.074.215-.112l.03-.016a63.9,63.9,0,0,0,15.206-11.065c.586-.573,1.156-1.154,1.7-1.732.17-.179.329-.351.488-.522a63.925,63.925,0,0,0-46.958-107.3Z" transform="translate(-1088.494 -395.294)" fill="#b1c9e1"/>
        </g>
      </g>
      <g id="messages" transform="translate(-5958.488 5495.26)">
        <g id="Grupo_1180105" data-name="Grupo 1180105" transform="translate(0 54.663)">
          <path id="Trazado_1033804" data-name="Trazado 1033804" d="M1554.576,1903.382h-75.491a5.922,5.922,0,0,1-5.922-5.922v-19.7a5.922,5.922,0,0,1,5.922-5.922h75.491a5.922,5.922,0,0,1,5.922,5.922v19.7A5.922,5.922,0,0,1,1554.576,1903.382Z" transform="translate(-1465.444 -1871.837)" fill="#dc7581"/>
          <path id="Trazado_1033805" data-name="Trazado 1033805" d="M1413.156,2015.61l-9.306,28.423,19.14-16.2Z" transform="translate(-1403.85 -1999.599)" fill="#dc7581"/>
          <path id="Trazado_1033806" data-name="Trazado 1033806" d="M1606,1948.856h-69.75a1.642,1.642,0,0,1-1.643-1.642v-2.021a1.642,1.642,0,0,1,1.643-1.642H1606a1.643,1.643,0,0,1,1.643,1.642v2.021A1.644,1.644,0,0,1,1606,1948.856Z" transform="translate(-1520.044 -1935.564)" fill="#fff"/>
          <path id="Trazado_1033807" data-name="Trazado 1033807" d="M1576.316,2041.046h-40.075a1.643,1.643,0,0,1-1.642-1.643v-2.021a1.643,1.643,0,0,1,1.642-1.643h40.075a1.643,1.643,0,0,1,1.643,1.643v2.021A1.642,1.642,0,0,1,1576.316,2041.046Z" transform="translate(-1520.039 -2017.488)" fill="#fff"/>
        </g>
        <g id="Grupo_1180106" data-name="Grupo 1180106" transform="translate(69.534 91.85)">
          <path id="Trazado_1033808" data-name="Trazado 1033808" d="M2109.676,2278.522h-75.491a5.922,5.922,0,0,1-5.922-5.922v-19.7a5.922,5.922,0,0,1,5.922-5.922h75.491a5.922,5.922,0,0,1,5.922,5.922v19.7A5.922,5.922,0,0,1,2109.676,2278.522Z" transform="translate(-2028.263 -2242.389)" fill="#f0cd8b"/>
          <path id="Trazado_1033809" data-name="Trazado 1033809" d="M2697.8,2211.708l29.314-5.929-18.32,17.121Z" transform="translate(-2623.241 -2205.78)" fill="#f0cd8b"/>
          <path id="Trazado_1033810" data-name="Trazado 1033810" d="M2161.1,2324h-69.75a1.643,1.643,0,0,1-1.643-1.643v-2.021a1.643,1.643,0,0,1,1.643-1.642h69.75a1.642,1.642,0,0,1,1.642,1.642v2.021A1.642,1.642,0,0,1,2161.1,2324Z" transform="translate(-2082.868 -2306.117)" fill="#fff"/>
          <path id="Trazado_1033811" data-name="Trazado 1033811" d="M2131.427,2416.2h-40.074a1.643,1.643,0,0,1-1.643-1.642v-2.021a1.643,1.643,0,0,1,1.643-1.643h40.074a1.643,1.643,0,0,1,1.643,1.643v2.021A1.642,1.642,0,0,1,2131.427,2416.2Z" transform="translate(-2082.868 -2388.049)" fill="#fff"/>
        </g>
        <g id="Grupo_1180107" data-name="Grupo 1180107" transform="translate(56.949)">
          <path id="Trazado_1033812" data-name="Trazado 1033812" d="M1927.19,1408.391l-11.94-27.421,20.58,14.324Z" transform="translate(-1915.25 -1380.97)" fill="#465273"/>
          <path id="Trazado_1033813" data-name="Trazado 1033813" d="M2095.837,1535.152h-75.492a5.922,5.922,0,0,1-5.922-5.922v-19.7a5.922,5.922,0,0,1,5.922-5.922h75.492a5.922,5.922,0,0,1,5.921,5.922v19.7A5.922,5.922,0,0,1,2095.837,1535.152Z" transform="translate(-2003.379 -1489.95)" fill="#465273"/>
          <path id="Trazado_1033814" data-name="Trazado 1033814" d="M2147.258,1580.626h-69.75a1.643,1.643,0,0,1-1.643-1.642v-2.021a1.643,1.643,0,0,1,1.643-1.643h69.75a1.643,1.643,0,0,1,1.643,1.643v2.021A1.642,1.642,0,0,1,2147.258,1580.626Z" transform="translate(-2057.979 -1553.677)" fill="#fff"/>
          <path id="Trazado_1033815" data-name="Trazado 1033815" d="M2117.586,1672.826h-40.075a1.643,1.643,0,0,1-1.643-1.643v-2.021a1.642,1.642,0,0,1,1.643-1.643h40.075a1.643,1.643,0,0,1,1.643,1.643v2.021A1.643,1.643,0,0,1,2117.586,1672.826Z" transform="translate(-2057.983 -1635.61)" fill="#fff"/>
        </g>
      </g>
    </g>
  </g>
</svg>
