<svg xmlns="http://www.w3.org/2000/svg" xmlns:xlink="http://www.w3.org/1999/xlink" width="113" height="113" viewBox="0 0 113 113">
  <defs>
    <filter id="Trazado_982547" x="0" y="0" width="113" height="113" filterUnits="userSpaceOnUse">
      <feOffset dy="3" input="SourceAlpha"/>
      <feGaussianBlur stdDeviation="3" result="blur"/>
      <feFlood flood-opacity="0.161"/>
      <feComposite operator="in" in2="blur"/>
      <feComposite in="SourceGraphic"/>
    </filter>
  </defs>
  <g id="Grupo_1180710" data-name="Grupo 1180710" transform="translate(-324.461 -796)">
    <g id="Grupo_1174901" data-name="Grupo 1174901" transform="translate(0.461 -5152.015)">
      <g id="Grupo_1174057" data-name="Grupo 1174057" transform="translate(333 5954.015)">
        <g id="Grupo_1172010" data-name="Grupo 1172010">
          <g id="Grupo_1171046" data-name="Grupo 1171046">
            <g id="Grupo_1148525" data-name="Grupo 1148525">
              <g transform="matrix(1, 0, 0, 1, -9, -6)" filter="url(#Trazado_982547)">
                <g id="Trazado_982547-2" data-name="Trazado 982547" transform="translate(9 6)" fill="#f2f7e5">
                  <path d="M 47.5 93.5 C 41.28937149047852 93.5 35.26533508300781 92.28397369384766 29.59518623352051 89.88570404052734 C 24.11771965026855 87.56893157958984 19.19813346862793 84.25196075439453 14.97309303283691 80.02691650390625 C 10.74804019927979 75.80186462402344 7.431066513061523 70.88229370117188 5.114293098449707 65.40481567382812 C 2.716026782989502 59.73468017578125 1.5 53.71062850952148 1.5 47.5 C 1.5 41.28937149047852 2.716026782989502 35.26533508300781 5.114293098449707 29.59518623352051 C 7.431066513061523 24.11771965026855 10.74804019927979 19.19813346862793 14.97309303283691 14.97309303283691 C 19.19813346862793 10.74804019927979 24.11771965026855 7.431066513061523 29.59518623352051 5.114293098449707 C 35.26533508300781 2.716026782989502 41.28937149047852 1.5 47.5 1.5 C 53.71062850952148 1.5 59.73468017578125 2.716026782989502 65.40481567382812 5.114293098449707 C 70.88229370117188 7.431066513061523 75.80186462402344 10.74804019927979 80.02691650390625 14.97309303283691 C 84.25196075439453 19.19813346862793 87.56893157958984 24.11771965026855 89.88570404052734 29.59518623352051 C 92.28397369384766 35.26533508300781 93.5 41.28937149047852 93.5 47.5 C 93.5 53.71062850952148 92.28397369384766 59.73468017578125 89.88570404052734 65.40481567382812 C 87.56893157958984 70.88229370117188 84.25196075439453 75.80186462402344 80.02691650390625 80.02691650390625 C 75.80186462402344 84.25196075439453 70.88229370117188 87.56893157958984 65.40481567382812 89.88570404052734 C 59.73468017578125 92.28397369384766 53.71062850952148 93.5 47.5 93.5 Z" stroke="none"/>
                  <path d="M 47.5 3 C 41.49121475219727 3 35.66376876831055 4.176155090332031 30.17950439453125 6.495796203613281 C 24.88084411621094 8.736953735351562 20.12152099609375 11.94598388671875 16.03375244140625 16.03375244140625 C 11.94598388671875 20.12152099609375 8.736953735351562 24.88084411621094 6.495796203613281 30.17950439453125 C 4.176155090332031 35.66376876831055 3 41.49121475219727 3 47.5 C 3 53.50878524780273 4.176155090332031 59.33623123168945 6.495796203613281 64.82049560546875 C 8.736953735351562 70.11915588378906 11.94598388671875 74.87847900390625 16.03375244140625 78.96624755859375 C 20.12152099609375 83.05401611328125 24.88084411621094 86.26304626464844 30.17950439453125 88.50419616699219 C 35.66376876831055 90.82384490966797 41.49121475219727 92 47.5 92 C 53.50878524780273 92 59.33623123168945 90.82384490966797 64.82049560546875 88.50419616699219 C 70.11915588378906 86.26304626464844 74.87847900390625 83.05401611328125 78.96624755859375 78.96624755859375 C 83.05401611328125 74.87847900390625 86.26304626464844 70.11915588378906 88.50419616699219 64.82049560546875 C 90.82384490966797 59.33623123168945 92 53.50878524780273 92 47.5 C 92 41.49121475219727 90.82384490966797 35.66376876831055 88.50419616699219 30.17950439453125 C 86.26304626464844 24.88084411621094 83.05401611328125 20.12152099609375 78.96624755859375 16.03375244140625 C 74.87847900390625 11.94598388671875 70.11915588378906 8.736953735351562 64.82049560546875 6.495796203613281 C 59.33623123168945 4.176155090332031 53.50878524780273 3 47.5 3 M 47.5 0 C 73.7335205078125 0 95 21.2664794921875 95 47.5 C 95 73.7335205078125 73.7335205078125 95 47.5 95 C 21.2664794921875 95 0 73.7335205078125 0 47.5 C 0 21.2664794921875 21.2664794921875 0 47.5 0 Z" stroke="none" fill="#86b60c"/>
                </g>
              </g>
            </g>
          </g>
        </g>
      </g>
    </g>
    <g id="salario" transform="translate(350.461 819)">
      <g id="Grupo_1180365" data-name="Grupo 1180365" transform="translate(1.951 1.951)">
        <g id="Grupo_1180349" data-name="Grupo 1180349" transform="translate(11.418 3.806)">
          <path id="Trazado_1034192" data-name="Trazado 1034192" d="M57.768,6H15.9A1.909,1.909,0,0,0,14,7.9v5.709H59.671V7.9A1.909,1.909,0,0,0,57.768,6Z" transform="translate(-14 -6)" fill="#ff826e"/>
        </g>
        <g id="Grupo_1180350" data-name="Grupo 1180350" transform="translate(11.418 11.418)">
          <path id="Trazado_1034193" data-name="Trazado 1034193" d="M14,14V46.35H57.768a1.909,1.909,0,0,0,1.9-1.9V14Z" transform="translate(-14 -14)" fill="#e6e9ed"/>
        </g>
        <g id="Grupo_1180351" data-name="Grupo 1180351" transform="translate(15.224 15.224)">
          <path id="Trazado_1034194" data-name="Trazado 1034194" d="M56.059,18V42.738H42.738V38.285a6.512,6.512,0,0,0,2.854.647,6.66,6.66,0,1,0-6.013-9.515H18V18Z" transform="translate(-18 -18)" fill="#ffeaa7"/>
        </g>
        <g id="Grupo_1180352" data-name="Grupo 1180352" transform="translate(19.981 26.641)">
          <path id="Trazado_1034195" data-name="Trazado 1034195" d="M39.175,32.854a6.632,6.632,0,0,0,3.806,6.013v4.453a5.713,5.713,0,0,0-5.709,5.709H23A9.515,9.515,0,1,0,23,30H39.822A6.512,6.512,0,0,0,39.175,32.854Z" transform="translate(-23 -30)" fill="#b4dd7f"/>
        </g>
        <g id="Grupo_1180353" data-name="Grupo 1180353" transform="translate(0 26.641)">
          <path id="Trazado_1034196" data-name="Trazado 1034196" d="M17.224,30h4.757a9.518,9.518,0,0,0-9.515,9.515c0,.324.019.637.048.951l.162.152a1.915,1.915,0,0,0-1.161,1.751v6.66H7.709A5.713,5.713,0,0,0,2,43.321V35.709A5.713,5.713,0,0,0,7.709,30h9.515Z" transform="translate(-2 -30)" fill="#b4dd7f"/>
        </g>
        <g id="Grupo_1180354" data-name="Grupo 1180354" transform="translate(11.418 53.282)">
          <path id="Trazado_1034197" data-name="Trazado 1034197" d="M29.224,58v3.806H14V58H29.224Z" transform="translate(-14 -58)" fill="#ff826e"/>
        </g>
        <g id="Grupo_1180355" data-name="Grupo 1180355" transform="translate(10.466 26.641)">
          <path id="Trazado_1034198" data-name="Trazado 1034198" d="M22.515,49.029h-1.9l-.143.038a3.951,3.951,0,0,0-.647-1.37,4.176,4.176,0,0,0-2.065-1.522v-1.9a3.8,3.8,0,0,0-3.806-3.806,1.915,1.915,0,0,0-.742.152l-.162-.152c-.029-.314-.048-.628-.048-.951a9.515,9.515,0,1,1,9.515,9.515Z" transform="translate(-13 -30)" fill="#fcd770"/>
        </g>
        <g id="Grupo_1180356" data-name="Grupo 1180356" transform="translate(9.515 37.107)">
          <path id="Trazado_1034199" data-name="Trazado 1034199" d="M22.466,49.563h8.563v.856a5.7,5.7,0,0,1-1.256,3.559l-2.55,3.2H15.806l-2.559-3.2A5.631,5.631,0,0,1,12,50.42V42.9A1.908,1.908,0,0,1,13.9,41a3.8,3.8,0,0,1,3.806,3.806v1.9a4.176,4.176,0,0,1,2.065,1.522,3.951,3.951,0,0,1,.647,1.37l.143-.038Z" transform="translate(-12 -41)" fill="#f0d0b4"/>
        </g>
        <g id="Grupo_1180357" data-name="Grupo 1180357" transform="translate(34.253 39.962)">
          <path id="Trazado_1034200" data-name="Trazado 1034200" d="M43.709,47.806v1.9H38A5.713,5.713,0,0,1,43.709,44Z" transform="translate(-38 -44)" fill="#a0d468"/>
        </g>
        <g id="Grupo_1180358" data-name="Grupo 1180358" transform="translate(0 39.962)">
          <path id="Trazado_1034201" data-name="Trazado 1034201" d="M7.709,49.709H2V44A5.713,5.713,0,0,1,7.709,49.709Z" transform="translate(-2 -44)" fill="#a0d468"/>
        </g>
        <g id="Grupo_1180359" data-name="Grupo 1180359" transform="translate(0 26.641)">
          <path id="Trazado_1034202" data-name="Trazado 1034202" d="M2,30H7.709A5.713,5.713,0,0,1,2,35.709Z" transform="translate(-2 -30)" fill="#a0d468"/>
        </g>
        <g id="Grupo_1180360" data-name="Grupo 1180360" transform="translate(36.156 22.835)">
          <path id="Trazado_1034203" data-name="Trazado 1034203" d="M46.66,26a6.66,6.66,0,1,1,0,13.321,6.512,6.512,0,0,1-2.854-.647A6.632,6.632,0,0,1,40,32.66a6.512,6.512,0,0,1,.647-2.854A6.632,6.632,0,0,1,46.66,26Z" transform="translate(-40 -26)" fill="#ff826e"/>
        </g>
        <g id="Grupo_1180361" data-name="Grupo 1180361" transform="translate(45.671)">
          <path id="Trazado_1034204" data-name="Trazado 1034204" d="M55.709,5.806v1.9a1.909,1.909,0,0,1-1.9,1.9H51.9a1.909,1.909,0,0,1-1.9-1.9V3.9A1.909,1.909,0,0,1,51.9,2h1.9a1.909,1.909,0,0,1,1.9,1.9Z" transform="translate(-50 -2)" fill="#aab2bd"/>
        </g>
        <g id="Grupo_1180362" data-name="Grupo 1180362" transform="translate(36.156)">
          <path id="Trazado_1034205" data-name="Trazado 1034205" d="M45.709,5.806v1.9a1.909,1.909,0,0,1-1.9,1.9H41.9a1.909,1.909,0,0,1-1.9-1.9V3.9A1.909,1.909,0,0,1,41.9,2h1.9a1.909,1.909,0,0,1,1.9,1.9Z" transform="translate(-40 -2)" fill="#aab2bd"/>
        </g>
        <g id="Grupo_1180363" data-name="Grupo 1180363" transform="translate(26.641)">
          <path id="Trazado_1034206" data-name="Trazado 1034206" d="M35.709,5.806v1.9a1.909,1.909,0,0,1-1.9,1.9H31.9a1.909,1.909,0,0,1-1.9-1.9V3.9A1.909,1.909,0,0,1,31.9,2h1.9a1.909,1.909,0,0,1,1.9,1.9Z" transform="translate(-30 -2)" fill="#aab2bd"/>
        </g>
        <g id="Grupo_1180364" data-name="Grupo 1180364" transform="translate(17.126)">
          <path id="Trazado_1034207" data-name="Trazado 1034207" d="M25.709,5.806v1.9a1.909,1.909,0,0,1-1.9,1.9H21.9a1.909,1.909,0,0,1-1.9-1.9V3.9A1.909,1.909,0,0,1,21.9,2h1.9a1.909,1.909,0,0,1,1.9,1.9Z" transform="translate(-20 -2)" fill="#aab2bd"/>
        </g>
      </g>
      <g id="Grupo_1180366" data-name="Grupo 1180366" transform="translate(1 1)">
        <path id="Trazado_1034208" data-name="Trazado 1034208" d="M23.757,46.321v-1.9a2.854,2.854,0,0,0,0-5.709h-1.9a.951.951,0,1,1,0-1.9h1.9a.952.952,0,0,1,.951.951h1.9A2.858,2.858,0,0,0,23.757,34.9V33h-1.9v1.9a2.854,2.854,0,1,0,0,5.709h1.9a.951.951,0,1,1,0,1.9h-1.9a.952.952,0,0,1-.951-.951H19a2.858,2.858,0,0,0,2.854,2.854v1.9Z" transform="translate(-1.874 -2.553)"/>
        <path id="Trazado_1034209" data-name="Trazado 1034209" d="M50.346,31.638,49,30.293l-3.132,3.133-1.23-1.23-1.345,1.345,2.576,2.576Z" transform="translate(-3.052 -2.422)"/>
        <path id="Trazado_1034210" data-name="Trazado 1034210" d="M57.137,4.806H54.282V3.854A2.858,2.858,0,0,0,51.428,1h-1.9a2.858,2.858,0,0,0-2.854,2.854v.951h-1.9V3.854A2.858,2.858,0,0,0,41.913,1h-1.9a2.858,2.858,0,0,0-2.854,2.854v.951h-1.9V3.854A2.858,2.858,0,0,0,32.4,1H30.5a2.858,2.858,0,0,0-2.854,2.854v.951h-1.9V3.854A2.858,2.858,0,0,0,22.884,1h-1.9a2.858,2.858,0,0,0-2.854,2.854v.951H15.272A2.858,2.858,0,0,0,12.418,7.66V27.641H1V48.574h9.519a6.678,6.678,0,0,0,1.449,4.06l1.32,1.649h-.87v5.709H29.544V54.282h-.878l1.318-1.647a6.684,6.684,0,0,0,1.45-4.062H42.865v-1.9H57.137a2.858,2.858,0,0,0,2.854-2.854V7.66A2.858,2.858,0,0,0,57.137,4.806Zm-8.563-.951a.952.952,0,0,1,.951-.951h1.9a.952.952,0,0,1,.951.951V7.66a.952.952,0,0,1-.951.951h-1.9a.952.952,0,0,1-.951-.951Zm-9.515,0A.952.952,0,0,1,40.01,2.9h1.9a.952.952,0,0,1,.951.951V7.66a.952.952,0,0,1-.951.951h-1.9a.952.952,0,0,1-.951-.951Zm-9.515,0A.952.952,0,0,1,30.5,2.9h1.9a.952.952,0,0,1,.951.951V7.66a.952.952,0,0,1-.951.951H30.5a.952.952,0,0,1-.951-.951Zm-9.515,0a.952.952,0,0,1,.951-.951h1.9a.952.952,0,0,1,.951.951V7.66a.952.952,0,0,1-.951.951h-1.9a.952.952,0,0,1-.951-.951ZM15.272,6.709h2.854V7.66a2.858,2.858,0,0,0,2.854,2.854h1.9A2.858,2.858,0,0,0,25.738,7.66V6.709h1.9V7.66A2.858,2.858,0,0,0,30.5,10.515h1.9A2.858,2.858,0,0,0,35.253,7.66V6.709h1.9V7.66a2.858,2.858,0,0,0,2.854,2.854h1.9A2.858,2.858,0,0,0,44.768,7.66V6.709h1.9V7.66a2.858,2.858,0,0,0,2.854,2.854h1.9A2.858,2.858,0,0,0,54.282,7.66V6.709h2.854a.952.952,0,0,1,.951.951v4.757H14.321V7.66A.952.952,0,0,1,15.272,6.709ZM35.329,46.671h-7.4a10.441,10.441,0,0,0,0-17.126h9.476a7.524,7.524,0,0,0-.251,1.9,7.612,7.612,0,0,0,3.806,6.582v3.009A6.665,6.665,0,0,0,35.329,46.671Zm-17.2-2.539V42.865a4.763,4.763,0,0,0-4.757-4.757,8.563,8.563,0,1,1,8.563,8.563H20.549a5.121,5.121,0,0,0-2.422-2.539Zm32.35-12.685a5.709,5.709,0,1,1-5.709-5.709A5.715,5.715,0,0,1,50.477,31.447ZM39.75,25.738a7.677,7.677,0,0,0-1.564,1.9H33.35v-1.9Zm-8.3,1.9H25.738v-1.9h5.709ZM42.865,38.809a7.361,7.361,0,0,0,3.806,0v2.153H42.865Zm5.709-.779a7.588,7.588,0,0,0,1.212-12.291h4.5V40.962H48.574Zm5.709-14.194H48.574V18.126h5.709Zm-7.612,0H40.962V18.126h5.709Zm-7.612,0H33.35V18.126h5.709Zm-7.612,0H25.738V18.126h5.709Zm-7.612,0H18.126V18.126h5.709Zm-5.709,1.9h5.709v1.9H18.126Zm-6.66,12.369c0,.241.019.477.035.714a2.838,2.838,0,0,0-.988,2.14l0,5.71H8.536A6.665,6.665,0,0,0,2.9,41.038V35.177a6.665,6.665,0,0,0,5.633-5.633h7.4A10.456,10.456,0,0,0,11.466,38.107ZM6.613,29.544a4.772,4.772,0,0,1-3.71,3.71v-3.71ZM2.9,42.961a4.772,4.772,0,0,1,3.71,3.71H2.9ZM27.641,58.088H14.321v-1.9H27.641Zm.855-6.642-2.269,2.836h-10.5l-2.271-2.838a4.76,4.76,0,0,1-1.042-2.969l0-7.513a.955.955,0,0,1,.953-.952,2.858,2.858,0,0,1,2.854,2.854v2.589l.651.217a3.219,3.219,0,0,1,2.2,3.057v.8h1.9v-.8c0-.052-.01-.1-.01-.154h8.561A4.774,4.774,0,0,1,28.5,51.446Zm8.755-4.775a4.772,4.772,0,0,1,3.71-3.71v3.71Zm19.885-1.9H42.865v-1.9H56.185V16.224H16.224V27.641h-1.9V14.321H58.088v29.5A.952.952,0,0,1,57.137,44.768Z" transform="translate(-1 -1)"/>
      </g>
    </g>
  </g>
</svg>
