<svg xmlns="http://www.w3.org/2000/svg" xmlns:xlink="http://www.w3.org/1999/xlink" width="113" height="113" viewBox="0 0 113 113">
  <defs>
    <filter id="Trazado_982547" x="0" y="0" width="113" height="113" filterUnits="userSpaceOnUse">
      <feOffset dy="3" input="SourceAlpha"/>
      <feGaussianBlur stdDeviation="3" result="blur"/>
      <feFlood flood-opacity="0.161"/>
      <feComposite operator="in" in2="blur"/>
      <feComposite in="SourceGraphic"/>
    </filter>
  </defs>
  <g id="Grupo_1180399" data-name="Grupo 1180399" transform="translate(-1164.461 -796)">
    <g id="Grupo_1174903" data-name="Grupo 1174903" transform="translate(0.461 -5152.015)">
      <g id="Grupo_1174056" data-name="Grupo 1174056" transform="translate(1173 5954.015)">
        <g id="Grupo_1172010" data-name="Grupo 1172010">
          <g id="Grupo_1171046" data-name="Grupo 1171046">
            <g id="Grupo_1148525" data-name="Grupo 1148525">
              <g transform="matrix(1, 0, 0, 1, -9, -6)" filter="url(#Trazado_982547)">
                <g id="Trazado_982547-2" data-name="Trazado 982547" transform="translate(9 6)" fill="#f2f7e5">
                  <path d="M 47.5 93.5 C 41.28937149047852 93.5 35.26533508300781 92.28397369384766 29.59518623352051 89.88570404052734 C 24.11771965026855 87.56893157958984 19.19813346862793 84.25196075439453 14.97309303283691 80.02691650390625 C 10.74804019927979 75.80186462402344 7.431066513061523 70.88229370117188 5.114293098449707 65.40481567382812 C 2.716026782989502 59.73468017578125 1.5 53.71062850952148 1.5 47.5 C 1.5 41.28937149047852 2.716026782989502 35.26533508300781 5.114293098449707 29.59518623352051 C 7.431066513061523 24.11771965026855 10.74804019927979 19.19813346862793 14.97309303283691 14.97309303283691 C 19.19813346862793 10.74804019927979 24.11771965026855 7.431066513061523 29.59518623352051 5.114293098449707 C 35.26533508300781 2.716026782989502 41.28937149047852 1.5 47.5 1.5 C 53.71062850952148 1.5 59.73468017578125 2.716026782989502 65.40481567382812 5.114293098449707 C 70.88229370117188 7.431066513061523 75.80186462402344 10.74804019927979 80.02691650390625 14.97309303283691 C 84.25196075439453 19.19813346862793 87.56893157958984 24.11771965026855 89.88570404052734 29.59518623352051 C 92.28397369384766 35.26533508300781 93.5 41.28937149047852 93.5 47.5 C 93.5 53.71062850952148 92.28397369384766 59.73468017578125 89.88570404052734 65.40481567382812 C 87.56893157958984 70.88229370117188 84.25196075439453 75.80186462402344 80.02691650390625 80.02691650390625 C 75.80186462402344 84.25196075439453 70.88229370117188 87.56893157958984 65.40481567382812 89.88570404052734 C 59.73468017578125 92.28397369384766 53.71062850952148 93.5 47.5 93.5 Z" stroke="none"/>
                  <path d="M 47.5 3 C 41.49121475219727 3 35.66376876831055 4.176155090332031 30.17950439453125 6.495796203613281 C 24.88084411621094 8.736953735351562 20.12152099609375 11.94598388671875 16.03375244140625 16.03375244140625 C 11.94598388671875 20.12152099609375 8.736953735351562 24.88084411621094 6.495796203613281 30.17950439453125 C 4.176155090332031 35.66376876831055 3 41.49121475219727 3 47.5 C 3 53.50878524780273 4.176155090332031 59.33623123168945 6.495796203613281 64.82049560546875 C 8.736953735351562 70.11915588378906 11.94598388671875 74.87847900390625 16.03375244140625 78.96624755859375 C 20.12152099609375 83.05401611328125 24.88084411621094 86.26304626464844 30.17950439453125 88.50419616699219 C 35.66376876831055 90.82384490966797 41.49121475219727 92 47.5 92 C 53.50878524780273 92 59.33623123168945 90.82384490966797 64.82049560546875 88.50419616699219 C 70.11915588378906 86.26304626464844 74.87847900390625 83.05401611328125 78.96624755859375 78.96624755859375 C 83.05401611328125 74.87847900390625 86.26304626464844 70.11915588378906 88.50419616699219 64.82049560546875 C 90.82384490966797 59.33623123168945 92 53.50878524780273 92 47.5 C 92 41.49121475219727 90.82384490966797 35.66376876831055 88.50419616699219 30.17950439453125 C 86.26304626464844 24.88084411621094 83.05401611328125 20.12152099609375 78.96624755859375 16.03375244140625 C 74.87847900390625 11.94598388671875 70.11915588378906 8.736953735351562 64.82049560546875 6.495796203613281 C 59.33623123168945 4.176155090332031 53.50878524780273 3 47.5 3 M 47.5 0 C 73.7335205078125 0 95 21.2664794921875 95 47.5 C 95 73.7335205078125 73.7335205078125 95 47.5 95 C 21.2664794921875 95 0 73.7335205078125 0 47.5 C 0 21.2664794921875 21.2664794921875 0 47.5 0 Z" stroke="none" fill="#86b60c"/>
                </g>
              </g>
            </g>
          </g>
        </g>
      </g>
    </g>
    <g id="satisfaccion-laboral" transform="translate(1181.443 808.997)">
      <g id="Grupo_1180398" data-name="Grupo 1180398" transform="translate(9.046 9.033)">
        <g id="Grupo_1180393" data-name="Grupo 1180393" transform="translate(0 0)">
          <path id="Trazado_1034246" data-name="Trazado 1034246" d="M21.123,53.071a26.387,26.387,0,0,0,3.2,7.726l-2.23,5.02,5.917,5.917,5.019-2.229a26.389,26.389,0,0,0,7.728,3.2l1.971,5.122H51.1l1.972-5.123A26.382,26.382,0,0,0,60.8,69.5l5.02,2.23,5.917-5.917L69.505,60.8a26.384,26.384,0,0,0,3.2-7.728L77.83,51.1V42.731l-5.123-1.972a26.385,26.385,0,0,0-3.2-7.726l2.23-5.02L65.817,22.1,60.8,24.325a26.385,26.385,0,0,0-7.728-3.2L51.1,16H42.731L40.76,21.123a26.379,26.379,0,0,0-7.727,3.2L28.013,22.1,22.1,28.013l2.23,5.02a26.389,26.389,0,0,0-3.2,7.726L16,42.731V51.1Z" transform="translate(-16 -16)" fill="#ffe177" fill-rule="evenodd"/>
          <path id="Trazado_1034247" data-name="Trazado 1034247" d="M139.663,70.913l1.849.821,5.917-5.917L145.2,60.8a26.383,26.383,0,0,0,3.2-7.728l5.122-1.971V42.731L148.4,40.759a26.385,26.385,0,0,0-3.2-7.726l2.23-5.02L141.512,22.1l-1.849.821,5.1,5.1-2.23,5.02a26.385,26.385,0,0,1,3.2,7.726l5.123,1.972V51.1l-5.122,1.971a26.386,26.386,0,0,1-3.2,7.728l2.229,5.019ZM124.124,77.83h2.67l1.972-5.123a26.381,26.381,0,0,0,7.726-3.2l-1.514-.672a35.37,35.37,0,0,1-8.882,3.875Zm12.369-53.5a26.384,26.384,0,0,0-7.728-3.2L126.794,16h-2.67l1.971,5.122A35.367,35.367,0,0,1,134.98,25Zm-27.765,0-5.02-2.229-.821.821L107.572,25Q108.142,24.647,108.728,24.326Zm-5.841,46.587.821.821,5.019-2.229q-.586-.321-1.156-.672Z" transform="translate(-91.695 -16)" fill="#ffd064" fill-rule="evenodd"/>
          <circle id="Elipse_13300" data-name="Elipse 13300" cx="14.593" cy="14.593" r="14.593" transform="translate(13.36 41.774) rotate(-76.7)" fill="#eceff1"/>
          <path id="Trazado_1034248" data-name="Trazado 1034248" d="M142.711,157.305A14.592,14.592,0,0,1,157.3,142.712c.344,0,.684.013,1.022.036a14.593,14.593,0,0,0,0,29.114c-.338.023-.678.036-1.022.036A14.592,14.592,0,0,1,142.711,157.305Z" transform="translate(-126.389 -126.39)" fill="#d1d1d6" fill-rule="evenodd"/>
        </g>
        <g id="Grupo_1180395" data-name="Grupo 1180395" transform="translate(0 10.359)">
          <path id="Trazado_1034249" data-name="Trazado 1034249" d="M22.078,194.789q.016,15.794,0,15.769H16.829A.83.83,0,0,1,16,209.73V195.618a.83.83,0,0,1,.829-.829h5.249Z" transform="translate(-16 -182.118)" fill="#d1d1d6" fill-rule="evenodd"/>
          <path id="Trazado_1034250" data-name="Trazado 1034250" d="M16,209.731v0a.83.83,0,0,0,.829.827h5.254V194.79h-.829v14.94Z" transform="translate(-16 -182.119)" fill="#b1b1b5" fill-rule="evenodd"/>
          <path id="Trazado_1034251" data-name="Trazado 1034251" d="M75.435,126.441c-6.112,1.052-9.665,1.821-13.218-1.581V109.09c2.8-2.1,6.5-3.906,6.5-7.884V96.419a5.758,5.758,0,0,1,5.742,5.741v3.714a5.525,5.525,0,0,1-1.592,2.923c8.891,2.286,5.106,17.754,2.57,17.645Z" transform="translate(-56.264 -96.419)" fill="#f6dccd" fill-rule="evenodd"/>
          <path id="Trazado_1034252" data-name="Trazado 1034252" d="M63.612,125.986a10,10,0,0,1-1.395-1.126V109.09c2.8-2.1,6.5-3.906,6.5-7.884V96.419a5.723,5.723,0,0,1,4.011,1.643,5.7,5.7,0,0,0-2.939-.815v4.787c0,3.979-3.7,5.781-6.5,7.884v15.769q.161.154.322.3Z" transform="translate(-56.264 -96.419)" fill="#f1cbbc" fill-rule="evenodd"/>
          <path id="Trazado_1034253" data-name="Trazado 1034253" d="M148.3,206.9h3.683a2.281,2.281,0,1,0,0-4.563h1.361a2.281,2.281,0,0,0,0-4.563h1.6a2.281,2.281,0,1,0,0-4.563h-.961a2.281,2.281,0,1,0,0-4.563H148.3a2.281,2.281,0,0,0,0,4.563h-.961a2.281,2.281,0,1,0,0,4.563h.961a2.281,2.281,0,1,0,0,4.563,2.281,2.281,0,1,0,0,4.563Z" transform="translate(-128.43 -176.768)" fill="#f6dccd" fill-rule="evenodd"/>
          <g id="Grupo_1180394" data-name="Grupo 1180394" transform="translate(16.624 14.161)">
            <path id="Trazado_1034254" data-name="Trazado 1034254" d="M154.8,314.9h3.683a2.288,2.288,0,0,0,2.281-2.281h-8.245A2.288,2.288,0,0,0,154.8,314.9Z" transform="translate(-151.554 -298.934)" fill="#f1cbbc" fill-rule="evenodd"/>
            <path id="Trazado_1034255" data-name="Trazado 1034255" d="M158.478,279.481h1.361a2.288,2.288,0,0,0,2.281-2.281h-9.606a2.288,2.288,0,0,0,2.281,2.281Z" transform="translate(-151.553 -268.075)" fill="#f1cbbc" fill-rule="evenodd"/>
            <path id="Trazado_1034256" data-name="Trazado 1034256" d="M153.34,244.061h1.6a2.288,2.288,0,0,0,2.282-2.281H145.054a2.288,2.288,0,0,0,2.281,2.281h6Z" transform="translate(-145.054 -237.217)" fill="#f1cbbc" fill-rule="evenodd"/>
            <path id="Trazado_1034257" data-name="Trazado 1034257" d="M160.48,208.638a2.288,2.288,0,0,0,2.281-2.281H152.515a2.288,2.288,0,0,0,2.281,2.281Z" transform="translate(-151.554 -206.357)" fill="#f1cbbc" fill-rule="evenodd"/>
          </g>
        </g>
        <g id="Grupo_1180397" data-name="Grupo 1180397" transform="translate(33.038 10.359)">
          <path id="Trazado_1034258" data-name="Trazado 1034258" d="M448.766,194.789q-.016,15.794,0,15.769h5.249a.83.83,0,0,0,.829-.829V195.618a.83.83,0,0,0-.829-.829h-5.249Z" transform="translate(-426.052 -182.118)" fill="#d1d1d6" fill-rule="evenodd"/>
          <path id="Trazado_1034259" data-name="Trazado 1034259" d="M454.86,209.731v0a.83.83,0,0,1-.829.827h-5.254V194.79h.829v14.94Z" transform="translate(-426.068 -182.119)" fill="#b1b1b5" fill-rule="evenodd"/>
          <path id="Trazado_1034260" data-name="Trazado 1034260" d="M326.8,126.441c6.112,1.052,9.665,1.821,13.218-1.581V109.09c-2.8-2.1-6.5-3.906-6.5-7.884V96.419a5.758,5.758,0,0,0-5.742,5.741v3.714a5.524,5.524,0,0,0,1.592,2.923c-8.891,2.286-5.106,17.754-2.57,17.645Z" transform="translate(-317.178 -96.419)" fill="#f6dccd" fill-rule="evenodd"/>
          <path id="Trazado_1034261" data-name="Trazado 1034261" d="M377.308,125.986a10,10,0,0,0,1.395-1.126V109.09c-2.8-2.1-6.5-3.906-6.5-7.884V96.419a5.723,5.723,0,0,0-4.011,1.643,5.694,5.694,0,0,1,2.939-.815v4.787c0,3.979,3.7,5.781,6.5,7.884v15.769q-.161.154-.322.3Z" transform="translate(-355.864 -96.419)" fill="#f1cbbc" fill-rule="evenodd"/>
          <path id="Trazado_1034262" data-name="Trazado 1034262" d="M281.408,206.9h-3.683a2.281,2.281,0,0,1,0-4.563h-1.361a2.281,2.281,0,0,1,0-4.563h-1.6a2.281,2.281,0,1,1,0-4.563h.961a2.281,2.281,0,1,1,0-4.563h5.683a2.281,2.281,0,0,1,0,4.563h.961a2.281,2.281,0,1,1,0,4.563h-.961a2.281,2.281,0,1,1,0,4.563,2.281,2.281,0,0,1,0,4.563Z" transform="translate(-272.482 -176.768)" fill="#f6dccd" fill-rule="evenodd"/>
          <g id="Grupo_1180396" data-name="Grupo 1180396" transform="translate(0 14.161)">
            <path id="Trazado_1034263" data-name="Trazado 1034263" d="M301.438,314.9h-3.683a2.288,2.288,0,0,1-2.281-2.281h8.245A2.288,2.288,0,0,1,301.438,314.9Z" transform="translate(-292.512 -298.934)" fill="#f1cbbc" fill-rule="evenodd"/>
            <path id="Trazado_1034264" data-name="Trazado 1034264" d="M288.554,279.481h-1.361a2.288,2.288,0,0,1-2.281-2.281h9.606a2.288,2.288,0,0,1-2.281,2.281Z" transform="translate(-283.311 -268.075)" fill="#f1cbbc" fill-rule="evenodd"/>
            <path id="Trazado_1034265" data-name="Trazado 1034265" d="M276.364,244.061h-1.6a2.288,2.288,0,0,1-2.281-2.281H284.65a2.288,2.288,0,0,1-2.281,2.281h-6Z" transform="translate(-272.482 -237.217)" fill="#f1cbbc" fill-rule="evenodd"/>
            <path id="Trazado_1034266" data-name="Trazado 1034266" d="M282.224,208.638a2.288,2.288,0,0,1-2.281-2.281h10.246a2.288,2.288,0,0,1-2.281,2.281Z" transform="translate(-278.982 -206.357)" fill="#f1cbbc" fill-rule="evenodd"/>
          </g>
        </g>
      </g>
      <path id="Trazado_1034267" data-name="Trazado 1034267" d="M69.843,46.8H65.829V33.094h4.014ZM58.633,63.538,54.261,61.6a1.029,1.029,0,0,0-.958.064,25.343,25.343,0,0,1-7.427,3.079,1.03,1.03,0,0,0-.721.631l-1.716,4.462H36.484L34.768,65.37a1.032,1.032,0,0,0-.721-.632A25.322,25.322,0,0,1,26.62,61.66a1.031,1.031,0,0,0-.958-.064L21.29,63.538l-4.917-4.915,1.94-4.372a1.018,1.018,0,0,0-.067-.959,25.2,25.2,0,0,1-1.595-3.046,9.42,9.42,0,0,0,4.663,1.089,38.809,38.809,0,0,0,6.33-.776l.521-.09c.1.022.194.04.3.054a15.617,15.617,0,0,0,23,0c.1-.014.206-.033.309-.056.649.1,1.3.207,1.928.316a28.537,28.537,0,0,0,4.826.557,9.781,9.781,0,0,0,4.76-1.118A24.822,24.822,0,0,1,61.67,53.29a1.031,1.031,0,0,0-.061.958l1.94,4.374ZM10.079,33.094h4.014V46.8H10.079ZM21.29,16.359,25.662,18.3a1.03,1.03,0,0,0,.958-.065,25.288,25.288,0,0,1,7.427-3.077,1.037,1.037,0,0,0,.721-.632l1.716-4.464h6.954l1.716,4.464a1.037,1.037,0,0,0,.721.632A25.291,25.291,0,0,1,53.3,18.237a1.03,1.03,0,0,0,.958.065l4.372-1.943,4.917,4.915-1.94,4.373a1.033,1.033,0,0,0,.061.959,25.313,25.313,0,0,1,1.637,3.121c-2.074-1.489-3.85-3.019-3.85-5.548V19.392a1.03,1.03,0,0,0-1.031-1.03,6.779,6.779,0,0,0-6.772,6.771v3.714a1.094,1.094,0,0,0,.006.141,4.587,4.587,0,0,0,.212.851,15.621,15.621,0,0,0-23.822,0,4.586,4.586,0,0,0,.212-.851,1.093,1.093,0,0,0,.006-.141V25.133A6.779,6.779,0,0,0,21.5,18.362a1.03,1.03,0,0,0-1.031,1.03v4.787c0,2.528-1.783,4.059-3.85,5.546a26.225,26.225,0,0,1,1.631-3.118,1.016,1.016,0,0,0,.067-.958l-1.94-4.373Zm32.116,28.6a3.268,3.268,0,0,1,.915,2.28,3.322,3.322,0,0,1-.358,1.5c.024.005.054.009.085.015,3.789.657,6.809,1.18,9.719-1.372v-14.8c-.285-.208-.582-.415-.885-.63C60.312,30.14,57.4,28.085,57.4,24.179V20.536a4.718,4.718,0,0,0-3.68,4.6v3.635a4.486,4.486,0,0,0,1.291,2.272,1.039,1.039,0,0,1,.121,1.311,3.443,3.443,0,0,0-.7,2.791c.394,1.733,2.353,3.018,3.171,3.49a1.03,1.03,0,1,1-1.025,1.787,12.612,12.612,0,0,1-1.54-1.045,3.326,3.326,0,0,1-1.243,1.506,3.3,3.3,0,0,1-.382,4.08ZM51.011,32.3a1.226,1.226,0,0,1,.879.369,1.247,1.247,0,0,1-.879,2.133H45.324a1.251,1.251,0,0,1,0-2.5h5.687Zm.958,7.065h-7.6a1.251,1.251,0,0,1,0-2.5h7.6a1.251,1.251,0,1,1,0,2.5Zm-6,2.061h5.044a1.251,1.251,0,0,1,0,2.5H45.967a1.251,1.251,0,0,1,0-2.5Zm5.044,7.064H47.325a1.261,1.261,0,0,1-1.249-1.251,1.254,1.254,0,0,1,1.249-1.251h3.686a1.261,1.261,0,0,1,1.249,1.251,1.245,1.245,0,0,1-.37.882A1.226,1.226,0,0,1,51.011,48.493ZM32.6,50.554H31.506a13.556,13.556,0,0,0,16.9,0H47.325a3.324,3.324,0,0,1-3.311-3.312,3.338,3.338,0,0,1,.424-1.623,3.312,3.312,0,0,1-1.783-2.939,3.26,3.26,0,0,1,.376-1.532,3.311,3.311,0,0,1-.485-5.8,3.263,3.263,0,0,1-.534-1.8,3.315,3.315,0,0,1,3.31-3.312h4.1a13.549,13.549,0,0,0-18.935,0h4.1a3.316,3.316,0,0,1,3.317,3.312,3.263,3.263,0,0,1-.534,1.8,3.311,3.311,0,0,1-.485,5.8,3.259,3.259,0,0,1,.376,1.532,3.317,3.317,0,0,1-1.789,2.939,3.309,3.309,0,0,1-2.88,4.935ZM34.592,34.8H28.911a1.25,1.25,0,0,1-1.249-1.251A1.261,1.261,0,0,1,28.911,32.3h5.681a1.251,1.251,0,1,1,0,2.5Zm-6.639,4.563a1.251,1.251,0,1,1,0-2.5h7.6a1.251,1.251,0,0,1,0,2.5Zm.958,4.562a1.251,1.251,0,0,1,0-2.5h5.044a1.251,1.251,0,0,1,0,2.5Zm0,4.563a1.261,1.261,0,0,1-1.249-1.251,1.25,1.25,0,0,1,1.249-1.251H32.6a1.247,1.247,0,0,1,.879,2.133,1.236,1.236,0,0,1-.879.369ZM16.155,32.584v14.8c2.662,2.356,5.244,2.148,9.81,1.376a3.323,3.323,0,0,1-.364-1.515,3.287,3.287,0,0,1,.915-2.282,3.31,3.31,0,0,1-.388-4.078,3.312,3.312,0,0,1-1.237-1.506,12.623,12.623,0,0,1-1.54,1.045,1.03,1.03,0,1,1-1.025-1.787c.818-.472,2.777-1.757,3.171-3.49a3.483,3.483,0,0,0-.7-2.791,1.025,1.025,0,0,1,.121-1.311,4.559,4.559,0,0,0,1.285-2.272V25.133a4.718,4.718,0,0,0-3.68-4.6v3.643c0,3.906-2.916,5.961-5.487,7.775C16.737,32.169,16.44,32.376,16.155,32.584Zm54.719-1.551H66.03a27.624,27.624,0,0,0-2.316-5.04l2.007-4.527a1.024,1.024,0,0,0-.212-1.148L59.591,14.4a1.03,1.03,0,0,0-1.146-.212L53.916,16.2a27.284,27.284,0,0,0-7.033-2.915L45.106,8.664A1.028,1.028,0,0,0,44.142,8H35.775a1.026,1.026,0,0,0-.958.661l-1.783,4.622A27.332,27.332,0,0,0,26.007,16.2l-4.529-2.012a1.026,1.026,0,0,0-1.146.212l-5.918,5.918a1.022,1.022,0,0,0-.212,1.147l2.013,4.529A26.819,26.819,0,0,0,13.9,31.033H9.049a1.03,1.03,0,0,0-1.031,1.031V47.833a1.03,1.03,0,0,0,1.031,1.031h4.844a27.624,27.624,0,0,0,2.316,5.04L14.2,58.432a1.023,1.023,0,0,0,.212,1.148L20.332,65.5a1.029,1.029,0,0,0,1.146.213L26.007,63.7a27.349,27.349,0,0,0,7.027,2.914l1.783,4.623a1.027,1.027,0,0,0,.958.659h8.373a1.027,1.027,0,0,0,.958-.659l1.776-4.622A27.309,27.309,0,0,0,53.916,63.7l4.529,2.012a1.03,1.03,0,0,0,1.146-.213l5.918-5.916a1.024,1.024,0,0,0,.212-1.148L63.707,53.9a27.185,27.185,0,0,0,2.316-5.038h4.85A1.03,1.03,0,0,0,71.9,47.833V32.063a1.03,1.03,0,0,0-1.031-1.031Z" transform="translate(0 0)" fill-rule="evenodd"/>
    </g>
  </g>
</svg>
