<svg xmlns="http://www.w3.org/2000/svg" xmlns:xlink="http://www.w3.org/1999/xlink" width="113" height="113" viewBox="0 0 113 113">
  <defs>
    <filter id="Trazado_982547" x="0" y="0" width="113" height="113" filterUnits="userSpaceOnUse">
      <feOffset dy="3" input="SourceAlpha"/>
      <feGaussianBlur stdDeviation="3" result="blur"/>
      <feFlood flood-opacity="0.161"/>
      <feComposite operator="in" in2="blur"/>
      <feComposite in="SourceGraphic"/>
    </filter>
  </defs>
  <g id="Grupo_1180275" data-name="Grupo 1180275" transform="translate(-199.461 -6161)">
    <g id="Grupo_1174888" data-name="Grupo 1174888" transform="translate(218.461 6167)">
      <g id="Grupo_1166845" data-name="Grupo 1166845" transform="translate(-10)">
        <g id="Grupo_1166720" data-name="Grupo 1166720">
          <g id="Grupo_1164305" data-name="Grupo 1164305">
            <g id="Grupo_1163948" data-name="Grupo 1163948">
              <g id="Grupo_1158168" data-name="Grupo 1158168">
                <g id="Grupo_1152576" data-name="Grupo 1152576">
                  <g id="Grupo_1148633" data-name="Grupo 1148633">
                    <g id="Grupo_1148525" data-name="Grupo 1148525">
                      <g transform="matrix(1, 0, 0, 1, -9, -6)" filter="url(#Trazado_982547)">
                        <g id="Trazado_982547-2" data-name="Trazado 982547" transform="translate(9 6)" fill="#e9f9fd">
                          <path d="M 47.5 93.5 C 41.28937149047852 93.5 35.26533508300781 92.28397369384766 29.59518623352051 89.88570404052734 C 24.11771965026855 87.56893157958984 19.19813346862793 84.25196075439453 14.97309303283691 80.02691650390625 C 10.74804019927979 75.80186462402344 7.431066513061523 70.88229370117188 5.114293098449707 65.40481567382812 C 2.716026782989502 59.73468017578125 1.5 53.71062850952148 1.5 47.5 C 1.5 41.28937149047852 2.716026782989502 35.26533508300781 5.114293098449707 29.59518623352051 C 7.431066513061523 24.11771965026855 10.74804019927979 19.19813346862793 14.97309303283691 14.97309303283691 C 19.19813346862793 10.74804019927979 24.11771965026855 7.431066513061523 29.59518623352051 5.114293098449707 C 35.26533508300781 2.716026782989502 41.28937149047852 1.5 47.5 1.5 C 53.71062850952148 1.5 59.73468017578125 2.716026782989502 65.40481567382812 5.114293098449707 C 70.88229370117188 7.431066513061523 75.80186462402344 10.74804019927979 80.02691650390625 14.97309303283691 C 84.25196075439453 19.19813346862793 87.56893157958984 24.11771965026855 89.88570404052734 29.59518623352051 C 92.28397369384766 35.26533508300781 93.5 41.28937149047852 93.5 47.5 C 93.5 53.71062850952148 92.28397369384766 59.73468017578125 89.88570404052734 65.40481567382812 C 87.56893157958984 70.88229370117188 84.25196075439453 75.80186462402344 80.02691650390625 80.02691650390625 C 75.80186462402344 84.25196075439453 70.88229370117188 87.56893157958984 65.40481567382812 89.88570404052734 C 59.73468017578125 92.28397369384766 53.71062850952148 93.5 47.5 93.5 Z" stroke="none"/>
                          <path d="M 47.5 3 C 41.49121475219727 3 35.66376876831055 4.176155090332031 30.17950439453125 6.495796203613281 C 24.88084411621094 8.736953735351562 20.12152099609375 11.94598388671875 16.03375244140625 16.03375244140625 C 11.94598388671875 20.12152099609375 8.736953735351562 24.88084411621094 6.495796203613281 30.17950439453125 C 4.176155090332031 35.66376876831055 3 41.49121475219727 3 47.5 C 3 53.50878524780273 4.176155090332031 59.33623123168945 6.495796203613281 64.82049560546875 C 8.736953735351562 70.11915588378906 11.94598388671875 74.87847900390625 16.03375244140625 78.96624755859375 C 20.12152099609375 83.05401611328125 24.88084411621094 86.26304626464844 30.17950439453125 88.50419616699219 C 35.66376876831055 90.82384490966797 41.49121475219727 92 47.5 92 C 53.50878524780273 92 59.33623123168945 90.82384490966797 64.82049560546875 88.50419616699219 C 70.11915588378906 86.26304626464844 74.87847900390625 83.05401611328125 78.96624755859375 78.96624755859375 C 83.05401611328125 74.87847900390625 86.26304626464844 70.11915588378906 88.50419616699219 64.82049560546875 C 90.82384490966797 59.33623123168945 92 53.50878524780273 92 47.5 C 92 41.49121475219727 90.82384490966797 35.66376876831055 88.50419616699219 30.17950439453125 C 86.26304626464844 24.88084411621094 83.05401611328125 20.12152099609375 78.96624755859375 16.03375244140625 C 74.87847900390625 11.94598388671875 70.11915588378906 8.736953735351562 64.82049560546875 6.495796203613281 C 59.33623123168945 4.176155090332031 53.50878524780273 3 47.5 3 M 47.5 0 C 73.7335205078125 0 95 21.2664794921875 95 47.5 C 95 73.7335205078125 73.7335205078125 95 47.5 95 C 21.2664794921875 95 0 73.7335205078125 0 47.5 C 0 21.2664794921875 21.2664794921875 0 47.5 0 Z" stroke="none" fill="#1d7083"/>
                        </g>
                      </g>
                    </g>
                  </g>
                </g>
              </g>
            </g>
          </g>
        </g>
      </g>
    </g>
    <g id="united" transform="translate(224.938 6184.188)">
      <path id="Trazado_1034073" data-name="Trazado 1034073" d="M198.045,187.325l-13.684-13.684a2.191,2.191,0,1,1,3.1-3.1l-3.524-3.523a2.186,2.186,0,0,1-.643-1.55,2.251,2.251,0,0,1,.028-.351,2.188,2.188,0,0,1,3.506-1.378l-1.341-1.341a2.192,2.192,0,0,1-.644-1.552,2.094,2.094,0,0,1,.029-.356,2.192,2.192,0,0,1,3.714-1.191l1.536,1.536a2.191,2.191,0,1,1,3.1-3.1l8.893,8.893.025-.036a4.007,4.007,0,0,1,5.672,0l4.147,4.147a4.255,4.255,0,0,1,1.246,3l0,2.594a4.579,4.579,0,0,0,1.342,3.234l.925.924-10.577,10.576-1.182-1.182a4.58,4.58,0,0,0-2.939-1.332A4.25,4.25,0,0,1,198.045,187.325Zm0,0" transform="translate(-161.081 -138.055)" fill="#fecbaa"/>
      <path id="Trazado_1034074" data-name="Trazado 1034074" d="M353.727,353.984l12-12a1.012,1.012,0,0,1,1.432,0l4.276,4.275a1.013,1.013,0,0,1,0,1.432l-12,12a1.013,1.013,0,0,1-1.432,0l-4.275-4.276a1.013,1.013,0,0,1,0-1.432Zm0,0" transform="translate(-310.6 -300.276)" fill="#fdd559"/>
      <path id="Trazado_1034075" data-name="Trazado 1034075" d="M80.582,187.335l13.684-13.684a2.191,2.191,0,1,0-3.1-3.1l3.524-3.524a2.19,2.19,0,0,0-2.89-3.28l1.341-1.341a2.191,2.191,0,0,0,.644-1.552,2.09,2.09,0,0,0-.029-.356,2.183,2.183,0,0,0-1.813-1.806,2.191,2.191,0,0,0-1.9.615l-1.536,1.536a2.191,2.191,0,1,0-3.1-3.1l-8.893,8.893-.025-.035a4.007,4.007,0,0,0-5.672,0l-4.146,4.147a4.253,4.253,0,0,0-1.246,3l0,2.594a4.576,4.576,0,0,1-1.342,3.234l-.925.924,10.576,10.576,1.182-1.182a4.58,4.58,0,0,1,2.939-1.332,4.255,4.255,0,0,0,2.729-1.237Zm0,0" transform="translate(-55.503 -138.064)" fill="#fecbaa"/>
      <path id="Trazado_1034076" data-name="Trazado 1034076" d="M25.5,353.993l-12-12a1.013,1.013,0,0,0-1.432,0l-4.276,4.276a1.013,1.013,0,0,0,0,1.432l12,12a1.013,1.013,0,0,0,1.432,0l4.276-4.275a1.013,1.013,0,0,0,0-1.432Zm0,0" transform="translate(-6.587 -300.284)" fill="#ff84a7"/>
      <path id="Trazado_1034077" data-name="Trazado 1034077" d="M171.858,81.6v19.352a2.191,2.191,0,1,1-4.382,0v4.983a2.19,2.19,0,0,1-4.363.275v1.9a2.191,2.191,0,0,1-.642,1.552,2.056,2.056,0,0,1-.273.231,2.192,2.192,0,0,1-3.468-1.784v-2.172a2.191,2.191,0,1,1-4.382,0V93.359l-.043.008a4.008,4.008,0,0,1-4.008-4.014V83.489a4.256,4.256,0,0,1,1.242-3l1.832-1.836a4.579,4.579,0,0,0,1.338-3.236V74.105h14.957v1.671A4.583,4.583,0,0,0,170.8,78.8a4.251,4.251,0,0,1,1.055,2.8Zm0,0" transform="translate(-132.084 -65.125)" fill="#fedfc5"/>
      <path id="Trazado_1034078" data-name="Trazado 1034078" d="M164.647,170.55a2.193,2.193,0,0,0-3.1,0l3.524-3.524a2.19,2.19,0,0,0-2.89-3.28l1.341-1.341a2.19,2.19,0,0,0,.643-1.552,2.043,2.043,0,0,0-.029-.356,2.192,2.192,0,0,0-3.714-1.191l-1.536,1.536a2.191,2.191,0,1,0-3.1-3.1l-8.893,8.893-.025-.035a3.992,3.992,0,0,0-3.629-1.091,5.88,5.88,0,0,0,3.087,2.335v11.027a4.013,4.013,0,0,0,4.792,3.936,4.017,4.017,0,0,0,2.325,2.041l11.2-11.2a2.19,2.19,0,0,0,0-3.1Zm0,0" transform="translate(-125.881 -138.063)" fill="#ffae85"/>
      <path id="Trazado_1034079" data-name="Trazado 1034079" d="M202.661,173.885v-7.739a4.011,4.011,0,0,0-.535.45l-.025.035-8.893-8.893a2.193,2.193,0,0,0-3.1,0,2.193,2.193,0,0,0,0,3.1l-1.536-1.536a2.19,2.19,0,0,0-3.714,1.191,2.089,2.089,0,0,0-.029.356,2.189,2.189,0,0,0,.644,1.552l1.341,1.341a2.19,2.19,0,0,0-2.891,3.28l3.524,3.524a2.191,2.191,0,1,0-3.1,3.1l9.167,9.167a4.025,4.025,0,0,0,.753.071,3.973,3.973,0,0,0,2.345-.759,4.008,4.008,0,0,0,1.663-3.254v-.988q.185.017.373.017a4.016,4.016,0,0,0,4.009-4.013Zm0,0" transform="translate(-161.071 -138.056)" fill="#ffae85"/>
      <path id="Trazado_1034080" data-name="Trazado 1034080" d="M171.858,81.6v19.352a2.192,2.192,0,0,1-2.191,2.195c-.033,0-.068,0-.1,0a2.168,2.168,0,0,1-1.176-.412h0a2.19,2.19,0,0,1-.909-1.779v4.983a2.19,2.19,0,0,1-4.363.275v1.9a2.191,2.191,0,0,1-.642,1.552,2.056,2.056,0,0,1-.273.231,2.192,2.192,0,0,1-3.468-1.784v-2.172a2.191,2.191,0,1,1-4.382,0V93.359l-.043.008a4.008,4.008,0,0,1-4.008-4.014V83.489a4.256,4.256,0,0,1,1.242-3l1.832-1.836a4.587,4.587,0,0,0,1.338-3.236V74.105h14.957v1.671a4.128,4.128,0,0,0,.144,1.131A4.552,4.552,0,0,0,170.8,78.8a4.286,4.286,0,0,1,1.055,2.8Zm0,0" transform="translate(-132.084 -65.125)" fill="#fedfc5"/>
      <path id="Trazado_1034081" data-name="Trazado 1034081" d="M202.373,81.6v19.352a2.192,2.192,0,0,1-2.191,2.195c-.033,0-.068,0-.1,0a2.168,2.168,0,0,1-1.176-.412l.037-18.649a2.86,2.86,0,0,0-.073-.517,8.429,8.429,0,0,0-8.432-6.8H185.02a4.563,4.563,0,0,0,.2-1.352V74.1h14.957v1.671a4.128,4.128,0,0,0,.144,1.131,4.552,4.552,0,0,0,.992,1.889,4.286,4.286,0,0,1,1.055,2.8Zm0,0" transform="translate(-162.599 -65.124)" fill="#fecbaa"/>
      <path id="Trazado_1034082" data-name="Trazado 1034082" d="M187.689,15.572H170.711a1.013,1.013,0,0,1-1.013-1.013V8.513A1.013,1.013,0,0,1,170.711,7.5h16.978A1.013,1.013,0,0,1,188.7,8.513v6.046A1.013,1.013,0,0,1,187.689,15.572Zm0,0" transform="translate(-149.134 -6.591)" fill="#83d9ff"/>
      <path id="Trazado_1034083" data-name="Trazado 1034083" d="M202.444,447.755l-.182.89.176-.891a.909.909,0,1,0-.351,1.783l.017,0a.928.928,0,0,0,.172.017.909.909,0,0,0,.169-1.8Zm0,0" transform="translate(-176.952 -393.478)"/>
      <path id="Trazado_1034084" data-name="Trazado 1034084" d="M261.766,450.26l.09.9-.093-.9a.909.909,0,0,0,.092,1.813c.031,0,.063,0,.094,0l.025,0a.909.909,0,0,0-.208-1.806Zm0,0" transform="translate(-229.326 -395.692)"/>
      <path id="Trazado_1034085" data-name="Trazado 1034085" d="M232.058,451.232h-.013a.9.9,0,0,0-.942.868.914.914,0,0,0,.873.949h.042a.909.909,0,0,0,.04-1.817Zm0,0" transform="translate(-203.096 -396.548)"/>
      <path id="Trazado_1034086" data-name="Trazado 1034086" d="M173.8,439.848l-.011,0a.9.9,0,0,0-1.157.55.912.912,0,1,0,1.168-.546Zm0,0" transform="translate(-151.663 -386.494)"/>
      <path id="Trazado_1034087" data-name="Trazado 1034087" d="M291.037,444.832l.224.881-.227-.88a.909.909,0,0,0,.226,1.789.9.9,0,0,0,.228-.029l.024-.006a.909.909,0,0,0-.475-1.755Zm0,0" transform="translate(-255.166 -390.9)"/>
      <path id="Trazado_1034088" data-name="Trazado 1034088" d="M319.139,435.03l.36.834-.363-.833a.909.909,0,1,0,.726,1.667l.022-.01a.909.909,0,0,0-.745-1.658Zm0,0" transform="translate(-279.982 -382.243)"/>
      <path id="Trazado_1034089" data-name="Trazado 1034089" d="M147.39,80.508a.909.909,0,1,0-.425-1.712l-.011.006a.908.908,0,0,0,.436,1.706Zm0,0" transform="translate(-128.727 -69.153)"/>
      <path id="Trazado_1034090" data-name="Trazado 1034090" d="M63.723,164.959a.909.909,0,0,0,1.227-.383l.016-.032a.909.909,0,1,0-1.244.415Zm0,0" transform="translate(-55.574 -143.452)"/>
      <path id="Trazado_1034091" data-name="Trazado 1034091" d="M52.214,192.764a.908.908,0,0,0,1.152-.569l.012-.036a.909.909,0,1,0-1.164.605Zm0,0" transform="translate(-45.344 -167.838)"/>
      <path id="Trazado_1034092" data-name="Trazado 1034092" d="M79.337,139.249a.908.908,0,0,0,1.27-.2l.012-.016a.909.909,0,0,0-1.479-1.057l.732.539-.735-.535A.909.909,0,0,0,79.337,139.249Zm0,0" transform="translate(-69.394 -120.922)"/>
      <path id="Trazado_1034093" data-name="Trazado 1034093" d="M121.954,96.647A.913.913,0,1,0,121.427,95l-.023.017a.91.91,0,0,0,.549,1.635Zm0,0" transform="translate(-106.376 -83.329)"/>
      <path id="Trazado_1034094" data-name="Trazado 1034094" d="M49.68,310.809a.909.909,0,1,0-.012-.04Zm0,0" transform="translate(-43.621 -272.099)"/>
      <path id="Trazado_1034095" data-name="Trazado 1034095" d="M99.3,116.432a.912.912,0,1,0-.635-1.558l-.015.015a.908.908,0,0,0,.65,1.543Zm0,0" transform="translate(-86.467 -100.718)"/>
      <path id="Trazado_1034096" data-name="Trazado 1034096" d="M45.16,280.985a.909.909,0,0,0-1.8.225l.005.036a.909.909,0,0,0,1.8-.261Zm0,0" transform="translate(-38.096 -246.238)"/>
      <path id="Trazado_1034097" data-name="Trazado 1034097" d="M42.473,251.978H42.5a.909.909,0,0,0,.908-.882v-.039a.909.909,0,1,0-.936.921Zm0,0" transform="translate(-36.551 -219.834)"/>
      <path id="Trazado_1034098" data-name="Trazado 1034098" d="M45.081,222a.939.939,0,0,0,.161.014.91.91,0,0,0,.894-.749c0-.013,0-.027.006-.04a.909.909,0,1,0-1.061.774Zm0,0" transform="translate(-38.96 -193.501)"/>
      <path id="Trazado_1034099" data-name="Trazado 1034099" d="M403.082,143.19a.909.909,0,0,0,1.5-1.032l-.755.506.753-.51a.909.909,0,1,0-1.5,1.02Zm0,0" transform="translate(-354.088 -124.576)"/>
      <path id="Trazado_1034100" data-name="Trazado 1034100" d="M436.748,229.028a.908.908,0,0,0-.8,1l0,.039a.909.909,0,0,0,.9.78.927.927,0,0,0,.13-.009.915.915,0,0,0-.232-1.815Zm0,0" transform="translate(-383.112 -201.268)"/>
      <path id="Trazado_1034101" data-name="Trazado 1034101" d="M429.676,199.451l0,.012a.909.909,0,0,0,.871.653.9.9,0,0,0,.257-.037.909.909,0,0,0,.616-1.129l0-.012a.909.909,0,0,0-1.744.513Zm0,0" transform="translate(-377.574 -174.256)"/>
      <path id="Trazado_1034102" data-name="Trazado 1034102" d="M418.632,170.278a.914.914,0,0,0,.82.51.908.908,0,0,0,.814-1.307l-.824.384.823-.386a.909.909,0,0,0-1.646.772Zm0,0" transform="translate(-367.813 -148.482)"/>
      <path id="Trazado_1034103" data-name="Trazado 1034103" d="M383.463,118.9a.915.915,0,1,0-.027-.029Zm0,0" transform="translate(-336.758 -103.129)"/>
      <path id="Trazado_1034104" data-name="Trazado 1034104" d="M438.252,260.385a.915.915,0,0,0-.078,1.827h.052a.909.909,0,0,0,.906-.859v-.037A.908.908,0,0,0,438.252,260.385Zm0,0" transform="translate(-384.321 -228.83)"/>
      <path id="Trazado_1034105" data-name="Trazado 1034105" d="M334.025,80.976l.022.012a.905.905,0,0,0,1.224-.373.912.912,0,0,0-.369-1.23l-.44.8.437-.8a.909.909,0,1,0-.874,1.594Zm0,0" transform="translate(-293.132 -69.664)"/>
      <path id="Trazado_1034106" data-name="Trazado 1034106" d="M360.237,97.976l.014.011a.909.909,0,0,0,1.1-1.449l-.006,0a.909.909,0,1,0-1.107,1.442Zm0,0" transform="translate(-316.27 -84.67)"/>
      <path id="Trazado_1034107" data-name="Trazado 1034107" d="M61.485,45.314,57.218,41.04a1.919,1.919,0,0,0-2.718,0l-.1.1-.28-.28a3.668,3.668,0,0,1-.8-1.191.886.886,0,0,0-.065-.169,3.675,3.675,0,0,1-.212-1.235V37.056a.915.915,0,1,0-.006-1.616,5.124,5.124,0,0,0-1.5-3.418L47.4,27.877a4.911,4.911,0,0,0-6.28-.564l-.439-.442v-10.4a5.161,5.161,0,0,0-1.28-3.4,3.668,3.668,0,0,1-.911-2.421V9.89h.062a1.924,1.924,0,0,0,1.921-1.922V1.922A1.924,1.924,0,0,0,38.555,0H21.577a1.924,1.924,0,0,0-1.921,1.922V7.968A1.924,1.924,0,0,0,21.577,9.89h.14v.4a3.647,3.647,0,0,1-1.073,2.594l-1.832,1.836A5.128,5.128,0,0,0,17.3,18.364v5.864a4.9,4.9,0,0,0,.528,2.215,4.88,4.88,0,0,0-3.189,1.433L10.5,32.023A5.128,5.128,0,0,0,9,35.669v2.6a3.646,3.646,0,0,1-1.072,2.594l-.277.277,0,0-.1-.1a1.919,1.919,0,0,0-2.718,0L.561,45.314a1.927,1.927,0,0,0,0,2.718L2.022,49.5a.909.909,0,1,0,1.286-1.284L1.847,46.748a.105.105,0,0,1,0-.149l4.267-4.274a.1.1,0,0,1,.144,0L7,43.068H7L17.13,53.214l1.135,1.137a.105.105,0,0,1,0,.149L14,58.774a.1.1,0,0,1-.145,0L5.881,50.789a.909.909,0,1,0-1.287,1.284l7.972,7.985a1.919,1.919,0,0,0,2.718,0l4.267-4.274a1.926,1.926,0,0,0,0-2.718l-.046-.046.538-.539a3.652,3.652,0,0,1,2.351-1.066,5.143,5.143,0,0,0,3.309-1.5l3.92-3.928a3.112,3.112,0,0,0,2.249-2.371,3.1,3.1,0,0,0,4.428-2.8V38.654a3.1,3.1,0,0,0,4.382-2.825v-6.38l2.8,2.809a.909.909,0,1,0,1.289-1.282l-2.331-2.342a3.1,3.1,0,0,1,3.68.528l4.139,4.146a3.323,3.323,0,0,1,.977,2.362v2.6a5.453,5.453,0,0,0,1.6,3.878l.282.283L51.8,43.747l-7.974,7.987-.444-.445-.014-.013-.078-.079a5.472,5.472,0,0,0-3.52-1.6,3.333,3.333,0,0,1-2.143-.973l-2.987-2.97a.909.909,0,1,0-1.282,1.289l2.985,2.968a5.143,5.143,0,0,0,3.31,1.5A3.654,3.654,0,0,1,42,52.481l.044.044a.874.874,0,0,0,.075.076l.419.419-.046.047a1.926,1.926,0,0,0,0,2.718l4.267,4.274a1.92,1.92,0,0,0,2.718,0L61.485,48.032a1.926,1.926,0,0,0,0-2.718Zm-7.826-9.038-.017,0-.166-.034ZM24.417,48.63a3.327,3.327,0,0,1-2.14.971,5.472,5.472,0,0,0-3.52,1.6l-.536.537-.483-.484-.018-.018L8.928,42.426l.282-.283a5.453,5.453,0,0,0,1.6-3.878v-2.6a3.321,3.321,0,0,1,.977-2.362l4.139-4.146a3.095,3.095,0,0,1,3.684-.525l-2.335,2.338a.909.909,0,0,0,1.287,1.284l2.789-2.794V40.812a3.1,3.1,0,0,0,4.445,2.8A3.115,3.115,0,0,0,27.34,45.7Zm14.449-12.8a1.282,1.282,0,1,1-2.565,0V25.691a.909.909,0,1,0-1.818,0V40.812a1.281,1.281,0,0,1-2.546.213V25.68a.918.918,0,0,0-1.837.01V40.812a3.116,3.116,0,0,0,.019.341v1.831a1.282,1.282,0,1,1-2.564,0V25.669a.909.909,0,0,0-1.818,0V40.812a1.282,1.282,0,1,1-2.564,0V23.905a.909.909,0,1,0-1.818,0v3.127a.892.892,0,0,0-.219.1,3.11,3.11,0,0,1-2.014-2.909V18.364A3.323,3.323,0,0,1,20.1,16l1.832-1.836a5.452,5.452,0,0,0,1.6-3.878v-.4h1.827a.909.909,0,1,0,0-1.818H21.577a.1.1,0,0,1-.1-.1V1.922a.1.1,0,0,1,.1-.1H38.554a.1.1,0,0,1,.1.1V7.968a.1.1,0,0,1-.1.1H29.629a.909.909,0,0,0,0,1.818h7.045v.762a5.488,5.488,0,0,0,1.361,3.62,3.342,3.342,0,0,1,.83,2.2ZM60.2,46.748,48.192,58.774a.1.1,0,0,1-.072.03.1.1,0,0,1-.072-.03L43.781,54.5a.105.105,0,0,1,0-.149l.687-.688h0l6.969-6.981,4.349-4.356a.1.1,0,0,1,.144,0L60.2,46.6a.105.105,0,0,1,0,.149Zm0,0"/>
      <path id="Trazado_1034108" data-name="Trazado 1034108" d="M194.784,32.8a.969.969,0,1,0,.968.969A.97.97,0,0,0,194.784,32.8Zm0,0" transform="translate(-170.33 -28.829)"/>
      <path id="Trazado_1034109" data-name="Trazado 1034109" d="M456.382,374.688a.969.969,0,1,0,.968.969A.97.97,0,0,0,456.382,374.688Zm0,0" transform="translate(-400.225 -329.282)"/>
      <path id="Trazado_1034110" data-name="Trazado 1034110" d="M110.947,444.172a.968.968,0,1,0-.968.969A.97.97,0,0,0,110.947,444.172Zm0,0" transform="translate(-95.801 -389.494)"/>
    </g>
  </g>
</svg>
