<svg xmlns="http://www.w3.org/2000/svg" xmlns:xlink="http://www.w3.org/1999/xlink" width="113" height="113" viewBox="0 0 113 113">
  <defs>
    <filter id="Trazado_982547" x="0" y="0" width="113" height="113" filterUnits="userSpaceOnUse">
      <feOffset dy="3" input="SourceAlpha"/>
      <feGaussianBlur stdDeviation="3" result="blur"/>
      <feFlood flood-opacity="0.161"/>
      <feComposite operator="in" in2="blur"/>
      <feComposite in="SourceGraphic"/>
    </filter>
  </defs>
  <g id="Grupo_1180315" data-name="Grupo 1180315" transform="translate(-171.461 -9450)">
    <g id="Grupo_1174899" data-name="Grupo 1174899" transform="translate(0 6469)">
      <g id="Grupo_1166845" data-name="Grupo 1166845" transform="translate(180.461 2987)">
        <g id="Grupo_1166720" data-name="Grupo 1166720">
          <g id="Grupo_1164305" data-name="Grupo 1164305" transform="translate(0)">
            <g id="Grupo_1163948" data-name="Grupo 1163948">
              <g id="Grupo_1158168" data-name="Grupo 1158168">
                <g id="Grupo_1152576" data-name="Grupo 1152576">
                  <g id="Grupo_1148633" data-name="Grupo 1148633">
                    <g id="Grupo_1148525" data-name="Grupo 1148525">
                      <g transform="matrix(1, 0, 0, 1, -9, -6)" filter="url(#Trazado_982547)">
                        <g id="Trazado_982547-2" data-name="Trazado 982547" transform="translate(9 6)" fill="#e9f9fd">
                          <path d="M 47.5 93.5 C 41.28937149047852 93.5 35.26533508300781 92.28397369384766 29.59518623352051 89.88570404052734 C 24.11771965026855 87.56893157958984 19.19813346862793 84.25196075439453 14.97309303283691 80.02691650390625 C 10.74804019927979 75.80186462402344 7.431066513061523 70.88229370117188 5.114293098449707 65.40481567382812 C 2.716026782989502 59.73468017578125 1.5 53.71062850952148 1.5 47.5 C 1.5 41.28937149047852 2.716026782989502 35.26533508300781 5.114293098449707 29.59518623352051 C 7.431066513061523 24.11771965026855 10.74804019927979 19.19813346862793 14.97309303283691 14.97309303283691 C 19.19813346862793 10.74804019927979 24.11771965026855 7.431066513061523 29.59518623352051 5.114293098449707 C 35.26533508300781 2.716026782989502 41.28937149047852 1.5 47.5 1.5 C 53.71062850952148 1.5 59.73468017578125 2.716026782989502 65.40481567382812 5.114293098449707 C 70.88229370117188 7.431066513061523 75.80186462402344 10.74804019927979 80.02691650390625 14.97309303283691 C 84.25196075439453 19.19813346862793 87.56893157958984 24.11771965026855 89.88570404052734 29.59518623352051 C 92.28397369384766 35.26533508300781 93.5 41.28937149047852 93.5 47.5 C 93.5 53.71062850952148 92.28397369384766 59.73468017578125 89.88570404052734 65.40481567382812 C 87.56893157958984 70.88229370117188 84.25196075439453 75.80186462402344 80.02691650390625 80.02691650390625 C 75.80186462402344 84.25196075439453 70.88229370117188 87.56893157958984 65.40481567382812 89.88570404052734 C 59.73468017578125 92.28397369384766 53.71062850952148 93.5 47.5 93.5 Z" stroke="none"/>
                          <path d="M 47.5 3 C 41.49121475219727 3 35.66376876831055 4.176155090332031 30.17950439453125 6.495796203613281 C 24.88084411621094 8.736953735351562 20.12152099609375 11.94598388671875 16.03375244140625 16.03375244140625 C 11.94598388671875 20.12152099609375 8.736953735351562 24.88084411621094 6.495796203613281 30.17950439453125 C 4.176155090332031 35.66376876831055 3 41.49121475219727 3 47.5 C 3 53.50878524780273 4.176155090332031 59.33623123168945 6.495796203613281 64.82049560546875 C 8.736953735351562 70.11915588378906 11.94598388671875 74.87847900390625 16.03375244140625 78.96624755859375 C 20.12152099609375 83.05401611328125 24.88084411621094 86.26304626464844 30.17950439453125 88.50419616699219 C 35.66376876831055 90.82384490966797 41.49121475219727 92 47.5 92 C 53.50878524780273 92 59.33623123168945 90.82384490966797 64.82049560546875 88.50419616699219 C 70.11915588378906 86.26304626464844 74.87847900390625 83.05401611328125 78.96624755859375 78.96624755859375 C 83.05401611328125 74.87847900390625 86.26304626464844 70.11915588378906 88.50419616699219 64.82049560546875 C 90.82384490966797 59.33623123168945 92 53.50878524780273 92 47.5 C 92 41.49121475219727 90.82384490966797 35.66376876831055 88.50419616699219 30.17950439453125 C 86.26304626464844 24.88084411621094 83.05401611328125 20.12152099609375 78.96624755859375 16.03375244140625 C 74.87847900390625 11.94598388671875 70.11915588378906 8.736953735351562 64.82049560546875 6.495796203613281 C 59.33623123168945 4.176155090332031 53.50878524780273 3 47.5 3 M 47.5 0 C 73.7335205078125 0 95 21.2664794921875 95 47.5 C 95 73.7335205078125 73.7335205078125 95 47.5 95 C 21.2664794921875 95 0 73.7335205078125 0 47.5 C 0 21.2664794921875 21.2664794921875 0 47.5 0 Z" stroke="none" fill="#36ceef"/>
                        </g>
                      </g>
                    </g>
                  </g>
                </g>
              </g>
            </g>
          </g>
        </g>
      </g>
    </g>
    <g id="Filled_outline" data-name="Filled outline" transform="translate(150.379 9453)">
      <path id="Trazado_1034160" data-name="Trazado 1034160" d="M121.427,28.8l-3.2-4.8v4.627A28.875,28.875,0,0,0,94.936,40.4l10.886-.7,2.244,6.76a14.983,14.983,0,0,1,10.159-3.951v5.784l4.525-5.09,4.729-5.32Z" transform="translate(-40.935 -6.844)" fill="#f35244"/>
      <path id="Trazado_1034161" data-name="Trazado 1034161" d="M213.657,328.592l-2.244-6.76a14.983,14.983,0,0,1-10.159,3.951V320l-4.525,5.09L192,330.411l6.051,9.076,3.2,4.8v-4.627a28.875,28.875,0,0,0,23.288-11.774Z" transform="translate(-123.964 -260.045)" fill="#88c25e"/>
      <path id="Trazado_1034162" data-name="Trazado 1034162" d="M80.929,295.493a28.982,28.982,0,0,1-21.845-14.28l-4,2.312,2.556-5.171,4.838-9.784,6.974,1.436,6.669,1.374-5.01,2.893a15.1,15.1,0,0,0,8.5,6.825l-4.73,5.319Z" transform="translate(-6.841 -216.051)" fill="#4db7e5"/>
      <path id="Trazado_1034163" data-name="Trazado 1034163" d="M304,69.2l-2.556,5.171L296.6,84.153l-6.974-1.436-6.669-1.374,5.01-2.893a15.112,15.112,0,0,0-8.5-6.825l4.73-5.32L278.15,57.23a28.745,28.745,0,0,1,13.359,5.033,29.048,29.048,0,0,1,8.486,9.247Z" transform="translate(-197.658 -35.269)" fill="#f98500"/>
      <path id="Trazado_1034164" data-name="Trazado 1034164" d="M328.459,201.822a28.962,28.962,0,0,0,1.447-26.063l-4.838,9.784-6.973-1.436a15.074,15.074,0,0,1-1.659,10.774l-5.01-2.893,2.145,6.46,2.244,6.76,10.886-.7,5.763-.372Z" transform="translate(-226.122 -136.66)" fill="#ffb531"/>
      <path id="Trazado_1034165" data-name="Trazado 1034165" d="M76.119,145.793l-2.145-6.46-2.244-6.76-10.886.7-5.763.372,4,2.311a28.962,28.962,0,0,0-1.447,26.063l4.838-9.784,6.973,1.436A15.074,15.074,0,0,1,71.108,142.9Z" transform="translate(-6.843 -99.719)" fill="#348fd9"/>
      <path id="Trazado_1034166" data-name="Trazado 1034166" d="M119.259,351.591A28.867,28.867,0,0,1,99.89,340.926a72.392,72.392,0,0,0,12.652-6.776,15.013,15.013,0,0,0,5.4,3.045l-4.73,5.319Z" transform="translate(-45.172 -272.149)" fill="#4aafdb"/>
      <path id="Trazado_1034167" data-name="Trazado 1034167" d="M332.467,98.975l-2.556,5.171-4.838,9.784-6.974-1.436-6.669-1.374,5.01-2.893a15.077,15.077,0,0,0-2.426-3.145,75.483,75.483,0,0,0,5.963-13.042,29.048,29.048,0,0,1,8.486,9.247Z" transform="translate(-226.126 -65.046)" fill="#f77c00"/>
      <path id="Trazado_1034168" data-name="Trazado 1034168" d="M106.919,66.472,103.9,64.728a30.117,30.117,0,0,0,1.157-25.591l2.322-4.7a1.157,1.157,0,0,0-1.615-1.514l-3.022,1.745A30.188,30.188,0,0,0,81.161,20.878l-2.909-4.363a1.157,1.157,0,0,0-2.119.642v3.492a29.965,29.965,0,0,0-19.295,8l1.574,1.7A27.666,27.666,0,0,1,77.29,22.94a1.157,1.157,0,0,0,1.157-1.157v-.806l6.639,9.959-6.639,7.469V35.664a1.157,1.157,0,0,0-1.157-1.157A16.143,16.143,0,0,0,67.7,37.654l-1.714-5.163a1.157,1.157,0,0,0-1.172-.79L48.164,32.775a1.157,1.157,0,0,0-.5,2.156l3.021,1.744a30.117,30.117,0,0,0-1.157,25.591l-2.322,4.7a1.157,1.157,0,0,0,1.615,1.514l3.022-1.745A30.188,30.188,0,0,0,73.418,80.525l2.909,4.364a1.157,1.157,0,0,0,2.119-.642V80.755a29.912,29.912,0,0,0,19.713-8.4L96.553,70.69A27.621,27.621,0,0,1,77.29,78.463a1.157,1.157,0,0,0-1.157,1.157v.807l-6.639-9.959L76.133,63v2.741A1.157,1.157,0,0,0,77.29,66.9a16.143,16.143,0,0,0,9.591-3.146l1.714,5.163a1.157,1.157,0,0,0,1.1.792l.075,0,16.648-1.074a1.157,1.157,0,0,0,.5-2.156ZM87.506,30.4,82.92,23.517a27.89,27.89,0,0,1,18.416,13.3,1.157,1.157,0,0,0,1.58.422l.7-.4L98.305,47.57l-9.789-2.015,2.376-1.371a1.157,1.157,0,0,0,.423-1.581,16.177,16.177,0,0,0-7.521-6.732l3.613-4.065A1.157,1.157,0,0,0,87.506,30.4ZM49.528,50.7A27.748,27.748,0,0,1,53.244,36.82a1.157,1.157,0,0,0-.423-1.581l-.7-.4,11.945-.77,3.149,9.485-2.376-1.372a1.157,1.157,0,0,0-1.58.422,16.215,16.215,0,0,0-2.07,9.881l-5.327-1.1a1.157,1.157,0,0,0-1.27.62l-3.668,7.417a27.608,27.608,0,0,1-1.4-8.722ZM67.074,71.008l4.586,6.878a27.891,27.891,0,0,1-18.416-13.3,1.157,1.157,0,0,0-1.58-.422l-.7.4,5.305-10.729,9.789,2.015L63.687,57.22a1.157,1.157,0,0,0-.423,1.581,16.177,16.177,0,0,0,7.521,6.732L67.172,69.6A1.157,1.157,0,0,0,67.074,71.008Zm11.373-6.473V59.955a1.157,1.157,0,0,0-2.021-.768L72.414,63.7a13.847,13.847,0,0,1-6.527-5.079l3.967-2.29a1.157,1.157,0,0,0-.345-2.135L63.6,52.978a13.923,13.923,0,0,1,1.134-8.192L68.7,47.076a1.157,1.157,0,0,0,1.676-1.366l-1.9-5.726a13.83,13.83,0,0,1,7.661-3.116v4.579a1.157,1.157,0,0,0,2.021.768L82.165,37.7a13.849,13.849,0,0,1,6.527,5.079l-3.967,2.29a1.157,1.157,0,0,0,.345,2.135l5.914,1.217a13.923,13.923,0,0,1-1.134,8.192l-3.967-2.291a1.157,1.157,0,0,0-1.676,1.366l1.9,5.726a13.828,13.828,0,0,1-7.661,3.116Zm12.063,2.8L87.36,57.851l2.376,1.372a1.157,1.157,0,0,0,1.579-.422,16.216,16.216,0,0,0,2.07-9.881l5.327,1.1a1.157,1.157,0,0,0,1.27-.62l3.667-7.418a27.816,27.816,0,0,1-2.315,22.6,1.157,1.157,0,0,0,.423,1.581l.7.4Z" transform="translate(0 0)"/>
      <path id="Trazado_1034169" data-name="Trazado 1034169" d="M81.134,196.48a24.956,24.956,0,0,0-1.534,7.534l2.311.117a22.671,22.671,0,0,1,1.393-6.846Z" transform="translate(-27.816 -154.385)"/>
      <path id="Trazado_1034170" data-name="Trazado 1034170" d="M100.429,166.04l.306-.529-2-1.158-.312.539c-.307.545-.6,1.094-.859,1.632l2.079,1.015C99.883,167.042,100.15,166.534,100.429,166.04Z" transform="translate(-43.18 -126.903)"/>
    </g>
  </g>
</svg>
