<svg xmlns="http://www.w3.org/2000/svg" xmlns:xlink="http://www.w3.org/1999/xlink" width="93.656" height="93.656" viewBox="0 0 93.656 93.656">
  <defs>
    <filter id="Trazado_982547" x="0" y="0" width="93.656" height="93.656" filterUnits="userSpaceOnUse">
      <feOffset dy="3" input="SourceAlpha"/>
      <feGaussianBlur stdDeviation="3" result="blur"/>
      <feFlood flood-opacity="0.161"/>
      <feComposite operator="in" in2="blur"/>
      <feComposite in="SourceGraphic"/>
    </filter>
  </defs>
  <g id="Grupo_1180309" data-name="Grupo 1180309" transform="translate(-200.461 -7790)">
    <g id="Grupo_1174894" data-name="Grupo 1174894" transform="translate(11.291 2507.168)">
      <g id="Grupo_1172067" data-name="Grupo 1172067" transform="translate(198.17 5288.832)">
        <g id="Grupo_1164308" data-name="Grupo 1164308" transform="translate(0 0)">
          <g id="Grupo_1163948" data-name="Grupo 1163948" transform="translate(0)">
            <g id="Grupo_1158168" data-name="Grupo 1158168" transform="translate(0)">
              <g id="Grupo_1152576" data-name="Grupo 1152576">
                <g id="Grupo_1148633" data-name="Grupo 1148633">
                  <g id="Grupo_1148525" data-name="Grupo 1148525">
                    <g transform="matrix(1, 0, 0, 1, -9, -6)" filter="url(#Trazado_982547)">
                      <g id="Trazado_982547-2" data-name="Trazado 982547" transform="translate(9 6)" fill="#e9f9fd">
                        <path d="M 37.8281364440918 74.15627288818359 C 32.92320251464844 74.15627288818359 28.16579246520996 73.19596862792969 23.68804740905762 71.30204772949219 C 19.36230278015137 69.47240447998047 15.47705841064453 66.85280609130859 12.1402702331543 63.51601409912109 C 8.803469657897949 60.17921447753906 6.1838698387146 56.29397964477539 4.354236602783203 51.96822357177734 C 2.460303068161011 47.49048233032227 1.500003099441528 42.73307037353516 1.500003099441528 37.8281364440918 C 1.500003099441528 32.92321395874023 2.460303068161011 28.16579246520996 4.354236602783203 23.68804740905762 C 6.1838698387146 19.36230278015137 8.803469657897949 15.47706985473633 12.1402702331543 12.1402702331543 C 15.47706985473633 8.803469657897949 19.36230278015137 6.1838698387146 23.68804740905762 4.354236602783203 C 28.16579246520996 2.460303068161011 32.92321395874023 1.500003099441528 37.8281364440918 1.500003099441528 C 42.73307037353516 1.500003099441528 47.49048233032227 2.460303068161011 51.96822357177734 4.354236602783203 C 56.29397964477539 6.1838698387146 60.17921447753906 8.803469657897949 63.51601409912109 12.1402702331543 C 66.85280609130859 15.47705841064453 69.47240447998047 19.36230278015137 71.30204772949219 23.68804740905762 C 73.19596862792969 28.16579246520996 74.15627288818359 32.92320251464844 74.15627288818359 37.8281364440918 C 74.15627288818359 42.73307037353516 73.19596862792969 47.49048233032227 71.30204772949219 51.96822357177734 C 69.47240447998047 56.29397964477539 66.85280609130859 60.17921447753906 63.51601409912109 63.51601409912109 C 60.17921447753906 66.85280609130859 56.29397964477539 69.47240447998047 51.96822357177734 71.30204772949219 C 47.49048233032227 73.19596862792969 42.73307037353516 74.15627288818359 37.8281364440918 74.15627288818359 Z" stroke="none"/>
                        <path d="M 37.8281364440918 3 C 33.12504959106445 3 28.56423568725586 3.920433044433594 24.27237319946289 5.735733032226562 C 20.12542343139648 7.48974609375 16.40044784545898 10.00139617919922 13.20092391967773 13.20092391967773 C 10.00139617919922 16.40044784545898 7.48974609375 20.12542343139648 5.735733032226562 24.27237319946289 C 3.920433044433594 28.56423568725586 3 33.12504959106445 3 37.8281364440918 C 3 42.53122329711914 3.920433044433594 47.09203720092773 5.735733032226562 51.3838996887207 C 7.48974609375 55.53084945678711 10.00139617919922 59.25582122802734 13.20092391967773 62.45534896850586 C 16.40044784545898 65.65487670898438 20.12542343139648 68.16652679443359 24.27237319946289 69.92053985595703 C 28.56423568725586 71.73583984375 33.12504959106445 72.65627288818359 37.8281364440918 72.65627288818359 C 42.53122329711914 72.65627288818359 47.09203720092773 71.73583984375 51.3838996887207 69.92053985595703 C 55.53084945678711 68.16652679443359 59.25582122802734 65.65487670898438 62.45534896850586 62.45534896850586 C 65.65487670898438 59.25582122802734 68.16652679443359 55.53084945678711 69.92053985595703 51.3838996887207 C 71.73583984375 47.09203720092773 72.65627288818359 42.53122329711914 72.65627288818359 37.8281364440918 C 72.65627288818359 33.12504959106445 71.73583984375 28.56423568725586 69.92053985595703 24.27237319946289 C 68.16652679443359 20.12542343139648 65.65487670898438 16.40044784545898 62.45534896850586 13.20092391967773 C 59.25582122802734 10.00139617919922 55.53084945678711 7.48974609375 51.3838996887207 5.735733032226562 C 47.09203720092773 3.920433044433594 42.53122329711914 3 37.8281364440918 3 M 37.8281364440918 0 C 58.72003555297852 0 75.65627288818359 16.93623733520508 75.65627288818359 37.8281364440918 C 75.65627288818359 58.72003555297852 58.72003555297852 75.65627288818359 37.8281364440918 75.65627288818359 C 16.93623733520508 75.65627288818359 0 58.72003555297852 0 37.8281364440918 C 0 16.93623733520508 16.93623733520508 0 37.8281364440918 0 Z" stroke="none" fill="#1d7083"/>
                      </g>
                    </g>
                  </g>
                </g>
              </g>
            </g>
          </g>
        </g>
      </g>
    </g>
    <g id="colaboracion" transform="translate(222.461 7808)">
      <g id="Grupo_1180308" data-name="Grupo 1180308" transform="translate(1.761 3.761)">
        <g id="Grupo_1180294" data-name="Grupo 1180294" transform="translate(4.568 4.568)">
          <path id="Trazado_1034123" data-name="Trazado 1034123" d="M20.181,20.658v4.568H8.3A15.643,15.643,0,0,1,8,22.181,12.164,12.164,0,0,1,20.181,10v6.09H17.9a2.284,2.284,0,0,0,0,4.568Z" transform="translate(-8 -10)" fill="#fcd770"/>
        </g>
        <g id="Grupo_1180295" data-name="Grupo 1180295" transform="translate(41.11 9.136)">
          <path id="Trazado_1034124" data-name="Trazado 1034124" d="M60.568,16.761v7.613a.764.764,0,0,1-.761.761H56.761A.764.764,0,0,1,56,24.374V16.761A.754.754,0,0,1,56.761,16h3.045A.764.764,0,0,1,60.568,16.761Z" transform="translate(-56 -16)" fill="#75b1f2"/>
        </g>
        <g id="Grupo_1180296" data-name="Grupo 1180296" transform="translate(0 31.974)">
          <path id="Trazado_1034125" data-name="Trazado 1034125" d="M6.568,46.761V55.9a.759.759,0,0,1-.084.343.749.749,0,0,1-.678.419H2.761A.764.764,0,0,1,2,55.9V46.761A.764.764,0,0,1,2.761,46H5.806a.749.749,0,0,1,.678.419A.759.759,0,0,1,6.568,46.761Z" transform="translate(-2 -46)" fill="#b4dd7f"/>
        </g>
        <g id="Grupo_1180297" data-name="Grupo 1180297" transform="translate(15.226 39.587)">
          <path id="Trazado_1034126" data-name="Trazado 1034126" d="M30.062,57.073a1.489,1.489,0,0,0,1.073.449,1.513,1.513,0,0,0-1.485,1.85,4.58,4.58,0,0,1-3.083,1.2A4.575,4.575,0,0,1,22,56h7.613A1.489,1.489,0,0,0,30.062,57.073Z" transform="translate(-22 -56)" fill="#aab2bd"/>
        </g>
        <g id="Grupo_1180298" data-name="Grupo 1180298" transform="translate(15.226 36.542)">
          <path id="Trazado_1034127" data-name="Trazado 1034127" d="M30.062,53.073a1.489,1.489,0,0,0,1.073.449,1.527,1.527,0,0,0-1.523,1.523H22V52h7.613A1.489,1.489,0,0,0,30.062,53.073Z" transform="translate(-22 -52)" fill="#ccd1d9"/>
        </g>
        <g id="Grupo_1180299" data-name="Grupo 1180299" transform="translate(4.865 19.794)">
          <path id="Trazado_1034128" data-name="Trazado 1034128" d="M22.558,33.045a2.284,2.284,0,0,1,0,4.568H20.274v3.045H15.1q-.354,0-.708.023v-.008l-3.1-4.126A15.953,15.953,0,0,1,8.39,30H20.274v3.045Z" transform="translate(-8.39 -30)" fill="#fcd770"/>
        </g>
        <g id="Grupo_1180300" data-name="Grupo 1180300" transform="translate(15.226 19.794)">
          <path id="Trazado_1034129" data-name="Trazado 1034129" d="M33.929,40.658A14.163,14.163,0,0,0,32.209,43.7a13.311,13.311,0,0,0-.525,1.523h-.548a1.527,1.527,0,0,0-1.523,1.523H22v-.434c.107-.061.206-.129.3-.2a3.341,3.341,0,0,0,1.218-1.652l3.19-.533a1.648,1.648,0,0,0-.274-3.274H23.523V37.613h2.284a2.284,2.284,0,1,0,0-4.568H23.523V30H38.749l-.716,3.22a14.331,14.331,0,0,1-3.281,6.41A10.569,10.569,0,0,0,33.929,40.658Z" transform="translate(-22 -30)" fill="#fcd770"/>
        </g>
        <g id="Grupo_1180301" data-name="Grupo 1180301" transform="translate(16.749 1.523)">
          <path id="Trazado_1034130" data-name="Trazado 1034130" d="M35.275,7.979a5.587,5.587,0,0,1,3.746,4.377l.061.381a3.33,3.33,0,0,1-.822-1.058,2,2,0,0,0-1.8-1.111,1.794,1.794,0,0,0-1.8,1.8,1.862,1.862,0,0,0,.236.9,9.741,9.741,0,0,0,3.57,3.593,9.907,9.907,0,0,0,2.345.974l-.061.343v3.045H28.568V16.658H26.284a2.284,2.284,0,0,1,0-4.568h2.284V6h3.06a1.323,1.323,0,0,0,.891,1.066Z" transform="translate(-24 -6)" fill="#fcd770"/>
        </g>
        <g id="Grupo_1180302" data-name="Grupo 1180302" transform="translate(25.435 30.452)">
          <path id="Trazado_1034131" data-name="Trazado 1034131" d="M41.5,44.449a1.489,1.489,0,0,1,.449,1.073,1.527,1.527,0,0,1-1.523,1.523H35.41A14.163,14.163,0,0,1,37.131,44h3.3A1.489,1.489,0,0,1,41.5,44.449Z" transform="translate(-35.41 -44)" fill="#f0d0b4"/>
        </g>
        <g id="Grupo_1180303" data-name="Grupo 1180303" transform="translate(22.839 38.065)">
          <path id="Trazado_1034132" data-name="Trazado 1034132" d="M36.568,54a1.534,1.534,0,0,1,1.523,1.523,1.527,1.527,0,0,1-1.523,1.523H33.523A1.534,1.534,0,0,1,32,55.523,1.527,1.527,0,0,1,33.523,54Z" transform="translate(-32 -54)" fill="#f0d0b4"/>
        </g>
        <g id="Grupo_1180304" data-name="Grupo 1180304" transform="translate(22.839 41.11)">
          <path id="Trazado_1034133" data-name="Trazado 1034133" d="M36.568,58a1.534,1.534,0,0,1,1.523,1.523,1.527,1.527,0,0,1-1.523,1.523H33.523a1.489,1.489,0,0,1-1.073-.449,1.448,1.448,0,0,1-.411-.746A1.513,1.513,0,0,1,33.523,58Z" transform="translate(-32 -58)" fill="#f0d0b4"/>
        </g>
        <g id="Grupo_1180305" data-name="Grupo 1180305" transform="translate(22.839 35.02)">
          <path id="Trazado_1034134" data-name="Trazado 1034134" d="M37.641,50.449a1.489,1.489,0,0,1,.449,1.073,1.527,1.527,0,0,1-1.523,1.523H33.523A1.534,1.534,0,0,1,32,51.523,1.527,1.527,0,0,1,33.523,50h3.045A1.489,1.489,0,0,1,37.641,50.449Z" transform="translate(-32 -50)" fill="#f0d0b4"/>
        </g>
        <g id="Grupo_1180306" data-name="Grupo 1180306" transform="translate(4.484 30.452)">
          <path id="Trazado_1034135" data-name="Trazado 1034135" d="M18.632,50.09v3.045A4.575,4.575,0,0,0,23.2,57.7H14.978a13.512,13.512,0,0,1-6.06-1.431l-1.028-.51a.759.759,0,0,0,.084-.343V46.284a.759.759,0,0,0-.084-.343l1.028-.51a13.4,13.4,0,0,1,5.352-1.408q.354-.023.708-.023H23.07a1.648,1.648,0,0,1,.274,3.274l-3.19.533a3.341,3.341,0,0,1-1.218,1.652c-.1.069-.2.137-.3.2Z" transform="translate(-7.89 -44)" fill="#f0d0b4"/>
        </g>
        <g id="Grupo_1180307" data-name="Grupo 1180307" transform="translate(24.361)">
          <path id="Trazado_1034136" data-name="Trazado 1034136" d="M41.468,12.26l-.061-.381A5.587,5.587,0,0,0,37.662,7.5l-2.756-.914a1.323,1.323,0,0,1-.891-1.066,1.733,1.733,0,0,1-.015-.2A1.326,1.326,0,0,1,35.325,4h1.622a12.988,12.988,0,0,1,10.8,5.778,13.131,13.131,0,0,0,1.622,1.979l1.6,1.6a.772.772,0,0,0-.221.541V21.51l-2.961-2.961a2.88,2.88,0,0,0-2.04-.845,9.812,9.812,0,0,1-2.55-.343,9.907,9.907,0,0,1-2.345-.974,9.741,9.741,0,0,1-3.57-3.593,1.862,1.862,0,0,1-.236-.9,1.794,1.794,0,0,1,1.8-1.8,2,2,0,0,1,1.8,1.111,3.33,3.33,0,0,0,.822,1.058Z" transform="translate(-34 -4)" fill="#f0d0b4"/>
        </g>
      </g>
      <path id="Trazado_1034137" data-name="Trazado 1034137" d="M46.678,12.136H43.633a1.492,1.492,0,0,0-.389.057l-1.208-1.208a12.308,12.308,0,0,1-1.527-1.863A13.717,13.717,0,0,0,29.07,3H27.45a2.085,2.085,0,0,0-2,1.523H22.316v6.09H20.794a3.014,3.014,0,0,0-1.523.423V7.568H18.51A12.957,12.957,0,0,0,5.568,20.51a16.855,16.855,0,0,0,3.35,10.049l2.294,3.058a14.364,14.364,0,0,0-4.275,1.344l-.531.266a1.514,1.514,0,0,0-.837-.253H2.523A1.524,1.524,0,0,0,1,36.5v9.136a1.524,1.524,0,0,0,1.523,1.523H5.568a1.514,1.514,0,0,0,.837-.253l.531.266a14.379,14.379,0,0,0,6.4,1.51h8.223a5.317,5.317,0,0,0,2.833-.816,2.268,2.268,0,0,0,1.735.816h3.045a2.274,2.274,0,0,0,1.69-3.806,2.249,2.249,0,0,0,0-3.045,2.274,2.274,0,0,0-1.69-3.806h3.045a2.284,2.284,0,0,0,0-4.568h-1.7a15.133,15.133,0,0,0,3.251-6.511l.922-4.147H19.271V18.226H16.226a1.523,1.523,0,1,1,0-3.045h1.946A3.035,3.035,0,0,0,20.794,16.7h1.523v4.568h13.7V18.055a10.471,10.471,0,0,0,1.852.171,2.108,2.108,0,0,1,1.5.62l2.789,2.789a1.52,1.52,0,0,0,1.473,1.159h3.045A1.524,1.524,0,0,0,48.2,21.271V13.658a1.524,1.524,0,0,0-1.523-1.523ZM10.136,29.645a15.283,15.283,0,0,1-2.551-5.329H17.749v3.045h3.045a1.523,1.523,0,1,1,0,3.045H17.749v3.045H13.332c-.111,0-.223.007-.334.01ZM2.523,45.633V36.5H5.568v9.136Zm10.81,1.523a12.85,12.85,0,0,1-5.715-1.349l-.527-.263V36.587l.527-.263a12.847,12.847,0,0,1,5.715-1.349h8.1a.888.888,0,0,1,.145,1.763l-3.642.607-.145.435a2.577,2.577,0,0,1-2.447,1.763H14.7v1.523h.638a4.106,4.106,0,0,0,.885-.107v2.39a5.311,5.311,0,0,0,1.606,3.806Zm10.647-6.09a2.263,2.263,0,0,0,.454.761,2.263,2.263,0,0,0-.454.761h-6.23V41.065Zm5.95,2.284a.763.763,0,0,1-.761.761H26.123a.761.761,0,0,1,0-1.523h3.045A.763.763,0,0,1,29.929,43.349Zm-12.1.761h6.154a2.263,2.263,0,0,0,.454.761,2.263,2.263,0,0,0-.592,1.5,3.783,3.783,0,0,1-6.016-2.262Zm11.343,3.045H26.123a.761.761,0,1,1,0-1.523h3.045a.761.761,0,0,1,0,1.523Zm.761-6.852a.763.763,0,0,1-.761.761H26.123a.761.761,0,1,1,0-1.523h3.045A.763.763,0,0,1,29.929,40.3Zm3.045-4.568a.763.763,0,0,1-.761.761H28.407a13.672,13.672,0,0,1,.9-1.523h2.9A.763.763,0,0,1,32.974,35.736Zm-.188-11.419-.509,2.295a13.6,13.6,0,0,1-3.1,6.071,15.2,15.2,0,0,0-3.06,5.34,2.28,2.28,0,0,0-2.134,1.522H18.52a4.086,4.086,0,0,0,.536-.842l2.768-.461a2.41,2.41,0,0,0-.4-4.788H19.271V31.929h1.523a3.045,3.045,0,1,0,0-6.09H19.271V24.316ZM16.226,13.658a3.045,3.045,0,0,0,0,6.09h1.523v3.045H7.271a15.079,15.079,0,0,1-.18-2.284A11.435,11.435,0,0,1,17.748,9.115v4.543ZM34.5,19.749H23.839V15.181H20.794a1.523,1.523,0,0,1,0-3.045h3.045V6.045h1.755a2.083,2.083,0,0,0,1.2,1.025l2.758.92a4.807,4.807,0,0,1,1.842,1.134,2.8,2.8,0,0,0-.416-.033,2.566,2.566,0,0,0-2.228,3.839A10.534,10.534,0,0,0,34.5,17.666ZM37.872,16.7a9.008,9.008,0,0,1-7.8-4.53,1.043,1.043,0,0,1,.906-1.56,1.238,1.238,0,0,1,1.114.689A4.241,4.241,0,0,0,35.9,13.658h1.642V12.136H35.9a2.728,2.728,0,0,1-1.607-.525l-.015-.094a6.326,6.326,0,0,0-4.249-4.972l-2.758-.92a.566.566,0,0,1,.18-1.1h1.62a12.2,12.2,0,0,1,10.17,5.443,13.777,13.777,0,0,0,1.717,2.1l1.208,1.208a1.535,1.535,0,0,0-.056.39v5.775L40.447,17.77A3.619,3.619,0,0,0,37.872,16.7Zm5.761,4.568V13.658h3.045v7.613Z" transform="translate(0)"/>
    </g>
  </g>
</svg>
