<svg xmlns="http://www.w3.org/2000/svg" xmlns:xlink="http://www.w3.org/1999/xlink" width="93.656" height="93.656" viewBox="0 0 93.656 93.656">
  <defs>
    <filter id="Trazado_982547" x="0" y="0" width="93.656" height="93.656" filterUnits="userSpaceOnUse">
      <feOffset dy="3" input="SourceAlpha"/>
      <feGaussianBlur stdDeviation="3" result="blur"/>
      <feFlood flood-opacity="0.161"/>
      <feComposite operator="in" in2="blur"/>
      <feComposite in="SourceGraphic"/>
    </filter>
  </defs>
  <g id="Grupo_1179917" data-name="Grupo 1179917" transform="translate(-608.461 -1576)">
    <g id="Grupo_1173052" data-name="Grupo 1173052" transform="translate(419.291 -3706.832)">
      <g id="Grupo_1172067" data-name="Grupo 1172067" transform="translate(198.17 5288.832)">
        <g id="Grupo_1164308" data-name="Grupo 1164308" transform="translate(0 0)">
          <g id="Grupo_1163948" data-name="Grupo 1163948" transform="translate(0)">
            <g id="Grupo_1158168" data-name="Grupo 1158168" transform="translate(0)">
              <g id="Grupo_1152576" data-name="Grupo 1152576">
                <g id="Grupo_1148633" data-name="Grupo 1148633">
                  <g id="Grupo_1148525" data-name="Grupo 1148525">
                    <g transform="matrix(1, 0, 0, 1, -9, -6)" filter="url(#Trazado_982547)">
                      <g id="Trazado_982547-2" data-name="Trazado 982547" transform="translate(9 6)" fill="#e9f9fd">
                        <path d="M 37.8281364440918 74.15627288818359 C 32.92320251464844 74.15627288818359 28.16579246520996 73.19596862792969 23.68804740905762 71.30204772949219 C 19.36230278015137 69.47240447998047 15.47705841064453 66.85280609130859 12.1402702331543 63.51601409912109 C 8.803469657897949 60.17921447753906 6.1838698387146 56.29397964477539 4.354236602783203 51.96822357177734 C 2.460303068161011 47.49048233032227 1.500003099441528 42.73307037353516 1.500003099441528 37.8281364440918 C 1.500003099441528 32.92321395874023 2.460303068161011 28.16579246520996 4.354236602783203 23.68804740905762 C 6.1838698387146 19.36230278015137 8.803469657897949 15.47706985473633 12.1402702331543 12.1402702331543 C 15.47706985473633 8.803469657897949 19.36230278015137 6.1838698387146 23.68804740905762 4.354236602783203 C 28.16579246520996 2.460303068161011 32.92321395874023 1.500003099441528 37.8281364440918 1.500003099441528 C 42.73307037353516 1.500003099441528 47.49048233032227 2.460303068161011 51.96822357177734 4.354236602783203 C 56.29397964477539 6.1838698387146 60.17921447753906 8.803469657897949 63.51601409912109 12.1402702331543 C 66.85280609130859 15.47705841064453 69.47240447998047 19.36230278015137 71.30204772949219 23.68804740905762 C 73.19596862792969 28.16579246520996 74.15627288818359 32.92320251464844 74.15627288818359 37.8281364440918 C 74.15627288818359 42.73307037353516 73.19596862792969 47.49048233032227 71.30204772949219 51.96822357177734 C 69.47240447998047 56.29397964477539 66.85280609130859 60.17921447753906 63.51601409912109 63.51601409912109 C 60.17921447753906 66.85280609130859 56.29397964477539 69.47240447998047 51.96822357177734 71.30204772949219 C 47.49048233032227 73.19596862792969 42.73307037353516 74.15627288818359 37.8281364440918 74.15627288818359 Z" stroke="none"/>
                        <path d="M 37.8281364440918 3 C 33.12504959106445 3 28.56423568725586 3.920433044433594 24.27237319946289 5.735733032226562 C 20.12542343139648 7.48974609375 16.40044784545898 10.00139617919922 13.20092391967773 13.20092391967773 C 10.00139617919922 16.40044784545898 7.48974609375 20.12542343139648 5.735733032226562 24.27237319946289 C 3.920433044433594 28.56423568725586 3 33.12504959106445 3 37.8281364440918 C 3 42.53122329711914 3.920433044433594 47.09203720092773 5.735733032226562 51.3838996887207 C 7.48974609375 55.53084945678711 10.00139617919922 59.25582122802734 13.20092391967773 62.45534896850586 C 16.40044784545898 65.65487670898438 20.12542343139648 68.16652679443359 24.27237319946289 69.92053985595703 C 28.56423568725586 71.73583984375 33.12504959106445 72.65627288818359 37.8281364440918 72.65627288818359 C 42.53122329711914 72.65627288818359 47.09203720092773 71.73583984375 51.3838996887207 69.92053985595703 C 55.53084945678711 68.16652679443359 59.25582122802734 65.65487670898438 62.45534896850586 62.45534896850586 C 65.65487670898438 59.25582122802734 68.16652679443359 55.53084945678711 69.92053985595703 51.3838996887207 C 71.73583984375 47.09203720092773 72.65627288818359 42.53122329711914 72.65627288818359 37.8281364440918 C 72.65627288818359 33.12504959106445 71.73583984375 28.56423568725586 69.92053985595703 24.27237319946289 C 68.16652679443359 20.12542343139648 65.65487670898438 16.40044784545898 62.45534896850586 13.20092391967773 C 59.25582122802734 10.00139617919922 55.53084945678711 7.48974609375 51.3838996887207 5.735733032226562 C 47.09203720092773 3.920433044433594 42.53122329711914 3 37.8281364440918 3 M 37.8281364440918 0 C 58.72003555297852 0 75.65627288818359 16.93623733520508 75.65627288818359 37.8281364440918 C 75.65627288818359 58.72003555297852 58.72003555297852 75.65627288818359 37.8281364440918 75.65627288818359 C 16.93623733520508 75.65627288818359 0 58.72003555297852 0 37.8281364440918 C 0 16.93623733520508 16.93623733520508 0 37.8281364440918 0 Z" stroke="none" fill="#1d7083"/>
                      </g>
                    </g>
                  </g>
                </g>
              </g>
            </g>
          </g>
        </g>
      </g>
    </g>
    <g id="comments" transform="translate(633.461 1594.397)">
      <path id="Trazado_1033184" data-name="Trazado 1033184" d="M125.923,11.549H102.252a5.63,5.63,0,0,0-5.614,5.614v1.91h21.413a5.63,5.63,0,0,1,5.614,5.614v14h2.259a5.63,5.63,0,0,0,5.614-5.614V17.163a5.63,5.63,0,0,0-5.614-5.614Z" transform="translate(-88.371 -7.029)" fill="#6c7ed6"/>
      <path id="Trazado_1033185" data-name="Trazado 1033185" d="M121.943,96.5H98.272a5.566,5.566,0,0,0-1.634.245v.012h21.413a5.63,5.63,0,0,1,5.614,5.614v14h2.259a5.566,5.566,0,0,0,1.634-.245V102.118A5.63,5.63,0,0,0,121.943,96.5Z" transform="translate(-88.371 -84.716)" fill="#4f67d2"/>
      <path id="Trazado_1033186" data-name="Trazado 1033186" d="M36.894,96.5H13.223a5.63,5.63,0,0,0-5.614,5.614v15.906a5.63,5.63,0,0,0,5.614,5.614H27.43a.947.947,0,0,1,.924,1.16,23.785,23.785,0,0,1-1.806,5.039.863.863,0,0,0,1.227,1.117,31.667,31.667,0,0,0,7.743-6.669,1.776,1.776,0,0,1,1.375-.647,5.63,5.63,0,0,0,5.614-5.614V102.118A5.63,5.63,0,0,0,36.894,96.5Z" transform="translate(-6.958 -84.716)" fill="#60b8fe"/>
      <path id="Trazado_1033187" data-name="Trazado 1033187" d="M233.46,414.853a.947.947,0,0,0-.924-1.16H228.9a.947.947,0,0,1,.924,1.16,23.784,23.784,0,0,1-1.806,5.039.863.863,0,0,0,1.227,1.117c.82-.508,1.774-1.147,2.782-1.919A23.691,23.691,0,0,0,233.46,414.853Z" transform="translate(-208.429 -374.772)" fill="#23a8fe"/>
      <path id="Trazado_1033188" data-name="Trazado 1033188" d="M11.245,118.024V102.119A5.63,5.63,0,0,1,16.858,96.5H13.223a5.63,5.63,0,0,0-5.614,5.614v15.906a5.63,5.63,0,0,0,5.614,5.614h3.636A5.63,5.63,0,0,1,11.245,118.024Z" transform="translate(-6.958 -84.717)" fill="#23a8fe"/>
      <g id="Grupo_1179916" data-name="Grupo 1179916" transform="translate(6.57 23.948)">
        <circle id="Elipse_13261" data-name="Elipse 13261" cx="1.863" cy="1.863" r="1.863" fill="#dfebfa"/>
        <circle id="Elipse_13262" data-name="Elipse 13262" cx="1.863" cy="1.863" r="1.863" transform="translate(6.017)" fill="#dfebfa"/>
        <circle id="Elipse_13263" data-name="Elipse 13263" cx="1.863" cy="1.863" r="1.863" transform="translate(12.034)" fill="#dfebfa"/>
        <circle id="Elipse_13264" data-name="Elipse 13264" cx="1.863" cy="1.863" r="1.863" transform="translate(18.05)" fill="#dfebfa"/>
      </g>
      <path id="Trazado_1033189" data-name="Trazado 1033189" d="M78.663,240.525a1.862,1.862,0,0,1,.931-1.613,1.863,1.863,0,1,0,0,3.226A1.862,1.862,0,0,1,78.663,240.525Z" transform="translate(-70.23 -214.714)" fill="#b1dbfc"/>
      <path id="Trazado_1033190" data-name="Trazado 1033190" d="M149,240.525a1.862,1.862,0,0,1,.931-1.613,1.863,1.863,0,1,0,0,3.226A1.862,1.862,0,0,1,149,240.525Z" transform="translate(-134.551 -214.714)" fill="#b1dbfc"/>
      <path id="Trazado_1033191" data-name="Trazado 1033191" d="M219.337,240.525a1.862,1.862,0,0,1,.931-1.613,1.863,1.863,0,1,0,0,3.226A1.862,1.862,0,0,1,219.337,240.525Z" transform="translate(-198.871 -214.714)" fill="#b1dbfc"/>
      <path id="Trazado_1033192" data-name="Trazado 1033192" d="M289.674,240.525a1.862,1.862,0,0,1,.931-1.613,1.863,1.863,0,1,0,0,3.226A1.862,1.862,0,0,1,289.674,240.525Z" transform="translate(-263.191 -214.714)" fill="#b1dbfc"/>
      <path id="Trazado_1033193" data-name="Trazado 1033193" d="M69.191,233.481a2.5,2.5,0,1,0,2.5-2.5A2.507,2.507,0,0,0,69.191,233.481Zm3.726,0A1.221,1.221,0,1,1,71.7,232.26,1.223,1.223,0,0,1,72.917,233.481Z" transform="translate(-63.272 -207.686)"/>
      <path id="Trazado_1033194" data-name="Trazado 1033194" d="M144.538,233.481a2.5,2.5,0,1,0-2.5,2.5A2.507,2.507,0,0,0,144.538,233.481Zm-3.726,0a1.221,1.221,0,1,1,1.221,1.221A1.223,1.223,0,0,1,140.812,233.481Z" transform="translate(-127.593 -207.686)"/>
      <path id="Trazado_1033195" data-name="Trazado 1033195" d="M214.875,233.481a2.5,2.5,0,1,0-2.5,2.5A2.507,2.507,0,0,0,214.875,233.481Zm-3.726,0a1.221,1.221,0,1,1,1.221,1.221A1.223,1.223,0,0,1,211.149,233.481Z" transform="translate(-191.914 -207.686)"/>
      <path id="Trazado_1033196" data-name="Trazado 1033196" d="M285.212,233.481a2.5,2.5,0,1,0-2.5,2.5A2.507,2.507,0,0,0,285.212,233.481Zm-3.726,0a1.221,1.221,0,1,1,1.221,1.221A1.223,1.223,0,0,1,281.486,233.481Z" transform="translate(-256.234 -207.686)"/>
      <path id="Trazado_1033197" data-name="Trazado 1033197" d="M37.542,3.863H13.871a6.262,6.262,0,0,0-6.255,6.255V11.13H6.255A6.263,6.263,0,0,0,0,17.386V33.291a6.262,6.262,0,0,0,6.255,6.255h6.688a.642.642,0,0,0,0-1.283H6.255a4.978,4.978,0,0,1-4.972-4.972V17.386a4.978,4.978,0,0,1,4.972-4.972H29.927A4.978,4.978,0,0,1,34.9,17.386V33.291a4.978,4.978,0,0,1-4.972,4.972,2.407,2.407,0,0,0-1.872.882,31.052,31.052,0,0,1-7.584,6.53.221.221,0,0,1-.314-.289,24.521,24.521,0,0,0,1.854-5.175,1.588,1.588,0,0,0-1.549-1.948H15.937a.642.642,0,1,0,0,1.283h4.525a.305.305,0,0,1,.3.371,23.23,23.23,0,0,1-1.757,4.9,1.505,1.505,0,0,0,2.141,1.945,32.348,32.348,0,0,0,7.9-6.808,1.129,1.129,0,0,1,.879-.412,6.262,6.262,0,0,0,6.255-6.255V32.279h1.36A6.262,6.262,0,0,0,43.8,26.024V19.568a.642.642,0,0,0-1.283,0v6.456A4.978,4.978,0,0,1,37.542,31h-1.36V17.386a6.262,6.262,0,0,0-6.255-6.255H8.9V10.118a4.978,4.978,0,0,1,4.972-4.972H37.542a4.978,4.978,0,0,1,4.972,4.972v6.456a.642.642,0,1,0,1.283,0V10.118a6.262,6.262,0,0,0-6.255-6.255Z" transform="translate(0)"/>
    </g>
  </g>
</svg>
